<svg width="20" height="21" viewBox="0 0 20 21" fill="none" xmlns="http://www.w3.org/2000/svg">
<line x1="0.5" y1="-0.5" x2="13.7947" y2="-0.5" transform="matrix(-0.721387 0.692532 -0.721387 -0.692532 14.9131 5.5199)" stroke="#818F9F" stroke-linecap="round"/>
<line x1="7.92578" y1="15.7458" x2="5.17578" y2="15.7458" stroke="#818F9F" stroke-linecap="round"/>
<line x1="0.5" y1="-0.5" x2="3.25" y2="-0.5" transform="matrix(0 1 1 0 5.31152 12.0465)" stroke="#818F9F" stroke-linecap="round"/>
<line x1="12.1699" y1="5.45874" x2="14.9199" y2="5.45874" stroke="#818F9F" stroke-linecap="round"/>
<line x1="0.5" y1="-0.5" x2="3.25" y2="-0.5" transform="matrix(0 -1 -1 0 14.8262 9.2168)" stroke="#818F9F" stroke-linecap="round"/>
<line x1="0.5" y1="-0.5" x2="13.7947" y2="-0.5" transform="matrix(0.721387 0.692532 0.721387 -0.692532 5.1084 5.51929)" stroke="#818F9F" stroke-linecap="round"/>
<line x1="0.5" y1="-0.5" x2="3.25" y2="-0.5" transform="matrix(1 0 0 -1 11.5957 15.2452)" stroke="#818F9F" stroke-linecap="round"/>
<line x1="15.21" y1="12.5459" x2="15.21" y2="15.2959" stroke="#818F9F" stroke-linecap="round"/>
<line x1="0.5" y1="-0.5" x2="3.25" y2="-0.5" transform="matrix(-1 0 0 1 8.35156 5.95813)" stroke="#818F9F" stroke-linecap="round"/>
<line x1="4.69531" y1="8.71619" x2="4.69531" y2="5.96619" stroke="#818F9F" stroke-linecap="round"/>
</svg>
