<svg width="20" height="20" viewBox="0 0 20 20" fill="none" xmlns="http://www.w3.org/2000/svg">
<path d="M19.5228 3.44653H8.42371C8.15967 3.44653 7.94653 3.23923 7.94653 2.98242C7.94653 2.72561 8.15967 2.51831 8.42371 2.51831H19.5228C19.7868 2.51831 20 2.72561 20 2.98242C20 3.23923 19.7868 3.44653 19.5228 3.44653Z" fill="#818181"/>
<path d="M3.24797 3.44653H0.477175C0.213138 3.44653 0 3.23923 0 2.98242C0 2.72561 0.213138 2.51831 0.477175 2.51831H3.24797C3.51201 2.51831 3.72515 2.72561 3.72515 2.98242C3.72515 3.23923 3.51201 3.44653 3.24797 3.44653Z" fill="#818181"/>
<path d="M5.84057 5.96229C4.14819 5.96229 2.77393 4.62565 2.77393 2.98269C2.77393 1.33664 4.14819 0 5.84057 0C7.52977 0 8.90404 1.33664 8.90404 2.98269C8.90086 4.62565 7.52977 5.96229 5.84057 5.96229ZM5.84057 0.928223C4.67626 0.928223 3.72828 1.85026 3.72828 2.98269C3.72828 4.11512 4.67626 5.03406 5.84057 5.03406C7.00488 5.03406 7.94969 4.11512 7.94969 2.98269C7.94651 1.85026 7.0017 0.928223 5.84057 0.928223Z" fill="#818181"/>
<path d="M19.5228 10.4639H15.4222C15.1582 10.4639 14.9451 10.2566 14.9451 9.99976C14.9451 9.74295 15.1582 9.53564 15.4222 9.53564H19.5228C19.7868 9.53564 19.9999 9.74295 19.9999 9.99976C19.9999 10.2566 19.7868 10.4639 19.5228 10.4639Z" fill="#818181"/>
<path d="M10.2465 10.4639H0.477175C0.213138 10.4639 0 10.2566 0 9.99976C0 9.74295 0.213138 9.53564 0.477175 9.53564H10.2465C10.5106 9.53564 10.7237 9.74295 10.7237 9.99976C10.7237 10.2566 10.5106 10.4639 10.2465 10.4639Z" fill="#818181"/>
<path d="M12.8391 12.9796C11.1467 12.9796 9.77246 11.643 9.77246 10C9.77246 8.35398 11.1467 7.01733 12.8391 7.01733C14.5283 7.01733 15.9026 8.35398 15.9026 10C15.8994 11.643 14.5251 12.9796 12.8391 12.9796ZM12.8391 7.94556C11.6748 7.94556 10.7268 8.86759 10.7268 10C10.7268 11.1325 11.6748 12.0514 12.8391 12.0514C14.0034 12.0514 14.9482 11.1325 14.9482 10C14.945 8.86759 14.0002 7.94556 12.8391 7.94556Z" fill="#818181"/>
<path d="M19.5228 17.4814H9.69617C9.43213 17.4814 9.21899 17.2741 9.21899 17.0173C9.21899 16.7605 9.43213 16.5532 9.69617 16.5532H19.5228C19.7868 16.5532 20 16.7605 20 17.0173C20 17.2741 19.7868 17.4814 19.5228 17.4814Z" fill="#818181"/>
<path d="M4.52044 17.4814H0.477175C0.213138 17.4814 0 17.2741 0 17.0173C0 16.7605 0.213138 16.5532 0.477175 16.5532H4.52044C4.78448 16.5532 4.99762 16.7605 4.99762 17.0173C4.99762 17.2741 4.78448 17.4814 4.52044 17.4814Z" fill="#818181"/>
<path d="M7.11303 19.9999C5.42065 19.9999 4.04639 18.6601 4.04639 17.0172C4.04639 15.3742 5.42065 14.0376 7.11303 14.0376C8.80223 14.0376 10.1765 15.3742 10.1765 17.0172C10.1733 18.6632 8.80223 19.9999 7.11303 19.9999ZM7.11303 14.9658C5.94872 14.9658 5.00074 15.8848 5.00074 17.0172C5.00074 18.1496 5.94872 19.0717 7.11303 19.0717C8.27734 19.0717 9.22215 18.1496 9.22215 17.0172C9.21897 15.8848 8.27416 14.9658 7.11303 14.9658Z" fill="#818181"/>
</svg>
