<svg width="11" height="11" viewBox="0 0 11 11" fill="none" xmlns="http://www.w3.org/2000/svg">
<path d="M6.19838 10.9753C5.8323 11.0075 5.14648 11.009 4.78155 10.9753C0.657054 10.5959 -1.42185 5.47081 1.08976 2.19277C4.44343 -2.18396 11.3698 0.45364 10.9846 6.02819C10.8184 8.4338 8.6269 10.7628 6.19838 10.9753ZM5.42295 2.88643C4.50585 3.02692 4.6705 4.45903 5.71091 4.2814C6.50893 4.14512 6.38525 2.73943 5.42295 2.88643ZM5.00365 4.87439C4.88303 4.88587 4.44802 4.93219 4.43462 5.07422C4.40782 5.35941 4.93089 5.13508 4.96459 5.5022L4.63298 7.48403C4.70956 8.1509 5.41568 8.24737 5.96135 8.08352C6.12294 8.03491 6.66019 7.72444 6.52655 7.53495C6.43962 7.41168 6.23208 7.6096 6.12486 7.63525C5.76184 7.72215 5.75457 7.52232 5.78214 7.21721C5.83345 6.65256 6.09346 5.96962 6.11873 5.41109C6.14515 4.82347 5.42066 4.83457 5.00365 4.87477V4.87439Z" fill="#8A8C8E"/>
</svg>
