<svg xmlns="http://www.w3.org/2000/svg" width="17" height="17" viewBox="0 0 17 17" fill="none">
  <path d="M14.6572 7.82115H4.04378L10.3962 2.39258C10.4978 2.30508 10.4361 2.14258 10.3019 2.14258H8.69655C8.62581 2.14258 8.55869 2.16758 8.50609 2.21222L1.65118 8.06758C1.5884 8.12115 1.53805 8.18739 1.50354 8.26179C1.46903 8.3362 1.45117 8.41704 1.45117 8.49883C1.45117 8.58062 1.46903 8.66146 1.50354 8.73587C1.53805 8.81027 1.5884 8.8765 1.65118 8.93008L8.54599 14.8211C8.5732 14.8444 8.60585 14.8569 8.64032 14.8569H10.3001C10.4343 14.8569 10.496 14.6926 10.3944 14.6069L4.04378 9.17829H14.6572C14.737 9.17829 14.8023 9.11401 14.8023 9.03544V7.96401C14.8023 7.88544 14.737 7.82115 14.6572 7.82115Z" fill="black" fill-opacity="0.85"/>
</svg>