<svg xmlns="http://www.w3.org/2000/svg" width="25" height="24" viewBox="0 0 25 24" fill="none">
  <path d="M9.4101 20.67C9.2201 20.67 9.0301 20.6 8.8801 20.45C8.5901 20.16 8.5901 19.68 8.8801 19.39L15.4001 12.87C15.8801 12.39 15.8801 11.61 15.4001 11.13L8.8801 4.61002C8.5901 4.32002 8.5901 3.84002 8.8801 3.55002C9.1701 3.26002 9.6501 3.26002 9.9401 3.55002L16.4601 10.07C16.9701 10.58 17.2601 11.27 17.2601 12C17.2601 12.73 16.9801 13.42 16.4601 13.93L9.9401 20.45C9.7901 20.59 9.6001 20.67 9.4101 20.67Z" fill="#292D32"/>
</svg>