<svg width="24" height="30" viewBox="0 0 24 30" fill="none" xmlns="http://www.w3.org/2000/svg">
<path fill-rule="evenodd" clip-rule="evenodd" d="M15.0104 1.69284C14.367 0.673183 13.2589 0 12 0C10.741 0 9.63293 0.673198 8.98948 1.69288C4.48974 3.05063 1.2 7.37513 1.2 12.5V17.0892C0.44952 18.0552 0 19.2854 0 20.625C0 23.7316 2.41766 26.25 5.4 26.25L8.4 26.25C8.4 27.2446 8.77929 28.1984 9.45442 28.9017C10.1295 29.6049 11.0452 30 12 30C12.9548 30 13.8705 29.6049 14.5456 28.9017C15.2207 28.1984 15.6 27.2446 15.6 26.25L18.6 26.25C21.5823 26.25 24 23.7316 24 20.625C24 19.2854 23.5505 18.0552 22.8 17.0892V12.5C22.8 7.37508 19.5102 3.05055 15.0104 1.69284ZM3.6 17.0892C3.6 17.6616 3.41139 18.2168 3.06569 18.6618C2.64831 19.1991 2.4 19.8784 2.4 20.625C2.4 22.3509 3.74315 23.75 5.4 23.75H18.6C20.2569 23.75 21.6 22.3509 21.6 20.625C21.6 19.8784 21.3517 19.1991 20.9343 18.6618C20.5886 18.2168 20.4 17.6616 20.4 17.0892V12.5C20.4 7.66751 16.6392 3.75 12 3.75C7.36081 3.75 3.6 7.66751 3.6 12.5V17.0892ZM11.1515 27.1339C10.9264 26.8995 10.8 26.5815 10.8 26.25H13.2C13.2 26.5815 13.0736 26.8995 12.8485 27.1339C12.6235 27.3683 12.3183 27.5 12 27.5C11.6817 27.5 11.3765 27.3683 11.1515 27.1339Z" fill="black"/>
</svg>
