<svg width="138" height="38" viewBox="0 0 138 38" fill="none" xmlns="http://www.w3.org/2000/svg">
<path d="M127.57 37.1866L136.448 29.5502L127.57 28.4362L127.57 37.1866Z" fill="#B01D00"/>
<path d="M13.1897 4.45038C13.8665 2.36954 15.806 0.960938 17.9942 0.960938L132.018 0.96094C134.808 0.96094 137.07 3.22294 137.07 6.01326V26.0813C137.07 28.8716 134.808 31.1336 132.018 31.1336L11.4662 31.1336C8.03306 31.1336 5.59966 27.7832 6.66165 24.5184L13.1897 4.45038Z" fill="#FF4D00"/>
<g clip-path="url(#clip0_668_56291)">
<path d="M98.9405 0.000318721L138.07 -0.228149V31.1431L94.4668 31.4181L98.9405 0.000318721Z" fill="#72A2FF"/>
<g clip-path="url(#clip1_668_56291)">
<mask id="mask0_668_56291" style="mask-type:alpha" maskUnits="userSpaceOnUse" x="110" y="6" width="5" height="7">
<rect x="110.727" y="7.00854" width="1.39113" height="5.90483" transform="rotate(-28.9729 110.727 7.00854)" fill="url(#paint0_linear_668_56291)"/>
</mask>
<g mask="url(#mask0_668_56291)">
<rect x="110.727" y="7.00854" width="1.39113" height="5.90483" transform="rotate(-28.9729 110.727 7.00854)" fill="url(#paint1_linear_668_56291)"/>
<path d="M113.933 9.57656C114.069 9.82464 113.783 10.2419 113.295 10.5085C112.807 10.7751 112.302 10.7902 112.166 10.5421" stroke="#6F5548" stroke-width="0.63154"/>
<path d="M112.808 7.50475C112.943 7.75282 112.681 8.15713 112.223 8.40779C111.764 8.65845 111.282 8.66055 111.146 8.41248" stroke="#6F5548" stroke-width="0.63154"/>
</g>
<path d="M110.744 5.50915C111.051 5.3527 111.427 5.46185 111.602 5.7585L111.991 6.41586L108.459 8.63169C108.039 8.89561 107.483 8.75675 107.236 8.32597C106.987 7.89211 107.152 7.33828 107.598 7.11129L110.744 5.50915Z" fill="url(#paint2_linear_668_56291)"/>
<mask id="mask1_668_56291" style="mask-type:alpha" maskUnits="userSpaceOnUse" x="119" y="5" width="4" height="7">
<rect width="1.39113" height="5.90483" transform="matrix(-0.939017 -0.343871 -0.343871 0.939017 122.641 6.15991)" fill="url(#paint3_linear_668_56291)"/>
</mask>
<g mask="url(#mask1_668_56291)">
<rect width="1.39113" height="5.90483" transform="matrix(-0.939017 -0.343871 -0.343871 0.939017 122.641 6.15991)" fill="url(#paint4_linear_668_56291)"/>
<path d="M119.867 9.19118C119.771 9.45717 120.118 9.82544 120.641 10.0137C121.164 10.202 121.666 10.139 121.762 9.87305" stroke="#6F5548" stroke-width="0.63154"/>
<path d="M120.662 6.97066C120.566 7.23665 120.888 7.59578 121.379 7.7728C121.871 7.94982 122.348 7.87769 122.443 7.61169" stroke="#6F5548" stroke-width="0.63154"/>
</g>
<path d="M122.395 4.68072C122.068 4.57346 121.713 4.7392 121.585 5.05936L121.302 5.76881L125.133 7.4142C125.589 7.61018 126.117 7.38737 126.295 6.92368C126.474 6.45666 126.226 5.93484 125.75 5.77921L122.395 4.68072Z" fill="url(#paint5_linear_668_56291)"/>
<mask id="mask2_668_56291" style="mask-type:alpha" maskUnits="userSpaceOnUse" x="106" y="10" width="25" height="19">
<ellipse cx="118.836" cy="19.5361" rx="11.8476" ry="8.99923" fill="#FFAC32"/>
</mask>
<g mask="url(#mask2_668_56291)">
<ellipse cx="118.836" cy="19.5361" rx="11.8476" ry="8.99923" fill="#FF6501"/>
<ellipse cx="118.827" cy="18.779" rx="11.7763" ry="8.18426" fill="#FF893D"/>
<path d="M109.419 18.8142C109.339 15.5078 111.954 12.7624 115.26 12.682L122.082 12.5162C125.447 12.4344 128.241 15.0958 128.323 18.4606C128.409 22.0234 125.591 24.9817 122.029 25.0683L116.135 25.2116C112.514 25.2996 109.507 22.4354 109.419 18.8142Z" fill="#EF7309"/>
<path d="M109.891 18.6158C109.818 15.5817 112.217 13.0624 115.251 12.9887L122.113 12.8219C125.201 12.7468 127.765 15.1891 127.84 18.2767C127.919 21.546 125.334 24.2608 122.064 24.3402L116.054 24.4863C112.731 24.5671 109.972 21.9387 109.891 18.6158Z" fill="#FFF0E5"/>
<path d="M118.226 18.4601C117.351 20.024 115.508 20.6025 114.132 19.8319C112.755 19.0612 112.285 17.1881 113.161 15.6242C114.037 14.0602 115.879 13.4817 117.255 14.2524C118.632 15.0231 119.102 16.8962 118.226 18.4601Z" fill="#FED4BE" stroke="#F89460" stroke-width="0.63154"/>
<path d="M125.147 18.4059C124.374 19.7868 122.523 20.2631 120.994 19.407C119.464 18.5508 118.903 16.7237 119.676 15.3428C120.449 13.9618 122.3 13.4855 123.829 14.3417C125.359 15.1979 125.92 17.025 125.147 18.4059Z" fill="#FED4BE" stroke="#F48A56" stroke-width="0.63154"/>
<path d="M113.904 16.9346C113.898 16.8531 113.934 16.7736 114 16.7256C115.396 15.713 116.26 15.5163 117.708 16.4271C117.768 16.465 117.807 16.53 117.812 16.6011C117.827 16.7858 117.628 16.912 117.462 16.8296C116.201 16.2035 115.409 16.3643 114.283 17.1132C114.129 17.2151 113.919 17.1182 113.904 16.9346Z" fill="#826559"/>
<path d="M120.328 16.5707C120.321 16.4892 120.358 16.4097 120.424 16.3617C121.819 15.3491 122.684 15.1524 124.131 16.0632C124.192 16.1011 124.231 16.1661 124.236 16.2372C124.251 16.4219 124.051 16.5481 123.886 16.4657C122.625 15.8396 121.833 16.0004 120.706 16.7493C120.553 16.8512 120.343 16.7543 120.328 16.5707Z" fill="#826559"/>
<path d="M109.095 19.9092C109.095 21.0123 108.933 21.9972 108.681 22.695C108.554 23.0453 108.411 23.3064 108.267 23.4741C108.123 23.6429 108.008 23.6851 107.931 23.6851C107.854 23.6851 107.739 23.6429 107.595 23.4741C107.452 23.3064 107.308 23.0453 107.182 22.695C106.929 21.9972 106.767 21.0123 106.767 19.9092C106.767 18.8061 106.929 17.8212 107.182 17.1233C107.308 16.7731 107.452 16.5119 107.595 16.3443C107.739 16.1755 107.854 16.1333 107.931 16.1333C108.008 16.1333 108.123 16.1755 108.267 16.3443C108.411 16.5119 108.554 16.7731 108.681 17.1233C108.933 17.8212 109.095 18.8061 109.095 19.9092Z" stroke="#6F5548" stroke-width="0.63154"/>
<path d="M130.896 20.212C130.896 21.3152 130.734 22.3001 130.481 22.9979C130.355 23.3481 130.211 23.6093 130.068 23.7769C129.924 23.9458 129.809 23.9879 129.732 23.9879C129.655 23.9879 129.54 23.9458 129.396 23.7769C129.252 23.6093 129.109 23.3481 128.982 22.9979C128.73 22.3001 128.568 21.3152 128.568 20.212C128.568 19.1089 128.73 18.124 128.982 17.4262C129.109 17.076 129.252 16.8148 129.396 16.6471C129.54 16.4783 129.655 16.4361 129.732 16.4361C129.809 16.4361 129.924 16.4783 130.068 16.6471C130.211 16.8148 130.355 17.076 130.481 17.4262C130.734 18.124 130.896 19.1089 130.896 20.212Z" stroke="#6F5548" stroke-width="0.63154"/>
<mask id="mask3_668_56291" style="mask-type:alpha" maskUnits="userSpaceOnUse" x="116" y="21" width="7" height="3">
<path d="M116.733 21.2696C116.867 21.1047 117.092 21.0464 117.289 21.1252C118.714 21.6944 119.504 21.945 121.714 21.2946C122.076 21.1883 122.423 21.5163 122.323 21.8794C122.313 21.9167 122.298 21.9537 122.278 21.9871C120.775 24.5506 117.599 23.7552 116.664 21.7309C116.594 21.5781 116.627 21.4003 116.733 21.2696Z" fill="#4A1816"/>
</mask>
<g mask="url(#mask3_668_56291)">
<path d="M116.733 21.2696C116.867 21.1047 117.092 21.0464 117.289 21.1252C118.714 21.6944 119.504 21.945 121.714 21.2946C122.076 21.1883 122.423 21.5163 122.323 21.8794C122.313 21.9167 122.298 21.9537 122.278 21.9871C120.775 24.5506 117.599 23.7552 116.664 21.7309C116.594 21.5781 116.627 21.4003 116.733 21.2696Z" fill="#4A1816"/>
<ellipse cx="119.476" cy="23.3782" rx="2.05615" ry="1.16789" fill="#F25A51"/>
</g>
</g>
<circle cx="125.153" cy="19.4781" r="1.25668" fill="#FFC7C7"/>
<circle cx="113.446" cy="19.4781" r="1.25668" fill="#FFC7C7"/>
<g clip-path="url(#clip2_668_56291)">
<path d="M126.59 26.9625L128.051 31.8281L129.251 30.1208L131.235 30.8455L129.669 26.1343L126.59 26.9625Z" fill="#FF4C00"/>
<g opacity="0.7">
<path d="M127.41 28.3201L127.256 28.3667L128.233 31.5423L128.387 31.4956L127.41 28.3201Z" fill="#FFCE45"/>
</g>
<g opacity="0.7">
<path d="M129.642 26.8868L129.488 26.9348L130.689 30.7129L130.842 30.6649L129.642 26.8868Z" fill="#FFCE45"/>
</g>
<path d="M124.814 26.4448L123.248 30.949L125.387 30.2243L126.485 31.8789L128.311 27.066L124.814 26.4448Z" fill="#FF4C00"/>
<g opacity="0.7">
<path d="M125.207 26.2653L123.746 30.7158L123.899 30.7653L125.361 26.3148L125.207 26.2653Z" fill="#FFCE45"/>
</g>
<g opacity="0.7">
<path d="M127.817 26.7805L126.146 31.4906L126.299 31.5436L127.969 26.8335L127.817 26.7805Z" fill="#FFCE45"/>
</g>
<path d="M122.518 23.2881C122.518 23.0701 123.052 22.8922 123.082 22.6833C123.113 22.469 122.649 22.1493 122.71 21.9459C122.77 21.7389 123.334 21.7189 123.424 21.5246C123.514 21.3284 123.162 20.8925 123.278 20.7127C123.395 20.5329 123.941 20.6691 124.084 20.5075C124.225 20.3459 124.01 19.8282 124.173 19.6884C124.336 19.5485 124.822 19.8319 125.005 19.7156C125.186 19.5994 125.126 19.0436 125.324 18.9546C125.52 18.8656 125.904 19.2743 126.113 19.2144C126.318 19.1544 126.419 18.6041 126.637 18.5732C126.848 18.5442 127.1 19.0436 127.32 19.0436C127.54 19.0436 127.793 18.5442 128.003 18.5732C128.219 18.6041 128.32 19.1544 128.527 19.2144C128.736 19.2743 129.121 18.8675 129.317 18.9546C129.514 19.0436 129.454 19.6012 129.635 19.7156C129.817 19.8319 130.304 19.5485 130.467 19.6884C130.63 19.8282 130.416 20.3459 130.557 20.5075C130.698 20.6691 131.245 20.5311 131.363 20.7127C131.48 20.8925 131.126 21.3284 131.216 21.5246C131.306 21.7189 131.87 21.7389 131.93 21.9459C131.991 22.1493 131.527 22.469 131.559 22.6833C131.588 22.8922 132.123 23.0701 132.123 23.2881C132.123 23.506 131.588 23.684 131.559 23.8929C131.527 24.1072 131.991 24.4268 131.93 24.6303C131.87 24.8373 131.306 24.8573 131.216 25.0516C131.126 25.2478 131.478 25.6837 131.363 25.8635C131.245 26.0433 130.7 25.907 130.557 26.0687C130.416 26.2303 130.63 26.7479 130.467 26.8878C130.304 27.0276 129.818 26.7443 129.635 26.8605C129.454 26.9768 129.514 27.5325 129.317 27.6215C129.121 27.7105 128.736 27.3019 128.527 27.3618C128.322 27.4218 128.221 27.9721 128.003 28.0029C127.793 28.032 127.54 27.5325 127.32 27.5325C127.1 27.5325 126.848 28.032 126.637 28.0029C126.421 27.9721 126.32 27.4218 126.113 27.3618C125.904 27.3019 125.52 27.7087 125.324 27.6215C125.126 27.5325 125.186 26.975 125.005 26.8605C124.824 26.7443 124.336 27.0276 124.173 26.8878C124.01 26.7479 124.225 26.2303 124.084 26.0687C123.943 25.907 123.395 26.0451 123.278 25.8635C123.16 25.6837 123.514 25.2478 123.424 25.0516C123.334 24.8573 122.77 24.8373 122.71 24.6303C122.649 24.4268 123.113 24.1072 123.082 23.8929C123.052 23.684 122.518 23.506 122.518 23.2881Z" fill="#FCAB28"/>
<path d="M127.32 27.1186C129.453 27.1186 131.183 25.4037 131.183 23.2882C131.183 21.1728 129.453 19.4579 127.32 19.4579C125.187 19.4579 123.457 21.1728 123.457 23.2882C123.457 25.4037 125.187 27.1186 127.32 27.1186Z" fill="#FFCE45"/>
<path d="M127.319 27.1967C126.266 27.1967 125.276 26.7899 124.533 26.0525C123.789 25.3151 123.379 24.3326 123.379 23.2901C123.379 22.2476 123.789 21.265 124.533 20.5276C125.276 19.7903 126.267 19.3834 127.319 19.3834C128.372 19.3834 129.361 19.7903 130.105 20.5276C130.848 21.265 131.259 22.2476 131.259 23.2901C131.259 24.3326 130.848 25.3151 130.105 26.0525C129.361 26.7899 128.37 27.1967 127.319 27.1967ZM127.319 19.536C125.231 19.536 123.535 21.2196 123.535 23.2882C123.535 25.3569 125.233 27.0405 127.319 27.0405C129.405 27.0405 131.103 25.3569 131.103 23.2882C131.103 21.2196 129.405 19.536 127.319 19.536Z" fill="#FCAB28"/>
<path d="M127.32 26.0308C128.848 26.0308 130.086 24.803 130.086 23.2884C130.086 21.7737 128.848 20.5459 127.32 20.5459C125.793 20.5459 124.555 21.7737 124.555 23.2884C124.555 24.803 125.793 26.0308 127.32 26.0308Z" fill="#FFD733"/>
<path d="M129.617 22.2023C129.617 22.0279 129.601 21.8572 129.568 21.6919C129.066 20.9981 128.247 20.5459 127.32 20.5459C125.793 20.5459 124.555 21.7736 124.555 23.2884C124.555 23.4627 124.571 23.6334 124.604 23.7987C125.106 24.4925 125.925 24.9447 126.852 24.9447C128.377 24.9447 129.617 23.717 129.617 22.2023Z" fill="#FFE266"/>
<path d="M127.321 26.1107C125.751 26.1107 124.475 24.8448 124.475 23.2883C124.475 21.7318 125.751 20.4659 127.321 20.4659C128.891 20.4659 130.167 21.7318 130.167 23.2883C130.167 24.8448 128.891 26.1107 127.321 26.1107ZM127.321 20.6258C125.839 20.6258 124.636 21.8208 124.636 23.2883C124.636 24.7558 125.841 25.9509 127.321 25.9509C128.801 25.9509 130.006 24.7558 130.006 23.2883C130.006 21.8208 128.801 20.6258 127.321 20.6258Z" fill="#FCAB28"/>
<path d="M125.409 21.0072L125.652 20.397L125.881 21.0145L126.308 21.256L125.872 21.4831L125.628 22.2586L125.399 21.474L124.973 21.2324L125.409 21.0072Z" fill="white"/>
</g>
</g>
</g>
<g clip-path="url(#clip3_668_56291)">
<path d="M34.7325 20.8549V23.0983H18.4922V20.8549C18.4922 17.8638 20.122 15.237 22.5187 13.8373C23.6883 13.147 25.0497 12.7636 26.5069 12.7444C26.526 12.7444 26.5452 12.7444 26.5644 12.7444H26.6027C27.5231 12.7444 28.4051 12.8978 29.2104 13.1854C30.0349 13.473 30.8018 13.8756 31.4729 14.3742C33.4478 15.8506 34.7325 18.1898 34.7325 20.8549Z" fill="#410AE1"/>
<path d="M34.7318 20.8549V23.0983H26.5254V12.7444C26.5446 12.7444 26.5637 12.7444 26.5829 12.7444H26.6213C27.5416 12.7444 28.4236 12.8978 29.2289 13.1854C30.0534 13.473 30.8203 13.8756 31.4914 14.3742C33.4472 15.8506 34.7318 18.1898 34.7318 20.8549Z" fill="#6029FE"/>
<path d="M36.6292 13.5881C35.0569 15.4671 35.0569 19.4744 35.0569 19.4744H17.9922C17.9922 19.4744 17.9922 18.1131 17.6854 16.6175C17.4553 15.5438 17.0718 14.3742 16.4199 13.5881C16.4199 13.5881 20.3314 13.6264 21.9612 16.5408C21.9612 16.5408 22.7473 13.6072 26.5246 9.02467C26.5246 9.02467 26.5246 9.02467 26.5437 9.00549C30.321 13.5881 31.1263 16.5408 31.1263 16.5408C32.7177 13.6456 36.6292 13.5881 36.6292 13.5881Z" fill="#FBDC00"/>
<path d="M36.63 13.5881C35.0578 15.4671 35.0578 19.4744 35.0578 19.4744H26.5254V9.02467C26.5254 9.02467 26.5254 9.02467 26.5446 9.00549C30.3218 13.5881 31.1271 16.5408 31.1271 16.5408C32.7186 13.6456 36.63 13.5881 36.63 13.5881Z" fill="#F8CA10"/>
<path d="M28.5766 19.2827C28.5766 19.3402 28.5766 19.3786 28.5766 19.4361H24.5117C24.5117 19.3786 24.5117 19.3402 24.5117 19.2827C24.5117 17.2695 25.4129 15.6205 26.5058 15.5822C26.525 15.5822 26.525 15.5822 26.5442 15.5822C27.6754 15.5822 28.5766 17.2311 28.5766 19.2827Z" fill="#410AE1"/>
<path d="M28.577 19.2827C28.577 19.3402 28.577 19.3786 28.577 19.4361H26.5254V15.5822C26.5446 15.5822 26.5446 15.5822 26.5637 15.5822C27.6758 15.5822 28.577 17.2311 28.577 19.2827Z" fill="#6029FE"/>
<path d="M19.6796 19.4936H17.9923C17.9923 19.4936 17.9923 18.1323 17.6855 16.6367C18.6634 16.6175 19.4687 17.8447 19.6796 19.4936Z" fill="#410AE1"/>
<path d="M33.3887 19.4936H35.0568C35.0568 19.4936 35.0568 18.1323 35.3636 16.6367C34.4049 16.6175 33.5804 17.8447 33.3887 19.4936Z" fill="#6029FE"/>
<path d="M35.1145 23.2901H17.9922V19.2827H35.1145" fill="#FBDC00"/>
<path d="M35.1157 19.2827H26.5449V23.2901H35.1157V19.2827Z" fill="#F8CA10"/>
<path d="M35.4216 19.2827H17.5898V19.6662H35.4216V19.2827Z" fill="#F7B818"/>
<path d="M35.4216 22.9066H17.5898V23.2901H35.4216V22.9066Z" fill="#F7B818"/>
<path d="M26.545 22.1013C26.9474 22.1013 27.2736 21.7751 27.2736 21.3727C27.2736 20.9703 26.9474 20.644 26.545 20.644C26.1426 20.644 25.8164 20.9703 25.8164 21.3727C25.8164 21.7751 26.1426 22.1013 26.545 22.1013Z" fill="#F7B818"/>
<path d="M24.7614 21.3727C24.7614 21.6411 24.5505 21.852 24.2821 21.852C24.0136 21.852 23.8027 21.6411 23.8027 21.3727C23.8027 21.1042 24.0136 20.8933 24.2821 20.8933C24.5505 20.8933 24.7614 21.1042 24.7614 21.3727Z" fill="#F7B818"/>
<path d="M23.2087 21.3727C23.2087 21.6411 22.9978 21.852 22.7293 21.852C22.4609 21.852 22.25 21.6411 22.25 21.3727C22.25 21.1042 22.4609 20.8933 22.7293 20.8933C22.9978 20.8933 23.2087 21.1042 23.2087 21.3727Z" fill="#F7B818"/>
<path d="M21.654 21.3727C21.654 21.6411 21.4431 21.852 21.1747 21.852C20.9062 21.852 20.6953 21.6411 20.6953 21.3727C20.6953 21.1042 20.9062 20.8933 21.1747 20.8933C21.4431 20.8933 21.654 21.1042 21.654 21.3727Z" fill="#F7B818"/>
<path d="M20.1208 21.3727C20.1208 21.6411 19.9099 21.852 19.6415 21.852C19.373 21.852 19.1621 21.6411 19.1621 21.3727C19.1621 21.1042 19.373 20.8933 19.6415 20.8933C19.8907 20.8933 20.1208 21.1042 20.1208 21.3727Z" fill="#F7B818"/>
<path d="M33.945 21.3727C33.945 21.6411 33.7341 21.852 33.4657 21.852C33.1972 21.852 32.9863 21.6411 32.9863 21.3727C32.9863 21.1042 33.1972 20.8933 33.4657 20.8933C33.7341 20.8933 33.945 21.1042 33.945 21.3727Z" fill="#F7B818"/>
<path d="M32.3923 21.3727C32.3923 21.6411 32.1814 21.852 31.9129 21.852C31.6445 21.852 31.4336 21.6411 31.4336 21.3727C31.4336 21.1042 31.6445 20.8933 31.9129 20.8933C32.1814 20.8933 32.3923 21.1042 32.3923 21.3727Z" fill="#F7B818"/>
<path d="M30.8396 21.3727C30.8396 21.6411 30.6286 21.852 30.3602 21.852C30.0918 21.852 29.8809 21.6411 29.8809 21.3727C29.8809 21.1042 30.0918 20.8933 30.3602 20.8933C30.6286 20.8933 30.8396 21.1042 30.8396 21.3727Z" fill="#F7B818"/>
<path d="M29.2849 21.3727C29.2849 21.6411 29.074 21.852 28.8055 21.852C28.5371 21.852 28.3262 21.6411 28.3262 21.3727C28.3262 21.1042 28.5371 20.8933 28.8055 20.8933C29.074 20.8933 29.2849 21.1042 29.2849 21.3727Z" fill="#F7B818"/>
<path d="M26.1019 12.2459C25.9102 12.2459 25.7568 12.1692 25.6609 12.0925C25.6993 11.9967 25.7568 11.92 25.7568 11.92C25.7568 11.92 25.6993 11.9775 25.5842 12.0158C25.4309 11.8241 25.4117 11.5748 25.4117 11.5748C25.4117 11.5748 25.3925 11.8241 25.2391 12.0158C25.1816 11.9967 25.1432 11.9583 25.0857 11.92C25.1432 11.9775 25.1624 12.035 25.2008 12.0734C25.1049 12.1692 24.9515 12.2459 24.7598 12.2459C24.9515 12.2459 25.1049 12.3226 25.2008 12.3993C25.1624 12.4952 25.1049 12.5719 25.1049 12.5719C25.1049 12.5719 25.1624 12.5144 25.2775 12.476C25.4309 12.6677 25.45 12.917 25.45 12.917C25.45 12.917 25.4692 12.6677 25.6226 12.476C25.6801 12.4952 25.7185 12.5335 25.776 12.5719C25.7185 12.5144 25.6993 12.4568 25.6609 12.4185C25.7568 12.3226 25.891 12.2459 26.1019 12.2459Z" fill="white"/>
<path d="M32.2387 17.5762C32.0469 17.5762 31.8935 17.4995 31.7977 17.4228C31.836 17.327 31.8935 17.2503 31.8935 17.2503C31.8935 17.2503 31.836 17.3078 31.721 17.3462C31.5676 17.1544 31.5484 16.9052 31.5484 16.9052C31.5484 16.9052 31.5292 17.1544 31.3758 17.3462C31.3183 17.327 31.28 17.2886 31.2224 17.2503C31.28 17.3078 31.2991 17.3653 31.3375 17.4037C31.2416 17.4995 31.0882 17.5762 30.8965 17.5762C31.0882 17.5762 31.2416 17.6529 31.3375 17.7296C31.2991 17.8255 31.2416 17.9022 31.2416 17.9022C31.2416 17.9022 31.2991 17.8447 31.4142 17.8063C31.5676 17.9981 31.5867 18.2473 31.5867 18.2473C31.5867 18.2473 31.6059 17.9981 31.7593 17.8063C31.8168 17.8255 31.8552 17.8638 31.9127 17.9022C31.8552 17.8447 31.836 17.7872 31.7977 17.7488C31.8935 17.6529 32.0469 17.5762 32.2387 17.5762Z" fill="white"/>
<path d="M19.6406 16.0806C19.5447 16.0806 19.468 16.0422 19.4296 16.0039C19.4488 15.9464 19.4872 15.9272 19.4872 15.9272C19.4872 15.9272 19.4488 15.9464 19.4105 15.9656C19.3338 15.8697 19.3338 15.7546 19.3338 15.7546C19.3338 15.7546 19.3146 15.8697 19.2379 15.9656C19.2187 15.9464 19.1804 15.9464 19.1612 15.908C19.1804 15.9272 19.1996 15.9656 19.2187 15.9847C19.1612 16.0422 19.1037 16.0614 19.0078 16.0614C19.1037 16.0614 19.1804 16.0998 19.2187 16.1381C19.1996 16.1956 19.1612 16.2148 19.1612 16.2148C19.1612 16.2148 19.1996 16.1956 19.2379 16.1765C19.2954 16.2915 19.2954 16.4066 19.2954 16.4066C19.2954 16.4066 19.3146 16.2915 19.3913 16.1956C19.4105 16.2148 19.4488 16.2148 19.468 16.2532C19.4488 16.234 19.4296 16.1956 19.4105 16.1765C19.468 16.1189 19.5255 16.0806 19.6406 16.0806Z" fill="white"/>
<path d="M28.2128 20.6632C28.1169 20.6632 28.0403 20.6249 28.0019 20.5865C28.0211 20.529 28.0594 20.5098 28.0594 20.5098C28.0594 20.5098 28.0211 20.529 27.9827 20.5482C27.906 20.4523 27.906 20.3373 27.906 20.3373C27.906 20.3373 27.8869 20.4523 27.8102 20.5482C27.791 20.529 27.7526 20.529 27.7335 20.4907C27.7526 20.5098 27.7718 20.5482 27.791 20.5674C27.7335 20.6249 27.6759 20.6441 27.5801 20.6441C27.6759 20.6441 27.7526 20.6824 27.791 20.7208C27.7718 20.7783 27.7335 20.7975 27.7335 20.7975C27.7335 20.7975 27.7718 20.7783 27.8102 20.7591C27.8869 20.855 27.8869 20.97 27.8869 20.97C27.8869 20.97 27.906 20.855 27.9827 20.7591C28.0019 20.7783 28.0403 20.7783 28.0594 20.8166C28.0403 20.7975 28.0211 20.7591 28.0019 20.7399C28.0403 20.7016 28.1169 20.6632 28.2128 20.6632Z" fill="white"/>
</g>
<g clip-path="url(#clip4_668_56291)">
<path d="M94.1826 31.3048L95.7911 19.1707H88.9355L98.8455 0.990845L97.2321 13.1249H104.093L94.1826 31.3048Z" fill="url(#paint6_linear_668_56291)"/>
<path d="M94.1819 31.2926L96.9513 19.1708H90.0957L98.7451 1.25977L98.3923 13.1249H105.253L94.1819 31.2926Z" fill="url(#paint7_linear_668_56291)"/>
</g>
<defs>
<linearGradient id="paint0_linear_668_56291" x1="113.373" y1="10.3717" x2="110.481" y2="10.4676" gradientUnits="userSpaceOnUse">
<stop offset="0.328226" stop-color="#FF893D"/>
<stop offset="0.750401" stop-color="#F5AD16"/>
</linearGradient>
<linearGradient id="paint1_linear_668_56291" x1="113.373" y1="10.3717" x2="110.481" y2="10.4676" gradientUnits="userSpaceOnUse">
<stop offset="0.328226" stop-color="#FF893D"/>
<stop offset="0.750401" stop-color="#F5AD16"/>
</linearGradient>
<linearGradient id="paint2_linear_668_56291" x1="110.155" y1="8.94189" x2="108.611" y2="6.49537" gradientUnits="userSpaceOnUse">
<stop offset="0.328226" stop-color="#FF893D"/>
<stop offset="0.750401" stop-color="#F5AD16"/>
</linearGradient>
<linearGradient id="paint3_linear_668_56291" x1="2.64622" y1="3.36319" x2="-0.24562" y2="3.45908" gradientUnits="userSpaceOnUse">
<stop offset="0.328226" stop-color="#FF893D"/>
<stop offset="0.750401" stop-color="#F5AD16"/>
</linearGradient>
<linearGradient id="paint4_linear_668_56291" x1="2.64622" y1="3.36319" x2="-0.24562" y2="3.45908" gradientUnits="userSpaceOnUse">
<stop offset="0.328226" stop-color="#FF893D"/>
<stop offset="0.750401" stop-color="#F5AD16"/>
</linearGradient>
<linearGradient id="paint5_linear_668_56291" x1="123.506" y1="7.98181" x2="124.654" y2="5.32674" gradientUnits="userSpaceOnUse">
<stop offset="0.328226" stop-color="#FF893D"/>
<stop offset="0.750401" stop-color="#F5AD16"/>
</linearGradient>
<linearGradient id="paint6_linear_668_56291" x1="96.514" y1="0.990845" x2="96.514" y2="31.3048" gradientUnits="userSpaceOnUse">
<stop stop-color="#DC7905"/>
<stop offset="1" stop-color="#E68D08"/>
</linearGradient>
<linearGradient id="paint7_linear_668_56291" x1="97.6742" y1="0.990877" x2="97.6742" y2="31.3048" gradientUnits="userSpaceOnUse">
<stop stop-color="#F2A42F"/>
<stop offset="1" stop-color="#FFC01E"/>
</linearGradient>
<clipPath id="clip0_668_56291">
<path d="M94.7305 0.890381H133.886C135.979 0.890381 137.675 2.58688 137.675 4.67962V26.152C137.675 28.9423 135.413 31.2043 132.623 31.2043H94.7305V0.890381Z" fill="white"/>
</clipPath>
<clipPath id="clip1_668_56291">
<rect width="30.3139" height="30.3139" fill="white" transform="translate(103.572 0.890381)"/>
</clipPath>
<clipPath id="clip2_668_56291">
<rect width="9.60329" height="13.3055" fill="white" transform="translate(122.518 18.5735)"/>
</clipPath>
<clipPath id="clip3_668_56291">
<rect width="20.2093" height="14.2846" fill="white" transform="translate(16.4199 9.00549)"/>
</clipPath>
<clipPath id="clip4_668_56291">
<rect width="17.6831" height="30.3139" fill="white" transform="translate(88.416 0.990845)"/>
</clipPath>
</defs>
</svg>
