<svg width="16" height="16" viewBox="0 0 16 16" fill="none" xmlns="http://www.w3.org/2000/svg">
<g clip-path="url(#clip0_3872_14768)">
<path d="M10.6666 14V12.6667C10.6666 11.9594 10.3856 11.2811 9.88554 10.781C9.38544 10.281 8.70716 10 7.99992 10H3.99992C3.29267 10 2.6144 10.281 2.1143 10.781C1.6142 11.2811 1.33325 11.9594 1.33325 12.6667V14" stroke="#6A7282" stroke-width="1.33333" stroke-linecap="round" stroke-linejoin="round"/>
<path d="M10.6667 2.08496C11.2386 2.23321 11.745 2.56714 12.1065 3.03434C12.4681 3.50153 12.6642 4.07555 12.6642 4.66629C12.6642 5.25703 12.4681 5.83105 12.1065 6.29825C11.745 6.76545 11.2386 7.09938 10.6667 7.24763" stroke="#6A7282" stroke-width="1.33333" stroke-linecap="round" stroke-linejoin="round"/>
<path d="M14.6667 14.0002V12.6669C14.6663 12.0761 14.4697 11.5021 14.1077 11.0351C13.7457 10.5682 13.2388 10.2346 12.6667 10.0869" stroke="#6A7282" stroke-width="1.33333" stroke-linecap="round" stroke-linejoin="round"/>
<path d="M5.99992 7.33333C7.47268 7.33333 8.66659 6.13943 8.66659 4.66667C8.66659 3.19391 7.47268 2 5.99992 2C4.52716 2 3.33325 3.19391 3.33325 4.66667C3.33325 6.13943 4.52716 7.33333 5.99992 7.33333Z" stroke="#6A7282" stroke-width="1.33333" stroke-linecap="round" stroke-linejoin="round"/>
</g>
<defs>
<clipPath id="clip0_3872_14768">
<rect width="16" height="16" fill="white"/>
</clipPath>
</defs>
</svg>
