<svg width="24" height="24" viewBox="0 0 24 24" fill="none" xmlns="http://www.w3.org/2000/svg">
<path d="M19.2312 18.2356C19.2186 18.9794 18.9118 19.6879 18.378 20.2059C17.8442 20.724 17.1268 21.0095 16.383 20.9998H7.61679C6.87296 21.0095 6.15559 20.724 5.62176 20.2059C5.08792 19.6879 4.78113 18.9794 4.76855 18.2356C4.76855 16.3177 5.53042 14.4784 6.88656 13.1223C8.2427 11.7661 10.082 11.0042 11.9999 11.0042C13.9177 11.0042 15.7571 11.7661 17.1132 13.1223C18.4693 14.4784 19.2312 16.3177 19.2312 18.2356ZM8.58454 6.38538C8.72327 10.8989 15.2758 10.8999 15.4152 6.38545C15.2765 1.87205 8.72394 1.871 8.58454 6.38538Z" fill="#FF9900"/>
</svg>
