<svg width="40" height="40" viewBox="0 0 40 40" fill="none" xmlns="http://www.w3.org/2000/svg">
<path opacity="0.4" d="M19.9999 36.6663C29.2047 36.6663 36.6666 29.2044 36.6666 19.9997C36.6666 10.7949 29.2047 3.33301 19.9999 3.33301C10.7952 3.33301 3.33325 10.7949 3.33325 19.9997C3.33325 29.2044 10.7952 36.6663 19.9999 36.6663Z" fill="#666768"/>
<path d="M21.7668 19.9996L25.6001 16.1663C26.0834 15.6829 26.0834 14.8829 25.6001 14.3996C25.1168 13.9163 24.3168 13.9163 23.8334 14.3996L20.0001 18.2329L16.1668 14.3996C15.6834 13.9163 14.8834 13.9163 14.4001 14.3996C13.9168 14.8829 13.9168 15.6829 14.4001 16.1663L18.2334 19.9996L14.4001 23.8329C13.9168 24.3163 13.9168 25.1163 14.4001 25.5996C14.6501 25.8496 14.9668 25.9663 15.2834 25.9663C15.6001 25.9663 15.9168 25.8496 16.1668 25.5996L20.0001 21.7663L23.8334 25.5996C24.0834 25.8496 24.4001 25.9663 24.7168 25.9663C25.0334 25.9663 25.3501 25.8496 25.6001 25.5996C26.0834 25.1163 26.0834 24.3163 25.6001 23.8329L21.7668 19.9996Z" fill="#666768"/>
</svg>
