<svg xmlns="http://www.w3.org/2000/svg" width="207" height="130" viewBox="0 0 207 130" fill="none">
    <ellipse opacity="0.4" cx="103.111" cy="111.794" rx="102.939" ry="17.7056" fill="#F0C27B"/>
    <path d="M34.816 28.8312C35.4851 23.9802 39.6059 20.3508 44.5025 20.2998L146.862 19.2334C151.383 19.1863 155.36 22.2139 156.518 26.5847L177.22 104.739C178.88 111.009 174.153 117.152 167.667 117.152H56.5683L33.0982 117.563L26.2803 116.612C20.4638 115.8 16.6344 110.125 18.0588 104.428L21.1572 92.0344L26.51 66.9172L32.6864 44.2705L34.816 28.8312Z" fill="#4F170C"/>
    <path d="M36.8394 29.769C37.8063 25.2862 41.73 22.0576 46.315 21.9721L145.571 20.1193C150.121 20.0343 154.141 23.0678 155.308 27.4668L175.445 103.405C177.108 109.676 172.38 115.82 165.893 115.82H30.5202C24.2234 115.82 19.5325 110.01 20.8601 103.855L36.8394 29.769Z" fill="#F9C880"/>
    <path d="M38.8701 32.3717C37.2224 26.034 42.0827 19.8754 48.6298 20.0049L67.705 20.3823L99.4103 17.9118L131.116 18.7353L156.689 17.7948C161.361 17.623 165.514 20.7482 166.642 25.2847L171.056 43.029L179.291 66.4992L183.409 90.7929L187.679 105.625C189.474 111.86 184.876 118.103 178.39 118.239L152.115 118.792L126.586 120.028L100.646 118.792L66.037 118.12C61.4832 118.031 57.5797 114.842 56.5853 110.397L51.6464 88.3223L45.0583 65.2639L42.176 45.0878L38.8701 32.3717Z" fill="#4F170C"/>
    <mask id="mask0_1909_47349" style="mask-type:alpha" maskUnits="userSpaceOnUse" x="41" y="20" width="144" height="96">
        <path d="M41.5664 34.0188C40.1448 27.8918 44.7329 22.0135 51.0217 21.9045L154.777 20.1068C159.322 20.028 163.335 23.0603 164.5 27.4545L184.64 103.403C186.303 109.674 181.575 115.819 175.088 115.819H68.3979C63.8006 115.819 59.8105 112.648 58.7714 108.17L41.5664 34.0188Z" fill="#D9D9D9"/>
    </mask>
    <g mask="url(#mask0_1909_47349)">
        <path d="M41.5664 34.0188C40.1448 27.8918 44.7329 22.0135 51.0217 21.9045L154.777 20.1068C159.322 20.028 163.335 23.0603 164.5 27.4545L184.64 103.403C186.303 109.674 181.575 115.819 175.088 115.819H68.3979C63.8006 115.819 59.8105 112.648 58.7714 108.17L41.5664 34.0188Z" fill="white"/>
        <path d="M56.2852 23.5391L81.7207 121.942" stroke="#F5F5F5" stroke-width="0.823515"/>
        <path d="M76.4922 23.5391L101.928 121.942" stroke="#F5F5F5" stroke-width="0.823515"/>
        <path d="M96.6953 23.5391L122.131 121.942" stroke="#F5F5F5" stroke-width="0.823515"/>
        <path d="M121.809 23.5391L147.244 121.942" stroke="#F5F5F5" stroke-width="0.823515"/>
        <path d="M143.242 23.5391L168.678 121.942" stroke="#F5F5F5" stroke-width="0.823515"/>
        <path d="M47.9922 61.0029H175.695" stroke="#F5F5F5" stroke-width="0.823515"/>
        <path d="M47.9922 78.1533H179.665" stroke="#F5F5F5" stroke-width="0.823515"/>
        <path d="M47.9922 97.7529H187.627" stroke="#F5F5F5" stroke-width="0.823515"/>
        <path d="M44.0197 44.4405L22.9943 -46.1761L143.556 -48.2651L168.139 44.4405H44.0197Z" fill="#FF9900" stroke="#4F170C" stroke-width="3.11938"/>
        <path d="M45.1036 42.5694L41.8867 28.3936L50.4755 37.1996L65.7255 42.7841L45.1036 42.5694Z" fill="#FBE3BF"/>
        <path d="M160.15 17.7363L163.367 31.9121L157.148 22.5412L139.528 17.5216L160.15 17.7363Z" fill="#FBE3BF"/>
    </g>
    <path d="M20.7748 104.842L21.5303 100.266L27.7215 111.253L44.5784 115.868L29.9164 115.724C24.1768 115.668 19.8399 110.506 20.7748 104.842Z" fill="#FBE3BF"/>
    <path d="M71.4931 26.902C84.6249 19.0229 81.4733 7.99219 70.4426 7.99219C63.0888 8.51746 58.3613 13.2449 58.3613 20.0734" stroke="#4F170C" stroke-width="4.20218"/>
    <path d="M108.548 25.6578C121.68 17.7788 118.528 6.74805 107.497 6.74805C100.143 7.27332 95.416 12.0008 95.416 18.8293" stroke="#4F170C" stroke-width="4.20218"/>
    <path d="M143.239 26.902C156.371 19.0229 153.219 7.99219 142.189 7.99219C134.835 8.51746 130.107 13.2449 130.107 20.0734" stroke="#4F170C" stroke-width="4.20218"/>
    <g clip-path="url(#clip0_1909_47349)">
        <path d="M139.03 79.0372C138.701 90.1798 128.094 99.2232 114.936 98.8346C101.777 98.4461 91.7219 88.7925 92.0509 77.6499C92.3799 66.5074 102.987 57.4639 116.146 57.8525C129.305 58.2411 139.359 67.8946 139.03 79.0372Z" fill="#77CC00" stroke="#4F170C" stroke-width="3"/>
        <path d="M111.077 80.2897L111.398 80.5901L111.737 80.3093L115.916 76.8458L125.278 69.0846L129.248 72.7905L115.805 83.9341L115.805 83.9341L115.026 84.5799L115.026 84.58L111.187 87.7619L106.802 83.6683L106.802 83.6682L101.974 79.1588L106.155 75.6929L111.077 80.2897Z" fill="#FFF5F5" stroke="#4F170C"/>
    </g>
    <defs>
        <clipPath id="clip0_1909_47349">
            <rect width="51.2419" height="44" fill="white" transform="translate(89.918 56.2656) rotate(0.240956)"/>
        </clipPath>
    </defs>
</svg>