<svg width="40" height="44" viewBox="0 0 40 44" fill="none" xmlns="http://www.w3.org/2000/svg">
<path d="M13.18 25.02L26.84 32.98M26.82 11.02L13.18 18.98M38 8C38 11.3137 35.3137 14 32 14C28.6863 14 26 11.3137 26 8C26 4.68629 28.6863 2 32 2C35.3137 2 38 4.68629 38 8ZM14 22C14 25.3137 11.3137 28 8 28C4.68629 28 2 25.3137 2 22C2 18.6863 4.68629 16 8 16C11.3137 16 14 18.6863 14 22ZM38 36C38 39.3137 35.3137 42 32 42C28.6863 42 26 39.3137 26 36C26 32.6863 28.6863 30 32 30C35.3137 30 38 32.6863 38 36Z" stroke="#FF893D" stroke-width="4" stroke-linecap="round" stroke-linejoin="round"/>
</svg>
