<svg width="48" height="48" viewBox="0 0 48 48" fill="none" xmlns="http://www.w3.org/2000/svg">
<path d="M24.0002 9.29999C14.4402 9.29999 6.66016 17.08 6.66016 26.64C6.66016 36.2 14.4402 44 24.0002 44C33.5602 44 41.3402 36.22 41.3402 26.66C41.3402 17.1 33.5602 9.29999 24.0002 9.29999ZM25.5002 26C25.5002 26.82 24.8202 27.5 24.0002 27.5C23.1802 27.5 22.5002 26.82 22.5002 26V16C22.5002 15.18 23.1802 14.5 24.0002 14.5C24.8202 14.5 25.5002 15.18 25.5002 16V26Z" fill="#FF9900"/>
<path d="M18.2197 4.5H29.7793C30.3032 4.5 30.7197 4.91657 30.7197 5.44043C30.7195 5.97311 30.2941 6.40039 29.7793 6.40039H18.2197C17.6959 6.40039 17.2793 5.98382 17.2793 5.45996C17.2793 4.9271 17.7048 4.5 18.2197 4.5Z" stroke="#FF9900"/>
</svg>
