<svg width="48" height="48" viewBox="0 0 48 48" fill="none" xmlns="http://www.w3.org/2000/svg">
<path fill-rule="evenodd" clip-rule="evenodd" d="M2.83716 27.3793C1.22573 27.0965 0 25.6908 0 24C0 22.3114 1.22573 20.9036 2.83716 20.6229C3.37501 17.2286 4.71003 14.0998 6.64715 11.4321C6.24001 10.8686 6 10.1764 6 9.42857C6 7.53644 7.53644 6 9.42857 6C10.1764 6 10.8686 6.24 11.4321 6.64715C14.1 4.71217 17.2283 3.37503 20.6229 2.83716C20.9036 1.22573 22.3093 0 24 0C25.6907 0 27.0964 1.22573 27.3771 2.83716C30.7714 3.37501 33.9002 4.71217 36.5679 6.64715C37.1314 6.24001 37.8236 6 38.5714 6C40.4636 6 42 7.53644 42 9.42857C42 10.1764 41.76 10.8686 41.3528 11.4321C43.29 14.1 44.625 17.2283 45.1628 20.6229C46.7743 20.9036 48 22.3114 48 24C48 25.6907 46.7743 27.0985 45.1628 27.3793C44.625 30.7715 43.2878 33.9024 41.3528 36.5679C41.76 37.1336 42 37.8258 42 38.5714C42 40.4657 40.4636 42 38.5714 42C37.8236 42 37.1314 41.76 36.5679 41.355C33.9 43.29 30.7717 44.6271 27.3771 45.1628C27.0964 46.7743 25.6907 48 24 48C22.3093 48 20.9014 46.7743 20.6229 45.1628C17.2286 44.6271 14.0998 43.29 11.4321 41.355C10.8686 41.76 10.1764 42 9.42857 42C7.53644 42 6 40.4657 6 38.5714C6 37.8257 6.24 37.1336 6.64715 36.5679C4.71003 33.9022 3.37503 30.7717 2.83716 27.3793ZM2.62287 22.4871C2.08287 22.7764 1.71433 23.3464 1.71433 24C1.71433 24.6557 2.0829 25.2257 2.62287 25.515C2.86502 25.6414 3.13716 25.7143 3.42862 25.7143C3.7629 25.7143 4.07363 25.62 4.33935 25.4528C4.8215 25.1486 5.1429 24.6129 5.1429 24C5.1429 23.3893 4.82147 22.8514 4.33935 22.5472C4.07364 22.3822 3.76291 22.2879 3.42862 22.2879C3.13719 22.2879 2.86507 22.3586 2.62287 22.4871ZM7.96717 12.5317C6.2486 14.9295 5.05288 17.7281 4.55143 20.7602C5.89285 21.2252 6.85713 22.5024 6.85713 24.0002C6.85713 25.5002 5.89285 26.7752 4.55143 27.2424C5.05286 30.2724 6.2486 33.071 7.96717 35.471C8.41074 35.261 8.90572 35.1431 9.42861 35.1431C11.3207 35.1431 12.8572 36.6795 12.8572 38.5717C12.8572 39.0945 12.7393 39.5895 12.5293 40.0331C14.9293 41.7538 17.7279 42.9474 20.7601 43.451C21.2251 42.1074 22.5001 41.1432 24.0001 41.1432C25.4979 41.1432 26.7751 42.1074 27.24 43.451C30.2722 42.9474 33.0708 41.7538 35.4686 40.0331C35.2586 39.5895 35.1429 39.0946 35.1429 38.5717C35.1429 36.6795 36.6793 35.1431 38.5715 35.1431C39.0922 35.1431 39.5893 35.261 40.0329 35.471C41.7515 33.0731 42.9472 30.2724 43.4487 27.2424C42.1072 26.7774 41.1429 25.5002 41.1429 24.0002C41.1429 22.5023 42.1072 21.2274 43.4487 20.7602C42.9472 17.7281 41.7515 14.9295 40.0329 12.5317C39.5893 12.7417 39.0922 12.8574 38.5715 12.8574C36.6793 12.8574 35.1429 11.321 35.1429 9.42882C35.1429 8.9081 35.2586 8.41308 35.4686 7.96951C33.0707 6.2488 30.2722 5.05308 27.24 4.55163C26.775 5.89306 25.4979 6.85734 24.0001 6.85734C22.5001 6.85734 21.2251 5.89306 20.7601 4.55163C17.728 5.05306 14.9293 6.2488 12.5293 7.96951C12.7393 8.41308 12.8572 8.90806 12.8572 9.42882C12.8572 11.321 11.3207 12.8574 9.42861 12.8574C8.90576 12.8574 8.41074 12.7417 7.96717 12.5317ZM9.97505 7.80453C9.80362 7.74667 9.61933 7.71667 9.42862 7.71667C8.48146 7.71667 7.71433 8.48379 7.71433 9.42881C7.71433 9.62167 7.74648 9.80381 7.80433 9.97524C7.99719 10.5495 8.48577 10.9888 9.08788 11.1109C9.19931 11.1324 9.31288 11.1431 9.42859 11.1431C10.3758 11.1431 11.1429 10.376 11.1429 9.4288C11.1429 9.31309 11.1322 9.19952 11.1086 9.09023C10.9864 8.48592 10.5493 7.9974 9.97505 7.80453ZM25.5128 2.62524C25.2256 2.08524 24.6556 1.71451 23.9999 1.71451C23.3442 1.71451 22.7742 2.08522 22.4849 2.62524C22.3585 2.86524 22.2857 3.13953 22.2857 3.42879C22.2857 3.76308 22.3821 4.07594 22.5471 4.33953C22.8514 4.82167 23.3871 5.14308 23.9999 5.14308C24.6128 5.14308 25.1485 4.82165 25.4528 4.33953C25.6178 4.07596 25.7142 3.76309 25.7142 3.42879C25.7142 3.13951 25.6414 2.86524 25.5128 2.62524ZM40.1958 9.975C40.2537 9.80357 40.2858 9.62143 40.2858 9.42858C40.2858 8.48355 39.5166 7.71643 38.5716 7.71643C38.3808 7.71643 38.1966 7.74643 38.0251 7.80429C37.4508 7.99715 37.0115 8.48572 36.8916 9.09003C36.868 9.19932 36.8573 9.31289 36.8573 9.4286C36.8573 10.3758 37.6244 11.1429 38.5716 11.1429C38.6873 11.1429 38.8008 11.1322 38.9101 11.1107C39.5144 10.9886 40.003 10.5493 40.1958 9.975ZM45.3751 25.5149C45.9173 25.2256 46.2859 24.6556 46.2859 23.9999C46.2859 23.3464 45.9173 22.7764 45.3751 22.4871C45.1351 22.3585 44.8608 22.2878 44.5716 22.2878C44.2373 22.2878 43.9244 22.3821 43.6608 22.5471C43.1787 22.8514 42.8573 23.3893 42.8573 23.9999C42.8573 24.6128 43.1787 25.1507 43.6608 25.4528C43.9244 25.6199 44.2373 25.7142 44.5716 25.7142C44.8609 25.7142 45.1351 25.6414 45.3751 25.5149ZM38.0254 40.198C38.1968 40.2559 38.3811 40.2859 38.5718 40.2859C39.5168 40.2859 40.2861 39.5187 40.2861 38.5716C40.2861 38.3809 40.2539 38.1966 40.1961 38.0251C40.0032 37.453 39.5146 37.0137 38.9103 36.8916C38.8011 36.8701 38.6875 36.8594 38.5718 36.8594C37.6246 36.8594 36.8575 37.6266 36.8575 38.5716C36.8575 38.6894 36.8682 38.803 36.8918 38.9123C37.0118 39.5145 37.4511 40.0051 38.0254 40.198ZM22.4854 45.3773C22.7747 45.9173 23.3447 46.2858 24.0004 46.2858C24.6561 46.2858 25.2262 45.9172 25.5133 45.3773C25.6419 45.1373 25.7147 44.863 25.7147 44.5715C25.7147 44.2372 25.6183 43.9265 25.4533 43.663C25.149 43.1787 24.6133 42.8573 24.0004 42.8573C23.3876 42.8573 22.8497 43.1787 22.5476 43.663C22.3805 43.9266 22.2862 44.2373 22.2862 44.5715C22.2862 44.863 22.359 45.1372 22.4854 45.3773ZM7.80457 38.0253C7.74671 38.1968 7.71457 38.381 7.71457 38.5718C7.71457 39.5189 8.48169 40.286 9.42886 40.286C9.61957 40.286 9.80385 40.256 9.97528 40.1982C10.5496 40.0053 10.9867 39.5146 11.1089 38.9124C11.1324 38.8031 11.1431 38.6896 11.1431 38.5717C11.1431 37.6267 10.376 36.8596 9.42885 36.8596C9.31314 36.8596 9.19956 36.8703 9.08814 36.8917C8.48597 37.0139 7.99739 37.4532 7.80457 38.0253ZM28.6739 17.816C25.5603 17.6317 22.4448 17.6317 19.3246 17.8181C19.7381 15.8531 20.3446 14.1581 21.0903 12.8681C21.9196 11.4367 22.8946 10.5152 24.0003 10.5152C25.106 10.5152 26.081 11.4367 26.9082 12.8681C27.6561 14.156 28.2602 15.8531 28.6739 17.816ZM37.1641 20.5331C37.4555 21.6409 37.612 22.8024 37.612 24.0002C37.612 25.1423 37.4705 26.2502 37.2048 27.311C35.0512 27.6795 32.8998 27.9581 30.7481 28.1466C30.911 26.8288 30.9967 25.4381 30.9967 24.0002C30.9967 22.5023 30.9024 21.0559 30.7267 19.6888C32.8739 19.8795 35.0214 20.1602 37.1641 20.5331ZM10.7965 27.3107C10.5308 26.2521 10.3893 25.1421 10.3893 23.9999C10.3893 22.8042 10.5436 21.6428 10.835 20.5371C12.9822 20.1642 15.1272 19.8835 17.272 19.6928C17.0984 21.0578 17.002 22.5042 17.002 23.9999C17.002 25.4399 17.0898 26.8307 17.2527 28.1485C15.0991 27.9599 12.9481 27.6814 10.7965 27.3107ZM29.0025 28.2792C25.6661 28.4978 22.3318 28.4978 18.9998 28.2814C18.8155 26.9335 18.717 25.4957 18.717 23.9999C18.717 22.4464 18.8241 20.9507 19.0212 19.5578C22.3448 19.3392 25.6617 19.3371 28.9789 19.5535C29.1782 20.9507 29.2853 22.4463 29.2853 23.9999C29.2853 25.4935 29.1846 26.9314 29.0025 28.2792ZM36.5969 29.1621C35.0304 32.9764 31.7798 35.9249 27.7726 37.0802C27.9697 36.8102 28.1604 36.5145 28.3426 36.1995C29.2726 34.5966 30.0205 32.4195 30.4833 29.8931C32.5211 29.7281 34.5566 29.4835 36.5969 29.1621ZM27.7726 10.9199C31.7218 12.0599 34.9364 14.9399 36.5283 18.6751C34.5033 18.3515 32.4783 18.1072 30.4512 17.9401C29.9862 15.4844 29.2512 13.3694 28.3426 11.801C28.1605 11.486 27.9697 11.1921 27.7726 10.9199ZM19.2933 30.0212C22.4283 30.2055 25.5679 30.2055 28.709 30.019C28.2954 32.0526 27.6783 33.8076 26.909 35.134C26.0819 36.5633 25.1068 37.4869 24.0011 37.4869C22.8954 37.4869 21.9204 36.5633 21.0911 35.134C20.324 33.8097 19.7047 32.0547 19.2933 30.0212ZM11.4718 18.6767C13.0639 14.9396 16.2782 12.0598 20.2297 10.9194C20.0304 11.1915 19.8419 11.4851 19.6597 11.8001C18.749 13.3687 18.014 15.4858 17.549 17.9436C15.524 18.1107 13.4988 18.3553 11.4718 18.6767ZM20.2297 37.0796C16.2226 35.9268 12.9721 32.9782 11.4054 29.1638C13.4432 29.4852 15.4811 29.7294 17.5192 29.8966C17.9821 32.4209 18.7299 34.5959 19.6599 36.1986C19.8421 36.5136 20.0304 36.8096 20.2297 37.0796Z" fill="#FF893D"/>
</svg>
