<svg width="48" height="55" viewBox="0 0 48 55" fill="none" xmlns="http://www.w3.org/2000/svg">
<path d="M17.5733 51.9329L22.2488 54.1106C22.7999 54.3671 23.3962 54.4998 23.9993 54.5C24.6023 54.5002 25.1987 54.368 25.75 54.1119L30.4267 51.9329C35.6555 49.4924 40.0979 45.5156 43.2166 40.4836C46.3354 35.4516 47.9968 29.5799 48 23.5787V13.73C48.0034 12.6699 47.6489 11.6427 46.9993 10.8303C46.3497 10.0179 45.4469 9.47279 44.4507 9.2914C41.8957 8.82668 39.3902 8.10111 36.9698 7.12503C33.2512 5.62254 29.7683 3.54445 26.6369 0.959942C25.8858 0.338758 24.9557 -0.000229335 23.9991 1.16841e-07C23.0424 0.000229569 22.1138 0.338398 21.3629 0.959942C18.231 3.54466 14.7477 5.62315 11.0289 7.1263C8.60882 8.10153 6.10374 8.82667 3.54929 9.2914C2.55313 9.47279 1.65032 10.0179 1.00072 10.8303C0.351115 11.6427 -0.00337176 12.6699 2.41745e-05 13.73V23.5787C0.00320973 29.5799 1.66464 35.4516 4.78336 40.4836C7.90209 45.5156 12.3445 49.4924 17.5733 51.9329ZM3.69233 13.73C3.68899 13.5816 3.73652 13.437 3.82629 13.3223C3.91606 13.2075 4.0421 13.1304 4.18151 13.1049C6.97271 12.597 9.71 11.8047 12.3545 10.7394C16.4174 9.09862 20.2226 6.82802 23.6431 4.00342C23.7436 3.91725 23.8694 3.87006 23.9992 3.86983C24.1291 3.8696 24.255 3.91634 24.3558 4.00216C27.776 6.82714 31.5812 9.09777 35.6443 10.7382C38.289 11.8043 41.0268 12.597 43.8185 13.1049C43.958 13.1304 44.084 13.2076 44.1738 13.3223C44.2635 13.437 44.3111 13.5817 44.3077 13.73V23.5787C44.3049 28.8311 42.8508 33.97 40.1211 38.3741C37.3914 42.7781 33.5032 46.2584 28.9267 48.3941L24.2488 50.5744C24.1703 50.6109 24.0853 50.6297 23.9993 50.6295C23.9134 50.6293 23.8284 50.6101 23.7501 50.5731L19.0734 48.3941C14.4969 46.2584 10.6087 42.7781 7.879 38.3741C5.14931 33.9701 3.69512 28.8311 3.69233 23.5787V13.73Z" fill="#FF893D"/>
</svg>
