<svg width="50" height="50" viewBox="0 0 50 50" fill="none" xmlns="http://www.w3.org/2000/svg">
<path d="M0 10C0 4.47715 4.47715 0 10 0H40C45.5228 0 50 4.47715 50 10V40C50 45.5228 45.5228 50 40 50H10C4.47715 50 0 45.5228 0 40V10Z" fill="#5CA8FF" fill-opacity="0.1"/>
<g clip-path="url(#clip0_3863_11848)">
<path d="M25 20V25L28.3333 26.6667" stroke="#5CA8FF" stroke-width="1.66667" stroke-linecap="round" stroke-linejoin="round"/>
<path d="M24.9998 33.3337C29.6022 33.3337 33.3332 29.6027 33.3332 25.0003C33.3332 20.398 29.6022 16.667 24.9998 16.667C20.3975 16.667 16.6665 20.398 16.6665 25.0003C16.6665 29.6027 20.3975 33.3337 24.9998 33.3337Z" stroke="#5CA8FF" stroke-width="1.66667" stroke-linecap="round" stroke-linejoin="round"/>
</g>
<defs>
<clipPath id="clip0_3863_11848">
<rect width="20" height="20" fill="white" transform="translate(15 15)"/>
</clipPath>
</defs>
</svg>
