<svg width="40" height="40" viewBox="0 0 40 40" fill="none" xmlns="http://www.w3.org/2000/svg">
<g clip-path="url(#clip0_7110_8417)">
<path d="M34.9093 18.1596C34.9093 26.7406 28.4298 34.1722 19.8488 34.1722C11.2678 34.1722 4.79102 27.7326 4.79102 19.1516C4.79102 10.5707 10.4928 3.81079 19.0738 3.81079C27.6548 3.81079 34.9093 9.57859 34.9093 18.1596Z" fill="#636363"/>
<path d="M29.6399 28.7436C34.9925 23.3909 34.9925 14.7126 29.6399 9.35995C24.2872 4.00732 15.6089 4.00732 10.2563 9.35995C4.90362 14.7126 4.90362 23.3909 10.2563 28.7436C15.6089 34.0962 24.2872 34.0962 29.6399 28.7436Z" fill="#FEE475"/>
<path d="M29.3949 28.4985C34.6121 23.2812 34.6121 14.8223 29.3949 9.60503C24.1776 4.38775 15.7187 4.38775 10.5014 9.60503C5.28413 14.8223 5.28413 23.2812 10.5014 28.4985C15.7187 33.7158 24.1776 33.7158 29.3949 28.4985Z" fill="#FED425"/>
<path d="M29.4169 9.63794L10.5352 28.5197C11.8034 29.7801 13.3158 30.7805 15.0016 31.4579L32.3551 14.1043C31.6856 12.4186 30.6773 10.8983 29.4169 9.63794Z" fill="white"/>
<path d="M32.9693 22.0291L22.9258 32.0725C27.9121 30.9382 31.8349 27.0154 32.9693 22.0291Z" fill="white"/>
<path d="M13.3873 7.41662L8.31433 12.4896C7.75505 13.4821 7.31392 14.5455 7.02246 15.672L16.5697 6.12476C15.4432 6.42409 14.3798 6.85734 13.3873 7.41662Z" fill="white"/>
<path d="M27.6608 8.14941L9.04688 26.7634C9.26744 27.0706 9.49588 27.3699 9.7322 27.6535L28.5509 8.83473C28.2674 8.59842 27.968 8.36998 27.6608 8.14941Z" fill="white"/>
<path d="M20.2085 28.9846C25.5552 28.9846 29.8896 24.6502 29.8896 19.3035C29.8896 13.9567 25.5552 9.62231 20.2085 9.62231C14.8617 9.62231 10.5273 13.9567 10.5273 19.3035C10.5273 24.6502 14.8617 28.9846 20.2085 28.9846Z" fill="white"/>
<path d="M26.7942 25.8973C30.5748 22.1166 30.4802 16.3151 26.6995 12.5345C22.9189 8.75378 16.9121 8.51585 13.1314 12.2965C9.35076 16.0772 9.6483 21.8458 13.429 25.6265C17.2097 29.4072 23.0135 29.678 26.7942 25.8973Z" fill="#636363"/>
<path d="M26.0716 25.1755C29.4534 21.7936 29.4534 16.3104 26.0716 12.9285C22.6897 9.54665 17.2065 9.54665 13.8246 12.9285C10.4427 16.3104 10.4427 21.7936 13.8246 25.1755C17.2065 28.5574 22.6897 28.5574 26.0716 25.1755Z" fill="#FEB724"/>
<path d="M12.5048 18.3013C12.5048 13.5168 15.6355 10.8635 20.4199 10.8635C22.6889 10.8635 24.7534 11.7372 26.3036 13.1676C24.7253 11.4624 22.4634 10.3914 19.9549 10.3914C15.1704 10.3914 11.2949 14.2668 11.2949 19.0513C11.2949 21.5598 12.9013 25.6174 16.217 26.8788C14.7795 25.3357 12.5048 20.5702 12.5048 18.3013Z" fill="#FB9D12"/>
<path d="M19.9486 5.87275C27.432 5.87275 33.5054 11.8673 33.6471 19.3192C33.6471 19.2326 33.655 19.1459 33.655 19.0593C33.655 11.4813 27.5186 5.34497 19.9486 5.34497C12.3786 5.34497 6.24219 11.4813 6.24219 19.0514C6.24219 19.138 6.25006 19.2247 6.25006 19.3113C6.39186 11.8673 12.4652 5.87275 19.9486 5.87275Z" fill="white"/>
<path d="M16.3448 24.819C16.1571 24.8243 16.002 24.6736 16.002 24.4858V14.2808C16.002 14.0967 16.1512 13.9475 16.3353 13.9475H20.1061C20.8922 13.9475 21.5538 14.0995 22.0911 14.4033C22.6383 14.6974 23.0512 15.0896 23.3298 15.5797C23.6084 16.06 23.7477 16.5845 23.7477 17.1531C23.7477 17.8393 23.5487 18.4618 23.1507 19.0205C22.7627 19.5793 22.4005 19.9427 21.6443 20.1682L23.9884 24.2335C24.1146 24.4523 23.9611 24.7264 23.7087 24.7332L21.9912 24.7799C21.8637 24.7834 21.7454 24.7138 21.6865 24.6007L19.5606 20.5181L18.1249 20.5968L18.1974 24.4359C18.2008 24.6187 18.0564 24.7702 17.8736 24.7754L16.3448 24.819ZM20.0763 15.4474H17.7481V18.947H20.0763C20.7031 18.947 21.1757 18.7706 21.4941 18.4176C21.8125 18.0549 21.9717 17.6481 21.9717 17.1972C21.9717 16.7462 21.8125 16.3443 21.4941 15.9914C21.1757 15.6287 20.7031 15.4474 20.0763 15.4474Z" fill="#938F8F"/>
<path d="M16.4932 24.3749V14.7891C16.4932 14.605 16.6424 14.4558 16.8265 14.4558H20.1793C20.8853 14.4558 21.4795 14.5943 21.962 14.8713C22.4535 15.1394 22.8244 15.4969 23.0746 15.9437C23.3248 16.3815 23.4499 16.8596 23.4499 17.3779C23.4499 18.0034 23.2712 18.5709 22.9137 19.0802C22.5652 19.5896 22.0514 19.947 21.3723 20.1526L23.4772 23.8775C23.6027 24.0998 23.4422 24.3749 23.187 24.3749H22.1983C22.0773 24.3749 21.9658 24.3093 21.907 24.2036L19.7504 20.3268H18.0614V24.3749H16.4932ZM20.1525 15.823H18.0614V19.0132H20.1525C20.7155 19.0132 21.1399 18.8524 21.4259 18.5307C21.7118 18.2 21.8548 17.8292 21.8548 17.4181C21.8548 17.0071 21.7118 16.6407 21.4259 16.319C21.1399 15.9883 20.7155 15.823 20.1525 15.823Z" fill="white"/>
</g>
<defs>
<clipPath id="clip0_7110_8417">
<rect width="40" height="40" fill="white"/>
</clipPath>
</defs>
</svg>
