<svg width="40" height="39" viewBox="0 0 40 39" fill="none" xmlns="http://www.w3.org/2000/svg">
<path d="M26.3705 20.8531L26.3662 27.5766C26.3626 33.1795 24.12 35.4192 18.5171 35.4156L11.7936 35.4113C6.19064 35.4077 3.95091 33.1651 3.95451 27.5622L3.95883 20.8387C3.96243 15.2358 6.20503 12.9961 11.8079 12.9997L18.5314 13.004C24.1344 13.0076 26.3741 15.2502 26.3705 20.8531Z" stroke="#292D32" stroke-width="1.5" stroke-linecap="round" stroke-linejoin="round"/>
<path d="M35.9818 11.2542L35.9775 17.9777C35.9739 23.5806 33.7313 25.8204 28.1284 25.8168L26.3675 25.8156L26.3707 20.8531C26.3743 15.2501 24.1345 13.0075 18.5316 13.0039L13.569 13.0008L13.5702 11.2398C13.5738 5.63692 15.8164 3.39719 21.4193 3.40079L28.1428 3.40511C33.7457 3.4087 35.9854 5.65131 35.9818 11.2542Z" stroke="#292D32" stroke-width="1.5" stroke-linecap="round" stroke-linejoin="round"/>
</svg>
