<svg width="32" height="40" viewBox="0 0 32 40" fill="none" xmlns="http://www.w3.org/2000/svg">
<path d="M23.9113 7.8407H28.3795C29.8936 7.8407 31.9212 10.0358 31.8925 11.5711L31.8973 35.1377C31.6991 37.1809 30.1802 38.7186 28.1383 38.9796C23.1423 38.6569 17.5827 39.4163 12.6535 38.9796C10.7597 38.8112 8.77994 37.1192 8.77994 35.133V31.9958H4.66992C2.76417 31.9934 0.824991 29.9075 0.80111 28.0257L0.793945 4.81508C0.882307 2.88581 2.46565 1.05383 4.4335 0.85449C9.41041 0.35378 15.2112 1.22468 20.2765 0.85449C21.8169 0.923308 23.9113 2.80512 23.9113 4.34522V7.83833V7.8407ZM21.1697 7.8407V4.5849C21.1697 4.23132 20.3553 3.51941 19.9207 3.57636H4.78694C3.87467 3.68552 3.60481 4.34522 3.53555 5.17341L3.62152 28.1847C3.65257 28.6308 4.39529 29.2716 4.79172 29.2716H8.78233V11.5687C8.78233 10.0215 10.5902 7.83833 12.1783 7.83833H21.1721L21.1697 7.8407ZM28.7545 35.8615C28.8978 35.7191 28.9814 35.4699 29.0721 35.2872L29.1581 12.0362C29.1223 11.0657 28.5993 10.6433 27.6679 10.5555C23.0277 10.1212 17.7164 10.8924 13.0046 10.5555C12.0899 10.5626 11.512 11.2745 11.5168 12.1549V34.6607C11.5215 35.5933 12.078 36.1723 13.0046 36.2601C17.7188 35.9208 23.0253 36.692 27.6679 36.2601C28.0309 36.2269 28.4894 36.1225 28.7545 35.8615Z" fill="#2E2F3F"/>
</svg>
