<svg width="18" height="19" viewBox="0 0 18 19" fill="none" xmlns="http://www.w3.org/2000/svg">
<path d="M13.0004 0.956954H13.0046C13.7578 0.956954 14.3677 1.49702 14.3677 2.16401L14.3656 14.6792C14.3656 14.8376 14.3321 14.9886 14.2693 15.1276V15.1285C14.0674 15.5732 13.5768 15.8872 13.0025 15.8872H2.43108C1.68937 15.8863 1.07945 15.3481 1.07945 14.6792L1.0805 2.16399C1.0805 1.5007 1.67994 0.965256 2.42165 0.956932L13.0004 0.956954ZM13.0046 0V0.000926374H2.43962C1.09008 0.000926374 0.00104614 0.969904 0.00104614 2.16401C0.00104614 2.16772 0 14.6776 0 14.6792C0 15.8705 1.08695 16.8423 2.43019 16.8432H13.0026C14.3522 16.8432 15.4464 15.8742 15.4464 14.6792C15.4464 14.6792 15.4475 2.16567 15.4475 2.16401C15.4475 0.96898 14.3541 0 13.0046 0ZM16.209 1.35622C16.2916 1.61282 16.3345 1.88426 16.3345 2.16401L16.3355 2.45025C16.6891 2.66887 16.9203 3.03108 16.9203 3.4424L16.9193 16.836C16.9193 16.9944 16.8858 17.1454 16.823 17.2844C16.6222 17.729 16.1305 18.0431 15.5562 18.0431H4.98692L4.98587 18.044C4.58102 18.0431 4.21591 17.8828 3.96692 17.629H2.72306C3.07875 18.4294 3.95648 18.9981 4.98482 19H15.5562C16.9057 19 18 18.031 18 16.836V3.44238C18 2.44745 17.2426 1.60908 16.21 1.35618L16.209 1.35622Z" fill="black"/>
</svg>
