<svg width="50" height="50" viewBox="0 0 50 50" fill="none" xmlns="http://www.w3.org/2000/svg">
<path d="M0 10C0 4.47715 4.47715 0 10 0H40C45.5228 0 50 4.47715 50 10V40C50 45.5228 45.5228 50 40 50H10C4.47715 50 0 45.5228 0 40V10Z" fill="#44C776" fill-opacity="0.1"/>
<g clip-path="url(#clip0_3863_11843)">
<path d="M33.1673 23.3336C33.5479 25.2013 33.2767 27.1431 32.3989 28.8351C31.5211 30.527 30.0897 31.8669 28.3436 32.6313C26.5975 33.3957 24.642 33.5384 22.8034 33.0355C20.9648 32.5327 19.3542 31.4147 18.2401 29.8681C17.126 28.3214 16.5758 26.4396 16.6812 24.5364C16.7867 22.6332 17.5414 20.8236 18.8195 19.4095C20.0977 17.9954 21.822 17.0623 23.7049 16.7656C25.5878 16.469 27.5155 16.8268 29.1665 17.7794" stroke="#44C776" stroke-width="1.66667" stroke-linecap="round" stroke-linejoin="round"/>
<path d="M22.5 24.1663L25 26.6663L33.3333 18.333" stroke="#44C776" stroke-width="1.66667" stroke-linecap="round" stroke-linejoin="round"/>
</g>
<defs>
<clipPath id="clip0_3863_11843">
<rect width="20" height="20" fill="white" transform="translate(15 15)"/>
</clipPath>
</defs>
</svg>
