<svg xmlns="http://www.w3.org/2000/svg" width="32" height="32" viewBox="0 0 32 32"><g transform="translate(0 0)"><rect data-element="frame" x="0" y="0" width="32" height="32" rx="7" ry="7" stroke="none" fill="#ffffff"></rect><g class="nc-icon-wrapper" fill="#212121" transform="translate(6.4 6.4) scale(0.6)"><path d="M4.082,9,6.014,29.284A2.986,2.986,0,0,0,9,32H23a2.986,2.986,0,0,0,2.986-2.716L27.918,9Z" fill="#212121"></path> <path data-color="color-2" d="M30,5H22V2a2,2,0,0,0-2-2H12a2,2,0,0,0-2,2V5H2A1,1,0,0,0,2,7H30a1,1,0,0,0,0-2ZM12,2h8V5H12Z" fill="#212121"></path></g></g></svg>