<svg width="24" height="24" viewBox="0 0 24 24" fill="none" xmlns="http://www.w3.org/2000/svg">
<path d="M3.35449 5.38257H20.6455C21.1143 5.38262 21.5 5.76826 21.5 6.23706V12.9705C21.4999 13.989 20.668 14.821 19.6494 14.821H4.35059C3.332 14.821 2.50014 13.989 2.5 12.9705V6.23706C2.50004 5.76826 2.88569 5.38261 3.35449 5.38257ZM3.01367 12.9705C3.01382 13.7086 3.6124 14.3064 4.35059 14.3064H5.6875V12.572C5.6875 11.7725 6.34009 11.1199 7.13965 11.1199H16.8604C17.6599 11.1199 18.3125 11.7725 18.3125 12.572V14.3064H19.6494C20.2107 14.3064 20.6906 13.9607 20.8887 13.4705H20.9863V5.89624H3.01367V12.9705Z" stroke="#FF9900"/>
<path d="M7.25502 7.75073H5.98012C5.56179 7.75073 5.22314 8.08938 5.22314 8.50771C5.22314 8.92604 5.56179 9.26469 5.98012 9.26469H7.25502C7.67336 9.26469 8.012 8.92604 8.012 8.50771C8.012 8.08938 7.67336 7.75073 7.25502 7.75073Z" fill="#FF9900"/>
<rect x="11.7798" y="16.0261" width="0.718506" height="3.09167" rx="0.359253" fill="#FF9900"/>
<rect x="8.14014" y="15.8708" width="0.718506" height="3.09167" rx="0.359253" transform="rotate(15 8.14014 15.8708)" fill="#FF9900"/>
<rect x="15.166" y="16.0564" width="0.718506" height="3.09167" rx="0.359253" transform="rotate(-15 15.166 16.0564)" fill="#FF9900"/>
</svg>
