<svg width="32" height="32" viewBox="0 0 32 32" fill="none" xmlns="http://www.w3.org/2000/svg">
<g clip-path="url(#clip0_1831_14907)">
<mask id="mask0_1831_14907" style="mask-type:alpha" maskUnits="userSpaceOnUse" x="7" y="5" width="5" height="7">
<rect x="7.55371" y="6.45801" width="1.4685" height="6.23326" transform="rotate(-28.9729 7.55371 6.45801)" fill="url(#paint0_linear_1831_14907)"/>
</mask>
<g mask="url(#mask0_1831_14907)">
<rect x="7.55371" y="6.45801" width="1.4685" height="6.23326" transform="rotate(-28.9729 7.55371 6.45801)" fill="url(#paint1_linear_1831_14907)"/>
<path d="M10.9386 9.16922C11.0816 9.43109 10.7801 9.87155 10.265 10.153C9.7499 10.4345 9.21634 10.4503 9.07324 10.1885" stroke="#6F5548" stroke-width="0.5"/>
<path d="M9.75068 6.98221C9.89377 7.24408 9.61721 7.67088 9.13297 7.93548C8.64872 8.20009 8.14016 8.2023 7.99707 7.94043" stroke="#6F5548" stroke-width="0.5"/>
</g>
<path d="M7.5704 4.87586C7.89468 4.71072 8.29147 4.82594 8.47685 5.13909L8.88766 5.83301L5.15922 8.17208C4.71513 8.45069 4.12845 8.3041 3.8676 7.84936C3.60487 7.39137 3.779 6.80673 4.24949 6.56712L7.5704 4.87586Z" fill="url(#paint2_linear_1831_14907)"/>
<mask id="mask1_1831_14907" style="mask-type:alpha" maskUnits="userSpaceOnUse" x="16" y="5" width="5" height="7">
<rect width="1.4685" height="6.23326" transform="matrix(-0.939017 -0.343871 -0.343871 0.939017 20.1318 5.5625)" fill="url(#paint3_linear_1831_14907)"/>
</mask>
<g mask="url(#mask1_1831_14907)">
<rect width="1.4685" height="6.23326" transform="matrix(-0.939017 -0.343871 -0.343871 0.939017 20.1318 5.5625)" fill="url(#paint4_linear_1831_14907)"/>
<path d="M17.205 8.76165C17.104 9.04244 17.4698 9.43119 18.0221 9.62996C18.5744 9.82872 19.104 9.76223 19.2051 9.48145" stroke="#6F5548" stroke-width="0.5"/>
<path d="M18.0426 6.41804C17.9415 6.69882 18.2805 7.07793 18.7997 7.26479C19.319 7.45165 19.8218 7.37551 19.9229 7.09473" stroke="#6F5548" stroke-width="0.5"/>
</g>
<path d="M19.8714 4.00121C19.5256 3.88798 19.1513 4.06294 19.0163 4.40091L18.7173 5.14982L22.7615 6.88672C23.2432 7.0936 23.8003 6.85841 23.988 6.36892C24.1771 5.87593 23.915 5.32508 23.4132 5.1608L19.8714 4.00121Z" fill="url(#paint5_linear_1831_14907)"/>
<mask id="mask2_1831_14907" style="mask-type:alpha" maskUnits="userSpaceOnUse" x="3" y="10" width="26" height="20">
<ellipse cx="16.113" cy="19.6824" rx="12.5066" ry="9.49977" fill="#FFAC32"/>
</mask>
<g mask="url(#mask2_1831_14907)">
<ellipse cx="16.113" cy="19.6824" rx="12.5066" ry="9.49977" fill="#FF6501"/>
<ellipse cx="16.1042" cy="18.8836" rx="12.4313" ry="8.63947" fill="#FF893D"/>
<path d="M6.17118 18.9202C6.08635 15.43 8.84696 12.5318 12.3372 12.447L19.5388 12.2719C23.0907 12.1856 26.0402 14.9951 26.1265 18.547C26.2179 22.3079 23.2432 25.4308 19.4823 25.5222L13.2609 25.6735C9.43826 25.7664 6.26409 22.7428 6.17118 18.9202Z" fill="#EF7309"/>
<path d="M6.67025 18.7112C6.5924 15.5085 9.12565 12.849 12.3284 12.7712L19.572 12.5951C22.8315 12.5159 25.538 15.0939 25.6172 18.3533C25.7011 21.8045 22.9714 24.6702 19.5202 24.7541L13.176 24.9083C9.66825 24.9935 6.75551 22.219 6.67025 18.7112Z" fill="#FFF0E5"/>
<path d="M15.5415 18.5872C14.5981 20.2722 12.6049 20.9066 11.1058 20.0673C9.60671 19.228 9.10572 17.1971 10.0491 15.5122C10.9925 13.8272 12.9857 13.1928 14.4848 14.0321C15.9839 14.8714 16.4849 16.9023 15.5415 18.5872Z" fill="#FED4BE" stroke="#F89460" stroke-width="0.5"/>
<path d="M22.8474 18.5303C22.0062 20.0329 19.9991 20.5426 18.3495 19.619C16.6999 18.6955 16.0854 16.718 16.9266 15.2154C17.7679 13.7128 19.775 13.2031 21.4246 14.1266C23.0741 15.0502 23.6887 17.0277 22.8474 18.5303Z" fill="#FED4BE" stroke="#F48A56" stroke-width="0.5"/>
<path d="M10.9063 16.9366C10.8994 16.8506 10.9377 16.7667 11.0075 16.716C12.4806 15.6471 13.3934 15.4394 14.9213 16.4009C14.985 16.4409 15.026 16.5096 15.032 16.5846C15.0477 16.7795 14.8369 16.9128 14.6617 16.8258C13.3313 16.1649 12.4953 16.3346 11.3059 17.1251C11.1439 17.2327 10.9219 17.1304 10.9063 16.9366Z" fill="#826559"/>
<path d="M17.6885 16.5519C17.6816 16.4659 17.7199 16.3819 17.7897 16.3312C19.2629 15.2624 20.1756 15.0546 21.7035 16.0161C21.7672 16.0562 21.8082 16.1248 21.8142 16.1998C21.83 16.3947 21.6191 16.528 21.444 16.441C20.1136 15.7801 19.2776 15.9498 18.0881 16.7403C17.9262 16.848 17.7042 16.7457 17.6885 16.5519Z" fill="#826559"/>
<path d="M5.91265 20.0761C5.91265 21.2476 5.74048 22.2973 5.46997 23.0452C5.33434 23.4202 5.17872 23.7061 5.01848 23.8934C4.85745 24.0817 4.71525 24.1453 4.60037 24.1453C4.48548 24.1453 4.34328 24.0817 4.18226 23.8934C4.02201 23.7061 3.86639 23.4202 3.73076 23.0452C3.46025 22.2973 3.28809 21.2476 3.28809 20.0761C3.28809 18.9046 3.46025 17.8548 3.73076 17.107C3.86639 16.732 4.02201 16.4461 4.18226 16.2587C4.34328 16.0704 4.48548 16.0068 4.60037 16.0068C4.71525 16.0068 4.85745 16.0704 5.01848 16.2587C5.17872 16.4461 5.33434 16.732 5.46997 17.107C5.74048 17.8548 5.91265 18.9046 5.91265 20.0761Z" stroke="#6F5548" stroke-width="0.5"/>
<path d="M28.9273 20.3954C28.9273 21.567 28.7551 22.6167 28.4846 23.3646C28.349 23.7396 28.1934 24.0254 28.0331 24.2128C27.8721 24.4011 27.7299 24.4647 27.615 24.4647C27.5001 24.4647 27.3579 24.4011 27.1969 24.2128C27.0367 24.0254 26.881 23.7396 26.7454 23.3646C26.4749 22.6167 26.3027 21.567 26.3027 20.3954C26.3027 19.2239 26.4749 18.1742 26.7454 17.4263C26.881 17.0513 27.0367 16.7655 27.1969 16.5781C27.3579 16.3898 27.5001 16.3262 27.615 16.3262C27.7299 16.3262 27.8721 16.3898 28.0331 16.5781C28.1934 16.7655 28.349 17.0513 28.4846 17.4263C28.7551 18.1742 28.9273 19.2239 28.9273 20.3954Z" stroke="#6F5548" stroke-width="0.5"/>
<mask id="mask3_1831_14907" style="mask-type:alpha" maskUnits="userSpaceOnUse" x="13" y="21" width="7" height="3">
<path d="M13.8938 21.5126C14.035 21.3385 14.273 21.2769 14.4811 21.3601C15.9846 21.961 16.8187 22.2255 19.1522 21.539C19.5335 21.4268 19.9007 21.773 19.7951 22.1563C19.7842 22.1957 19.768 22.2347 19.7473 22.27C18.1607 24.9761 14.8077 24.1365 13.8214 21.9995C13.747 21.8383 13.782 21.6506 13.8938 21.5126Z" fill="#4A1816"/>
</mask>
<g mask="url(#mask3_1831_14907)">
<path d="M13.8938 21.5126C14.035 21.3385 14.273 21.2769 14.4811 21.3601C15.9846 21.961 16.8187 22.2255 19.1522 21.539C19.5335 21.4268 19.9007 21.773 19.7951 22.1563C19.7842 22.1957 19.768 22.2347 19.7473 22.27C18.1607 24.9761 14.8077 24.1365 13.8214 21.9995C13.747 21.8383 13.782 21.6506 13.8938 21.5126Z" fill="#4A1816"/>
<ellipse cx="16.7887" cy="23.7387" rx="2.17052" ry="1.23285" fill="#F25A51"/>
</g>
</g>
<circle cx="22.7817" cy="19.6215" r="1.32657" fill="#FFC7C7"/>
<circle cx="10.4242" cy="19.6215" r="1.32657" fill="#FFC7C7"/>
<g clip-path="url(#clip1_1831_14907)">
<path d="M24.2979 27.5217L25.8408 32.6579L27.1073 30.8557L29.2012 31.6207L27.5481 26.6475L24.2979 27.5217Z" fill="#FF4C00"/>
<g opacity="0.7">
<path d="M25.1647 28.9547L25.002 29.0039L26.0333 32.3561L26.1961 32.3069L25.1647 28.9547Z" fill="#FFCE45"/>
</g>
<g opacity="0.7">
<path d="M27.5197 27.4425L27.3574 27.4932L28.6246 31.4814L28.7869 31.4307L27.5197 27.4425Z" fill="#FFCE45"/>
</g>
<path d="M22.4246 26.9756L20.7715 31.7303L23.0298 30.9653L24.188 32.7119L26.1157 27.6313L22.4246 26.9756Z" fill="#FF4C00"/>
<g opacity="0.7">
<path d="M22.8395 26.7863L21.2969 31.4844L21.4587 31.5366L23.0013 26.8385L22.8395 26.7863Z" fill="#FFCE45"/>
</g>
<g opacity="0.7">
<path d="M25.5946 27.3296L23.8311 32.3018L23.9916 32.3577L25.7552 27.3856L25.5946 27.3296Z" fill="#FFCE45"/>
</g>
<path d="M20 23.6434C20 23.4134 20.5646 23.2255 20.5955 23.005C20.6284 22.7788 20.1392 22.4413 20.203 22.2266C20.2668 22.008 20.8623 21.9869 20.9571 21.7818C21.0518 21.5747 20.6806 21.1146 20.8024 20.9248C20.9262 20.735 21.5023 20.8788 21.6532 20.7082C21.802 20.5375 21.5758 19.9911 21.7479 19.8435C21.92 19.6959 22.4324 19.995 22.6257 19.8723C22.8171 19.7496 22.7533 19.1629 22.9621 19.0689C23.169 18.975 23.5751 19.4064 23.7955 19.3431C24.012 19.2798 24.1184 18.6989 24.3485 18.6663C24.5708 18.6357 24.8377 19.1629 25.0697 19.1629C25.3017 19.1629 25.5685 18.6357 25.7909 18.6663C26.019 18.6989 26.1254 19.2798 26.3439 19.3431C26.5643 19.4064 26.9703 18.9769 27.1772 19.0689C27.386 19.1629 27.3222 19.7515 27.5136 19.8723C27.7051 19.995 28.2194 19.6959 28.3915 19.8435C28.5635 19.9911 28.3373 20.5375 28.4862 20.7082C28.6351 20.8788 29.2132 20.7331 29.3369 20.9248C29.4607 21.1146 29.0875 21.5747 29.1823 21.7818C29.277 21.9869 29.8725 22.008 29.9363 22.2266C30.0001 22.4413 29.511 22.7788 29.5438 23.005C29.5748 23.2255 30.1394 23.4134 30.1394 23.6434C30.1394 23.8735 29.5748 24.0614 29.5438 24.2818C29.511 24.5081 30.0001 24.8455 29.9363 25.0602C29.8725 25.2788 29.277 25.2999 29.1823 25.505C29.0875 25.7121 29.4588 26.1722 29.3369 26.362C29.2132 26.5518 28.637 26.408 28.4862 26.5787C28.3373 26.7493 28.5635 27.2957 28.3915 27.4433C28.2194 27.591 27.707 27.2919 27.5136 27.4146C27.3222 27.5373 27.386 28.1239 27.1772 28.2179C26.9703 28.3118 26.5643 27.8805 26.3439 27.9437C26.1273 28.007 26.021 28.5879 25.7909 28.6205C25.5685 28.6512 25.3017 28.1239 25.0697 28.1239C24.8377 28.1239 24.5708 28.6512 24.3485 28.6205C24.1203 28.5879 24.014 28.007 23.7955 27.9437C23.5751 27.8805 23.169 28.3099 22.9621 28.2179C22.7533 28.1239 22.8171 27.5354 22.6257 27.4146C22.4343 27.2919 21.92 27.591 21.7479 27.4433C21.5758 27.2957 21.802 26.7493 21.6532 26.5787C21.5043 26.408 20.9262 26.5537 20.8024 26.362C20.6787 26.1722 21.0518 25.7121 20.9571 25.505C20.8623 25.2999 20.2668 25.2788 20.203 25.0602C20.1392 24.8455 20.6284 24.5081 20.5955 24.2818C20.5646 24.0614 20 23.8735 20 23.6434Z" fill="#FCAB28"/>
<path d="M25.07 27.6874C27.3221 27.6874 29.1478 25.8771 29.1478 23.644C29.1478 21.4109 27.3221 19.6006 25.07 19.6006C22.8179 19.6006 20.9922 21.4109 20.9922 23.644C20.9922 25.8771 22.8179 27.6874 25.07 27.6874Z" fill="#FFCE45"/>
<path d="M25.0701 27.7693C23.9584 27.7693 22.9143 27.3399 22.1292 26.5615C21.3442 25.7831 20.9111 24.7459 20.9111 23.6454C20.9111 22.5449 21.3442 21.5077 22.1292 20.7293C22.9143 19.9509 23.9603 19.5215 25.0701 19.5215C26.1819 19.5215 27.226 19.9509 28.011 20.7293C28.796 21.5077 29.2291 22.5449 29.2291 23.6454C29.2291 24.7459 28.796 25.7831 28.011 26.5615C27.226 27.3399 26.18 27.7693 25.0701 27.7693ZM25.0701 19.6825C22.8659 19.6825 21.0755 21.4598 21.0755 23.6435C21.0755 25.8272 22.8679 27.6045 25.0701 27.6045C27.2724 27.6045 29.0648 25.8272 29.0648 23.6435C29.0648 21.4598 27.2724 19.6825 25.0701 19.6825Z" fill="#FCAB28"/>
<path d="M25.07 26.539C26.6825 26.539 27.9896 25.2429 27.9896 23.644C27.9896 22.0452 26.6825 20.749 25.07 20.749C23.4575 20.749 22.1504 22.0452 22.1504 23.644C22.1504 25.2429 23.4575 26.539 25.07 26.539Z" fill="#FFD733"/>
<path d="M27.4946 22.4975C27.4946 22.3135 27.4772 22.1333 27.4424 21.9588C26.9126 21.2264 26.0484 20.749 25.07 20.749C23.4574 20.749 22.1504 22.0451 22.1504 23.644C22.1504 23.8281 22.1678 24.0083 22.2026 24.1828C22.7324 24.9151 23.5967 25.3925 24.575 25.3925C26.1856 25.3925 27.4946 24.0965 27.4946 22.4975Z" fill="#FFE266"/>
<path d="M25.0701 26.6228C23.4131 26.6228 22.0654 25.2865 22.0654 23.6434C22.0654 22.0004 23.4131 20.6641 25.0701 20.6641C26.7271 20.6641 28.0748 22.0004 28.0748 23.6434C28.0748 25.2865 26.7271 26.6228 25.0701 26.6228ZM25.0701 20.8328C23.5059 20.8328 22.2356 22.0943 22.2356 23.6434C22.2356 25.1925 23.5078 26.4541 25.0701 26.4541C26.6324 26.4541 27.9046 25.1925 27.9046 23.6434C27.9046 22.0943 26.6324 20.8328 25.0701 20.8328Z" fill="#FCAB28"/>
<path d="M23.051 21.236L23.3082 20.5918L23.5498 21.2436L24.0004 21.4986L23.5402 21.7383L23.283 22.5569L23.0413 21.7287L22.5908 21.4737L23.051 21.236Z" fill="white"/>
</g>
</g>
<defs>
<linearGradient id="paint0_linear_1831_14907" x1="10.3471" y1="10.0083" x2="7.29443" y2="10.1095" gradientUnits="userSpaceOnUse">
<stop offset="0.328226" stop-color="#FF893D"/>
<stop offset="0.750401" stop-color="#F5AD16"/>
</linearGradient>
<linearGradient id="paint1_linear_1831_14907" x1="10.3471" y1="10.0083" x2="7.29443" y2="10.1095" gradientUnits="userSpaceOnUse">
<stop offset="0.328226" stop-color="#FF893D"/>
<stop offset="0.750401" stop-color="#F5AD16"/>
</linearGradient>
<linearGradient id="paint2_linear_1831_14907" x1="6.94883" y1="8.49953" x2="5.31934" y2="5.91694" gradientUnits="userSpaceOnUse">
<stop offset="0.328226" stop-color="#FF893D"/>
<stop offset="0.750401" stop-color="#F5AD16"/>
</linearGradient>
<linearGradient id="paint3_linear_1831_14907" x1="2.7934" y1="3.55025" x2="-0.259282" y2="3.65147" gradientUnits="userSpaceOnUse">
<stop offset="0.328226" stop-color="#FF893D"/>
<stop offset="0.750401" stop-color="#F5AD16"/>
</linearGradient>
<linearGradient id="paint4_linear_1831_14907" x1="2.7934" y1="3.55025" x2="-0.259282" y2="3.65147" gradientUnits="userSpaceOnUse">
<stop offset="0.328226" stop-color="#FF893D"/>
<stop offset="0.750401" stop-color="#F5AD16"/>
</linearGradient>
<linearGradient id="paint5_linear_1831_14907" x1="21.0437" y1="7.4859" x2="22.256" y2="4.68315" gradientUnits="userSpaceOnUse">
<stop offset="0.328226" stop-color="#FF893D"/>
<stop offset="0.750401" stop-color="#F5AD16"/>
</linearGradient>
<clipPath id="clip0_1831_14907">
<rect width="32" height="32" fill="white"/>
</clipPath>
<clipPath id="clip1_1831_14907">
<rect width="10.1374" height="14.0455" fill="white" transform="translate(20 18.667)"/>
</clipPath>
</defs>
</svg>
