<svg xmlns="http://www.w3.org/2000/svg" width="20" height="20" viewBox="0 0 20 20" fill="none">
    <path d="M9.61662 0C9.36983 0 9.13315 0.0980367 8.95864 0.272543C8.78413 0.44705 8.6861 0.683732 8.6861 0.930521V9.94727L5.28969 6.76489C5.20083 6.6796 5.09591 6.6128 4.98103 6.56837C4.86615 6.52394 4.74359 6.50275 4.62046 6.50605C4.49733 6.50935 4.37608 6.53706 4.26374 6.58757C4.1514 6.63809 4.05021 6.71041 3.96603 6.80033C3.88186 6.89026 3.81637 6.996 3.77338 7.11143C3.73038 7.22685 3.71073 7.34967 3.71556 7.47275C3.72039 7.59583 3.74961 7.71672 3.80153 7.82842C3.85344 7.94012 3.92701 8.0404 4.01798 8.12345L8.98076 12.7761L9.03659 12.8195C9.06039 12.8404 9.08524 12.86 9.11104 12.8784L9.19168 12.9218L9.26922 12.9591L9.36848 12.9901L9.43982 13.0087C9.55752 13.0326 9.67882 13.0326 9.79652 13.0087L9.86786 12.9901L9.96712 12.9591L10.0447 12.9218L10.1253 12.8784C10.1511 12.86 10.176 12.8404 10.1997 12.8195L10.2556 12.7761L15.2184 8.12345C15.395 7.95396 15.4977 7.7217 15.5042 7.47701C15.5108 7.23232 15.4206 6.9949 15.2534 6.8162C15.0861 6.63749 14.8551 6.5319 14.6105 6.5223C14.3659 6.51269 14.1274 6.59985 13.9466 6.76489L10.5471 9.94727V0.930521C10.5471 0.683732 10.4491 0.44705 10.2746 0.272543C10.1001 0.0980367 9.86341 0 9.61662 0Z" fill="white"/>
    <path d="M19.2308 14.727C19.2308 14.4802 19.1327 14.2436 18.9582 14.0691C18.7837 13.8945 18.547 13.7965 18.3003 13.7965C18.0535 13.7965 17.8168 13.8945 17.6423 14.0691C17.4678 14.2436 17.3697 14.4802 17.3697 14.727V17.2084C17.3697 17.4552 17.2717 17.6919 17.0972 17.8664C16.9227 18.0409 16.686 18.1389 16.4392 18.1389H2.79156C2.54477 18.1389 2.30809 18.0409 2.13359 17.8664C1.95908 17.6919 1.86104 17.4552 1.86104 17.2084V14.727C1.86104 14.4802 1.76301 14.2436 1.5885 14.0691C1.41399 13.8945 1.17731 13.7965 0.930521 13.7965C0.683732 13.7965 0.44705 13.8945 0.272543 14.0691C0.0980367 14.2436 7.3549e-09 14.4802 0 14.727V17.2084C0 17.9488 0.294111 18.6588 0.81763 19.1824C1.34115 19.7059 2.0512 20 2.79156 20H16.4392C17.1796 20 17.8896 19.7059 18.4131 19.1824C18.9367 18.6588 19.2308 17.9488 19.2308 17.2084V14.727Z" fill="white"/>
</svg>