<svg width="24" height="24" viewBox="0 0 24 24" fill="none" xmlns="http://www.w3.org/2000/svg">
<path d="M21.4734 2H2.52616C2.23576 2 1.99976 2.2358 1.99976 2.5264V21.4736C1.99976 21.7642 2.23576 22 2.52616 22H21.4734C21.7644 22 21.9998 21.7642 21.9998 21.4736V2.5264C21.9998 2.2358 21.7644 2 21.4734 2ZM15.1964 20.9474H3.05236V3.0526H15.1966L15.1964 20.9474ZM20.1462 13.1538L18.8306 14.4694C18.7664 14.5336 18.6822 14.5658 18.5982 14.5658C18.5138 14.5658 18.4296 14.5336 18.3654 14.4694L17.0496 13.1538C16.9556 13.0596 16.9276 12.918 16.9786 12.7952C17.0294 12.6724 17.1494 12.5922 17.2826 12.5922H19.9142C20.047 12.5922 20.1672 12.6722 20.218 12.7952C20.2688 12.918 20.2404 13.0596 20.1462 13.1538ZM19.9166 11.4078C19.9156 11.4078 19.9148 11.4078 19.914 11.4078H17.2824C17.1494 11.4078 17.0292 11.3278 16.9784 11.2048C16.9274 11.082 16.9556 10.9404 17.0494 10.8462L18.3652 9.5306C18.4938 9.402 18.702 9.402 18.8304 9.5306L20.123 10.823C20.1976 10.8832 20.2452 10.9756 20.2452 11.0788C20.2456 11.2606 20.098 11.4078 19.9166 11.4078Z" fill="#FF9900"/>
<path d="M10.3843 7.32895L7.84575 7.32715C6.99475 7.32715 6.31055 8.03115 6.31055 8.90915V12.6515C6.31055 13.3791 7.36015 13.3791 7.36015 12.6515V9.22955H7.60875V18.7117C7.60875 19.6843 9.00675 19.6559 9.00675 18.7117V13.1607H9.24735V18.7119C9.24735 19.6561 10.6529 19.6845 10.6529 18.7119V9.22955H10.8961V12.6515C10.8961 13.3847 11.9405 13.3847 11.9385 12.6515V8.93155C11.9385 8.12195 11.3187 7.32895 10.3843 7.32895Z" fill="#FF9900"/>
<path d="M9.12151 6.98814C9.78944 6.98814 10.3309 6.44667 10.3309 5.77874C10.3309 5.1108 9.78944 4.56934 9.12151 4.56934C8.45358 4.56934 7.91211 5.1108 7.91211 5.77874C7.91211 6.44667 8.45358 6.98814 9.12151 6.98814Z" fill="#FF9900"/>
</svg>
