<svg xmlns="http://www.w3.org/2000/svg" width="16" height="17" viewBox="0 0 16 17" fill="none">
  <path d="M15.6822 8.0404C13.9894 4.47433 11.4305 2.67969 8.0001 2.67969C4.56796 2.67969 2.01082 4.47433 0.31796 8.04219C0.250059 8.18597 0.214844 8.343 0.214844 8.50201C0.214844 8.66102 0.250059 8.81805 0.31796 8.96183C2.01082 12.5279 4.56975 14.3225 8.0001 14.3225C11.4322 14.3225 13.9894 12.5279 15.6822 8.96005C15.8197 8.67076 15.8197 8.33505 15.6822 8.0404ZM8.0001 13.0368C5.11975 13.0368 3.01082 11.5761 1.52332 8.50112C3.01082 5.42612 5.11975 3.9654 8.0001 3.9654C10.8805 3.9654 12.9894 5.42612 14.4769 8.50112C12.9912 11.5761 10.8822 13.0368 8.0001 13.0368ZM7.92867 5.35826C6.19296 5.35826 4.78582 6.7654 4.78582 8.50112C4.78582 10.2368 6.19296 11.644 7.92867 11.644C9.66439 11.644 11.0715 10.2368 11.0715 8.50112C11.0715 6.7654 9.66439 5.35826 7.92867 5.35826ZM7.92867 10.5011C6.82332 10.5011 5.92867 9.60647 5.92867 8.50112C5.92867 7.39576 6.82332 6.50112 7.92867 6.50112C9.03403 6.50112 9.92868 7.39576 9.92868 8.50112C9.92868 9.60647 9.03403 10.5011 7.92867 10.5011Z" fill="white"/>
</svg>