<svg width="28" height="29" viewBox="0 0 28 29" fill="none" xmlns="http://www.w3.org/2000/svg">
<g id="icon/facebook" clip-path="url(#clip0_1912_12077)">
<g id="Group">
<path id="Vector" d="M28 14.5547C28 6.81839 21.7363 0.554688 14 0.554688C6.2637 0.554688 0 6.81839 0 14.5547C0 21.5443 5.12296 27.331 11.8222 28.3888V18.5991H8.25481V14.5547H11.8222V11.4643C11.8222 7.95913 13.8963 6.03024 17.0904 6.03024C18.6252 6.03024 20.2222 6.29987 20.2222 6.29987V9.74284H18.4593C16.717 9.74284 16.1778 10.8214 16.1778 11.9206V14.5547H20.0563L19.4341 18.5991H16.1778V28.3888C22.877 27.331 28 21.5443 28 14.5547Z" fill="#060606"/>
<path id="Vector_2" d="M19.4549 18.5992L20.0771 14.5547H16.1778V11.9206C16.1778 10.8214 16.7171 9.74287 18.4593 9.74287H20.2223V6.2999C20.2223 6.2999 18.6253 6.03027 17.0904 6.03027C13.8964 6.03027 11.8223 7.95916 11.8223 11.4643V14.5547H8.25488V18.5992H11.8223V28.3888C12.5275 28.4925 13.2741 28.5547 14.0001 28.5547C14.7467 28.5547 15.4727 28.4925 16.1778 28.3888V18.5992H19.4549Z" fill="white"/>
</g>
</g>
<defs>
<clipPath id="clip0_1912_12077">
<rect width="28" height="28" fill="white" transform="translate(0 0.554688)"/>
</clipPath>
</defs>
</svg>
