<svg xmlns="http://www.w3.org/2000/svg" width="11" height="16" viewBox="0 0 11 16" fill="none">
  <g clip-path="url(#clip0_668_57204)">
    <path d="M9.4689 8.08258C9.20559 8.53502 8.87908 8.93486 8.48938 9.27156C9.12133 4.21048 3.8972 3.12671 3.8972 3.12671C4.43436 3.57916 4.78193 5.19955 3.59176 6.3254C2.15933 7.68274 2.77022 9.06112 3.01247 9.78714C2.31732 9.37678 1.73803 8.78755 1.32726 8.08258C0.927028 8.77703 0.695312 9.5767 0.695312 10.429C0.695312 13.0279 2.80182 15.1323 5.40335 15.1323C8.00488 15.1323 10.1114 13.0279 10.1114 10.429C10.1009 9.5767 9.86914 8.77703 9.4689 8.08258Z" fill="#EF470C"/>
    <path d="M5.64556 7.87231C5.64556 7.87231 2.9703 9.48218 4.97148 13.2385C4.97148 13.2385 6.57242 13.0491 6.73041 11.2814C6.84626 10.124 5.15053 9.7768 5.64556 7.87231Z" fill="#FFB341"/>
    <path d="M2.84536 0.717285C2.84536 0.717285 1.03376 1.83262 1.89743 3.10578C2.7611 4.37895 3.05601 4.68408 2.84536 5.53637C2.84536 5.53637 3.77222 4.91557 3.35092 3.55823C2.92962 2.20089 2.47672 1.45383 2.84536 0.717285Z" fill="#EF470C"/>
  </g>
  <defs>
    <clipPath id="clip0_668_57204">
      <rect width="9.40554" height="15.1307" fill="white" transform="translate(0.695312 0.717285)"/>
    </clipPath>
  </defs>
</svg>