<svg width="20" height="20" viewBox="0 0 20 20" fill="none" xmlns="http://www.w3.org/2000/svg">
<g id="icon/ gender">
<g id="Group">
<path id="Vector" d="M7.74387 7.00369C5.80784 7.00369 4.24219 8.56935 4.24219 10.5054C4.24219 12.2394 5.50481 13.6704 7.15465 13.9566V15.3202H6.0267C5.70683 15.3202 5.43747 15.5896 5.43747 15.9094C5.43747 16.2293 5.70683 16.4986 6.0267 16.4986H7.15465V17.7444C7.15465 18.0643 7.42401 18.3337 7.74387 18.3337C8.06374 18.3337 8.31626 18.0643 8.31626 17.7444V16.4818H9.56205C9.88192 16.4818 10.1513 16.2124 10.1513 15.8926C10.1513 15.5727 9.88192 15.3034 9.56205 15.3034H8.31626V13.9397C9.76407 13.6872 10.9257 12.5592 11.1782 11.0946C10.8752 11.1788 10.5385 11.2124 10.2186 11.2124C10.1344 11.2124 10.0503 11.2124 9.96609 11.1956C9.66306 12.1384 8.78764 12.8118 7.74387 12.8118C6.46441 12.8118 5.4038 11. 5.4038 10.4717C5.4038 9.17541 6.44757 8.13164 7.74387 8.13164C8.36677 8.13164 8.93916 8.38416 9.36003 8.7882C9.61256 8.92288 9.91559 9.00706 10.2186 9.00706C10.4375 9.00706 10.6563 8.95655 10.8583 8.88921C10.286 7.7781 9.09067 7.00369 7.74387 7.00369ZM15.7573 4.44477V2.25622C15.7573 1.93635 15.488 1.66699 15.1681 1.66699H12.9796C12.6597 1.66699 12.3903 1.93635 12.3903 2.25622C12.3903 2.42457 12.4577 2.55925 12.5587 2.67709C12.6597 2.7781 12.8112 2.84544 12.9627 2.84544H13.7371L12.2052 4.37743C11.6328 3.97339 10.9425 3.72086 10.1849 3.72086C8.46778 3.72086 7.0368 4.96666 6.73377 6.61649C7.0368 6.53231 7.3735 6.49864 7.69337 6.49864C7.77754 6.49864 7.86172 6.49864 7.94589 6.51548C8.24892 5.57272 9.12434 4.89932 10.1681 4.89932C11.4476 4.89932 12.5082 5.94309 12.5082 7.23938C12.5082 8.53568 11.4644 9.57945 10.1681 9.57945C9.54522 9.57945 8.97283 9.32692 8.55195 8.92288C8.29943 8.7882 7.9964 8.70403 7.69337 8.70403C7.47451 8.70403 7.25566 8.75453 7.05364 8.82187C7.62603 9.96665 8.82131 10.7411 10.1681 10.7411C12.1041 10.7411 13.6698 9.17541 13.6698 7.23938C13.6698 6.48181 13.4341 5.79157 13.0132 5.21918L14.5452 3.68719V4.44477C14.5452 4.76464 14.8146 5.034 15.1344 5.034C15.5048 5.01716 15.7573 4.76464 15.7573 4.44477Z" fill="#9175FA"/>
</g>
</g>
</svg>
