<svg width="24" height="24" viewBox="0 0 24 24" fill="none" xmlns="http://www.w3.org/2000/svg">
<path d="M12.0001 4.6499C7.22008 4.6499 3.33008 8.5399 3.33008 13.3199C3.33008 18.0999 7.22008 21.9999 12.0001 21.9999C16.7801 21.9999 20.6701 18.1099 20.6701 13.3299C20.6701 8.5499 16.7801 4.6499 12.0001 4.6499ZM12.7501 12.9999C12.7501 13.4099 12.4101 13.7499 12.0001 13.7499C11.5901 13.7499 11.2501 13.4099 11.2501 12.9999V7.9999C11.2501 7.5899 11.5901 7.2499 12.0001 7.2499C12.4101 7.2499 12.7501 7.5899 12.7501 7.9999V12.9999Z" fill="#FF9900"/>
<path d="M9.10962 2.5H14.8899C15.0137 2.5 15.1095 2.596 15.1096 2.71973C15.1096 2.85261 15.0048 2.9502 14.8899 2.9502H9.10962C8.98605 2.95005 8.89013 2.85401 8.88989 2.73047C8.88989 2.59769 8.9948 2.50015 9.10962 2.5Z" stroke="#FF9900"/>
</svg>
