<svg width="24" height="24" viewBox="0 0 24 24" fill="none" xmlns="http://www.w3.org/2000/svg">
<path d="M3.07129 12.501H20.9287C21.2417 12.5011 21.4999 12.7592 21.5 13.0723V20.0723H19.252L18.6416 17.9355L18.5381 17.5723H5.46191L5.3584 17.9355L4.74805 20.0723H2.5V13.0723C2.50008 12.7592 2.75826 12.5011 3.07129 12.501Z" stroke="#FF9900"/>
<path d="M6.93335 5.02734C9.87138 3.56173 14.1281 3.56173 17.0662 5.02734L17.7263 5.35645L17.7878 4.62109L17.8445 3.92969H20.071V10.7871H18.9285V9.8584C18.9285 8.99302 18.2225 8.28719 17.3572 8.28711H14.1423C13.2771 8.28734 12.571 8.99311 12.571 9.8584V10.7871H11.4285V9.8584C11.4285 8.99302 10.7225 8.28719 9.85718 8.28711H6.64233C5.7771 8.28734 5.07104 8.99311 5.07104 9.8584V10.7871H3.92847V3.92969H6.15503L6.21265 4.62109L6.27319 5.35645L6.93335 5.02734Z" stroke="#FF9900"/>
<path d="M6.64279 9.50098C6.44636 9.50098 6.28564 9.66169 6.28564 9.85812V11.2867H10.2142V9.85812C10.2142 9.66169 10.0535 9.50098 9.85707 9.50098H6.64279Z" fill="#FF9900"/>
<path d="M14.1428 9.50098C13.9464 9.50098 13.7856 9.66169 13.7856 9.85812V11.2867H17.7142V9.85812C17.7142 9.66169 17.5535 9.50098 17.3571 9.50098H14.1428Z" fill="#FF9900"/>
</svg>
