<svg width="24" height="24" viewBox="0 0 24 24" fill="none" xmlns="http://www.w3.org/2000/svg">
<g id="icon/hand point">
<path id="Vector" d="M9.39666 3.67383C9.17958 3.67383 8.97685 3.78232 8.85645 3.96294L6.47752 7.53133C6.42824 7.60525 6.38426 7.68218 6.34576 7.76152C6.09028 7.63836 5.80376 7.56934 5.50114 7.56934H4.20264C3.12692 7.56934 2.25488 8.44138 2.25488 9.5171V17.9574C2.25488 19.0331 3.12692 19.9051 4.20264 19.9051H5.50114C6 19.9051 6.45506 19.7176 6.79965 19.4092C7.14424 19.7176 7.5993 19.9051 8.09815 19.9051H12.2894C13.9312 19.9051 15.3146 18.6793 15.5121 17.0495L16.0317 12.7634H19.1354C20.5697 12.7634 21.7325 11.6006 21.7325 10.1664C21.7325 8.73205 20.5697 7.56934 19.1354 7.56934H12.4492L12.617 6.93999C13.0567 5.29128 11.814 3.67383 10.1077 3.67383H9.39666Z" fill="white"/>
</g>
</svg>
