<svg width="50" height="50" viewBox="0 0 50 50" fill="none" xmlns="http://www.w3.org/2000/svg">
<rect x="0.5" y="0.5" width="49" height="49" rx="7.5" fill="#F3F3F3"/>
<rect x="0.5" y="0.5" width="49" height="49" rx="7.5" stroke="#818181"/>
<g clip-path="url(#clip0_2477_10058)">
<path d="M31.9648 26.7814L31.1932 25.4178C32.1739 20.8358 29.0132 16.3227 24.2954 15.7396C18.8154 15.0647 14.2788 19.8671 15.3432 25.225C16.0265 28.6638 19.0292 31.3542 22.5803 31.6113L21.9621 32.7269C17.9322 32.1898 14.6832 28.9897 14.1022 25.0138C13.1401 18.476 19.243 13.0997 25.7177 14.826C30.6726 16.1482 33.5869 21.2352 32.2065 26.1432C32.16 26.3131 32.0995 26.5518 32.0298 26.7033C32.0159 26.7355 32.0066 26.7768 31.9648 26.7768V26.7814Z" fill="#727272"/>
<path d="M28.581 24.2516C29.2131 24.2011 29.8638 24.5133 30.2217 25.0275L34.8094 32.8555C35.3718 34.0446 34.6142 35.3577 33.3127 35.5H24.0816C22.9429 35.376 22.1899 34.3109 22.4688 33.2044C22.5338 32.9473 22.7198 32.6581 22.8499 32.4193C24.1188 30.1237 25.5365 27.718 26.9077 25.4775C27.326 24.7934 27.6978 24.3205 28.581 24.2516ZM28.5484 25.4407C28.3951 25.4683 28.2463 25.5739 28.158 25.6979L23.6773 33.3559C23.4542 33.815 23.7516 34.3155 24.2676 34.3384H33.1919C33.6241 34.2971 33.9263 33.8564 33.7775 33.4523L29.2224 25.6519C29.0504 25.4545 28.8041 25.3994 28.5484 25.4453V25.4407Z" fill="#727272"/>
<path d="M23.6865 17.4888C23.8027 17.6036 23.8724 17.7873 23.8864 17.9526V22.5713C24.0258 22.732 24.1885 22.8054 24.314 23.0028C25.0205 24.1231 23.6633 25.4132 22.5756 24.6602C22.4548 24.5776 22.2131 24.2516 22.1341 24.2379L17.7881 24.2149C17.2303 23.9945 17.2629 23.2599 17.8439 23.0855L22.1666 23.0717C22.2828 22.9891 22.3432 22.8559 22.4594 22.7503C22.5198 22.6952 22.5989 22.6631 22.6593 22.6126L22.6825 17.8332C22.7569 17.3741 23.3379 17.1445 23.6865 17.4843V17.4888Z" fill="#727272"/>
<path d="M28.3207 31.2945C28.2044 31.1935 28.1394 31.0098 28.1254 30.8629C28.0278 29.8942 28.0511 28.8749 27.972 27.897C28.158 27.0385 29.3525 27.0936 29.4501 27.9659C29.3572 28.8749 29.3851 29.8024 29.3014 30.7114C29.2782 30.9823 29.2456 31.2302 28.976 31.3725C28.7715 31.4781 28.4973 31.4552 28.3207 31.2991V31.2945Z" fill="#727272"/>
<path d="M29.2922 33.2549C28.6647 33.9069 27.5399 33.131 27.9907 32.2908C28.5485 31.2532 30.166 32.3505 29.2922 33.2549Z" fill="#727272"/>
</g>
<defs>
<clipPath id="clip0_2477_10058">
<rect width="21" height="21" fill="white" transform="translate(14 14.5)"/>
</clipPath>
</defs>
</svg>
