<svg width="20" height="20" viewBox="0 0 20 20" fill="none" xmlns="http://www.w3.org/2000/svg">
<g id="heroicons-outline/plus">
<g id="Group 1000002064">
<path id="Vector" d="M13.1135 6.08202C12.9585 5.92533 12.7478 5.8364 12.5275 5.83468C12.3071 5.83296 12.095 5.9186 11.9377 6.07285L5.79182 12.147L3.12015 9.38118C3.04421 9.30203 2.95338 9.23864 2.85289 9.19467C2.75239 9.15069 2.6442 9.12699 2.53452 9.12492C2.42484 9.12286 2.31584 9.14246 2.21375 9.18262C2.11167 9.22278 2.01852 9.2827 1.93965 9.35894C1.86078 9.43518 1.79773 9.52624 1.75413 9.6269C1.71053 9.72756 1.68724 9.83584 1.68558 9.94553C1.68392 10.0552 1.70394 10.1641 1.74448 10.2661C1.78502 10.368 1.84528 10.4609 1.92182 10.5395L5.17932 13.9154C5.2565 13.9941 5.34854 14.0567 5.4501 14.0996C5.55166 14.1426 5.66073 14.1649 5.77099 14.1653H5.78015C5.99865 14.1647 6.20813 14.0782 6.36349 13.9245L13.106 7.25785C13.2624 7.10267 13.3511 6.89184 13.3525 6.67148C13.3539 6.45112 13.268 6.23918 13.1135 6.08202Z" fill="#FF9900"/>
<path id="Vector_2" d="M10.1793 13.9153C10.2562 13.9939 10.348 14.0564 10.4493 14.0993C10.5505 14.1422 10.6593 14.1647 10.7693 14.1653H10.7784C10.9969 14.1646 11.2064 14.0781 11.3618 13.9245L18.1043 7.25783C18.2446 7.0998 18.3197 6.89434 18.3142 6.68305C18.3088 6.47176 18.2233 6.27043 18.075 6.11981C17.9267 5.9692 17.7268 5.88056 17.5156 5.87183C17.3044 5.86311 17.0978 5.93496 16.9376 6.07283L10.7943 12.147L10.5751 11.9195C10.4991 11.8403 10.4083 11.777 10.3078 11.733C10.2073 11.689 10.0991 11.6653 9.98946 11.6632C9.87978 11.6612 9.77078 11.6808 9.66869 11.7209C9.56661 11.7611 9.47346 11.821 9.39459 11.8973C9.31572 11.9735 9.25267 12.0646 9.20907 12.1652C9.16547 12.2659 9.14218 12.3742 9.14052 12.4838C9.13887 12.5935 9.15888 12.7025 9.19942 12.8044C9.23996 12.9063 9.30023 12.9992 9.37676 13.0778L10.1793 13.9153Z" fill="#FF9900"/>
</g>
</g>
</svg>
