<svg width="20" height="20" viewBox="0 0 20 20" fill="none" xmlns="http://www.w3.org/2000/svg">
<path fill-rule="evenodd" clip-rule="evenodd" d="M10.0001 0.833374C7.69889 0.833374 5.83341 2.69885 5.83341 5.00004V6.90827C3.42384 7.6254 1.66675 9.85752 1.66675 12.5C1.66675 15.7217 4.27842 18.3334 7.50008 18.3334H12.5001C15.7217 18.3334 18.3334 15.7217 18.3334 12.5C18.3334 9.85752 16.5763 7.6254 14.1667 6.90827V5.00004C14.1667 2.69885 12.3013 0.833374 10.0001 0.833374ZM12.5001 6.66671V5.00004C12.5001 3.61933 11.3808 2.50004 10.0001 2.50004C8.61937 2.50004 7.50008 3.61933 7.50008 5.00004V6.66671H12.5001ZM3.33341 12.5C3.33341 10.1989 5.19889 8.33337 7.50008 8.33337H12.5001C14.8013 8.33337 16.6667 10.1989 16.6667 12.5C16.6667 14.8012 14.8013 16.6667 12.5001 16.6667H7.50008C5.19889 16.6667 3.33341 14.8012 3.33341 12.5Z" fill="#57534E"/>
</svg>
