<svg xmlns="http://www.w3.org/2000/svg" width="24" height="24" viewBox="0 0 24 24" fill="none">
    <path d="M4.90345 20.669V12.5325C4.90427 12.3853 4.84946 12.2432 4.74999 12.1348C4.65052 12.0263 4.51375 11.9594 4.36705 11.9475L3.75878 11.8942C3.43213 11.8653 3.12132 11.7405 2.86537 11.5355C2.60943 11.3305 2.41977 11.0545 2.32022 10.742C2.22067 10.4296 2.21567 10.0947 2.30584 9.77941C2.39602 9.46413 2.57735 9.18253 2.82706 8.96998L10.2748 2.63765C10.7549 2.22617 11.3664 2 11.9988 2C12.6311 2 13.2426 2.22617 13.7228 2.63765L21.1712 8.96932C21.4219 9.18133 21.604 9.46301 21.6944 9.77865C21.7848 10.0943 21.7794 10.4296 21.679 10.7422C21.5818 11.0566 21.3925 11.3344 21.1354 11.5397C20.8783 11.745 20.5655 11.8683 20.2375 11.8936L19.6312 11.9461C19.4844 11.9582 19.3475 12.0252 19.248 12.1338C19.1484 12.2424 19.0935 12.3845 19.0941 12.5318V20.669C19.0941 21.022 18.9539 21.3605 18.7043 21.6102C18.4547 21.8598 18.1161 22 17.7631 22H6.23447C5.88147 22 5.54292 21.8598 5.2933 21.6102C5.04369 21.3605 4.90345 21.022 4.90345 20.669ZM11.9985 12.0446C11.3254 12.0424 10.6742 12.2831 10.1644 12.7225C9.65462 13.1619 9.32047 13.7705 9.22336 14.4364C9.12624 15.1024 9.27268 15.7811 9.63577 16.3477C9.99886 16.9144 10.5542 17.331 11.1998 17.5211V18.0342C11.1998 18.246 11.284 18.4492 11.4338 18.5989C11.5835 18.7487 11.7867 18.8328 11.9985 18.8328C12.2103 18.8328 12.4134 18.7487 12.5632 18.5989C12.7129 18.4492 12.7971 18.246 12.7971 18.0342V17.5211C13.3746 17.351 13.8817 16.9989 14.243 16.5174C14.6043 16.0358 14.8004 15.4505 14.8022 14.8484C14.8022 14.6366 14.7181 14.4335 14.5683 14.2837C14.4186 14.134 14.2154 14.0498 14.0036 14.0498C13.7918 14.0498 13.5887 14.134 13.4389 14.2837C13.2892 14.4335 13.205 14.6366 13.205 14.8484C13.205 15.0871 13.1343 15.3203 13.0017 15.5188C12.8691 15.7172 12.6807 15.8718 12.4602 15.9632C12.2397 16.0545 11.9971 16.0784 11.7631 16.0318C11.529 15.9853 11.314 15.8703 11.1453 15.7016C10.9765 15.5329 10.8616 15.3179 10.8151 15.0838C10.7685 14.8498 10.7924 14.6072 10.8837 14.3867C10.9751 14.1662 11.1297 13.9778 11.3281 13.8452C11.5265 13.7126 11.7598 13.6419 11.9985 13.6419C12.6715 13.6441 13.3227 13.4034 13.8325 12.964C14.3423 12.5246 14.6764 11.916 14.7736 11.2501C14.8707 10.5841 14.7242 9.90544 14.3611 9.33877C13.9981 8.77209 13.4427 8.35545 12.7971 8.16538V7.65227C12.7971 7.44047 12.7129 7.23734 12.5632 7.08757C12.4134 6.9378 12.2103 6.85366 11.9985 6.85366C11.7867 6.85366 11.5835 6.9378 11.4338 7.08757C11.284 7.23734 11.1998 7.44047 11.1998 7.65227V8.16538C10.6225 8.33564 10.1155 8.68774 9.75434 9.16929C9.39318 9.65085 9.19712 10.2361 9.19533 10.8381C9.19533 11.0499 9.27947 11.253 9.42924 11.4028C9.579 11.5525 9.78213 11.6367 9.99394 11.6367C10.2057 11.6367 10.4089 11.5525 10.5586 11.4028C10.7084 11.253 10.7926 11.0499 10.7926 10.8381C10.7926 10.5994 10.8633 10.3661 10.9959 10.1677C11.1286 9.96923 11.317 9.81458 11.5375 9.72328C11.7581 9.63198 12.0007 9.60812 12.2348 9.65473C12.4688 9.70134 12.6838 9.81632 12.8525 9.98513C13.0212 10.1539 13.1361 10.369 13.1826 10.6031C13.2291 10.8372 13.2051 11.0798 13.1137 11.3003C13.0222 11.5207 12.8675 11.7091 12.669 11.8416C12.4705 11.9741 12.2371 12.0448 11.9985 12.0446Z" fill="#44AA56"/>
</svg>