<svg width="18" height="14" viewBox="0 0 18 14" fill="none" xmlns="http://www.w3.org/2000/svg">
<path fill-rule="evenodd" clip-rule="evenodd" d="M7.33342 0.333313C3.65152 0.333313 0.666748 3.31808 0.666748 6.99998C0.666748 10.6819 3.65152 13.6666 7.33342 13.6666H10.6667C14.3486 13.6666 17.3334 10.6819 17.3334 6.99998C17.3334 3.31808 14.3486 0.333313 10.6667 0.333313H7.33342ZM4.33324 2.99975C5.16893 2.37198 6.20773 1.99998 7.33342 1.99998H10.6667C11.7924 1.99998 12.8312 2.37198 13.6669 2.99974C13.1958 3.62804 12.601 4.15673 11.9167 4.55179C11.03 5.06378 10.024 5.33331 9.00008 5.33331C7.97612 5.33331 6.97019 5.06378 6.08342 4.55179C5.39914 4.15673 4.80441 3.62804 4.33324 2.99975ZM3.17447 4.22357C2.64321 5.0178 2.33341 5.97271 2.33341 6.99998C2.33341 9.7614 4.57199 12 7.33342 12H10.6667C13.4282 12 15.6667 9.7614 15.6667 6.99998C15.6667 5.97271 15.357 5.0178 14.8257 4.22357C14.2501 4.93349 13.5473 5.53487 12.7501 5.99517C11.6099 6.65343 10.3166 6.99998 9.00008 6.99998C7.68356 6.99998 6.39023 6.65343 5.25008 5.99517C4.45282 5.53487 3.7501 4.93349 3.17447 4.22357Z" fill="#57534E"/>
</svg>
