<svg width="32" height="32" viewBox="0 0 32 32" fill="none" xmlns="http://www.w3.org/2000/svg">
<path fill-rule="evenodd" clip-rule="evenodd" d="M3 16C3 8.8203 8.8203 3 16 3C23.1797 3 29 8.8203 29 16C29 23.1797 23.1797 29 16 29C8.8203 29 3 23.1797 3 16ZM14.6083 14.0779C16.1366 13.3138 17.8575 14.6942 17.443 16.3519L16.4977 20.1333L16.553 20.1056C17.047 19.8586 17.6477 20.0588 17.8946 20.5528C18.1416 21.0468 17.9414 21.6475 17.4474 21.8944L17.3921 21.9221C15.8638 22.6863 14.143 21.3059 14.5574 19.6482L15.5028 15.8668L15.4474 15.8944C14.9535 16.1414 14.3528 15.9412 14.1058 15.4472C13.8588 14.9533 14.059 14.3526 14.553 14.1056L14.6083 14.0779ZM16 12C16.5523 12 17 11.5523 17 11C17 10.4477 16.5523 10 16 10C15.4477 10 15 10.4477 15 11C15 11.5523 15.4477 12 16 12Z" fill="#4E89FC"/>
</svg>
