<svg width="24" height="24" viewBox="0 0 24 24" fill="none" xmlns="http://www.w3.org/2000/svg">
<path d="M12 11.5039C13.7852 11.5039 15.4974 12.2133 16.7598 13.4756C18.0202 14.7361 18.7293 16.4452 18.7314 18.2275C18.721 18.8389 18.4681 19.4208 18.0293 19.8467C17.5904 20.2726 17.0012 20.5079 16.3896 20.5H7.61035C6.99878 20.508 6.40864 20.2726 5.96973 19.8467C5.58593 19.4741 5.34443 18.9818 5.2832 18.4551L5.26855 18.2275C5.27068 16.4452 5.97976 14.7361 7.24023 13.4756C8.50259 12.2133 10.2148 11.5039 12 11.5039ZM9.08398 6.38477C9.21816 2.53818 14.7804 2.53864 14.9141 6.38477C14.781 10.2331 9.21641 10.2327 9.08398 6.38477Z" stroke="#FF9900"/>
<rect x="6.11865" y="9.75781" width="18.491" height="1.26991" rx="0.634954" transform="rotate(33.0075 6.11865 9.75781)" fill="#FF9900"/>
</svg>
