<svg width="392" height="98" viewBox="0 0 392 98" fill="none" xmlns="http://www.w3.org/2000/svg">
<g clip-path="url(#clip0_668_58208)">
<path d="M93.5759 78.3333C93.424 78.1798 93.3633 77.9956 93.3633 77.7807V67.7738C93.3633 67.5589 93.424 67.3747 93.5759 67.2212C93.7277 67.0677 93.8796 67.0063 94.1225 67.0063C94.244 67.0063 94.3351 67.037 94.4566 67.0984C94.578 67.1598 94.6388 67.2212 94.7299 67.2826L101.107 75.8469V67.7738C101.107 67.5589 101.168 67.3747 101.32 67.2212C101.472 67.0677 101.654 67.0063 101.867 67.0063C102.079 67.0063 102.261 67.0677 102.413 67.2212C102.565 67.3747 102.626 67.5589 102.626 67.7738V77.7807C102.626 77.9956 102.565 78.1798 102.413 78.3333C102.261 78.4867 102.11 78.5481 101.867 78.5481C101.745 78.5481 101.654 78.5174 101.533 78.4867C101.411 78.456 101.35 78.3639 101.29 78.3026L94.9121 69.7383V77.8114C94.9121 78.0263 94.8514 78.2105 94.6995 78.3639C94.5477 78.5174 94.3655 78.5788 94.1529 78.5788C93.8796 78.5481 93.6973 78.456 93.5759 78.3333Z" fill="white"/>
<path d="M115.228 74.8336C115.107 74.9564 114.955 75.0178 114.742 75.0178H109.185C109.306 75.6931 109.61 76.2763 110.126 76.6754C110.643 77.1051 111.25 77.32 112.009 77.32C112.313 77.32 112.617 77.2586 112.92 77.1665C113.224 77.0437 113.497 76.9209 113.71 76.7674C113.831 76.6447 114.014 76.614 114.196 76.614C114.378 76.614 114.53 76.6754 114.621 76.7674C114.803 76.9209 114.894 77.0744 114.894 77.2586C114.894 77.4428 114.803 77.5962 114.651 77.6883C114.317 77.9646 113.923 78.1795 113.406 78.3329C112.92 78.4864 112.434 78.5785 112.009 78.5785C111.22 78.5785 110.491 78.3943 109.853 78.0567C109.215 77.719 108.729 77.2279 108.365 76.614C108.001 76 107.818 75.294 107.818 74.4959C107.818 73.6978 108.001 72.9918 108.335 72.3779C108.669 71.764 109.124 71.2728 109.732 70.9045C110.339 70.5668 111.007 70.3826 111.766 70.3826C112.526 70.3826 113.163 70.5361 113.71 70.8738C114.257 71.2114 114.682 71.6719 114.955 72.2858C115.259 72.8997 115.38 73.575 115.38 74.3424C115.411 74.5573 115.35 74.7108 115.228 74.8336ZM110.066 72.2551C109.61 72.6541 109.337 73.176 109.215 73.8206H114.074C113.983 73.176 113.74 72.6235 113.346 72.2551C112.951 71.856 112.434 71.6719 111.797 71.6719C111.068 71.6719 110.491 71.856 110.066 72.2551ZM109.489 69.2776C109.337 69.1548 109.276 69.032 109.276 68.8478C109.276 68.6022 109.398 68.3874 109.64 68.2032L111.28 67.1288C111.402 67.0367 111.523 67.006 111.675 67.006C111.827 67.006 111.949 67.0367 112.07 67.1288L113.68 68.2032C113.923 68.3874 114.044 68.6022 114.044 68.8478C114.044 69.032 113.983 69.1855 113.831 69.2776C113.71 69.4004 113.528 69.4617 113.315 69.4617C113.133 69.4617 112.981 69.4004 112.829 69.3083L111.675 68.4795L110.521 69.3083C110.4 69.431 110.218 69.4617 110.066 69.4617C109.792 69.4617 109.61 69.4004 109.489 69.2776ZM112.617 66.8526L111.189 65.4098C111.068 65.2871 111.007 65.1029 111.007 64.888C111.007 64.6731 111.068 64.489 111.22 64.3355C111.341 64.182 111.523 64.1206 111.736 64.1206C111.949 64.1206 112.131 64.182 112.283 64.3355L113.71 65.7782C113.831 65.901 113.892 66.0852 113.892 66.2693C113.892 66.4842 113.831 66.6684 113.68 66.8219C113.528 66.9754 113.346 67.0367 113.133 67.0367C112.92 67.0367 112.738 67.006 112.617 66.8526Z" fill="white"/>
<path d="M126.039 70.8433C126.586 71.1502 126.98 71.58 127.284 72.1325C127.588 72.685 127.74 73.391 127.74 74.1891V77.8113C127.74 78.0262 127.679 78.2103 127.527 78.3638C127.375 78.5173 127.193 78.5787 126.98 78.5787C126.768 78.5787 126.586 78.5173 126.434 78.3638C126.282 78.2103 126.221 78.0262 126.221 77.8113V74.1891C126.221 73.391 126.009 72.7771 125.583 72.3781C125.158 71.979 124.612 71.7641 123.883 71.7641C123.488 71.7641 123.093 71.8562 122.759 72.0097C122.425 72.1632 122.152 72.4088 121.969 72.685C121.787 72.9613 121.696 73.299 121.696 73.6366V77.8113C121.696 78.0262 121.635 78.2103 121.484 78.3638C121.332 78.5173 121.18 78.5787 120.937 78.5787C120.724 78.5787 120.542 78.5173 120.39 78.3638C120.238 78.2103 120.178 78.0262 120.178 77.8113V71.2116C120.178 70.9967 120.238 70.8126 120.39 70.6591C120.542 70.5363 120.694 70.4442 120.937 70.4442C121.15 70.4442 121.332 70.5056 121.484 70.6591C121.605 70.7819 121.696 70.966 121.696 71.2116V71.3651C122 71.0581 122.364 70.8126 122.82 70.6284C123.245 70.4442 123.701 70.3828 124.186 70.3828C124.885 70.3828 125.492 70.5363 126.039 70.8433Z" fill="white"/>
<path d="M144.168 77.2588C144.289 77.4123 144.35 77.5658 144.35 77.7807C144.35 77.9955 144.259 78.1797 144.107 78.3025C143.955 78.4253 143.742 78.5174 143.5 78.5174H143.226C142.74 78.5174 142.315 78.3946 141.92 78.149C141.526 77.9034 141.222 77.5658 140.979 77.136C140.766 76.7063 140.645 76.2152 140.645 75.6626V72.0098H139.977C139.764 72.0098 139.612 71.9484 139.491 71.8256C139.369 71.7028 139.309 71.5493 139.309 71.3958C139.309 71.2117 139.369 71.0275 139.491 70.9354C139.612 70.8126 139.794 70.7512 139.977 70.7512H140.645V68.6332C140.645 68.4183 140.706 68.2341 140.857 68.1114C140.979 67.9886 141.161 67.8965 141.374 67.8965C141.586 67.8965 141.768 67.9579 141.89 68.1114C142.011 68.2341 142.103 68.4183 142.103 68.6332V70.7512H143.348C143.56 70.7512 143.712 70.8126 143.834 70.9354C143.955 71.0582 144.016 71.2117 144.016 71.3958C144.016 71.58 143.955 71.7335 143.834 71.8256C143.712 71.9484 143.53 72.0098 143.348 72.0098H142.103V75.6626C142.103 76.0617 142.224 76.3993 142.437 76.6449C142.649 76.9212 142.922 77.044 143.226 77.044H143.712C143.894 77.0747 144.046 77.136 144.168 77.2588Z" fill="white"/>
<path d="M154.769 70.9352C155.376 71.3036 155.862 71.7947 156.227 72.4087C156.591 73.0226 156.773 73.7286 156.773 74.496V77.7805C156.773 77.9954 156.713 78.1796 156.561 78.333C156.409 78.4865 156.227 78.5479 156.014 78.5479C155.802 78.5479 155.619 78.4865 155.468 78.333C155.316 78.1796 155.255 77.9954 155.255 77.7805V77.228C154.921 77.6577 154.496 77.9954 154.01 78.2102C153.524 78.4558 153.008 78.5786 152.431 78.5786C151.732 78.5786 151.094 78.3944 150.517 78.0568C149.94 77.6884 149.485 77.228 149.181 76.5833C148.847 75.9694 148.695 75.2634 148.695 74.496C148.695 73.7286 148.878 73.0226 149.212 72.4087C149.576 71.7947 150.032 71.3036 150.669 70.9352C151.277 70.5669 151.975 70.3827 152.734 70.3827C153.494 70.4134 154.162 70.5669 154.769 70.9352ZM154.04 76.921C154.435 76.6754 154.739 76.3378 154.982 75.9387C155.194 75.509 155.316 75.0485 155.316 74.5267C155.316 74.0049 155.194 73.5444 154.982 73.1147C154.769 72.6849 154.435 72.3473 154.04 72.1324C153.645 71.8868 153.19 71.764 152.704 71.764C152.218 71.764 151.763 71.8868 151.368 72.1324C150.973 72.378 150.669 72.7156 150.426 73.1147C150.183 73.5444 150.092 74.0049 150.092 74.5267C150.092 75.0485 150.214 75.509 150.426 75.9387C150.669 76.3685 150.973 76.6754 151.368 76.921C151.763 77.1666 152.188 77.2894 152.704 77.2894C153.22 77.2587 153.645 77.1359 154.04 76.921ZM152.248 69.4618C152.127 69.339 152.066 69.1856 152.066 69.0014V68.6637C152.066 68.2647 152.248 68.0191 152.643 67.927L153.038 67.8349C153.22 67.8042 153.372 67.7121 153.463 67.6201C153.585 67.528 153.645 67.4052 153.645 67.2517C153.645 67.0675 153.585 66.914 153.463 66.822C153.342 66.7299 153.19 66.6685 153.008 66.6685C152.886 66.6685 152.765 66.6992 152.613 66.7299C152.491 66.7606 152.37 66.822 152.309 66.914C152.248 66.9754 152.188 67.0061 152.097 67.0368C152.006 67.0675 151.914 67.0675 151.823 67.0675C151.671 67.0675 151.55 67.0368 151.429 66.9447C151.337 66.8526 151.277 66.7299 151.277 66.5457C151.277 66.3308 151.368 66.1466 151.52 66.0239C151.914 65.6862 152.4 65.5327 152.977 65.5327C153.494 65.5327 153.919 65.6862 154.253 65.9932C154.587 66.3001 154.739 66.6992 154.739 67.1596C154.739 68.0191 154.192 68.5102 153.099 68.6637L153.372 68.633C153.372 68.94 153.311 69.1856 153.19 69.339C153.068 69.4925 152.917 69.5846 152.704 69.5846C152.552 69.6767 152.4 69.5846 152.248 69.4618Z" fill="white"/>
<path d="M167.674 70.8433C168.22 71.1502 168.615 71.58 168.919 72.1325C169.223 72.685 169.374 73.391 169.374 74.1891V77.8113C169.374 78.0262 169.314 78.2103 169.162 78.3638C169.01 78.5173 168.828 78.5787 168.615 78.5787C168.403 78.5787 168.22 78.5173 168.068 78.3638C167.917 78.2103 167.856 78.0262 167.856 77.8113V74.1891C167.856 73.391 167.643 72.7771 167.218 72.3781C166.793 71.979 166.246 71.7641 165.518 71.7641C165.123 71.7641 164.728 71.8562 164.394 72.0097C164.06 72.1632 163.786 72.4088 163.604 72.685C163.422 72.9613 163.331 73.299 163.331 73.6366V77.8113C163.331 78.0262 163.27 78.2103 163.118 78.3638C162.967 78.5173 162.815 78.5787 162.572 78.5787C162.359 78.5787 162.177 78.5173 162.025 78.3638C161.873 78.2103 161.812 78.0262 161.812 77.8113V71.2116C161.812 70.9967 161.873 70.8126 162.025 70.6591C162.177 70.5363 162.329 70.4442 162.572 70.4442C162.784 70.4442 162.967 70.5056 163.118 70.6591C163.24 70.7819 163.331 70.966 163.331 71.2116V71.3651C163.635 71.0581 163.999 70.8126 164.455 70.6284C164.88 70.4442 165.335 70.3828 165.821 70.3828C166.52 70.3828 167.127 70.5363 167.674 70.8433Z" fill="white"/>
<path d="M180.461 70.9354C181.069 71.273 181.555 71.7642 181.889 72.3781C182.223 72.992 182.405 73.698 182.405 74.4961V77.6886C182.405 78.456 182.223 79.162 181.889 79.8066C181.555 80.4512 181.069 80.9423 180.461 81.3107C179.854 81.6791 179.156 81.8632 178.366 81.8632C177.667 81.8632 176.999 81.7098 176.422 81.4335C175.815 81.1572 175.299 80.7582 174.904 80.2363C174.782 80.0829 174.752 79.9601 174.752 79.8373C174.752 79.6224 174.843 79.4382 175.056 79.3155C175.177 79.2234 175.329 79.1927 175.451 79.1927C175.693 79.1927 175.906 79.2848 176.058 79.4996C176.331 79.8373 176.665 80.1136 177.06 80.2977C177.455 80.4819 177.91 80.574 178.427 80.574C178.913 80.574 179.338 80.4512 179.733 80.2363C180.127 79.9908 180.431 79.6531 180.674 79.2234C180.917 78.7629 181.038 78.2411 181.038 77.6272V76.8905C180.735 77.443 180.34 77.842 179.854 78.149C179.368 78.456 178.791 78.6094 178.184 78.6094C177.455 78.6094 176.817 78.4253 176.24 78.0876C175.663 77.7499 175.238 77.2588 174.904 76.6449C174.6 76.031 174.418 75.3249 174.418 74.5268C174.418 73.7287 174.6 73.0227 174.934 72.4088C175.268 71.7949 175.754 71.3037 176.362 70.9661C176.969 70.6284 177.667 70.4442 178.457 70.4442C179.156 70.4136 179.854 70.567 180.461 70.9354ZM179.733 76.9211C180.127 76.6756 180.431 76.3686 180.644 75.9389C180.856 75.5091 180.978 75.0487 180.978 74.5268C180.978 74.005 180.856 73.5139 180.644 73.0841C180.431 72.6544 180.127 72.3167 179.733 72.1018C179.338 71.8563 178.882 71.7335 178.396 71.7335C177.91 71.7335 177.455 71.8563 177.06 72.1018C176.665 72.3474 176.362 72.6544 176.119 73.0841C175.906 73.5139 175.785 73.9743 175.785 74.5268C175.785 75.0487 175.906 75.5398 176.119 75.9389C176.331 76.3686 176.665 76.6756 177.06 76.9211C177.455 77.1667 177.91 77.2895 178.396 77.2895C178.882 77.2588 179.338 77.136 179.733 76.9211Z" fill="white"/>
<path d="M196.313 78.0569C195.705 77.6885 195.219 77.2281 194.885 76.5834C194.551 75.9695 194.369 75.2635 194.369 74.4961C194.369 73.698 194.551 72.992 194.885 72.3781C195.219 71.7641 195.705 71.273 196.282 70.9047C196.89 70.567 197.558 70.3828 198.317 70.3828C199.471 70.3828 200.413 70.8126 201.172 71.7028C201.263 71.8255 201.324 71.9483 201.324 72.1018C201.324 72.3167 201.202 72.5009 200.99 72.6543C200.898 72.7157 200.777 72.7464 200.655 72.7464C200.443 72.7464 200.23 72.6543 200.078 72.4702C199.836 72.1939 199.562 72.0097 199.289 71.8869C199.016 71.7641 198.682 71.7028 198.317 71.7028C197.558 71.7028 196.951 71.9483 196.495 72.4702C196.039 72.992 195.796 73.6366 195.796 74.4961C195.796 75.0179 195.918 75.5091 196.131 75.9081C196.343 76.3379 196.647 76.6448 197.042 76.8904C197.436 77.136 197.892 77.2588 198.378 77.2588C199.046 77.2588 199.562 77.0746 199.987 76.7369C200.17 76.6141 200.352 76.5221 200.534 76.5221C200.656 76.5221 200.807 76.5528 200.929 76.6448C201.111 76.7983 201.202 76.9825 201.202 77.1667C201.202 77.3202 201.141 77.4429 201.02 77.5657C200.321 78.241 199.441 78.548 198.378 78.548C197.619 78.6094 196.92 78.4252 196.313 78.0569Z" fill="white"/>
<path d="M213.592 70.659C213.714 70.7818 213.805 70.9659 213.805 71.2115V77.8112C213.805 78.0261 213.744 78.2102 213.592 78.3637C213.471 78.5172 213.289 78.5786 213.046 78.5786C212.833 78.5786 212.651 78.5172 212.499 78.3637C212.347 78.2102 212.287 78.0261 212.287 77.8112V77.627C211.983 77.934 211.618 78.1795 211.163 78.3637C210.738 78.5479 210.282 78.6093 209.796 78.6093C209.128 78.6093 208.521 78.4558 207.974 78.1795C207.427 77.8726 207.033 77.4428 206.729 76.8903C206.425 76.3378 206.273 75.6318 206.273 74.8337V71.2115C206.273 70.9966 206.334 70.8125 206.486 70.659C206.638 70.5055 206.79 70.4441 207.033 70.4441C207.245 70.4441 207.427 70.5055 207.579 70.659C207.731 70.8125 207.792 70.9966 207.792 71.2115V74.8337C207.792 75.6318 208.004 76.2457 208.43 76.6447C208.855 77.0438 209.401 77.2587 210.13 77.2587C210.525 77.2587 210.92 77.1666 211.254 77.0131C211.588 76.8596 211.861 76.614 212.044 76.3378C212.226 76.0615 212.317 75.7239 212.317 75.3862V71.2115C212.317 70.9966 212.378 70.8125 212.529 70.659C212.681 70.5362 212.833 70.4441 213.076 70.4441C213.258 70.4441 213.441 70.5055 213.592 70.659ZM209.644 69.4618C209.523 69.339 209.462 69.1856 209.462 69.0014V68.6637C209.462 68.2647 209.644 68.0191 210.039 67.927L210.434 67.8349C210.616 67.8042 210.768 67.7121 210.859 67.6201C210.981 67.528 211.041 67.4052 211.041 67.2517C211.041 67.0675 210.981 66.914 210.859 66.822C210.738 66.7299 210.586 66.6685 210.404 66.6685C210.282 66.6685 210.161 66.6992 210.009 66.7299C209.887 66.7606 209.766 66.822 209.705 66.914C209.644 66.9754 209.584 67.0061 209.493 67.0368C209.401 67.0675 209.31 67.0675 209.219 67.0675C209.067 67.0675 208.946 67.0368 208.824 66.9447C208.733 66.8526 208.673 66.7299 208.673 66.5457C208.673 66.3308 208.764 66.1466 208.916 66.0239C209.31 65.6862 209.796 65.5327 210.373 65.5327C210.89 65.5327 211.315 65.6862 211.649 65.9932C211.983 66.3001 212.135 66.6992 212.135 67.1596C212.135 68.0191 211.588 68.5102 210.495 68.6637L210.768 68.633C210.768 68.94 210.707 69.1856 210.586 69.339C210.464 69.4925 210.313 69.5846 210.1 69.5846C209.948 69.6767 209.796 69.5846 209.644 69.4618Z" fill="white"/>
<path d="M225.011 70.9353C225.619 71.3037 226.105 71.7948 226.469 72.4088C226.833 73.0227 227.016 73.7287 227.016 74.4961V77.7806C227.016 77.9955 226.955 78.1797 226.803 78.3331C226.651 78.4866 226.469 78.548 226.256 78.548C226.044 78.548 225.862 78.4866 225.71 78.3331C225.558 78.1797 225.497 77.9955 225.497 77.7806V77.2281C225.163 77.6578 224.738 77.9955 224.252 78.2103C223.766 78.4559 223.25 78.5787 222.673 78.5787C221.974 78.5787 221.337 78.3945 220.76 78.0569C220.183 77.6885 219.727 77.2281 219.423 76.5834C219.089 75.9695 218.938 75.2635 218.938 74.4961C218.938 73.7287 219.12 73.0227 219.454 72.4088C219.818 71.7948 220.274 71.3037 220.911 70.9353C221.519 70.567 222.217 70.3828 222.977 70.3828C223.705 70.4135 224.404 70.567 225.011 70.9353ZM224.282 76.9211C224.677 76.6755 224.981 76.3379 225.224 75.9388C225.436 75.5091 225.558 75.0486 225.558 74.5268C225.558 74.005 225.436 73.5445 225.224 73.1148C225.011 72.685 224.677 72.3474 224.282 72.1325C223.888 71.8869 223.432 71.7641 222.946 71.7641C222.46 71.7641 222.005 71.8869 221.61 72.1325C221.215 72.3781 220.911 72.7157 220.669 73.1148C220.426 73.5445 220.334 74.005 220.334 74.5268C220.334 75.0486 220.456 75.5091 220.669 75.9388C220.911 76.3686 221.215 76.6755 221.61 76.9211C222.005 77.1667 222.43 77.2895 222.946 77.2895C223.462 77.2588 223.888 77.136 224.282 76.9211Z" fill="white"/>
<path d="M239.679 78.3025C239.528 78.149 239.467 77.9648 239.467 77.75V67.743C239.467 67.5281 239.528 67.3439 239.679 67.1905C239.831 67.037 240.013 66.9756 240.226 66.9756C240.439 66.9756 240.621 67.037 240.773 67.1905C240.925 67.3439 240.985 67.5281 240.985 67.743V71.9791H247.758V67.743C247.758 67.5281 247.818 67.3439 247.97 67.1905C248.122 67.037 248.304 66.9756 248.517 66.9756C248.729 66.9756 248.912 67.037 249.063 67.1905C249.215 67.3439 249.276 67.5281 249.276 67.743V77.75C249.276 77.9648 249.215 78.149 249.063 78.3025C248.912 78.456 248.76 78.5174 248.517 78.5174C248.304 78.5174 248.122 78.456 247.97 78.3025C247.818 78.149 247.758 77.9648 247.758 77.75V73.3604H240.985V77.75C240.985 77.9648 240.925 78.149 240.773 78.3025C240.621 78.456 240.439 78.5174 240.226 78.5174C240.013 78.5481 239.831 78.456 239.679 78.3025Z" fill="white"/>
<path d="M260.634 70.9353C261.242 71.3037 261.728 71.7948 262.092 72.4088C262.456 73.0227 262.639 73.7287 262.639 74.4961V77.7806C262.639 77.9955 262.578 78.1797 262.426 78.3331C262.274 78.4866 262.092 78.548 261.879 78.548C261.667 78.548 261.485 78.4866 261.333 78.3331C261.181 78.1797 261.12 77.9955 261.12 77.7806V77.2281C260.786 77.6578 260.361 77.9955 259.875 78.2103C259.389 78.4559 258.873 78.5787 258.296 78.5787C257.597 78.5787 256.96 78.3945 256.383 78.0569C255.806 77.6885 255.35 77.2281 255.046 76.5834C254.712 75.9695 254.561 75.2635 254.561 74.4961C254.561 73.7287 254.743 73.0227 255.077 72.4088C255.441 71.7948 255.897 71.3037 256.535 70.9353C257.142 70.567 257.84 70.3828 258.6 70.3828C259.328 70.4135 260.027 70.567 260.634 70.9353ZM259.905 76.9211C260.3 76.6755 260.604 76.3379 260.847 75.9388C261.06 75.5091 261.181 75.0486 261.181 74.5268C261.181 74.005 261.06 73.5445 260.847 73.1148C260.634 72.685 260.3 72.3474 259.905 72.1325C259.511 71.8869 259.055 71.7641 258.569 71.7641C258.083 71.7641 257.628 71.8869 257.233 72.1325C256.838 72.3781 256.535 72.7157 256.292 73.1148C256.049 73.5445 255.958 74.005 255.958 74.5268C255.958 75.0486 256.079 75.5091 256.292 75.9388C256.535 76.3686 256.838 76.6755 257.233 76.9211C257.628 77.1667 258.053 77.2895 258.569 77.2895C259.086 77.2588 259.511 77.136 259.905 76.9211ZM257.901 81.5562C257.719 81.3721 257.628 81.1265 257.628 80.8809C257.628 80.6047 257.719 80.3898 257.901 80.2056C258.083 80.0214 258.326 79.9293 258.569 79.9293C258.812 79.9293 259.055 80.0214 259.237 80.2056C259.42 80.3898 259.511 80.6353 259.511 80.8809C259.511 81.1572 259.42 81.3721 259.237 81.5562C259.055 81.7404 258.812 81.8325 258.569 81.8325C258.326 81.8325 258.114 81.7404 257.901 81.5562Z" fill="white"/>
<path d="M273.541 70.8433C274.088 71.1502 274.482 71.58 274.786 72.1325C275.09 72.685 275.242 73.391 275.242 74.1891V77.8113C275.242 78.0262 275.181 78.2103 275.029 78.3638C274.877 78.5173 274.695 78.5787 274.482 78.5787C274.27 78.5787 274.088 78.5173 273.936 78.3638C273.784 78.2103 273.723 78.0262 273.723 77.8113V74.1891C273.723 73.391 273.511 72.7771 273.085 72.3781C272.66 71.979 272.114 71.7641 271.385 71.7641C270.99 71.7641 270.595 71.8562 270.261 72.0097C269.927 72.1632 269.654 72.4088 269.471 72.685C269.289 72.9613 269.198 73.299 269.198 73.6366V77.8113C269.198 78.0262 269.137 78.2103 268.986 78.3638C268.864 78.5173 268.682 78.5787 268.439 78.5787C268.226 78.5787 268.044 78.5173 267.892 78.3638C267.74 78.2103 267.68 78.0262 267.68 77.8113V71.2116C267.68 70.9967 267.74 70.8126 267.892 70.6591C268.044 70.5363 268.226 70.4442 268.439 70.4442C268.651 70.4442 268.834 70.5056 268.986 70.6591C269.107 70.7819 269.198 70.966 269.198 71.2116V71.3651C269.502 71.0581 269.866 70.8126 270.322 70.6284C270.747 70.4442 271.202 70.3828 271.688 70.3828C272.387 70.3828 272.994 70.5363 273.541 70.8433Z" fill="white"/>
<path d="M286.416 70.8434C286.963 71.1503 287.357 71.5801 287.661 72.1326C287.965 72.6851 288.117 73.3912 288.117 74.1893V77.8114C288.117 78.0263 288.056 78.2105 287.904 78.3639C287.752 78.5174 287.57 78.5788 287.357 78.5788C287.145 78.5788 286.963 78.5174 286.811 78.3639C286.659 78.2105 286.598 78.0263 286.598 77.8114V74.1893C286.598 73.3912 286.386 72.7772 285.96 72.3782C285.535 71.9791 284.989 71.7643 284.26 71.7643C283.865 71.7643 283.47 71.8563 283.136 72.0098C282.802 72.1633 282.529 72.4089 282.346 72.6851C282.164 72.9614 282.073 73.2991 282.073 73.6367V77.8114C282.073 78.0263 282.012 78.2105 281.861 78.3639C281.739 78.5174 281.557 78.5788 281.314 78.5788C281.101 78.5788 280.919 78.5174 280.767 78.3639C280.615 78.2105 280.555 78.0263 280.555 77.8114V67.7738C280.555 67.5589 280.615 67.3747 280.767 67.2212C280.919 67.0984 281.101 67.0063 281.314 67.0063C281.526 67.0063 281.709 67.0677 281.861 67.2212C281.982 67.344 282.073 67.5282 282.073 67.7738V71.3959C282.377 71.0889 282.741 70.8434 283.197 70.6592C283.622 70.475 284.077 70.4136 284.563 70.4136C285.292 70.3829 285.869 70.5364 286.416 70.8434Z" fill="white"/>
<path d="M301.115 78.3025C300.963 78.149 300.902 77.9648 300.902 77.75V67.743C300.902 67.5281 300.963 67.3439 301.115 67.1905C301.267 67.037 301.449 66.9756 301.662 66.9756H304.577C305.306 66.9756 305.944 67.1291 306.521 67.4667C307.098 67.8044 307.523 68.2341 307.857 68.8174C308.161 69.4006 308.343 70.0452 308.343 70.7819C308.343 71.4879 308.191 72.1325 307.857 72.7158C307.553 73.2683 307.098 73.7288 306.521 74.0357C305.944 74.3427 305.306 74.4962 304.577 74.4962H302.421V77.7193C302.421 77.9341 302.36 78.1183 302.208 78.2718C302.056 78.4253 301.874 78.4867 301.662 78.4867C301.419 78.5481 301.236 78.456 301.115 78.3025ZM304.547 73.1148C305.215 73.1148 305.761 72.9 306.187 72.4702C306.612 72.0405 306.824 71.4879 306.824 70.8126C306.824 70.1066 306.612 69.5234 306.187 69.0936C305.761 68.6332 305.215 68.4183 304.547 68.4183H302.39V73.1148H304.547Z" fill="white"/>
<path d="M318.549 70.8434C319.095 71.1503 319.49 71.5801 319.794 72.1326C320.098 72.6851 320.249 73.3912 320.249 74.1893V77.8114C320.249 78.0263 320.189 78.2105 320.037 78.3639C319.885 78.5174 319.703 78.5788 319.49 78.5788C319.278 78.5788 319.095 78.5174 318.943 78.3639C318.792 78.2105 318.731 78.0263 318.731 77.8114V74.1893C318.731 73.3912 318.518 72.7772 318.093 72.3782C317.668 71.9791 317.121 71.7643 316.392 71.7643C315.998 71.7643 315.603 71.8563 315.269 72.0098C314.935 72.1633 314.661 72.4089 314.479 72.6851C314.297 72.9614 314.206 73.2991 314.206 73.6367V77.8114C314.206 78.0263 314.145 78.2105 313.993 78.3639C313.872 78.5174 313.69 78.5788 313.447 78.5788C313.234 78.5788 313.052 78.5174 312.9 78.3639C312.748 78.2105 312.688 78.0263 312.688 77.8114V67.7738C312.688 67.5589 312.748 67.3747 312.9 67.2212C313.052 67.0984 313.234 67.0063 313.447 67.0063C313.659 67.0063 313.842 67.0677 313.993 67.2212C314.115 67.344 314.206 67.5282 314.206 67.7738V71.3959C314.51 71.0889 314.874 70.8434 315.33 70.6592C315.755 70.475 316.21 70.4136 316.696 70.4136C317.395 70.3829 318.002 70.5364 318.549 70.8434Z" fill="white"/>
<path d="M332.79 70.6591C332.911 70.7819 333.002 70.9661 333.002 71.2116V77.8113C333.002 78.0262 332.941 78.2104 332.79 78.3638C332.668 78.5173 332.486 78.5787 332.243 78.5787C332.03 78.5787 331.848 78.5173 331.696 78.3638C331.544 78.2104 331.484 78.0262 331.484 77.8113V77.6271C331.18 77.9341 330.816 78.1797 330.36 78.3638C329.935 78.548 329.479 78.6094 328.993 78.6094C328.325 78.6094 327.718 78.4559 327.171 78.1797C326.625 77.8727 326.23 77.443 325.926 76.8904C325.623 76.3379 325.471 75.6319 325.471 74.8338V71.2116C325.471 70.9967 325.531 70.8126 325.683 70.6591C325.835 70.5056 326.017 70.4442 326.23 70.4442C326.443 70.4442 326.625 70.5056 326.777 70.6591C326.928 70.8126 326.989 70.9967 326.989 71.2116V74.8338C326.989 75.6319 327.202 76.2458 327.627 76.6448C328.052 77.0439 328.599 77.2588 329.328 77.2588C329.722 77.2588 330.117 77.1667 330.451 77.0132C330.785 76.8597 331.059 76.6142 331.241 76.3379C331.423 76.0616 331.514 75.724 331.514 75.3863V71.2116C331.514 70.9967 331.575 70.8126 331.727 70.6591C331.879 70.5056 332.03 70.4442 332.273 70.4442C332.456 70.4442 332.638 70.5056 332.79 70.6591ZM328.842 68.9708C328.72 68.8173 328.629 68.6638 328.629 68.4183C328.629 68.2034 328.69 68.0499 328.811 67.9271L330.239 66.4844C330.39 66.3309 330.573 66.2695 330.755 66.2695C330.967 66.2695 331.15 66.3309 331.302 66.4844C331.453 66.6379 331.514 66.8221 331.514 67.0369C331.514 67.2518 331.453 67.436 331.302 67.5588L329.874 69.0015C329.722 69.1243 329.571 69.2164 329.358 69.2164C329.145 69.1857 328.963 69.1243 328.842 68.9708Z" fill="white"/>
<path d="M340.08 78.0569C339.473 77.6885 338.987 77.2281 338.653 76.5834C338.319 75.9695 338.137 75.2635 338.137 74.4961C338.137 73.698 338.319 72.992 338.653 72.3781C338.987 71.7641 339.473 71.273 340.05 70.9047C340.657 70.567 341.325 70.3828 342.085 70.3828C343.239 70.3828 344.18 70.8126 344.939 71.7028C345.03 71.8255 345.091 71.9483 345.091 72.1018C345.091 72.3167 344.97 72.5009 344.757 72.6543C344.666 72.7157 344.545 72.7464 344.423 72.7464C344.21 72.7464 343.998 72.6543 343.846 72.4702C343.603 72.1939 343.33 72.0097 343.056 71.8869C342.783 71.7641 342.449 71.7028 342.085 71.7028C341.325 71.7028 340.718 71.9483 340.263 72.4702C339.807 72.992 339.564 73.6366 339.564 74.4961C339.564 75.0179 339.686 75.5091 339.898 75.9081C340.111 76.3379 340.414 76.6448 340.809 76.8904C341.204 77.136 341.659 77.2588 342.145 77.2588C342.814 77.2588 343.33 77.0746 343.755 76.7369C343.937 76.6141 344.119 76.5221 344.302 76.5221C344.423 76.5221 344.575 76.5528 344.696 76.6448C344.879 76.7983 344.97 76.9825 344.97 77.1667C344.97 77.3202 344.909 77.4429 344.787 77.5657C344.089 78.241 343.208 78.548 342.145 78.548C341.386 78.6094 340.718 78.4252 340.08 78.0569Z" fill="white"/>
<path d="M93.3937 15.8662H107.12C118.539 15.8662 124.279 22.2203 124.279 31.3064C124.279 37.2922 121.849 42.0501 116.474 44.5672L127.468 59.2706H118.6L109.489 46.501C108.274 46.6238 106.999 46.6852 105.632 46.6852H100.925V59.2706H93.3633V15.8662H93.3937ZM100.956 22.9263V39.9013H106.574C113.65 39.9013 116.11 36.0643 116.11 31.3064C116.11 26.5485 113.741 22.9263 106.574 22.9263H100.956Z" fill="white"/>
<path d="M140.949 15.8662H168.858V22.9263H148.541V35.082H166.975V41.8659H148.541V52.2412H168.858V59.2706H140.949V15.8662Z" fill="white"/>
<path d="M184.984 15.6206H187.384L213.926 43.5848V15.8662H221.518V59.5776H219.483L192.577 32.35V59.2706H184.984V15.6206Z" fill="white"/>
<path d="M274.997 56.3852C274.997 56.3852 269.439 60.038 260.693 60.038C246.146 60.038 236.52 50.3994 236.52 37.5684C236.52 25.0443 246.966 15.1602 259.661 15.1602C269.075 15.1602 274.815 18.6902 274.815 18.6902L272.203 25.2285C272.203 25.2285 266.524 22.4045 260.967 22.4045C250.884 22.4045 244.719 28.82 244.719 37.7219C244.719 46.4396 251.309 52.8551 260.238 52.8551C267.496 52.8551 272.689 49.8776 272.689 49.8776L274.997 56.3852Z" fill="white"/>
<path d="M296.925 15.8662H289.363V59.2706H296.925V15.8662Z" fill="white"/>
<path d="M309.314 15.8662H345.423V22.9263H331.302V59.2706H323.679V22.9263H309.314V15.8662Z" fill="white"/>
<path d="M391.341 15.8662L375.579 42.1115V59.2706H367.957V42.0501L352.195 15.8662H360.911L371.844 35.082L382.777 15.8662H391.341Z" fill="white"/>
<mask id="mask0_668_58208" style="mask-type:luminance" maskUnits="userSpaceOnUse" x="26" y="43" width="1" height="1">
<path d="M26.3672 43.2187L26.4004 43.2513V43.186L26.3672 43.2187Z" fill="white"/>
</mask>
<g mask="url(#mask0_668_58208)">
<path d="M26.4011 43.186H26.3672V43.22H26.4011V43.186Z" fill="white"/>
</g>
<mask id="mask1_668_58208" style="mask-type:luminance" maskUnits="userSpaceOnUse" x="26" y="43" width="1" height="1">
<path d="M26.3672 43.2187L26.4004 43.2513V43.186L26.3672 43.2187Z" fill="white"/>
</mask>
<g mask="url(#mask1_668_58208)">
<path d="M26.4011 43.186H26.3672V43.22H26.4011V43.186Z" fill="white"/>
</g>
<mask id="mask2_668_58208" style="mask-type:luminance" maskUnits="userSpaceOnUse" x="28" y="12" width="11" height="60">
<path d="M29.1602 20.1331C28.6135 20.7777 28.3402 21.6065 28.4313 22.466L30.4357 41.866L30.6179 43.7691L32.8956 65.6555L38.9997 71.7027L35.6591 12.7046L29.1602 20.1331Z" fill="white"/>
</mask>
<g mask="url(#mask2_668_58208)">
<path d="M39.0297 12.6738H28.3398V71.6719H39.0297V12.6738Z" fill="white"/>
</g>
<mask id="mask3_668_58208" style="mask-type:luminance" maskUnits="userSpaceOnUse" x="16" y="41" width="55" height="40">
<path d="M26.3663 43.2166L26.3967 43.1859L26.3663 43.2166ZM54.9739 41.7432L54.8524 43.7691H59.347C59.7114 43.7691 60.0758 43.9226 60.3188 44.1682L61.898 45.7644L67.1822 51.1976C67.6681 51.6887 67.6681 52.4868 67.1518 52.978L53.6376 66.3308L47.3816 72.5008L43.6463 76.215L40.6397 73.2682L38.9998 71.6413L32.8956 65.6555L20.1103 53.0394C19.6244 52.5482 19.5941 51.7501 20.08 51.259L26.9737 44.1682C27.2167 43.8919 27.5811 43.7691 27.9455 43.7691H30.6483L30.4661 41.8659H28.2188C27.6115 41.8659 27.0041 42.0194 26.4574 42.2957H26.4271V42.3264C26.0626 42.5106 25.6982 42.7561 25.3945 43.0631L16.9216 51.6273C16.1927 52.364 16.1927 53.5612 16.8912 54.2979L41.9152 80.3897C42.6441 81.1571 43.8588 81.1571 44.6181 80.4204L70.4316 54.3286C71.1605 53.5919 71.1605 52.364 70.4316 51.6273L61.8069 42.9096C61.078 42.1729 60.0455 41.7432 59.0129 41.7432H54.9739Z" fill="white"/>
</mask>
<g mask="url(#mask3_668_58208)">
<path d="M71.1602 41.7432H16.1621V81.1878H71.1602V41.7432Z" fill="white"/>
</g>
<mask id="mask4_668_58208" style="mask-type:luminance" maskUnits="userSpaceOnUse" x="38" y="0" width="10" height="77">
<path d="M38.4844 10.3717L40.6709 73.3296L43.6775 76.2457L47.3825 72.5315L45.7729 74.1277L46.1981 0.57959L38.4844 10.3717Z" fill="white"/>
</mask>
<g mask="url(#mask4_668_58208)">
<path d="M47.4128 0.57959H38.4844V76.2457H47.4128V0.57959Z" fill="white"/>
</g>
<mask id="mask5_668_58208" style="mask-type:luminance" maskUnits="userSpaceOnUse" x="47" y="17" width="9" height="56">
<path d="M47.3828 72.5316L53.6388 66.3616L54.8536 43.7692L54.975 41.7433L55.795 26.3031C55.8254 25.4743 55.5217 24.6762 54.975 24.1236L48.6887 17.7695L47.3828 72.5316Z" fill="white"/>
</mask>
<g mask="url(#mask5_668_58208)">
<path d="M55.8254 17.7388H47.3828V72.5315H55.8254V17.7388Z" fill="white"/>
</g>
<mask id="mask6_668_58208" style="mask-type:luminance" maskUnits="userSpaceOnUse" x="4" y="29" width="78" height="64">
<path d="M59.2259 36.5246L74.4104 51.7806C74.7444 52.1183 74.9266 52.5787 74.9266 53.0085C74.9266 53.4689 74.7748 53.8987 74.4104 54.267L44.4059 84.5949C43.7378 85.2702 42.6445 85.2702 41.946 84.5949L12.1237 54.2977C11.7593 53.9294 11.6074 53.4382 11.6378 52.9471C11.6378 52.9164 11.6378 52.9164 11.6378 52.8857C11.6682 52.6401 11.7593 52.2104 12.1237 51.8113L27.0652 36.8316L25.5468 30.3547L22.935 32.9945C22.6313 33.3015 22.2669 33.6699 21.9329 34.0075L20.627 35.3582L20.2322 35.7572L20.0196 35.9721L19.4122 36.6167L18.9871 37.0464L18.5619 37.4762L16.8005 39.2566L16.345 39.717L15.8894 40.1775L15.6769 40.3923L14.5532 41.5281L13.8851 42.2034L13.4296 42.6639L13.0044 43.0936L12.3666 43.7382L11.7289 44.3828L11.2734 44.7819L10.666 45.3958L10.2712 45.7949L9.87639 46.1939L9.51197 46.5623L8.81348 47.2683L8.32758 47.7594L8.17573 47.9129L7.87205 48.2199L7.56836 48.5268L7.29504 48.8031L7.02172 49.0794L6.20175 49.9082L6.04991 50.0616L5.68548 50.43C4.44036 51.6885 4.56183 53.0392 4.56183 53.0392C4.53146 54.0521 4.89589 55.0958 5.68548 55.8632L40.3972 90.949C41.8852 92.4531 44.2844 92.4531 45.7725 90.949L80.6056 55.7404C81.3345 55.0037 81.6989 54.0214 81.7293 53.0699C81.7293 52.0876 81.3649 51.0746 80.6056 50.3072L60.0459 29.5259L59.2259 36.5246Z" fill="white"/>
</mask>
<g mask="url(#mask6_668_58208)">
<path d="M0.339844 92.1462L4.80408 24.3076L85.8588 29.7408L81.3945 97.5794L0.339844 92.1462Z" fill="white"/>
</g>
</g>
<defs>
<clipPath id="clip0_668_58208">
<rect width="391" height="97" fill="white" transform="translate(0.341797 0.57959)"/>
</clipPath>
</defs>
</svg>
