<svg xmlns="http://www.w3.org/2000/svg" width="157" height="40" viewBox="0 0 157 40" fill="none">
  <g clip-path="url(#clip0_668_56904)">
    <path d="M37.4369 31.7618C37.376 31.7 37.3516 31.626 37.3516 31.5396V27.5162C37.3516 27.4298 37.376 27.3557 37.4369 27.294C37.4979 27.2323 37.5589 27.2076 37.6564 27.2076C37.7052 27.2076 37.7418 27.22 37.7906 27.2447C37.8393 27.2694 37.8637 27.294 37.9003 27.3187L40.4611 30.7621V27.5162C40.4611 27.4298 40.4855 27.3557 40.5464 27.294C40.6074 27.2323 40.6806 27.2076 40.7659 27.2076C40.8513 27.2076 40.9245 27.2323 40.9854 27.294C41.0464 27.3557 41.0708 27.4298 41.0708 27.5162V31.5396C41.0708 31.626 41.0464 31.7 40.9854 31.7618C40.9245 31.8235 40.8635 31.8481 40.7659 31.8481C40.7172 31.8481 40.6806 31.8358 40.6318 31.8235C40.583 31.8111 40.5586 31.7741 40.5342 31.7494L37.9735 28.3061V31.5519C37.9735 31.6383 37.9491 31.7124 37.8881 31.7741C37.8271 31.8358 37.754 31.8605 37.6686 31.8605C37.5589 31.8481 37.4857 31.8111 37.4369 31.7618Z" fill="black"/>
    <path d="M46.1297 30.3548C46.0809 30.4041 46.0199 30.4288 45.9346 30.4288H43.703C43.7518 30.7003 43.8738 30.9348 44.0811 31.0953C44.2884 31.2681 44.5322 31.3544 44.8371 31.3544C44.959 31.3544 45.081 31.3298 45.2029 31.2927C45.3249 31.2434 45.4346 31.194 45.52 31.1323C45.5687 31.0829 45.6419 31.0706 45.7151 31.0706C45.7882 31.0706 45.8492 31.0953 45.8858 31.1323C45.959 31.194 45.9955 31.2557 45.9955 31.3298C45.9955 31.4038 45.959 31.4655 45.898 31.5025C45.7638 31.6136 45.6053 31.7 45.398 31.7617C45.2029 31.8234 45.0078 31.8605 44.8371 31.8605C44.52 31.8605 44.2274 31.7864 43.9713 31.6506C43.7152 31.5149 43.5201 31.3174 43.3738 31.0706C43.2275 30.8238 43.1543 30.5399 43.1543 30.219C43.1543 29.8981 43.2275 29.6143 43.3616 29.3674C43.4957 29.1206 43.6786 28.9231 43.9225 28.775C44.1664 28.6393 44.4347 28.5652 44.7395 28.5652C45.0444 28.5652 45.3005 28.6269 45.52 28.7627C45.7395 28.8984 45.9102 29.0836 46.0199 29.3304C46.1419 29.5772 46.1906 29.8488 46.1906 30.1573C46.2028 30.2437 46.1785 30.3054 46.1297 30.3548ZM44.0567 29.3181C43.8738 29.4785 43.764 29.6883 43.7152 29.9475H45.6663C45.6297 29.6883 45.5322 29.4662 45.3736 29.3181C45.2151 29.1576 45.0078 29.0836 44.7517 29.0836C44.4591 29.0836 44.2274 29.1576 44.0567 29.3181ZM43.825 28.1209C43.764 28.0715 43.7396 28.0222 43.7396 27.9481C43.7396 27.8494 43.7884 27.763 43.8859 27.6889L44.5444 27.257C44.5932 27.22 44.642 27.2076 44.703 27.2076C44.7639 27.2076 44.8127 27.22 44.8615 27.257L45.5078 27.6889C45.6053 27.763 45.6541 27.8494 45.6541 27.9481C45.6541 28.0222 45.6297 28.0839 45.5687 28.1209C45.52 28.1703 45.4468 28.195 45.3614 28.195C45.2883 28.195 45.2273 28.1703 45.1663 28.1332L44.703 27.8L44.2396 28.1332C44.1908 28.1826 44.1176 28.195 44.0567 28.195C43.9469 28.195 43.8738 28.1703 43.825 28.1209ZM45.081 27.1459L44.5079 26.5658C44.4591 26.5165 44.4347 26.4424 44.4347 26.356C44.4347 26.2696 44.4591 26.1956 44.52 26.1339C44.5688 26.0722 44.642 26.0475 44.7273 26.0475C44.8127 26.0475 44.8859 26.0722 44.9468 26.1339L45.52 26.7139C45.5687 26.7633 45.5931 26.8374 45.5931 26.9114C45.5931 26.9978 45.5687 27.0719 45.5078 27.1336C45.4468 27.1953 45.3736 27.22 45.2883 27.22C45.2029 27.22 45.1298 27.2076 45.081 27.1459Z" fill="black"/>
    <path d="M50.4726 28.7503C50.6921 28.8737 50.8506 29.0465 50.9726 29.2687C51.0945 29.4908 51.1555 29.7747 51.1555 30.0956V31.5519C51.1555 31.6383 51.1311 31.7123 51.0701 31.774C51.0092 31.8358 50.936 31.8604 50.8506 31.8604C50.7653 31.8604 50.6921 31.8358 50.6311 31.774C50.5702 31.7123 50.5458 31.6383 50.5458 31.5519V30.0956C50.5458 29.7747 50.4604 29.5278 50.2897 29.3674C50.119 29.207 49.8995 29.1206 49.6068 29.1206C49.4483 29.1206 49.2898 29.1576 49.1556 29.2193C49.0215 29.281 48.9118 29.3797 48.8386 29.4908C48.7654 29.6019 48.7288 29.7377 48.7288 29.8734V31.5519C48.7288 31.6383 48.7045 31.7123 48.6435 31.774C48.5825 31.8358 48.5215 31.8604 48.424 31.8604C48.3386 31.8604 48.2655 31.8358 48.2045 31.774C48.1435 31.7123 48.1191 31.6383 48.1191 31.5519V28.8984C48.1191 28.812 48.1435 28.738 48.2045 28.6763C48.2655 28.6269 48.3264 28.5899 48.424 28.5899C48.5094 28.5899 48.5825 28.6146 48.6435 28.6763C48.6923 28.7256 48.7288 28.7997 48.7288 28.8984V28.9601C48.8508 28.8367 48.9971 28.738 49.18 28.6639C49.3508 28.5899 49.5337 28.5652 49.7288 28.5652C50.0092 28.5652 50.2531 28.6269 50.4726 28.7503Z" fill="black"/>
    <path d="M57.7518 31.3297C57.8006 31.3914 57.825 31.4531 57.825 31.5395C57.825 31.6259 57.7884 31.7 57.7275 31.7494C57.6665 31.7987 57.5811 31.8357 57.4836 31.8357H57.3738C57.1787 31.8357 57.008 31.7864 56.8495 31.6876C56.691 31.5889 56.569 31.4531 56.4715 31.2804C56.3861 31.1076 56.3373 30.9101 56.3373 30.688V29.2193H56.0691C55.9837 29.2193 55.9227 29.1946 55.8739 29.1452C55.8252 29.0959 55.8008 29.0342 55.8008 28.9725C55.8008 28.8984 55.8252 28.8244 55.8739 28.7873C55.9227 28.738 55.9959 28.7133 56.0691 28.7133H56.3373V27.8617C56.3373 27.7753 56.3617 27.7012 56.4227 27.6519C56.4715 27.6025 56.5446 27.5655 56.63 27.5655C56.7153 27.5655 56.7885 27.5902 56.8373 27.6519C56.8861 27.7012 56.9226 27.7753 56.9226 27.8617V28.7133H57.4226C57.508 28.7133 57.5689 28.738 57.6177 28.7873C57.6665 28.8367 57.6909 28.8984 57.6909 28.9725C57.6909 29.0465 57.6665 29.1082 57.6177 29.1452C57.5689 29.1946 57.4958 29.2193 57.4226 29.2193H56.9226V30.688C56.9226 30.8484 56.9714 30.9842 57.0568 31.0829C57.1421 31.194 57.2519 31.2433 57.3738 31.2433H57.5689C57.6421 31.2557 57.7031 31.2804 57.7518 31.3297Z" fill="black"/>
    <path d="M62.0072 28.7873C62.2511 28.9354 62.4462 29.1329 62.5925 29.3797C62.7388 29.6266 62.812 29.9104 62.812 30.219V31.5395C62.812 31.6259 62.7876 31.7 62.7267 31.7617C62.6657 31.8234 62.5925 31.8481 62.5072 31.8481C62.4218 31.8481 62.3486 31.8234 62.2877 31.7617C62.2267 31.7 62.2023 31.6259 62.2023 31.5395V31.3174C62.0682 31.4902 61.8974 31.6259 61.7023 31.7123C61.5072 31.8111 61.2999 31.8604 61.0682 31.8604C60.7878 31.8604 60.5317 31.7864 60.3 31.6506C60.0683 31.5025 59.8854 31.3174 59.7635 31.0582C59.6293 30.8114 59.5684 30.5275 59.5684 30.219C59.5684 29.9104 59.6415 29.6266 59.7757 29.3797C59.922 29.1329 60.1049 28.9354 60.361 28.7873C60.6049 28.6392 60.8853 28.5652 61.1902 28.5652C61.495 28.5775 61.7633 28.6392 62.0072 28.7873ZM61.7145 31.194C61.8731 31.0952 61.995 30.9595 62.0926 30.799C62.1779 30.6262 62.2267 30.4411 62.2267 30.2313C62.2267 30.0215 62.1779 29.8364 62.0926 29.6636C62.0072 29.4908 61.8731 29.355 61.7145 29.2687C61.556 29.1699 61.3731 29.1206 61.178 29.1206C60.9829 29.1206 60.8 29.1699 60.6414 29.2687C60.4829 29.3674 60.361 29.5031 60.2634 29.6636C60.1659 29.8364 60.1293 30.0215 60.1293 30.2313C60.1293 30.4411 60.1781 30.6262 60.2634 30.799C60.361 30.9718 60.4829 31.0952 60.6414 31.194C60.8 31.2927 60.9707 31.3421 61.178 31.3421C61.3853 31.3297 61.556 31.2804 61.7145 31.194ZM60.9951 28.1949C60.9463 28.1456 60.9219 28.0838 60.9219 28.0098V27.874C60.9219 27.7136 60.9951 27.6149 61.1536 27.5778L61.3121 27.5408C61.3853 27.5285 61.4463 27.4914 61.4828 27.4544C61.5316 27.4174 61.556 27.368 61.556 27.3063C61.556 27.2323 61.5316 27.1706 61.4828 27.1335C61.4341 27.0965 61.3731 27.0718 61.2999 27.0718C61.2512 27.0718 61.2024 27.0842 61.1414 27.0965C61.0926 27.1088 61.0439 27.1335 61.0195 27.1706C60.9951 27.1952 60.9707 27.2076 60.9341 27.2199C60.8975 27.2323 60.8609 27.2323 60.8244 27.2323C60.7634 27.2323 60.7146 27.2199 60.6658 27.1829C60.6293 27.1459 60.6049 27.0965 60.6049 27.0225C60.6049 26.9361 60.6414 26.862 60.7024 26.8126C60.8609 26.6769 61.056 26.6152 61.2877 26.6152C61.495 26.6152 61.6658 26.6769 61.7999 26.8003C61.934 26.9237 61.995 27.0842 61.995 27.2693C61.995 27.6149 61.7755 27.8123 61.3365 27.874L61.4463 27.8617C61.4463 27.9851 61.4219 28.0838 61.3731 28.1456C61.3243 28.2073 61.2634 28.2443 61.178 28.2443C61.117 28.2813 61.0561 28.2443 60.9951 28.1949Z" fill="black"/>
    <path d="M67.1894 28.7503C67.4089 28.8737 67.5674 29.0465 67.6894 29.2687C67.8113 29.4908 67.8723 29.7747 67.8723 30.0956V31.5519C67.8723 31.6383 67.8479 31.7123 67.7869 31.774C67.726 31.8358 67.6528 31.8604 67.5674 31.8604C67.4821 31.8604 67.4089 31.8358 67.3479 31.774C67.287 31.7123 67.2626 31.6383 67.2626 31.5519V30.0956C67.2626 29.7747 67.1772 29.5278 67.0065 29.3674C66.8358 29.207 66.6163 29.1206 66.3236 29.1206C66.1651 29.1206 66.0066 29.1576 65.8724 29.2193C65.7383 29.281 65.6286 29.3797 65.5554 29.4908C65.4822 29.6019 65.4456 29.7377 65.4456 29.8734V31.5519C65.4456 31.6383 65.4213 31.7123 65.3603 31.774C65.2993 31.8358 65.2383 31.8604 65.1408 31.8604C65.0554 31.8604 64.9823 31.8358 64.9213 31.774C64.8603 31.7123 64.8359 31.6383 64.8359 31.5519V28.8984C64.8359 28.812 64.8603 28.738 64.9213 28.6763C64.9823 28.6269 65.0432 28.5899 65.1408 28.5899C65.2262 28.5899 65.2993 28.6146 65.3603 28.6763C65.4091 28.7256 65.4456 28.7997 65.4456 28.8984V28.9601C65.5676 28.8367 65.7139 28.738 65.8968 28.6639C66.0676 28.5899 66.2505 28.5652 66.4456 28.5652C66.726 28.5652 66.9699 28.6269 67.1894 28.7503Z" fill="black"/>
    <path d="M72.3251 28.7874C72.569 28.9231 72.7641 29.1206 72.8982 29.3674C73.0323 29.6143 73.1055 29.8981 73.1055 30.219V31.5026C73.1055 31.8111 73.0323 32.095 72.8982 32.3542C72.7641 32.6133 72.569 32.8108 72.3251 32.9589C72.0812 33.107 71.8007 33.1811 71.4837 33.1811C71.2032 33.1811 70.9349 33.1193 70.7032 33.0083C70.4594 32.8972 70.2521 32.7367 70.0935 32.5269C70.0448 32.4652 70.0326 32.4159 70.0326 32.3665C70.0326 32.2801 70.0692 32.2061 70.1545 32.1567C70.2033 32.1197 70.2643 32.1073 70.313 32.1073C70.4106 32.1073 70.4959 32.1443 70.5569 32.2307C70.6667 32.3665 70.8008 32.4776 70.9593 32.5516C71.1179 32.6257 71.3008 32.6627 71.5081 32.6627C71.7032 32.6627 71.8739 32.6133 72.0324 32.5269C72.1909 32.4282 72.3129 32.2924 72.4104 32.1197C72.508 31.9345 72.5568 31.7247 72.5568 31.4779V31.1817C72.4348 31.4038 72.2763 31.5643 72.0812 31.6877C71.8861 31.8111 71.6544 31.8728 71.4105 31.8728C71.1179 31.8728 70.8618 31.7988 70.6301 31.663C70.3984 31.5273 70.2277 31.3298 70.0935 31.083C69.9716 30.8361 69.8984 30.5523 69.8984 30.2314C69.8984 29.9105 69.9716 29.6266 70.1057 29.3798C70.2399 29.133 70.435 28.9355 70.6789 28.7997C70.9227 28.664 71.2032 28.5899 71.5203 28.5899C71.8007 28.5776 72.0812 28.6393 72.3251 28.7874ZM72.0324 31.194C72.1909 31.0953 72.3129 30.9719 72.3982 30.7991C72.4836 30.6263 72.5324 30.4412 72.5324 30.2314C72.5324 30.0216 72.4836 29.8241 72.3982 29.6513C72.3129 29.4785 72.1909 29.3428 72.0324 29.2564C71.8739 29.1576 71.691 29.1083 71.4959 29.1083C71.3008 29.1083 71.1179 29.1576 70.9593 29.2564C70.8008 29.3551 70.6789 29.4785 70.5813 29.6513C70.4959 29.8241 70.4472 30.0092 70.4472 30.2314C70.4472 30.4412 70.4959 30.6386 70.5813 30.7991C70.6667 30.9719 70.8008 31.0953 70.9593 31.194C71.1179 31.2928 71.3008 31.3421 71.4959 31.3421C71.691 31.3298 71.8739 31.2804 72.0324 31.194Z" fill="black"/>
    <path d="M78.6886 31.6506C78.4447 31.5025 78.2496 31.3174 78.1155 31.0582C77.9814 30.8114 77.9082 30.5275 77.9082 30.219C77.9082 29.8981 77.9814 29.6142 78.1155 29.3674C78.2496 29.1206 78.4447 28.9231 78.6764 28.775C78.9203 28.6392 79.1886 28.5652 79.4934 28.5652C79.9568 28.5652 80.3348 28.738 80.6397 29.0959C80.6763 29.1452 80.7007 29.1946 80.7007 29.2563C80.7007 29.3427 80.6519 29.4168 80.5665 29.4785C80.5299 29.5032 80.4812 29.5155 80.4324 29.5155C80.347 29.5155 80.2617 29.4785 80.2007 29.4044C80.1032 29.2934 79.9934 29.2193 79.8837 29.1699C79.7739 29.1206 79.6398 29.0959 79.4934 29.0959C79.1886 29.0959 78.9447 29.1946 78.7618 29.4044C78.5789 29.6142 78.4813 29.8734 78.4813 30.219C78.4813 30.4288 78.5301 30.6263 78.6155 30.7867C78.7008 30.9595 78.8228 31.0829 78.9813 31.1816C79.1398 31.2804 79.3227 31.3297 79.5178 31.3297C79.7861 31.3297 79.9934 31.2557 80.1641 31.1199C80.2373 31.0706 80.3105 31.0335 80.3836 31.0335C80.4324 31.0335 80.4934 31.0459 80.5421 31.0829C80.6153 31.1446 80.6519 31.2187 80.6519 31.2927C80.6519 31.3544 80.6275 31.4038 80.5787 31.4532C80.2983 31.7247 79.9446 31.8481 79.5178 31.8481C79.213 31.8728 78.9325 31.7987 78.6886 31.6506Z" fill="black"/>
    <path d="M85.6283 28.6763C85.677 28.7257 85.7136 28.7997 85.7136 28.8985V31.5519C85.7136 31.6383 85.6892 31.7124 85.6283 31.7741C85.5795 31.8358 85.5063 31.8605 85.4088 31.8605C85.3234 31.8605 85.2502 31.8358 85.1893 31.7741C85.1283 31.7124 85.1039 31.6383 85.1039 31.5519V31.4779C84.982 31.6013 84.8356 31.7 84.6527 31.7741C84.482 31.8481 84.2991 31.8728 84.104 31.8728C83.8357 31.8728 83.5918 31.8111 83.3723 31.7C83.1528 31.5766 82.9943 31.4038 82.8724 31.1817C82.7504 30.9595 82.6895 30.6757 82.6895 30.3548V28.8985C82.6895 28.8121 82.7138 28.738 82.7748 28.6763C82.8358 28.6146 82.8968 28.5899 82.9943 28.5899C83.0797 28.5899 83.1528 28.6146 83.2138 28.6763C83.2748 28.738 83.2992 28.8121 83.2992 28.8985V30.3548C83.2992 30.6757 83.3845 30.9225 83.5552 31.083C83.726 31.2434 83.9455 31.3298 84.2381 31.3298C84.3966 31.3298 84.5552 31.2928 84.6893 31.2311C84.8234 31.1693 84.9332 31.0706 85.0063 30.9595C85.0795 30.8485 85.1161 30.7127 85.1161 30.5769V28.8985C85.1161 28.8121 85.1405 28.738 85.2015 28.6763C85.2624 28.6269 85.3234 28.5899 85.421 28.5899C85.4941 28.5899 85.5673 28.6146 85.6283 28.6763ZM84.043 28.195C83.9942 28.1456 83.9698 28.0839 83.9698 28.0099V27.8741C83.9698 27.7137 84.043 27.6149 84.2015 27.5779L84.3601 27.5409C84.4332 27.5285 84.4942 27.4915 84.5308 27.4545C84.5796 27.4174 84.6039 27.3681 84.6039 27.3064C84.6039 27.2323 84.5796 27.1706 84.5308 27.1336C84.482 27.0966 84.421 27.0719 84.3479 27.0719C84.2991 27.0719 84.2503 27.0842 84.1893 27.0966C84.1406 27.1089 84.0918 27.1336 84.0674 27.1706C84.043 27.1953 84.0186 27.2076 83.982 27.22C83.9455 27.2323 83.9089 27.2323 83.8723 27.2323C83.8113 27.2323 83.7625 27.22 83.7138 27.183C83.6772 27.1459 83.6528 27.0966 83.6528 27.0225C83.6528 26.9361 83.6894 26.8621 83.7503 26.8127C83.9089 26.6769 84.104 26.6152 84.3357 26.6152C84.543 26.6152 84.7137 26.6769 84.8478 26.8004C84.982 26.9238 85.0429 27.0842 85.0429 27.2693C85.0429 27.6149 84.8234 27.8124 84.3844 27.8741L84.4942 27.8618C84.4942 27.9852 84.4698 28.0839 84.421 28.1456C84.3723 28.2073 84.3113 28.2443 84.2259 28.2443C84.165 28.2814 84.104 28.2443 84.043 28.195Z" fill="black"/>
    <path d="M90.2123 28.7873C90.4562 28.9354 90.6513 29.1329 90.7976 29.3797C90.9439 29.6266 91.0171 29.9104 91.0171 30.219V31.5396C91.0171 31.6259 90.9927 31.7 90.9317 31.7617C90.8708 31.8234 90.7976 31.8481 90.7122 31.8481C90.6269 31.8481 90.5537 31.8234 90.4927 31.7617C90.4318 31.7 90.4074 31.6259 90.4074 31.5396V31.3174C90.2732 31.4902 90.1025 31.6259 89.9074 31.7123C89.7123 31.8111 89.505 31.8604 89.2733 31.8604C88.9929 31.8604 88.7368 31.7864 88.5051 31.6506C88.2734 31.5025 88.0905 31.3174 87.9685 31.0582C87.8344 30.8114 87.7734 30.5275 87.7734 30.219C87.7734 29.9104 87.8466 29.6266 87.9807 29.3797C88.1271 29.1329 88.31 28.9354 88.5661 28.7873C88.8099 28.6392 89.0904 28.5652 89.3953 28.5652C89.6879 28.5775 89.9684 28.6392 90.2123 28.7873ZM89.9196 31.194C90.0781 31.0952 90.2001 30.9595 90.2976 30.799C90.383 30.6263 90.4318 30.4411 90.4318 30.2313C90.4318 30.0215 90.383 29.8364 90.2976 29.6636C90.2123 29.4908 90.0781 29.3551 89.9196 29.2687C89.7611 29.1699 89.5782 29.1206 89.3831 29.1206C89.188 29.1206 89.005 29.1699 88.8465 29.2687C88.688 29.3674 88.5661 29.5032 88.4685 29.6636C88.371 29.8364 88.3344 30.0215 88.3344 30.2313C88.3344 30.4411 88.3831 30.6263 88.4685 30.799C88.5661 30.9718 88.688 31.0952 88.8465 31.194C89.005 31.2927 89.1758 31.3421 89.3831 31.3421C89.5904 31.3297 89.7611 31.2804 89.9196 31.194Z" fill="black"/>
    <path d="M96.101 31.7494C96.04 31.6877 96.0156 31.6137 96.0156 31.5273V27.5039C96.0156 27.4175 96.04 27.3434 96.101 27.2817C96.1619 27.22 96.2351 27.1953 96.3205 27.1953C96.4058 27.1953 96.479 27.22 96.54 27.2817C96.6009 27.3434 96.6253 27.4175 96.6253 27.5039V29.207H99.3446V27.5039C99.3446 27.4175 99.369 27.3434 99.43 27.2817C99.491 27.22 99.5641 27.1953 99.6495 27.1953C99.7348 27.1953 99.808 27.22 99.869 27.2817C99.93 27.3434 99.9543 27.4175 99.9543 27.5039V31.5273C99.9543 31.6137 99.93 31.6877 99.869 31.7494C99.808 31.8111 99.747 31.8358 99.6495 31.8358C99.5641 31.8358 99.491 31.8111 99.43 31.7494C99.369 31.6877 99.3446 31.6137 99.3446 31.5273V29.7624H96.6253V31.5273C96.6253 31.6137 96.6009 31.6877 96.54 31.7494C96.479 31.8111 96.4058 31.8358 96.3205 31.8358C96.2351 31.8482 96.1619 31.8111 96.101 31.7494Z" fill="black"/>
    <path d="M104.517 28.7873C104.761 28.9354 104.956 29.1329 105.102 29.3797C105.249 29.6266 105.322 29.9104 105.322 30.219V31.5396C105.322 31.6259 105.297 31.7 105.236 31.7617C105.175 31.8234 105.102 31.8481 105.017 31.8481C104.932 31.8481 104.858 31.8234 104.797 31.7617C104.736 31.7 104.712 31.6259 104.712 31.5396V31.3174C104.578 31.4902 104.407 31.6259 104.212 31.7123C104.017 31.8111 103.81 31.8604 103.578 31.8604C103.298 31.8604 103.041 31.7864 102.81 31.6506C102.578 31.5025 102.395 31.3174 102.273 31.0582C102.139 30.8114 102.078 30.5275 102.078 30.219C102.078 29.9104 102.151 29.6266 102.285 29.3797C102.432 29.1329 102.615 28.9354 102.871 28.7873C103.115 28.6392 103.395 28.5652 103.7 28.5652C103.993 28.5775 104.273 28.6392 104.517 28.7873ZM104.224 31.194C104.383 31.0952 104.505 30.9595 104.602 30.799C104.688 30.6263 104.736 30.4411 104.736 30.2313C104.736 30.0215 104.688 29.8364 104.602 29.6636C104.517 29.4908 104.383 29.3551 104.224 29.2687C104.066 29.1699 103.883 29.1206 103.688 29.1206C103.493 29.1206 103.31 29.1699 103.151 29.2687C102.993 29.3674 102.871 29.5032 102.773 29.6636C102.676 29.8364 102.639 30.0215 102.639 30.2313C102.639 30.4411 102.688 30.6263 102.773 30.799C102.871 30.9718 102.993 31.0952 103.151 31.194C103.31 31.2927 103.48 31.3421 103.688 31.3421C103.895 31.3297 104.066 31.2804 104.224 31.194ZM103.419 33.0576C103.346 32.9835 103.31 32.8848 103.31 32.7861C103.31 32.675 103.346 32.5886 103.419 32.5146C103.493 32.4405 103.59 32.4035 103.688 32.4035C103.785 32.4035 103.883 32.4405 103.956 32.5146C104.029 32.5886 104.066 32.6873 104.066 32.7861C104.066 32.8971 104.029 32.9835 103.956 33.0576C103.883 33.1316 103.785 33.1687 103.688 33.1687C103.59 33.1687 103.505 33.1316 103.419 33.0576Z" fill="black"/>
    <path d="M109.699 28.7503C109.919 28.8737 110.077 29.0465 110.199 29.2687C110.321 29.4908 110.382 29.7747 110.382 30.0956V31.5519C110.382 31.6383 110.358 31.7123 110.297 31.774C110.236 31.8358 110.163 31.8604 110.077 31.8604C109.992 31.8604 109.919 31.8358 109.858 31.774C109.797 31.7123 109.772 31.6383 109.772 31.5519V30.0956C109.772 29.7747 109.687 29.5278 109.516 29.3674C109.346 29.207 109.126 29.1206 108.833 29.1206C108.675 29.1206 108.516 29.1576 108.382 29.2193C108.248 29.281 108.138 29.3797 108.065 29.4908C107.992 29.6019 107.955 29.7377 107.955 29.8734V31.5519C107.955 31.6383 107.931 31.7123 107.87 31.774C107.821 31.8358 107.748 31.8604 107.651 31.8604C107.565 31.8604 107.492 31.8358 107.431 31.774C107.37 31.7123 107.346 31.6383 107.346 31.5519V28.8984C107.346 28.812 107.37 28.738 107.431 28.6763C107.492 28.6269 107.565 28.5899 107.651 28.5899C107.736 28.5899 107.809 28.6146 107.87 28.6763C107.919 28.7256 107.955 28.7997 107.955 28.8984V28.9601C108.077 28.8367 108.224 28.738 108.407 28.6639C108.577 28.5899 108.76 28.5652 108.955 28.5652C109.236 28.5652 109.48 28.6269 109.699 28.7503Z" fill="black"/>
    <path d="M114.869 28.7503C115.089 28.8737 115.247 29.0465 115.369 29.2687C115.491 29.4908 115.552 29.7747 115.552 30.0956V31.5519C115.552 31.6383 115.528 31.7123 115.467 31.774C115.406 31.8357 115.332 31.8604 115.247 31.8604C115.162 31.8604 115.089 31.8357 115.028 31.774C114.967 31.7123 114.942 31.6383 114.942 31.5519V30.0956C114.942 29.7747 114.857 29.5278 114.686 29.3674C114.515 29.2069 114.296 29.1206 114.003 29.1206C113.845 29.1206 113.686 29.1576 113.552 29.2193C113.418 29.281 113.308 29.3797 113.235 29.4908C113.162 29.6019 113.125 29.7376 113.125 29.8734V31.5519C113.125 31.6383 113.101 31.7123 113.04 31.774C112.991 31.8357 112.918 31.8604 112.82 31.8604C112.735 31.8604 112.662 31.8357 112.601 31.774C112.54 31.7123 112.516 31.6383 112.516 31.5519V27.5161C112.516 27.4297 112.54 27.3557 112.601 27.294C112.662 27.2446 112.735 27.2076 112.82 27.2076C112.906 27.2076 112.979 27.2323 113.04 27.294C113.089 27.3433 113.125 27.4174 113.125 27.5161V28.9725C113.247 28.849 113.394 28.7503 113.577 28.6763C113.747 28.6022 113.93 28.5775 114.125 28.5775C114.418 28.5652 114.65 28.6269 114.869 28.7503Z" fill="black"/>
    <path d="M120.771 31.7494C120.71 31.6877 120.686 31.6136 120.686 31.5272V27.5038C120.686 27.4174 120.71 27.3434 120.771 27.2816C120.832 27.2199 120.905 27.1953 120.99 27.1953H122.161C122.454 27.1953 122.71 27.257 122.941 27.3927C123.173 27.5285 123.344 27.7013 123.478 27.9358C123.6 28.1703 123.673 28.4294 123.673 28.7256C123.673 29.0095 123.612 29.2687 123.478 29.5032C123.356 29.7253 123.173 29.9104 122.941 30.0339C122.71 30.1573 122.454 30.219 122.161 30.219H121.295V31.5149C121.295 31.6013 121.271 31.6753 121.21 31.737C121.149 31.7987 121.076 31.8234 120.99 31.8234C120.893 31.8481 120.82 31.8111 120.771 31.7494ZM122.149 29.6636C122.417 29.6636 122.637 29.5772 122.807 29.4044C122.978 29.2316 123.063 29.0095 123.063 28.738C123.063 28.4541 122.978 28.2196 122.807 28.0468C122.637 27.8617 122.417 27.7753 122.149 27.7753H121.283V29.6636H122.149Z" fill="black"/>
    <path d="M127.771 28.7504C127.991 28.8738 128.149 29.0466 128.271 29.2687C128.393 29.4909 128.454 29.7747 128.454 30.0956V31.5519C128.454 31.6383 128.43 31.7124 128.369 31.7741C128.308 31.8358 128.235 31.8605 128.149 31.8605C128.064 31.8605 127.991 31.8358 127.93 31.7741C127.869 31.7124 127.845 31.6383 127.845 31.5519V30.0956C127.845 29.7747 127.759 29.5279 127.589 29.3675C127.418 29.207 127.198 29.1206 126.906 29.1206C126.747 29.1206 126.589 29.1576 126.454 29.2194C126.32 29.2811 126.211 29.3798 126.137 29.4909C126.064 29.6019 126.028 29.7377 126.028 29.8735V31.5519C126.028 31.6383 126.003 31.7124 125.942 31.7741C125.894 31.8358 125.82 31.8605 125.723 31.8605C125.637 31.8605 125.564 31.8358 125.503 31.7741C125.442 31.7124 125.418 31.6383 125.418 31.5519V27.5162C125.418 27.4298 125.442 27.3557 125.503 27.294C125.564 27.2447 125.637 27.2076 125.723 27.2076C125.808 27.2076 125.881 27.2323 125.942 27.294C125.991 27.3434 126.028 27.4175 126.028 27.5162V28.9725C126.15 28.8491 126.296 28.7504 126.479 28.6763C126.65 28.6023 126.832 28.5776 127.028 28.5776C127.308 28.5652 127.552 28.6269 127.771 28.7504Z" fill="black"/>
    <path d="M133.49 28.6763C133.538 28.7256 133.575 28.7997 133.575 28.8984V31.5519C133.575 31.6383 133.551 31.7123 133.49 31.774C133.441 31.8357 133.368 31.8604 133.27 31.8604C133.185 31.8604 133.112 31.8357 133.051 31.774C132.99 31.7123 132.965 31.6383 132.965 31.5519V31.4778C132.843 31.6013 132.697 31.7 132.514 31.774C132.343 31.8481 132.16 31.8728 131.965 31.8728C131.697 31.8728 131.453 31.8111 131.234 31.7C131.014 31.5766 130.856 31.4038 130.734 31.1816C130.612 30.9595 130.551 30.6756 130.551 30.3547V28.8984C130.551 28.812 130.575 28.738 130.636 28.6763C130.697 28.6145 130.77 28.5899 130.856 28.5899C130.941 28.5899 131.014 28.6145 131.075 28.6763C131.136 28.738 131.16 28.812 131.16 28.8984V30.3547C131.16 30.6756 131.246 30.9225 131.417 31.0829C131.587 31.2433 131.807 31.3297 132.099 31.3297C132.258 31.3297 132.416 31.2927 132.551 31.231C132.685 31.1693 132.795 31.0706 132.868 30.9595C132.941 30.8484 132.977 30.7126 132.977 30.5769V28.8984C132.977 28.812 133.002 28.738 133.063 28.6763C133.124 28.6145 133.185 28.5899 133.282 28.5899C133.355 28.5899 133.429 28.6145 133.49 28.6763ZM131.904 27.9975C131.856 27.9357 131.819 27.874 131.819 27.7753C131.819 27.6889 131.843 27.6272 131.892 27.5778L132.465 26.9978C132.526 26.9361 132.599 26.9114 132.673 26.9114C132.758 26.9114 132.831 26.9361 132.892 26.9978C132.953 27.0595 132.977 27.1335 132.977 27.2199C132.977 27.3063 132.953 27.3804 132.892 27.4297L132.319 28.0098C132.258 28.0592 132.197 28.0962 132.112 28.0962C132.026 28.0838 131.953 28.0592 131.904 27.9975Z" fill="black"/>
    <path d="M136.417 31.6506C136.173 31.5025 135.978 31.3174 135.844 31.0582C135.71 30.8114 135.637 30.5275 135.637 30.219C135.637 29.8981 135.71 29.6142 135.844 29.3674C135.978 29.1206 136.173 28.9231 136.405 28.775C136.649 28.6392 136.917 28.5652 137.222 28.5652C137.685 28.5652 138.063 28.738 138.368 29.0959C138.405 29.1452 138.429 29.1946 138.429 29.2563C138.429 29.3427 138.38 29.4168 138.295 29.4785C138.258 29.5032 138.21 29.5155 138.161 29.5155C138.076 29.5155 137.99 29.4785 137.929 29.4044C137.832 29.2934 137.722 29.2193 137.612 29.1699C137.502 29.1206 137.368 29.0959 137.222 29.0959C136.917 29.0959 136.673 29.1946 136.49 29.4044C136.307 29.6142 136.21 29.8734 136.21 30.219C136.21 30.4288 136.259 30.6263 136.344 30.7867C136.429 30.9595 136.551 31.0829 136.71 31.1816C136.868 31.2804 137.051 31.3297 137.246 31.3297C137.515 31.3297 137.722 31.2557 137.893 31.1199C137.966 31.0706 138.039 31.0335 138.112 31.0335C138.161 31.0335 138.222 31.0459 138.271 31.0829C138.344 31.1446 138.38 31.2187 138.38 31.2927C138.38 31.3544 138.356 31.4038 138.307 31.4532C138.027 31.7247 137.673 31.8481 137.246 31.8481C136.941 31.8728 136.673 31.7987 136.417 31.6506Z" fill="black"/>
    <path d="M37.3638 6.64624H42.8755C47.4605 6.64624 49.7652 9.20099 49.7652 12.8542C49.7652 15.2608 48.7897 17.1738 46.6313 18.1858L51.0456 24.0975H47.4849L43.8267 18.9633C43.3389 19.0127 42.8267 19.0374 42.278 19.0374H40.3879V24.0975H37.3516V6.64624H37.3638ZM40.4001 9.48485V16.3098H42.656C45.4973 16.3098 46.485 14.7671 46.485 12.8542C46.485 10.9412 45.5339 9.48485 42.656 9.48485H40.4001Z" fill="#DD3E1F"/>
    <path d="M56.459 6.64618H67.6654V9.48479H59.5075V14.3721H66.9094V17.0997H59.5075V21.2712H67.6654V24.0974H56.459V6.64618Z" fill="#DD3E1F"/>
    <path d="M74.1406 6.54749H75.104L85.7617 17.7908V6.64622H88.8102V24.2209H87.9932L77.1892 13.2738V24.0975H74.1406V6.54749Z" fill="#DD3E1F"/>
    <path d="M110.284 22.9374C110.284 22.9374 108.052 24.406 104.541 24.406C98.6995 24.406 94.834 20.5307 94.834 15.3719C94.834 10.3364 99.0288 6.36237 104.126 6.36237C107.906 6.36237 110.211 7.78167 110.211 7.78167L109.162 10.4105C109.162 10.4105 106.882 9.27502 104.65 9.27502C100.602 9.27502 98.1264 11.8545 98.1264 15.4336C98.1264 18.9386 100.773 21.5181 104.358 21.5181C107.272 21.5181 109.357 20.3209 109.357 20.3209L110.284 22.9374Z" fill="#DD3E1F"/>
    <path d="M119.089 6.64624H116.053V24.0975H119.089V6.64624Z" fill="#DD3E1F"/>
    <path d="M124.064 6.64624H138.563V9.48485H132.893V24.0975H129.832V9.48485H124.064V6.64624Z" fill="#DD3E1F"/>
    <path d="M157 6.64624L150.671 17.1985V24.0975H147.61V17.1738L141.281 6.64624H144.781L149.171 14.3722L153.561 6.64624H157Z" fill="#DD3E1F"/>
    <mask id="mask0_668_56904" style="mask-type:luminance" maskUnits="userSpaceOnUse" x="10" y="17" width="1" height="1">
      <path d="M10.4512 17.6435L10.4645 17.6566V17.6304L10.4512 17.6435Z" fill="white"/>
    </mask>
    <g mask="url(#mask0_668_56904)">
      <path d="M10.4648 17.6304H10.4512V17.644H10.4648V17.6304Z" fill="url(#paint0_linear_668_56904)"/>
    </g>
    <mask id="mask1_668_56904" style="mask-type:luminance" maskUnits="userSpaceOnUse" x="10" y="17" width="1" height="1">
      <path d="M10.4512 17.6435L10.4645 17.6566V17.6304L10.4512 17.6435Z" fill="white"/>
    </mask>
    <g mask="url(#mask1_668_56904)">
      <path d="M10.4648 17.6304H10.4512V17.644H10.4648V17.6304Z" fill="url(#paint1_linear_668_56904)"/>
    </g>
    <mask id="mask2_668_56904" style="mask-type:luminance" maskUnits="userSpaceOnUse" x="11" y="5" width="5" height="25">
      <path d="M11.573 8.36171C11.3535 8.62089 11.2438 8.95411 11.2804 9.29968L12.0852 17.0997L12.1584 17.8649L13.0729 26.6646L15.5239 29.0959L14.1826 5.375L11.573 8.36171Z" fill="white"/>
    </mask>
    <g mask="url(#mask2_668_56904)">
      <path d="M15.5365 5.36267H11.2441V29.0836H15.5365V5.36267Z" fill="url(#paint2_linear_668_56904)"/>
    </g>
    <mask id="mask3_668_56904" style="mask-type:luminance" maskUnits="userSpaceOnUse" x="6" y="17" width="23" height="16">
      <path d="M10.4509 17.6427L10.4631 17.6304L10.4509 17.6427ZM21.9378 17.0503L21.8891 17.8648H23.6938C23.8401 17.8648 23.9865 17.9266 24.084 18.0253L24.7181 18.6671L26.8399 20.8516C27.035 21.049 27.035 21.3699 26.8277 21.5674L21.4013 26.9361L18.8893 29.4167L17.3894 30.9101L16.1822 29.7253L15.5237 29.0712L13.0727 26.6645L7.93893 21.5921C7.74383 21.3946 7.73163 21.0737 7.92674 20.8762L10.6948 18.0253C10.7924 17.9142 10.9387 17.8648 11.085 17.8648H12.1703L12.0971 17.0997H11.1948C10.9509 17.0997 10.707 17.1614 10.4875 17.2724H10.4753V17.2848C10.329 17.3588 10.1827 17.4576 10.0607 17.581L6.65854 21.0243C6.36588 21.3205 6.36588 21.8019 6.64635 22.0981L16.6943 32.5886C16.987 32.8971 17.4748 32.8971 17.7796 32.6009L28.1447 22.1104C28.4373 21.8142 28.4373 21.3205 28.1447 21.0243L24.6815 17.5193C24.3889 17.2231 23.9743 17.0503 23.5597 17.0503H21.9378Z" fill="white"/>
    </mask>
    <g mask="url(#mask3_668_56904)">
      <path d="M28.4372 17.0503H6.35352V32.9095H28.4372V17.0503Z" fill="url(#paint3_linear_668_56904)"/>
    </g>
    <mask id="mask4_668_56904" style="mask-type:luminance" maskUnits="userSpaceOnUse" x="15" y="0" width="4" height="31">
      <path d="M15.3164 4.43703L16.1944 29.75L17.4016 30.9225L18.8893 29.4291L18.243 30.0709L18.4137 0.5L15.3164 4.43703Z" fill="white"/>
    </mask>
    <g mask="url(#mask4_668_56904)">
      <path d="M18.9015 0.5H15.3164V30.9225H18.9015V0.5Z" fill="url(#paint4_linear_668_56904)"/>
    </g>
    <mask id="mask5_668_56904" style="mask-type:luminance" maskUnits="userSpaceOnUse" x="18" y="7" width="5" height="23">
      <path d="M18.8887 29.4291L21.4007 26.9484L21.8884 17.8649L21.9372 17.0503L22.2665 10.8424C22.2787 10.5092 22.1567 10.1883 21.9372 9.96612L19.413 7.41138L18.8887 29.4291Z" fill="white"/>
    </mask>
    <g mask="url(#mask5_668_56904)">
      <path d="M22.2787 7.39905H18.8887V29.4291H22.2787V7.39905Z" fill="url(#paint5_linear_668_56904)"/>
    </g>
    <mask id="mask6_668_56904" style="mask-type:luminance" maskUnits="userSpaceOnUse" x="1" y="12" width="32" height="26">
      <path d="M23.6442 14.9522L29.7413 21.0861C29.8754 21.2218 29.9486 21.407 29.9486 21.5798C29.9486 21.7649 29.8876 21.9377 29.7413 22.0858L17.6934 34.2794C17.4251 34.551 16.9862 34.551 16.7057 34.2794L4.73101 22.0981C4.58468 21.95 4.52371 21.7525 4.5359 21.5551C4.5359 21.5427 4.5359 21.5427 4.5359 21.5304C4.5481 21.4317 4.58468 21.2589 4.73101 21.0984L10.7305 15.0756L10.1208 12.4715L9.07213 13.5329C8.95019 13.6563 8.80386 13.8044 8.66973 13.9402L8.14538 14.4832L7.98685 14.6437L7.90149 14.7301L7.65761 14.9893L7.48689 15.162L7.31617 15.3348L6.60891 16.0506L6.426 16.2358L6.24309 16.4209L6.15773 16.5073L5.70654 16.9639L5.43827 17.2355L5.25536 17.4206L5.08464 17.5934L4.82856 17.8525L4.57248 18.1117L4.38957 18.2722L4.14569 18.519L3.98716 18.6794L3.82864 18.8399L3.68231 18.988L3.40184 19.2719L3.20674 19.4693L3.14577 19.531L3.02382 19.6544L2.90188 19.7779L2.79214 19.8889L2.68239 20L2.35314 20.3332L2.29217 20.395L2.14584 20.5431C1.64588 21.0491 1.69466 21.5921 1.69466 21.5921C1.68247 21.9994 1.8288 22.419 2.14584 22.7275L16.0838 36.8342C16.6813 37.4389 17.6446 37.4389 18.2422 36.8342L32.2289 22.6782C32.5215 22.382 32.6679 21.987 32.6801 21.6044C32.6801 21.2095 32.5337 20.8022 32.2289 20.4937L23.9734 12.1383L23.6442 14.9522Z" fill="white"/>
    </mask>
    <g mask="url(#mask6_668_56904)">
      <path d="M0 37.3155L1.79254 10.0402L34.3388 12.2247L32.5463 39.5L0 37.3155Z" fill="url(#paint6_linear_668_56904)"/>
    </g>
  </g>
  <defs>
    <linearGradient id="paint0_linear_668_56904" x1="10.4538" y1="17.6418" x2="10.4656" y2="17.6418" gradientUnits="userSpaceOnUse">
      <stop stop-color="#FF9900"/>
      <stop offset="1" stop-color="#DD3E1F"/>
    </linearGradient>
    <linearGradient id="paint1_linear_668_56904" x1="10.4538" y1="17.6418" x2="10.4656" y2="17.6418" gradientUnits="userSpaceOnUse">
      <stop stop-color="#FF9900"/>
      <stop offset="1" stop-color="#DD3E1F"/>
    </linearGradient>
    <linearGradient id="paint2_linear_668_56904" x1="13.4051" y1="1.66392" x2="13.4051" y2="29.5463" gradientUnits="userSpaceOnUse">
      <stop stop-color="#FF9900"/>
      <stop offset="1" stop-color="#DD3E1F"/>
    </linearGradient>
    <linearGradient id="paint3_linear_668_56904" x1="17.4096" y1="33.1123" x2="17.4096" y2="15.9459" gradientUnits="userSpaceOnUse">
      <stop stop-color="#FF9900"/>
      <stop offset="1" stop-color="#DD3E1F"/>
    </linearGradient>
    <linearGradient id="paint4_linear_668_56904" x1="17.1196" y1="1.66391" x2="17.1196" y2="29.5463" gradientUnits="userSpaceOnUse">
      <stop stop-color="#FF9900"/>
      <stop offset="1" stop-color="#DD3E1F"/>
    </linearGradient>
    <linearGradient id="paint5_linear_668_56904" x1="20.608" y1="1.66391" x2="20.608" y2="29.5463" gradientUnits="userSpaceOnUse">
      <stop stop-color="#FF9900"/>
      <stop offset="1" stop-color="#DD3E1F"/>
    </linearGradient>
    <linearGradient id="paint6_linear_668_56904" x1="16.4111" y1="36.8663" x2="17.8824" y2="14.9752" gradientUnits="userSpaceOnUse">
      <stop stop-color="#FF9900"/>
      <stop offset="1" stop-color="#DD3E1F"/>
    </linearGradient>
    <clipPath id="clip0_668_56904">
      <rect width="157" height="39" fill="white" transform="translate(0 0.5)"/>
    </clipPath>
  </defs>
</svg>