<svg xmlns="http://www.w3.org/2000/svg" width="238" height="60" viewBox="0 0 238 60" fill="none">
  <g clip-path="url(#clip0_668_58347)">
    <path d="M56.7505 47.873C56.6581 47.7796 56.6211 47.6676 56.6211 47.5369V41.4502C56.6211 41.3195 56.6581 41.2075 56.7505 41.1141C56.8429 41.0207 56.9353 40.9834 57.0832 40.9834C57.1572 40.9834 57.2126 41.0021 57.2866 41.0394C57.3605 41.0768 57.3975 41.1141 57.4529 41.1514L61.3349 46.3606V41.4502C61.3349 41.3195 61.3719 41.2075 61.4643 41.1141C61.5567 41.0207 61.6676 40.9834 61.797 40.9834C61.9264 40.9834 62.0373 41.0207 62.1298 41.1141C62.2222 41.2075 62.2592 41.3195 62.2592 41.4502V47.5369C62.2592 47.6676 62.2222 47.7796 62.1298 47.873C62.0373 47.9663 61.9449 48.0037 61.797 48.0037C61.7231 48.0037 61.6676 47.985 61.5937 47.9663C61.5197 47.9477 61.4828 47.8916 61.4458 47.8543L57.5639 42.6451V47.5556C57.5639 47.6863 57.5269 47.7983 57.4345 47.8916C57.342 47.985 57.2311 48.0223 57.1017 48.0223C56.9353 48.0037 56.8244 47.9477 56.7505 47.873Z" fill="white"/>
    <path d="M69.9304 45.7447C69.8564 45.8193 69.764 45.8567 69.6346 45.8567H66.2518C66.3257 46.2674 66.5106 46.6222 66.8248 46.8649C67.1391 47.1263 67.5088 47.257 67.9709 47.257C68.1558 47.257 68.3406 47.2197 68.5255 47.1637C68.7103 47.089 68.8767 47.0143 69.0061 46.9209C69.08 46.8462 69.191 46.8276 69.3019 46.8276C69.4128 46.8276 69.5052 46.8649 69.5607 46.9209C69.6716 47.0143 69.727 47.1076 69.727 47.2197C69.727 47.3317 69.6716 47.425 69.5791 47.4811C69.3758 47.6491 69.1355 47.7798 68.8212 47.8731C68.5255 47.9665 68.2297 48.0225 67.9709 48.0225C67.4903 48.0225 67.0466 47.9105 66.6584 47.7051C66.2703 47.4997 65.9745 47.201 65.7527 46.8276C65.5308 46.4542 65.4199 46.0247 65.4199 45.5393C65.4199 45.0538 65.5308 44.6244 65.7342 44.251C65.9375 43.8776 66.2148 43.5788 66.5845 43.3548C66.9542 43.1494 67.3609 43.0374 67.823 43.0374C68.2852 43.0374 68.6734 43.1307 69.0061 43.3361C69.3388 43.5415 69.5976 43.8216 69.764 44.195C69.9489 44.5684 70.0228 44.9792 70.0228 45.4459C70.0413 45.5766 70.0043 45.67 69.9304 45.7447ZM66.7878 44.1763C66.5106 44.419 66.3442 44.7364 66.2703 45.1285H69.2279C69.1725 44.7364 69.0246 44.4004 68.7843 44.1763C68.544 43.9336 68.2297 43.8216 67.8415 43.8216C67.3979 43.8216 67.0466 43.9336 66.7878 44.1763ZM66.4366 42.3652C66.3442 42.2905 66.3072 42.2159 66.3072 42.1038C66.3072 41.9545 66.3812 41.8238 66.529 41.7117L67.5273 41.0583C67.6012 41.0023 67.6751 40.9836 67.7676 40.9836C67.86 40.9836 67.9339 41.0023 68.0079 41.0583L68.9876 41.7117C69.1355 41.8238 69.2094 41.9545 69.2094 42.1038C69.2094 42.2159 69.1725 42.3092 69.08 42.3652C69.0061 42.4399 68.8952 42.4773 68.7658 42.4773C68.6549 42.4773 68.5624 42.4399 68.47 42.3839L67.7676 41.8798L67.0651 42.3839C66.9912 42.4586 66.8803 42.4773 66.7878 42.4773C66.6215 42.4773 66.5106 42.4399 66.4366 42.3652ZM68.3406 40.8902L67.4718 40.0127C67.3979 39.938 67.3609 39.826 67.3609 39.6953C67.3609 39.5646 67.3979 39.4526 67.4903 39.3592C67.5642 39.2659 67.6751 39.2285 67.8045 39.2285C67.9339 39.2285 68.0449 39.2659 68.1373 39.3592L69.0061 40.2367C69.08 40.3114 69.117 40.4235 69.117 40.5355C69.117 40.6662 69.08 40.7782 68.9876 40.8716C68.8952 40.9649 68.7843 41.0023 68.6549 41.0023C68.5255 41.0023 68.4146 40.9836 68.3406 40.8902Z" fill="white"/>
    <path d="M76.511 43.3172C76.8438 43.5039 77.0841 43.7653 77.269 44.1014C77.4538 44.4374 77.5462 44.8669 77.5462 45.3523V47.5555C77.5462 47.6862 77.5093 47.7982 77.4168 47.8915C77.3244 47.9849 77.2135 48.0222 77.0841 48.0222C76.9547 48.0222 76.8438 47.9849 76.7514 47.8915C76.6589 47.7982 76.622 47.6862 76.622 47.5555V45.3523C76.622 44.8669 76.4926 44.4934 76.2338 44.2507C75.975 44.008 75.6422 43.8773 75.1986 43.8773C74.9583 43.8773 74.718 43.9333 74.5146 44.0267C74.3113 44.12 74.1449 44.2694 74.034 44.4374C73.9231 44.6055 73.8676 44.8108 73.8676 45.0162V47.5555C73.8676 47.6862 73.8307 47.7982 73.7382 47.8915C73.6458 47.9849 73.5534 48.0222 73.4055 48.0222C73.2761 48.0222 73.1652 47.9849 73.0728 47.8915C72.9803 47.7982 72.9434 47.6862 72.9434 47.5555V43.5412C72.9434 43.4105 72.9803 43.2985 73.0728 43.2051C73.1652 43.1305 73.2576 43.0745 73.4055 43.0745C73.5349 43.0745 73.6458 43.1118 73.7382 43.2051C73.8122 43.2798 73.8676 43.3919 73.8676 43.5412V43.6346C74.0525 43.4479 74.2743 43.2985 74.5516 43.1865C74.8104 43.0745 75.0877 43.0371 75.3834 43.0371C75.8086 43.0371 76.1783 43.1305 76.511 43.3172Z" fill="white"/>
    <path d="M87.5475 47.2195C87.6215 47.3129 87.6584 47.4062 87.6584 47.5369C87.6584 47.6676 87.603 47.7797 87.5105 47.8543C87.4181 47.929 87.2887 47.985 87.1408 47.985H86.9745C86.6787 47.985 86.4199 47.9103 86.1796 47.761C85.9393 47.6116 85.7544 47.4062 85.6065 47.1448C85.4771 46.8834 85.4032 46.5847 85.4032 46.2486V44.0268H84.9965C84.8671 44.0268 84.7747 43.9895 84.7008 43.9148C84.6268 43.8401 84.5898 43.7467 84.5898 43.6534C84.5898 43.5414 84.6268 43.4293 84.7008 43.3733C84.7747 43.2986 84.8856 43.2613 84.9965 43.2613H85.4032V41.973C85.4032 41.8423 85.4402 41.7303 85.5326 41.6556C85.6065 41.5809 85.7175 41.5249 85.8469 41.5249C85.9762 41.5249 86.0872 41.5622 86.1611 41.6556C86.235 41.7303 86.2905 41.8423 86.2905 41.973V43.2613H87.0484C87.1778 43.2613 87.2702 43.2986 87.3442 43.3733C87.4181 43.448 87.4551 43.5414 87.4551 43.6534C87.4551 43.7654 87.4181 43.8588 87.3442 43.9148C87.2702 43.9895 87.1593 44.0268 87.0484 44.0268H86.2905V46.2486C86.2905 46.4914 86.3644 46.6967 86.4938 46.8461C86.6232 47.0141 86.7896 47.0888 86.9745 47.0888H87.2702C87.3811 47.1075 87.4736 47.1448 87.5475 47.2195Z" fill="white"/>
    <path d="M93.9979 43.3735C94.3676 43.5975 94.6633 43.8963 94.8852 44.2697C95.107 44.6431 95.2179 45.0725 95.2179 45.5393V47.5371C95.2179 47.6678 95.1809 47.7798 95.0885 47.8731C94.9961 47.9665 94.8852 48.0038 94.7558 48.0038C94.6264 48.0038 94.5155 47.9665 94.423 47.8731C94.3306 47.7798 94.2936 47.6678 94.2936 47.5371V47.201C94.0903 47.4624 93.8315 47.6678 93.5357 47.7985C93.24 47.9478 92.9257 48.0225 92.5745 48.0225C92.1493 48.0225 91.7611 47.9105 91.4099 47.7051C91.0587 47.481 90.7814 47.201 90.5965 46.8089C90.3932 46.4355 90.3008 46.0061 90.3008 45.5393C90.3008 45.0725 90.4117 44.6431 90.615 44.2697C90.8369 43.8963 91.1141 43.5975 91.5023 43.3735C91.872 43.1494 92.2972 43.0374 92.7593 43.0374C93.2215 43.0561 93.6282 43.1494 93.9979 43.3735ZM93.5542 47.0143C93.7945 46.8649 93.9794 46.6595 94.1273 46.4168C94.2567 46.1554 94.3306 45.8754 94.3306 45.558C94.3306 45.2405 94.2567 44.9605 94.1273 44.6991C93.9979 44.4377 93.7945 44.2323 93.5542 44.1016C93.3139 43.9523 93.0366 43.8776 92.7409 43.8776C92.4451 43.8776 92.1678 43.9523 91.9275 44.1016C91.6872 44.251 91.5023 44.4564 91.3545 44.6991C91.2066 44.9605 91.1511 45.2405 91.1511 45.558C91.1511 45.8754 91.2251 46.1554 91.3545 46.4168C91.5023 46.6782 91.6872 46.8649 91.9275 47.0143C92.1678 47.1636 92.4266 47.2383 92.7409 47.2383C93.0551 47.2197 93.3139 47.145 93.5542 47.0143ZM92.4636 42.4773C92.3896 42.4026 92.3527 42.3092 92.3527 42.1972V41.9918C92.3527 41.7491 92.4636 41.5997 92.7039 41.5437L92.9442 41.4877C93.0551 41.469 93.1475 41.413 93.203 41.357C93.2769 41.301 93.3139 41.2263 93.3139 41.133C93.3139 41.0209 93.2769 40.9276 93.203 40.8716C93.1291 40.8156 93.0366 40.7782 92.9257 40.7782C92.8518 40.7782 92.7778 40.7969 92.6854 40.8156C92.6115 40.8342 92.5375 40.8716 92.5005 40.9276C92.4636 40.9649 92.4266 40.9836 92.3712 41.0023C92.3157 41.0209 92.2602 41.0209 92.2048 41.0209C92.1124 41.0209 92.0384 41.0023 91.9645 40.9463C91.909 40.8902 91.872 40.8156 91.872 40.7035C91.872 40.5728 91.9275 40.4608 92.0199 40.3861C92.2602 40.1808 92.556 40.0874 92.9072 40.0874C93.2215 40.0874 93.4803 40.1808 93.6836 40.3675C93.887 40.5542 93.9794 40.7969 93.9794 41.077C93.9794 41.5997 93.6466 41.8985 92.9812 41.9918L93.1475 41.9732C93.1475 42.1599 93.1106 42.3092 93.0366 42.4026C92.9627 42.4959 92.8703 42.552 92.7409 42.552C92.6484 42.608 92.556 42.5519 92.4636 42.4773Z" fill="white"/>
    <path d="M101.855 43.3172C102.188 43.5039 102.428 43.7653 102.613 44.1014C102.798 44.4374 102.89 44.8669 102.89 45.3523V47.5555C102.89 47.6862 102.853 47.7982 102.761 47.8915C102.668 47.9849 102.557 48.0222 102.428 48.0222C102.298 48.0222 102.188 47.9849 102.095 47.8915C102.003 47.7982 101.966 47.6862 101.966 47.5555V45.3523C101.966 44.8669 101.836 44.4934 101.578 44.2507C101.319 44.008 100.986 43.8773 100.542 43.8773C100.302 43.8773 100.062 43.9333 99.8584 44.0267C99.655 44.12 99.4887 44.2694 99.3777 44.4374C99.2668 44.6055 99.2114 44.8108 99.2114 45.0162V47.5555C99.2114 47.6862 99.1744 47.7982 99.082 47.8915C98.9896 47.9849 98.8971 48.0222 98.7492 48.0222C98.6198 48.0222 98.5089 47.9849 98.4165 47.8915C98.3241 47.7982 98.2871 47.6862 98.2871 47.5555V43.5412C98.2871 43.4105 98.3241 43.2985 98.4165 43.2051C98.5089 43.1305 98.6014 43.0745 98.7492 43.0745C98.8786 43.0745 98.9896 43.1118 99.082 43.2051C99.1559 43.2798 99.2114 43.3919 99.2114 43.5412V43.6346C99.3962 43.4479 99.6181 43.2985 99.8953 43.1865C100.154 43.0745 100.431 43.0371 100.727 43.0371C101.152 43.0371 101.522 43.1305 101.855 43.3172Z" fill="white"/>
    <path d="M109.638 43.3733C110.007 43.5787 110.303 43.8774 110.506 44.2509C110.71 44.6243 110.821 45.0537 110.821 45.5391V47.4809C110.821 47.9477 110.71 48.3771 110.506 48.7692C110.303 49.1613 110.007 49.46 109.638 49.6841C109.268 49.9081 108.843 50.0202 108.362 50.0202C107.937 50.0202 107.53 49.9268 107.179 49.7588C106.809 49.5907 106.495 49.348 106.255 49.0306C106.181 48.9372 106.162 48.8626 106.162 48.7879C106.162 48.6572 106.218 48.5452 106.347 48.4705C106.421 48.4145 106.514 48.3958 106.587 48.3958C106.735 48.3958 106.865 48.4518 106.957 48.5825C107.124 48.7879 107.327 48.9559 107.567 49.0679C107.808 49.18 108.085 49.236 108.399 49.236C108.695 49.236 108.954 49.1613 109.194 49.0306C109.434 48.8812 109.619 48.6759 109.767 48.4145C109.915 48.1344 109.989 47.817 109.989 47.4436V46.9955C109.804 47.3316 109.564 47.5743 109.268 47.761C108.972 47.9477 108.621 48.041 108.251 48.041C107.808 48.041 107.419 47.929 107.068 47.7236C106.717 47.5183 106.458 47.2195 106.255 46.8461C106.07 46.4727 105.959 46.0433 105.959 45.5578C105.959 45.0724 106.07 44.6429 106.273 44.2695C106.477 43.8961 106.772 43.5974 107.142 43.392C107.512 43.1866 107.937 43.0746 108.418 43.0746C108.843 43.0559 109.268 43.1493 109.638 43.3733ZM109.194 47.0141C109.434 46.8648 109.619 46.6781 109.748 46.4167C109.878 46.1553 109.952 45.8752 109.952 45.5578C109.952 45.2404 109.878 44.9417 109.748 44.6803C109.619 44.4189 109.434 44.2135 109.194 44.0828C108.954 43.9334 108.676 43.8588 108.381 43.8588C108.085 43.8588 107.808 43.9334 107.567 44.0828C107.327 44.2322 107.142 44.4189 106.994 44.6803C106.865 44.9417 106.791 45.2217 106.791 45.5578C106.791 45.8752 106.865 46.174 106.994 46.4167C107.124 46.6781 107.327 46.8648 107.567 47.0141C107.808 47.1635 108.085 47.2382 108.381 47.2382C108.676 47.2195 108.954 47.1448 109.194 47.0141Z" fill="white"/>
    <path d="M119.287 47.7048C118.917 47.4808 118.621 47.2007 118.418 46.8086C118.214 46.4352 118.104 46.0058 118.104 45.539C118.104 45.0536 118.214 44.6241 118.418 44.2507C118.621 43.8773 118.917 43.5786 119.268 43.3545C119.638 43.1491 120.044 43.0371 120.507 43.0371C121.209 43.0371 121.782 43.2985 122.244 43.84C122.3 43.9146 122.337 43.9893 122.337 44.0827C122.337 44.2134 122.263 44.3254 122.133 44.4188C122.078 44.4561 122.004 44.4748 121.93 44.4748C121.801 44.4748 121.671 44.4188 121.579 44.3067C121.431 44.1387 121.265 44.0267 121.098 43.952C120.932 43.8773 120.728 43.84 120.507 43.84C120.044 43.84 119.675 43.9893 119.397 44.3067C119.12 44.6241 118.972 45.0162 118.972 45.539C118.972 45.8564 119.046 46.1551 119.176 46.3979C119.305 46.6593 119.49 46.846 119.73 46.9953C119.971 47.1447 120.248 47.2194 120.544 47.2194C120.95 47.2194 121.265 47.1074 121.523 46.902C121.634 46.8273 121.745 46.7713 121.856 46.7713C121.93 46.7713 122.022 46.79 122.096 46.846C122.207 46.9393 122.263 47.0514 122.263 47.1634C122.263 47.2567 122.226 47.3314 122.152 47.4061C121.727 47.8169 121.191 48.0036 120.544 48.0036C120.081 48.0409 119.656 47.9289 119.287 47.7048Z" fill="white"/>
    <path d="M129.805 43.2054C129.879 43.2801 129.934 43.3922 129.934 43.5415V47.5558C129.934 47.6865 129.897 47.7985 129.805 47.8918C129.731 47.9852 129.62 48.0225 129.472 48.0225C129.342 48.0225 129.232 47.9852 129.139 47.8918C129.047 47.7985 129.01 47.6865 129.01 47.5558V47.4437C128.825 47.6305 128.603 47.7798 128.326 47.8918C128.067 48.0039 127.79 48.0412 127.494 48.0412C127.087 48.0412 126.718 47.9479 126.385 47.7798C126.052 47.5931 125.812 47.3317 125.627 46.9956C125.442 46.6596 125.35 46.2301 125.35 45.7447V43.5415C125.35 43.4108 125.387 43.2988 125.479 43.2054C125.571 43.1121 125.664 43.0747 125.812 43.0747C125.941 43.0747 126.052 43.1121 126.144 43.2054C126.237 43.2988 126.274 43.4108 126.274 43.5415V45.7447C126.274 46.2301 126.403 46.6036 126.662 46.8463C126.921 47.089 127.254 47.2197 127.697 47.2197C127.938 47.2197 128.178 47.1637 128.381 47.0703C128.585 46.977 128.751 46.8276 128.862 46.6596C128.973 46.4915 129.028 46.2861 129.028 46.0808V43.5415C129.028 43.4108 129.065 43.2988 129.158 43.2054C129.25 43.1308 129.342 43.0747 129.49 43.0747C129.601 43.0747 129.712 43.1121 129.805 43.2054ZM127.401 42.4773C127.328 42.4026 127.291 42.3092 127.291 42.1972V41.9918C127.291 41.7491 127.401 41.5997 127.642 41.5437L127.882 41.4877C127.993 41.4691 128.085 41.413 128.141 41.357C128.215 41.301 128.252 41.2263 128.252 41.133C128.252 41.0209 128.215 40.9276 128.141 40.8716C128.067 40.8156 127.975 40.7782 127.864 40.7782C127.79 40.7782 127.716 40.7969 127.623 40.8156C127.549 40.8342 127.475 40.8716 127.438 40.9276C127.401 40.9649 127.365 40.9836 127.309 41.0023C127.254 41.0209 127.198 41.0209 127.143 41.0209C127.05 41.0209 126.976 41.0023 126.902 40.9463C126.847 40.8903 126.81 40.8156 126.81 40.7035C126.81 40.5728 126.865 40.4608 126.958 40.3861C127.198 40.1808 127.494 40.0874 127.845 40.0874C128.159 40.0874 128.418 40.1808 128.622 40.3675C128.825 40.5542 128.917 40.7969 128.917 41.077C128.917 41.5997 128.585 41.8985 127.919 41.9918L128.085 41.9732C128.085 42.1599 128.048 42.3092 127.975 42.4026C127.901 42.4959 127.808 42.552 127.679 42.552C127.586 42.608 127.494 42.552 127.401 42.4773Z" fill="white"/>
    <path d="M136.756 43.3732C137.125 43.5972 137.421 43.896 137.643 44.2694C137.865 44.6428 137.976 45.0722 137.976 45.539V47.5368C137.976 47.6675 137.939 47.7795 137.846 47.8729C137.754 47.9662 137.643 48.0036 137.514 48.0036C137.384 48.0036 137.273 47.9662 137.181 47.8729C137.088 47.7795 137.051 47.6675 137.051 47.5368V47.2007C136.848 47.4621 136.589 47.6675 136.294 47.7982C135.998 47.9475 135.684 48.0222 135.332 48.0222C134.907 48.0222 134.519 47.9102 134.168 47.7048C133.816 47.4808 133.539 47.2007 133.354 46.8086C133.151 46.4352 133.059 46.0058 133.059 45.539C133.059 45.0722 133.17 44.6428 133.373 44.2694C133.595 43.896 133.872 43.5972 134.26 43.3732C134.63 43.1491 135.055 43.0371 135.517 43.0371C135.961 43.0558 136.386 43.1491 136.756 43.3732ZM136.312 47.014C136.552 46.8646 136.737 46.6593 136.885 46.4165C137.014 46.1551 137.088 45.8751 137.088 45.5577C137.088 45.2403 137.014 44.9602 136.885 44.6988C136.756 44.4374 136.552 44.232 136.312 44.1014C136.072 43.952 135.794 43.8773 135.499 43.8773C135.203 43.8773 134.926 43.952 134.685 44.1014C134.445 44.2507 134.26 44.4561 134.112 44.6988C133.964 44.9602 133.909 45.2403 133.909 45.5577C133.909 45.8751 133.983 46.1551 134.112 46.4165C134.26 46.6779 134.445 46.8646 134.685 47.014C134.926 47.1634 135.184 47.2381 135.499 47.2381C135.813 47.2194 136.072 47.1447 136.312 47.014Z" fill="white"/>
    <path d="M145.684 47.8544C145.592 47.761 145.555 47.649 145.555 47.5183V41.4316C145.555 41.3009 145.592 41.1889 145.684 41.0955C145.777 41.0022 145.887 40.9648 146.017 40.9648C146.146 40.9648 146.257 41.0022 146.35 41.0955C146.442 41.1889 146.479 41.3009 146.479 41.4316V44.0082H150.601V41.4316C150.601 41.3009 150.638 41.1889 150.731 41.0955C150.823 41.0022 150.934 40.9648 151.063 40.9648C151.193 40.9648 151.304 41.0022 151.396 41.0955C151.489 41.1889 151.525 41.3009 151.525 41.4316V47.5183C151.525 47.649 151.489 47.761 151.396 47.8544C151.304 47.9478 151.211 47.9851 151.063 47.9851C150.934 47.9851 150.823 47.9478 150.731 47.8544C150.638 47.761 150.601 47.649 150.601 47.5183V44.8484H146.479V47.5183C146.479 47.649 146.442 47.761 146.35 47.8544C146.257 47.9478 146.146 47.9851 146.017 47.9851C145.887 48.0038 145.777 47.9478 145.684 47.8544Z" fill="white"/>
    <path d="M158.439 43.3732C158.809 43.5972 159.105 43.896 159.327 44.2694C159.548 44.6428 159.659 45.0722 159.659 45.539V47.5368C159.659 47.6675 159.622 47.7795 159.53 47.8729C159.437 47.9662 159.327 48.0036 159.197 48.0036C159.068 48.0036 158.957 47.9662 158.864 47.8729C158.772 47.7795 158.735 47.6675 158.735 47.5368V47.2007C158.532 47.4621 158.273 47.6675 157.977 47.7982C157.681 47.9476 157.367 48.0222 157.016 48.0222C156.591 48.0222 156.203 47.9102 155.851 47.7048C155.5 47.4808 155.223 47.2007 155.038 46.8086C154.835 46.4352 154.742 46.0058 154.742 45.539C154.742 45.0722 154.853 44.6428 155.056 44.2694C155.278 43.896 155.556 43.5972 155.944 43.3732C156.313 43.1491 156.739 43.0371 157.201 43.0371C157.644 43.0558 158.07 43.1491 158.439 43.3732ZM157.996 47.014C158.236 46.8647 158.421 46.6593 158.569 46.4165C158.698 46.1552 158.772 45.8751 158.772 45.5577C158.772 45.2403 158.698 44.9602 158.569 44.6988C158.439 44.4374 158.236 44.2321 157.996 44.1014C157.755 43.952 157.478 43.8773 157.182 43.8773C156.886 43.8773 156.609 43.952 156.369 44.1014C156.129 44.2507 155.944 44.4561 155.796 44.6988C155.648 44.9602 155.593 45.2403 155.593 45.5577C155.593 45.8751 155.666 46.1552 155.796 46.4165C155.944 46.6779 156.129 46.8647 156.369 47.014C156.609 47.1634 156.868 47.2381 157.182 47.2381C157.497 47.2194 157.755 47.1447 157.996 47.014ZM156.776 49.8333C156.665 49.7213 156.609 49.5719 156.609 49.4226C156.609 49.2545 156.665 49.1238 156.776 49.0118C156.886 48.8998 157.034 48.8438 157.182 48.8438C157.33 48.8438 157.478 48.8998 157.589 49.0118C157.7 49.1238 157.755 49.2732 157.755 49.4226C157.755 49.5906 157.7 49.7213 157.589 49.8333C157.478 49.9454 157.33 50.0014 157.182 50.0014C157.034 50.0014 156.905 49.9454 156.776 49.8333Z" fill="white"/>
    <path d="M166.294 43.3172C166.627 43.5039 166.867 43.7653 167.052 44.1014C167.237 44.4374 167.329 44.8669 167.329 45.3523V47.5555C167.329 47.6862 167.292 47.7982 167.2 47.8915C167.108 47.9849 166.997 48.0222 166.867 48.0222C166.738 48.0222 166.627 47.9849 166.535 47.8915C166.442 47.7982 166.405 47.6862 166.405 47.5555V45.3523C166.405 44.8669 166.276 44.4934 166.017 44.2507C165.758 44.008 165.425 43.8773 164.982 43.8773C164.741 43.8773 164.501 43.9333 164.298 44.0267C164.094 44.12 163.928 44.2694 163.817 44.4374C163.706 44.6055 163.651 44.8108 163.651 45.0162V47.5555C163.651 47.6862 163.614 47.7982 163.521 47.8915C163.447 47.9849 163.337 48.0222 163.189 48.0222C163.059 48.0222 162.948 47.9849 162.856 47.8915C162.764 47.7982 162.727 47.6862 162.727 47.5555V43.5412C162.727 43.4105 162.764 43.2985 162.856 43.2051C162.948 43.1305 163.059 43.0745 163.189 43.0745C163.318 43.0745 163.429 43.1118 163.521 43.2051C163.595 43.2798 163.651 43.3919 163.651 43.5412V43.6346C163.836 43.4479 164.058 43.2985 164.335 43.1865C164.594 43.0745 164.871 43.0371 165.167 43.0371C165.592 43.0371 165.962 43.1305 166.294 43.3172Z" fill="white"/>
    <path d="M174.134 43.3173C174.467 43.504 174.707 43.7654 174.892 44.1014C175.077 44.4375 175.169 44.867 175.169 45.3524V47.5556C175.169 47.6863 175.132 47.7983 175.04 47.8916C174.947 47.985 174.837 48.0223 174.707 48.0223C174.578 48.0223 174.467 47.985 174.374 47.8916C174.282 47.7983 174.245 47.6863 174.245 47.5556V45.3524C174.245 44.867 174.116 44.4935 173.857 44.2508C173.598 44.0081 173.265 43.8774 172.822 43.8774C172.581 43.8774 172.341 43.9334 172.138 44.0268C171.934 44.1201 171.768 44.2695 171.657 44.4375C171.546 44.6056 171.491 44.8109 171.491 45.0163V47.5556C171.491 47.6863 171.454 47.7983 171.361 47.8916C171.287 47.985 171.176 48.0223 171.029 48.0223C170.899 48.0223 170.788 47.985 170.696 47.8916C170.603 47.7983 170.566 47.6863 170.566 47.5556V41.4502C170.566 41.3195 170.603 41.2075 170.696 41.1141C170.788 41.0394 170.899 40.9834 171.029 40.9834C171.158 40.9834 171.269 41.0207 171.361 41.1141C171.435 41.1888 171.491 41.3008 171.491 41.4502V43.6533C171.676 43.4666 171.897 43.3173 172.175 43.2052C172.433 43.0932 172.711 43.0559 173.006 43.0559C173.45 43.0372 173.801 43.1306 174.134 43.3173Z" fill="white"/>
    <path d="M183.079 47.8544C182.986 47.761 182.949 47.649 182.949 47.5183V41.4316C182.949 41.3009 182.986 41.1889 183.079 41.0955C183.171 41.0022 183.282 40.9648 183.411 40.9648H185.186C185.63 40.9648 186.018 41.0582 186.369 41.2636C186.72 41.469 186.979 41.7303 187.182 42.0851C187.367 42.4398 187.478 42.8319 187.478 43.28C187.478 43.7095 187.386 44.1015 187.182 44.4563C186.998 44.7924 186.72 45.0724 186.369 45.2591C186.018 45.4459 185.63 45.5392 185.186 45.5392H183.873V47.4996C183.873 47.6303 183.837 47.7424 183.744 47.8357C183.652 47.9291 183.541 47.9664 183.411 47.9664C183.263 48.0038 183.153 47.9477 183.079 47.8544ZM185.167 44.699C185.574 44.699 185.907 44.5683 186.166 44.3069C186.424 44.0455 186.554 43.7095 186.554 43.2987C186.554 42.8693 186.424 42.5145 186.166 42.2531C185.907 41.9731 185.574 41.8424 185.167 41.8424H183.855V44.699H185.167Z" fill="white"/>
    <path d="M193.691 43.3173C194.023 43.504 194.264 43.7654 194.449 44.1014C194.633 44.4375 194.726 44.867 194.726 45.3524V47.5556C194.726 47.6863 194.689 47.7983 194.597 47.8916C194.504 47.985 194.393 48.0223 194.264 48.0223C194.134 48.0223 194.023 47.985 193.931 47.8916C193.839 47.7983 193.802 47.6863 193.802 47.5556V45.3524C193.802 44.867 193.672 44.4935 193.413 44.2508C193.155 44.0081 192.822 43.8774 192.378 43.8774C192.138 43.8774 191.898 43.9334 191.694 44.0268C191.491 44.1201 191.325 44.2695 191.214 44.4375C191.103 44.6056 191.047 44.8109 191.047 45.0163V47.5556C191.047 47.6863 191.01 47.7983 190.918 47.8916C190.844 47.985 190.733 48.0223 190.585 48.0223C190.456 48.0223 190.345 47.985 190.252 47.8916C190.16 47.7983 190.123 47.6863 190.123 47.5556V41.4502C190.123 41.3195 190.16 41.2075 190.252 41.1141C190.345 41.0394 190.456 40.9834 190.585 40.9834C190.715 40.9834 190.826 41.0207 190.918 41.1141C190.992 41.1888 191.047 41.3008 191.047 41.4502V43.6533C191.232 43.4666 191.454 43.3173 191.731 43.2052C191.99 43.0932 192.267 43.0559 192.563 43.0559C192.988 43.0372 193.358 43.1306 193.691 43.3173Z" fill="white"/>
    <path d="M202.361 43.2051C202.435 43.2798 202.491 43.3918 202.491 43.5412V47.5554C202.491 47.6861 202.454 47.7981 202.361 47.8915C202.287 47.9849 202.176 48.0222 202.029 48.0222C201.899 48.0222 201.788 47.9849 201.696 47.8915C201.603 47.7981 201.566 47.6861 201.566 47.5554V47.4434C201.382 47.6301 201.16 47.7795 200.882 47.8915C200.624 48.0035 200.346 48.0409 200.051 48.0409C199.644 48.0409 199.274 47.9475 198.941 47.7795C198.609 47.5928 198.368 47.3314 198.184 46.9953C197.999 46.6592 197.906 46.2298 197.906 45.7443V43.5412C197.906 43.4105 197.943 43.2985 198.036 43.2051C198.128 43.1117 198.239 43.0744 198.368 43.0744C198.498 43.0744 198.609 43.1117 198.701 43.2051C198.794 43.2985 198.831 43.4105 198.831 43.5412V45.7443C198.831 46.2298 198.96 46.6032 199.219 46.8459C199.478 47.0887 199.81 47.2194 200.254 47.2194C200.494 47.2194 200.735 47.1633 200.938 47.07C201.141 46.9766 201.308 46.8273 201.418 46.6592C201.529 46.4912 201.585 46.2858 201.585 46.0804V43.5412C201.585 43.4105 201.622 43.2985 201.714 43.2051C201.807 43.1117 201.899 43.0744 202.047 43.0744C202.158 43.0744 202.269 43.1117 202.361 43.2051ZM199.958 42.1782C199.884 42.0848 199.829 41.9915 199.829 41.8421C199.829 41.7114 199.866 41.6181 199.94 41.5434L200.808 40.6659C200.901 40.5725 201.012 40.5352 201.123 40.5352C201.252 40.5352 201.363 40.5725 201.455 40.6659C201.548 40.7592 201.585 40.8712 201.585 41.0019C201.585 41.1326 201.548 41.2447 201.455 41.3193L200.587 42.1969C200.494 42.2716 200.402 42.3276 200.272 42.3276C200.143 42.3089 200.032 42.2716 199.958 42.1782Z" fill="white"/>
    <path d="M206.796 47.7048C206.427 47.4808 206.131 47.2007 205.928 46.8086C205.724 46.4352 205.613 46.0058 205.613 45.539C205.613 45.0536 205.724 44.6241 205.928 44.2507C206.131 43.8773 206.427 43.5786 206.778 43.3545C207.148 43.1491 207.554 43.0371 208.016 43.0371C208.719 43.0371 209.292 43.2985 209.754 43.84C209.809 43.9146 209.846 43.9893 209.846 44.0827C209.846 44.2134 209.772 44.3254 209.643 44.4188C209.588 44.4561 209.514 44.4748 209.44 44.4748C209.31 44.4748 209.181 44.4188 209.089 44.3067C208.941 44.1387 208.774 44.0267 208.608 43.952C208.442 43.8773 208.238 43.84 208.016 43.84C207.554 43.84 207.185 43.9893 206.907 44.3067C206.63 44.6241 206.482 45.0162 206.482 45.539C206.482 45.8564 206.556 46.1551 206.685 46.3979C206.815 46.6593 207 46.846 207.24 46.9953C207.48 47.1447 207.758 47.2194 208.053 47.2194C208.46 47.2194 208.774 47.1074 209.033 46.902C209.144 46.8273 209.255 46.7713 209.366 46.7713C209.44 46.7713 209.532 46.79 209.606 46.846C209.717 46.9393 209.772 47.0514 209.772 47.1634C209.772 47.2567 209.736 47.3314 209.662 47.4061C209.236 47.8169 208.7 48.0036 208.053 48.0036C207.591 48.0409 207.185 47.9289 206.796 47.7048Z" fill="white"/>
    <path d="M56.6396 9.87744H64.995C71.9455 9.87744 75.4393 13.7423 75.4393 19.2689C75.4393 22.9097 73.9604 25.8037 70.6885 27.3347L77.3803 36.278H71.9825L66.4369 28.511C65.6975 28.5856 64.9211 28.623 64.0892 28.623H61.224V36.278H56.6211V9.87744H56.6396ZM61.2425 14.1717V24.4967H64.6623C68.9694 24.4967 70.4667 22.1629 70.4667 19.2689C70.4667 16.3749 69.0248 14.1717 64.6623 14.1717H61.2425Z" fill="#DD3E1F"/>
    <path d="M85.5879 9.87793H102.576V14.1722H90.2092V21.5659H101.43V25.6921H90.2092V32.0029H102.576V36.2785H85.5879V9.87793Z" fill="#DD3E1F"/>
    <path d="M112.391 9.72803H113.851L130.007 26.7372V9.87739H134.629V36.4647H133.39L117.012 19.9036V36.278H112.391V9.72803Z" fill="#DD3E1F"/>
    <path d="M167.183 34.5232C167.183 34.5232 163.8 36.745 158.476 36.745C149.622 36.745 143.762 30.8824 143.762 23.078C143.762 15.4603 150.121 9.44824 157.848 9.44824C163.578 9.44824 167.072 11.5954 167.072 11.5954L165.482 15.5723C165.482 15.5723 162.025 13.8546 158.642 13.8546C152.505 13.8546 148.753 17.7568 148.753 23.1713C148.753 28.4738 152.764 32.376 158.199 32.376C162.617 32.376 165.778 30.565 165.778 30.565L167.183 34.5232Z" fill="#DD3E1F"/>
    <path d="M180.529 9.87744H175.926V36.278H180.529V9.87744Z" fill="#DD3E1F"/>
    <path d="M188.07 9.87793H210.049V14.1722H201.454V36.2785H196.814V14.1722H188.07V9.87793Z" fill="#DD3E1F"/>
    <path d="M238.002 9.87793L228.408 25.8415V36.2785H223.768V25.8042L214.174 9.87793H219.479L226.134 21.5659L232.789 9.87793H238.002Z" fill="#DD3E1F"/>
    <mask id="mask0_668_58347" style="mask-type:luminance" maskUnits="userSpaceOnUse" x="15" y="26" width="1" height="1">
      <path d="M15.8418 26.5202L15.8678 26.5458V26.4946L15.8418 26.5202Z" fill="white"/>
    </mask>
    <g mask="url(#mask0_668_58347)">
      <path d="M15.8685 26.4946H15.8418V26.5215H15.8685V26.4946Z" fill="url(#paint0_linear_668_58347)"/>
    </g>
    <mask id="mask1_668_58347" style="mask-type:luminance" maskUnits="userSpaceOnUse" x="15" y="26" width="1" height="1">
      <path d="M15.8418 26.5202L15.8678 26.5458V26.4946L15.8418 26.5202Z" fill="white"/>
    </mask>
    <g mask="url(#mask1_668_58347)">
      <path d="M15.8685 26.4946H15.8418V26.5215H15.8685V26.4946Z" fill="url(#paint1_linear_668_58347)"/>
    </g>
    <mask id="mask2_668_58347" style="mask-type:luminance" maskUnits="userSpaceOnUse" x="17" y="7" width="7" height="37">
      <path d="M17.544 12.4729C17.2113 12.865 17.0449 13.3691 17.1004 13.8919L18.3204 25.6919L18.4313 26.8495L19.8177 40.1618L23.5333 43.84L21.4999 7.95459L17.544 12.4729Z" fill="white"/>
    </mask>
    <g mask="url(#mask2_668_58347)">
      <path d="M23.5381 7.93018H17.0312V43.8155H23.5381V7.93018Z" fill="url(#paint2_linear_668_58347)"/>
    </g>
    <mask id="mask3_668_58347" style="mask-type:luminance" maskUnits="userSpaceOnUse" x="9" y="25" width="34" height="25">
      <path d="M15.8419 26.5134L15.8604 26.4947L15.8419 26.5134ZM33.2552 25.6172L33.1812 26.8495H35.9171C36.1389 26.8495 36.3607 26.9428 36.5086 27.0922L37.4699 28.0631L40.6863 31.3678C40.9821 31.6665 40.9821 32.152 40.6678 32.4507L32.4418 40.5725L28.6338 44.3254L26.3601 46.5846L24.53 44.7922L23.5318 43.8026L19.8162 40.1618L12.0339 32.4881C11.7381 32.1893 11.7196 31.7039 12.0154 31.4052L16.2116 27.0922C16.3595 26.9241 16.5813 26.8495 16.8031 26.8495H18.4483L18.3374 25.6919H16.9695C16.5998 25.6919 16.2301 25.7852 15.8973 25.9533H15.8788V25.9719C15.657 26.084 15.4352 26.2333 15.2503 26.42L10.0929 31.6292C9.64925 32.0773 9.64925 32.8055 10.0744 33.2536L25.3064 49.1238C25.7501 49.5906 26.4895 49.5906 26.9516 49.1425L42.6643 33.2722C43.1079 32.8241 43.1079 32.0773 42.6643 31.6292L37.4144 26.3267C36.9707 25.8786 36.3422 25.6172 35.7137 25.6172H33.2552Z" fill="white"/>
    </mask>
    <g mask="url(#mask3_668_58347)">
      <path d="M43.108 25.6172H9.63086V49.6093H43.108V25.6172Z" fill="url(#paint3_linear_668_58347)"/>
    </g>
    <mask id="mask4_668_58347" style="mask-type:luminance" maskUnits="userSpaceOnUse" x="23" y="0" width="6" height="47">
      <path d="M23.2188 6.53559L24.5497 44.8295L26.3798 46.6032L28.635 44.3441L27.6553 45.3149L27.9141 0.57959L23.2188 6.53559Z" fill="white"/>
    </mask>
    <g mask="url(#mask4_668_58347)">
      <path d="M28.6535 0.57959H23.2188V46.6032H28.6535V0.57959Z" fill="url(#paint4_linear_668_58347)"/>
    </g>
    <mask id="mask5_668_58347" style="mask-type:luminance" maskUnits="userSpaceOnUse" x="28" y="11" width="6" height="34">
      <path d="M28.6348 44.344L32.4428 40.5912L33.1822 26.8494L33.2561 25.6171L33.7552 16.2257C33.7737 15.7215 33.5889 15.2361 33.2561 14.9L29.4296 11.0352L28.6348 44.344Z" fill="white"/>
    </mask>
    <g mask="url(#mask5_668_58347)">
      <path d="M33.7737 11.0112H28.6348V44.3387H33.7737V11.0112Z" fill="url(#paint5_linear_668_58347)"/>
    </g>
    <mask id="mask6_668_58347" style="mask-type:luminance" maskUnits="userSpaceOnUse" x="2" y="18" width="48" height="39">
      <path d="M35.8422 22.4435L45.0849 31.7229C45.2882 31.9283 45.3991 32.2083 45.3991 32.4697C45.3991 32.7498 45.3067 33.0112 45.0849 33.2352L26.8213 51.682C26.4146 52.0928 25.7491 52.0928 25.3239 51.682L7.17125 33.2539C6.94943 33.0299 6.857 32.7311 6.87548 32.4324C6.87548 32.4137 6.87548 32.4137 6.87548 32.395C6.89397 32.2457 6.94943 31.9843 7.17125 31.7416L16.2661 22.6302L15.3418 18.6906L13.7521 20.2963C13.5672 20.483 13.3454 20.7071 13.142 20.9125L12.3472 21.734L12.1069 21.9767L11.9775 22.1074L11.6078 22.4995L11.349 22.7609L11.0902 23.0223L10.018 24.1052L9.74073 24.3852L9.46345 24.6653L9.33405 24.796L8.65009 25.4868L8.24341 25.8976L7.96612 26.1776L7.70733 26.439L7.31913 26.8311L6.93094 27.2232L6.65366 27.4659L6.28395 27.8394L6.04364 28.0821L5.80333 28.3248L5.5815 28.5488L5.15634 28.9783L4.86057 29.277L4.76814 29.3704L4.58329 29.5571L4.39844 29.7438L4.23207 29.9118L4.0657 30.0799L3.56659 30.584L3.47416 30.6773L3.25234 30.9014C2.49444 31.6669 2.56838 32.4884 2.56838 32.4884C2.54989 33.1045 2.77172 33.7393 3.25234 34.2061L24.3812 55.5469C25.287 56.4618 26.7473 56.4618 27.6531 55.5469L48.8559 34.1314C49.2996 33.6833 49.5214 33.0859 49.5399 32.5071C49.5399 31.9096 49.318 31.2935 48.8559 30.8267L36.3413 18.1865L35.8422 22.4435Z" fill="white"/>
    </mask>
    <g mask="url(#mask6_668_58347)">
      <path d="M0 56.2753L2.71736 15.0127L52.0549 18.3174L49.3376 59.5801L0 56.2753Z" fill="url(#paint6_linear_668_58347)"/>
    </g>
  </g>
  <defs>
    <linearGradient id="paint0_linear_668_58347" x1="15.847" y1="26.5171" x2="15.8701" y2="26.5171" gradientUnits="userSpaceOnUse">
      <stop stop-color="#FF9900"/>
      <stop offset="1" stop-color="#DD3E1F"/>
    </linearGradient>
    <linearGradient id="paint1_linear_668_58347" x1="15.847" y1="26.5171" x2="15.8701" y2="26.5171" gradientUnits="userSpaceOnUse">
      <stop stop-color="#FF9900"/>
      <stop offset="1" stop-color="#DD3E1F"/>
    </linearGradient>
    <linearGradient id="paint2_linear_668_58347" x1="20.3072" y1="2.33465" x2="20.3072" y2="44.5156" gradientUnits="userSpaceOnUse">
      <stop stop-color="#FF9900"/>
      <stop offset="1" stop-color="#DD3E1F"/>
    </linearGradient>
    <linearGradient id="paint3_linear_668_58347" x1="26.3911" y1="49.9162" x2="26.3911" y2="23.9464" gradientUnits="userSpaceOnUse">
      <stop stop-color="#FF9900"/>
      <stop offset="1" stop-color="#DD3E1F"/>
    </linearGradient>
    <linearGradient id="paint4_linear_668_58347" x1="25.9522" y1="2.34037" x2="25.9522" y2="44.5213" gradientUnits="userSpaceOnUse">
      <stop stop-color="#FF9900"/>
      <stop offset="1" stop-color="#DD3E1F"/>
    </linearGradient>
    <linearGradient id="paint5_linear_668_58347" x1="31.2412" y1="2.335" x2="31.2412" y2="44.516" gradientUnits="userSpaceOnUse">
      <stop stop-color="#FF9900"/>
      <stop offset="1" stop-color="#DD3E1F"/>
    </linearGradient>
    <linearGradient id="paint6_linear_668_58347" x1="24.8779" y1="55.5958" x2="27.0992" y2="22.4779" gradientUnits="userSpaceOnUse">
      <stop stop-color="#FF9900"/>
      <stop offset="1" stop-color="#DD3E1F"/>
    </linearGradient>
    <clipPath id="clip0_668_58347">
      <rect width="238" height="59" fill="white" transform="translate(0 0.57959)"/>
    </clipPath>
  </defs>
</svg>