<svg xmlns="http://www.w3.org/2000/svg" width="121" height="30" viewBox="0 0 121 30" fill="none">
    <path d="M28.8524 24.0481C28.8054 24.0006 28.7866 23.9437 28.7866 23.8772V20.7823C28.7866 20.7158 28.8054 20.6588 28.8524 20.6114C28.8994 20.5639 28.9464 20.5449 29.0216 20.5449C29.0592 20.5449 29.0874 20.5544 29.125 20.5734C29.1625 20.5924 29.1813 20.6114 29.2095 20.6304L31.1831 23.2791V20.7823C31.1831 20.7158 31.2019 20.6588 31.2489 20.6114C31.2959 20.5639 31.3523 20.5449 31.4181 20.5449C31.4839 20.5449 31.5403 20.5639 31.5872 20.6114C31.6342 20.6588 31.653 20.7158 31.653 20.7823V23.8772C31.653 23.9437 31.6342 24.0006 31.5872 24.0481C31.5403 24.0956 31.4933 24.1145 31.4181 24.1145C31.3805 24.1145 31.3523 24.105 31.3147 24.0956C31.2771 24.0861 31.2583 24.0576 31.2395 24.0386L29.2659 21.3899V23.8867C29.2659 23.9532 29.2471 24.0101 29.2001 24.0576C29.1531 24.105 29.0968 24.124 29.031 24.124C28.9464 24.1145 28.89 24.0861 28.8524 24.0481Z" fill="black"/>
    <path d="M35.5524 22.9656C35.5148 23.0036 35.4678 23.0226 35.402 23.0226H33.6822C33.7198 23.2315 33.8138 23.4118 33.9735 23.5353C34.1333 23.6682 34.3213 23.7346 34.5562 23.7346C34.6502 23.7346 34.7442 23.7156 34.8382 23.6872C34.9321 23.6492 35.0167 23.6112 35.0825 23.5637C35.1201 23.5258 35.1765 23.5163 35.2329 23.5163C35.2893 23.5163 35.3362 23.5353 35.3644 23.5637C35.4208 23.6112 35.449 23.6587 35.449 23.7156C35.449 23.7726 35.4208 23.8201 35.3738 23.8485C35.2705 23.934 35.1483 24.0004 34.9885 24.0479C34.8382 24.0954 34.6878 24.1239 34.5562 24.1239C34.3119 24.1239 34.0863 24.0669 33.8889 23.9625C33.6916 23.858 33.5412 23.7061 33.4284 23.5163C33.3157 23.3264 33.2593 23.108 33.2593 22.8612C33.2593 22.6144 33.3157 22.396 33.419 22.2061C33.5224 22.0163 33.6634 21.8644 33.8514 21.7504C34.0393 21.646 34.2461 21.5891 34.481 21.5891C34.716 21.5891 34.9133 21.6365 35.0825 21.741C35.2517 21.8454 35.3832 21.9878 35.4678 22.1777C35.5618 22.3675 35.5994 22.5764 35.5994 22.8137C35.6088 22.8802 35.59 22.9277 35.5524 22.9656ZM33.9547 22.1682C33.8138 22.2916 33.7292 22.453 33.6916 22.6523H35.1953C35.1671 22.453 35.0919 22.2821 34.9697 22.1682C34.8476 22.0447 34.6878 21.9878 34.4904 21.9878C34.2649 21.9878 34.0863 22.0447 33.9547 22.1682ZM33.7762 21.2473C33.7292 21.2093 33.7104 21.1713 33.7104 21.1144C33.7104 21.0384 33.748 20.972 33.8232 20.915L34.3307 20.5827C34.3682 20.5542 34.4058 20.5447 34.4528 20.5447C34.4998 20.5447 34.5374 20.5542 34.575 20.5827L35.0731 20.915C35.1483 20.972 35.1859 21.0384 35.1859 21.1144C35.1859 21.1713 35.1671 21.2188 35.1201 21.2473C35.0825 21.2853 35.0261 21.3042 34.9603 21.3042C34.9039 21.3042 34.8569 21.2853 34.81 21.2568L34.4528 21.0004L34.0957 21.2568C34.0581 21.2947 34.0017 21.3042 33.9547 21.3042C33.8702 21.3042 33.8138 21.2853 33.7762 21.2473ZM34.7442 20.4973L34.3025 20.0511C34.2649 20.0131 34.2461 19.9561 34.2461 19.8897C34.2461 19.8232 34.2649 19.7663 34.3119 19.7188C34.3495 19.6713 34.4058 19.6523 34.4716 19.6523C34.5374 19.6523 34.5938 19.6713 34.6408 19.7188L35.0825 20.165C35.1201 20.203 35.1389 20.2599 35.1389 20.3169C35.1389 20.3834 35.1201 20.4403 35.0731 20.4878C35.0261 20.5353 34.9697 20.5542 34.9039 20.5542C34.8382 20.5542 34.7818 20.5447 34.7442 20.4973Z" fill="black"/>
    <path d="M38.8988 21.7303C39.068 21.8252 39.1901 21.9581 39.2841 22.129C39.3781 22.2999 39.4251 22.5183 39.4251 22.7651V23.8854C39.4251 23.9518 39.4063 24.0088 39.3593 24.0562C39.3123 24.1037 39.2559 24.1227 39.1901 24.1227C39.1243 24.1227 39.068 24.1037 39.021 24.0562C38.974 24.0088 38.9552 23.9518 38.9552 23.8854V22.7651C38.9552 22.5183 38.8894 22.3284 38.7578 22.205C38.6262 22.0816 38.4571 22.0151 38.2315 22.0151C38.1093 22.0151 37.9872 22.0436 37.8838 22.0911C37.7804 22.1385 37.6958 22.2145 37.6394 22.2999C37.5831 22.3854 37.5549 22.4898 37.5549 22.5942V23.8854C37.5549 23.9518 37.5361 24.0088 37.4891 24.0562C37.4421 24.1037 37.3951 24.1227 37.3199 24.1227C37.2541 24.1227 37.1977 24.1037 37.1507 24.0562C37.1038 24.0088 37.085 23.9518 37.085 23.8854V21.8442C37.085 21.7778 37.1038 21.7208 37.1507 21.6733C37.1977 21.6354 37.2447 21.6069 37.3199 21.6069C37.3857 21.6069 37.4421 21.6259 37.4891 21.6733C37.5267 21.7113 37.5549 21.7683 37.5549 21.8442V21.8917C37.6488 21.7968 37.7616 21.7208 37.9026 21.6638C38.0342 21.6069 38.1751 21.5879 38.3255 21.5879C38.5417 21.5879 38.7296 21.6354 38.8988 21.7303Z" fill="black"/>
    <path d="M44.5091 23.7149C44.5467 23.7624 44.5654 23.8098 44.5654 23.8763C44.5654 23.9428 44.5373 23.9997 44.4903 24.0377C44.4433 24.0757 44.3775 24.1041 44.3023 24.1041H44.2177C44.0674 24.1041 43.9358 24.0662 43.8136 23.9902C43.6914 23.9143 43.5974 23.8098 43.5223 23.6769C43.4565 23.544 43.4189 23.3921 43.4189 23.2212V22.0915H43.2121C43.1463 22.0915 43.0994 22.0725 43.0618 22.0345C43.0242 21.9966 43.0054 21.9491 43.0054 21.9016C43.0054 21.8447 43.0242 21.7877 43.0618 21.7592C43.0994 21.7212 43.1557 21.7022 43.2121 21.7022H43.4189V21.0472C43.4189 20.9807 43.4377 20.9238 43.4847 20.8858C43.5223 20.8478 43.5787 20.8193 43.6444 20.8193C43.7102 20.8193 43.7666 20.8383 43.8042 20.8858C43.8418 20.9238 43.87 20.9807 43.87 21.0472V21.7022H44.2553C44.3211 21.7022 44.3681 21.7212 44.4057 21.7592C44.4433 21.7972 44.4621 21.8447 44.4621 21.9016C44.4621 21.9586 44.4433 22.006 44.4057 22.0345C44.3681 22.0725 44.3117 22.0915 44.2553 22.0915H43.87V23.2212C43.87 23.3447 43.9076 23.4491 43.9734 23.525C44.0392 23.6105 44.1237 23.6484 44.2177 23.6484H44.3681C44.4245 23.6579 44.4715 23.6769 44.5091 23.7149Z" fill="black"/>
    <path d="M47.7888 21.7598C47.9768 21.8737 48.1271 22.0256 48.2399 22.2154C48.3527 22.4053 48.4091 22.6237 48.4091 22.861V23.8768C48.4091 23.9433 48.3903 24.0003 48.3433 24.0477C48.2963 24.0952 48.2399 24.1142 48.1741 24.1142C48.1083 24.1142 48.0519 24.0952 48.0049 24.0477C47.958 24.0003 47.9392 23.9433 47.9392 23.8768V23.706C47.8358 23.8389 47.7042 23.9433 47.5538 24.0098C47.4035 24.0857 47.2437 24.1237 47.0651 24.1237C46.849 24.1237 46.6516 24.0667 46.4731 23.9623C46.2945 23.8484 46.1535 23.706 46.0595 23.5066C45.9562 23.3167 45.9092 23.0984 45.9092 22.861C45.9092 22.6237 45.9656 22.4053 46.0689 22.2154C46.1817 22.0256 46.3227 21.8737 46.5201 21.7598C46.708 21.6458 46.9242 21.5889 47.1591 21.5889C47.3941 21.5984 47.6008 21.6458 47.7888 21.7598ZM47.5632 23.611C47.6854 23.5351 47.7794 23.4306 47.8546 23.3072C47.9204 23.1743 47.958 23.0319 47.958 22.8705C47.958 22.7091 47.9204 22.5667 47.8546 22.4338C47.7888 22.3009 47.6854 22.1965 47.5632 22.13C47.4411 22.0541 47.3001 22.0161 47.1497 22.0161C46.9994 22.0161 46.8584 22.0541 46.7362 22.13C46.614 22.206 46.5201 22.3104 46.4449 22.4338C46.3697 22.5667 46.3415 22.7091 46.3415 22.8705C46.3415 23.0319 46.3791 23.1743 46.4449 23.3072C46.5201 23.4401 46.614 23.5351 46.7362 23.611C46.8584 23.687 46.99 23.7249 47.1497 23.7249C47.3095 23.7154 47.4411 23.6775 47.5632 23.611ZM47.0088 21.3041C46.9712 21.2661 46.9524 21.2186 46.9524 21.1617V21.0572C46.9524 20.9338 47.0088 20.8579 47.1309 20.8294L47.2531 20.8009C47.3095 20.7914 47.3565 20.7629 47.3847 20.7344C47.4223 20.706 47.4411 20.668 47.4411 20.6205C47.4411 20.5635 47.4223 20.5161 47.3847 20.4876C47.3471 20.4591 47.3001 20.4401 47.2437 20.4401C47.2061 20.4401 47.1685 20.4496 47.1215 20.4591C47.0839 20.4686 47.0463 20.4876 47.0275 20.5161C47.0088 20.5351 46.99 20.5446 46.9618 20.5541C46.9336 20.5636 46.9054 20.5636 46.8772 20.5636C46.8302 20.5636 46.7926 20.5541 46.755 20.5256C46.7268 20.4971 46.708 20.4591 46.708 20.4022C46.708 20.3357 46.7362 20.2787 46.7832 20.2408C46.9054 20.1363 47.0557 20.0889 47.2343 20.0889C47.3941 20.0889 47.5256 20.1363 47.629 20.2313C47.7324 20.3262 47.7794 20.4496 47.7794 20.592C47.7794 20.8579 47.6102 21.0098 47.2719 21.0572L47.3565 21.0477C47.3565 21.1427 47.3377 21.2186 47.3001 21.2661C47.2625 21.3135 47.2155 21.342 47.1497 21.342C47.1027 21.3705 47.0557 21.342 47.0088 21.3041Z" fill="black"/>
    <path d="M51.7836 21.7303C51.9527 21.8252 52.0749 21.9581 52.1689 22.129C52.2628 22.2999 52.3098 22.5183 52.3098 22.7651V23.8854C52.3098 23.9518 52.291 24.0088 52.2441 24.0562C52.1971 24.1037 52.1407 24.1227 52.0749 24.1227C52.0091 24.1227 51.9527 24.1037 51.9057 24.0562C51.8587 24.0088 51.8399 23.9518 51.8399 23.8854V22.7651C51.8399 22.5183 51.7742 22.3284 51.6426 22.205C51.511 22.0816 51.3418 22.0151 51.1163 22.0151C50.9941 22.0151 50.8719 22.0436 50.7686 22.0911C50.6652 22.1385 50.5806 22.2145 50.5242 22.2999C50.4678 22.3854 50.4396 22.4898 50.4396 22.5942V23.8854C50.4396 23.9518 50.4208 24.0088 50.3738 24.0562C50.3269 24.1037 50.2799 24.1227 50.2047 24.1227C50.1389 24.1227 50.0825 24.1037 50.0355 24.0562C49.9885 24.0088 49.9697 23.9518 49.9697 23.8854V21.8442C49.9697 21.7778 49.9885 21.7208 50.0355 21.6733C50.0825 21.6354 50.1295 21.6069 50.2047 21.6069C50.2705 21.6069 50.3269 21.6259 50.3738 21.6733C50.4114 21.7113 50.4396 21.7683 50.4396 21.8442V21.8917C50.5336 21.7968 50.6464 21.7208 50.7874 21.6638C50.9189 21.6069 51.0599 21.5879 51.2103 21.5879C51.4264 21.5879 51.6144 21.6354 51.7836 21.7303Z" fill="black"/>
    <path d="M55.7403 21.7595C55.9283 21.864 56.0787 22.0159 56.182 22.2057C56.2854 22.3956 56.3418 22.614 56.3418 22.8608V23.8481C56.3418 24.0855 56.2854 24.3038 56.182 24.5032C56.0787 24.7026 55.9283 24.8545 55.7403 24.9684C55.5524 25.0823 55.3362 25.1393 55.0919 25.1393C54.8757 25.1393 54.669 25.0918 54.4904 25.0064C54.3024 24.9209 54.1427 24.7975 54.0205 24.6361C53.9829 24.5886 53.9735 24.5507 53.9735 24.5127C53.9735 24.4462 54.0017 24.3893 54.0675 24.3513C54.1051 24.3228 54.1521 24.3133 54.1896 24.3133C54.2648 24.3133 54.3306 24.3418 54.3776 24.4083C54.4622 24.5127 54.5656 24.5981 54.6877 24.6551C54.8099 24.7121 54.9509 24.7405 55.1107 24.7405C55.261 24.7405 55.3926 24.7026 55.5148 24.6361C55.637 24.5602 55.7309 24.4557 55.8061 24.3228C55.8813 24.1804 55.9189 24.019 55.9189 23.8291V23.6013C55.8249 23.7722 55.7027 23.8956 55.5524 23.9905C55.402 24.0855 55.2234 24.1329 55.0355 24.1329C54.8099 24.1329 54.6126 24.076 54.434 23.9716C54.2554 23.8671 54.1239 23.7152 54.0205 23.5253C53.9265 23.3355 53.8701 23.1171 53.8701 22.8703C53.8701 22.6234 53.9265 22.4051 54.0299 22.2152C54.1333 22.0253 54.2836 21.8734 54.4716 21.769C54.6596 21.6646 54.8757 21.6076 55.1201 21.6076C55.3362 21.5981 55.5524 21.6456 55.7403 21.7595ZM55.5148 23.6108C55.637 23.5348 55.7309 23.4399 55.7967 23.307C55.8625 23.1741 55.9001 23.0317 55.9001 22.8703C55.9001 22.7089 55.8625 22.557 55.7967 22.4241C55.7309 22.2912 55.637 22.1867 55.5148 22.1203C55.3926 22.0443 55.2516 22.0064 55.1013 22.0064C54.9509 22.0064 54.8099 22.0443 54.6877 22.1203C54.5656 22.1962 54.4716 22.2912 54.3964 22.4241C54.3306 22.557 54.293 22.6994 54.293 22.8703C54.293 23.0317 54.3306 23.1836 54.3964 23.307C54.4622 23.4399 54.5656 23.5348 54.6877 23.6108C54.8099 23.6867 54.9509 23.7247 55.1013 23.7247C55.2516 23.7152 55.3926 23.6772 55.5148 23.6108Z" fill="black"/>
    <path d="M60.6449 23.9613C60.457 23.8474 60.3066 23.705 60.2032 23.5056C60.0998 23.3157 60.0435 23.0974 60.0435 22.86C60.0435 22.6132 60.0998 22.3949 60.2032 22.205C60.3066 22.0151 60.457 21.8632 60.6355 21.7493C60.8235 21.6449 61.0303 21.5879 61.2652 21.5879C61.6223 21.5879 61.9137 21.7208 62.1486 21.9961C62.1768 22.0341 62.1956 22.0721 62.1956 22.1195C62.1956 22.186 62.158 22.243 62.0922 22.2904C62.064 22.3094 62.0264 22.3189 61.9889 22.3189C61.9231 22.3189 61.8573 22.2904 61.8103 22.2335C61.7351 22.148 61.6505 22.0911 61.5659 22.0531C61.4814 22.0151 61.378 21.9961 61.2652 21.9961C61.0303 21.9961 60.8423 22.0721 60.7013 22.2335C60.5604 22.3949 60.4852 22.5942 60.4852 22.86C60.4852 23.0214 60.5228 23.1733 60.5885 23.2968C60.6543 23.4297 60.7483 23.5246 60.8705 23.6006C60.9927 23.6765 61.1336 23.7145 61.284 23.7145C61.4908 23.7145 61.6505 23.6575 61.7821 23.5531C61.8385 23.5151 61.8949 23.4866 61.9513 23.4866C61.9889 23.4866 62.0358 23.4961 62.0734 23.5246C62.1298 23.5721 62.158 23.629 62.158 23.686C62.158 23.7335 62.1392 23.7714 62.1016 23.8094C61.8855 24.0183 61.6129 24.1132 61.284 24.1132C61.049 24.1322 60.8329 24.0752 60.6449 23.9613Z" fill="black"/>
    <path d="M65.9935 21.6743C66.031 21.7123 66.0592 21.7692 66.0592 21.8452V23.8863C66.0592 23.9528 66.0404 24.0098 65.9935 24.0572C65.9559 24.1047 65.8995 24.1237 65.8243 24.1237C65.7585 24.1237 65.7021 24.1047 65.6551 24.0572C65.6081 24.0098 65.5893 23.9528 65.5893 23.8863V23.8294C65.4954 23.9243 65.3826 24.0003 65.2416 24.0572C65.11 24.1142 64.9691 24.1332 64.8187 24.1332C64.6119 24.1332 64.424 24.0857 64.2548 24.0003C64.0856 23.9053 63.9635 23.7724 63.8695 23.6015C63.7755 23.4306 63.7285 23.2123 63.7285 22.9654V21.8452C63.7285 21.7787 63.7473 21.7218 63.7943 21.6743C63.8413 21.6268 63.8883 21.6079 63.9635 21.6079C64.0293 21.6079 64.0856 21.6268 64.1326 21.6743C64.1796 21.7218 64.1984 21.7787 64.1984 21.8452V22.9654C64.1984 23.2123 64.2642 23.4022 64.3958 23.5256C64.5274 23.649 64.6965 23.7154 64.9221 23.7154C65.0442 23.7154 65.1664 23.687 65.2698 23.6395C65.3732 23.592 65.4578 23.5161 65.5141 23.4306C65.5705 23.3452 65.5987 23.2408 65.5987 23.1363V21.8452C65.5987 21.7787 65.6175 21.7218 65.6645 21.6743C65.7115 21.6363 65.7585 21.6079 65.8337 21.6079C65.8901 21.6079 65.9465 21.6268 65.9935 21.6743ZM64.7717 21.3041C64.7341 21.2661 64.7153 21.2186 64.7153 21.1617V21.0572C64.7153 20.9338 64.7717 20.8579 64.8939 20.8294L65.0161 20.8009C65.0724 20.7914 65.1194 20.7629 65.1476 20.7344C65.1852 20.706 65.204 20.668 65.204 20.6205C65.204 20.5635 65.1852 20.5161 65.1476 20.4876C65.11 20.4591 65.063 20.4401 65.0067 20.4401C64.9691 20.4401 64.9315 20.4496 64.8845 20.4591C64.8469 20.4686 64.8093 20.4876 64.7905 20.5161C64.7717 20.5351 64.7529 20.5446 64.7247 20.5541C64.6965 20.5636 64.6683 20.5636 64.6401 20.5636C64.5931 20.5636 64.5555 20.5541 64.518 20.5256C64.4898 20.4971 64.471 20.4591 64.471 20.4022C64.471 20.3357 64.4992 20.2787 64.5461 20.2408C64.6683 20.1363 64.8187 20.0889 64.9973 20.0889C65.157 20.0889 65.2886 20.1363 65.392 20.2313C65.4954 20.3262 65.5423 20.4496 65.5423 20.592C65.5423 20.8579 65.3732 21.0098 65.0348 21.0572L65.1194 21.0477C65.1194 21.1427 65.1006 21.2186 65.063 21.2661C65.0254 21.3136 64.9785 21.342 64.9127 21.342C64.8657 21.3705 64.8187 21.342 64.7717 21.3041Z" fill="black"/>
    <path d="M69.5271 21.7588C69.715 21.8727 69.8654 22.0246 69.9782 22.2145C70.091 22.4043 70.1473 22.6227 70.1473 22.86V23.8759C70.1473 23.9423 70.1286 23.9993 70.0816 24.0468C70.0346 24.0942 69.9782 24.1132 69.9124 24.1132C69.8466 24.1132 69.7902 24.0942 69.7432 24.0468C69.6962 23.9993 69.6774 23.9423 69.6774 23.8759V23.705C69.5741 23.8379 69.4425 23.9423 69.2921 24.0088C69.1418 24.0847 68.982 24.1227 68.8034 24.1227C68.5873 24.1227 68.3899 24.0657 68.2113 23.9613C68.0328 23.8474 67.8918 23.705 67.7978 23.5056C67.6945 23.3157 67.6475 23.0974 67.6475 22.86C67.6475 22.6227 67.7039 22.4043 67.8072 22.2145C67.92 22.0246 68.061 21.8727 68.2583 21.7588C68.4463 21.6449 68.6625 21.5879 68.8974 21.5879C69.123 21.5974 69.3391 21.6449 69.5271 21.7588ZM69.3015 23.61C69.4237 23.5341 69.5177 23.4297 69.5929 23.3062C69.6586 23.1733 69.6962 23.0309 69.6962 22.8695C69.6962 22.7081 69.6586 22.5657 69.5929 22.4328C69.5271 22.2999 69.4237 22.1955 69.3015 22.129C69.1793 22.0531 69.0384 22.0151 68.888 22.0151C68.7376 22.0151 68.5967 22.0531 68.4745 22.129C68.3523 22.205 68.2583 22.3094 68.1832 22.4328C68.108 22.5657 68.0798 22.7081 68.0798 22.8695C68.0798 23.0309 68.1174 23.1733 68.1832 23.3062C68.2583 23.4392 68.3523 23.5341 68.4745 23.61C68.5967 23.686 68.7282 23.724 68.888 23.724C69.0478 23.7145 69.1793 23.6765 69.3015 23.61Z" fill="black"/>
    <path d="M74.0658 24.0383C74.0188 23.9909 74 23.9339 74 23.8674V20.7725C74 20.706 74.0188 20.6491 74.0658 20.6016C74.1128 20.5541 74.1692 20.5352 74.235 20.5352C74.3007 20.5352 74.3571 20.5541 74.4041 20.6016C74.4511 20.6491 74.4699 20.706 74.4699 20.7725V22.0826H76.5657V20.7725C76.5657 20.706 76.5845 20.6491 76.6315 20.6016C76.6784 20.5541 76.7348 20.5352 76.8006 20.5352C76.8664 20.5352 76.9228 20.5541 76.9698 20.6016C77.0168 20.6491 77.0356 20.706 77.0356 20.7725V23.8674C77.0356 23.9339 77.0168 23.9909 76.9698 24.0383C76.9228 24.0858 76.8758 24.1048 76.8006 24.1048C76.7348 24.1048 76.6784 24.0858 76.6315 24.0383C76.5845 23.9909 76.5657 23.9339 76.5657 23.8674V22.5098H74.4699V23.8674C74.4699 23.9339 74.4511 23.9909 74.4041 24.0383C74.3571 24.0858 74.3007 24.1048 74.235 24.1048C74.1692 24.1143 74.1128 24.0858 74.0658 24.0383Z" fill="black"/>
    <path d="M80.55 21.7588C80.738 21.8727 80.8884 22.0246 81.0011 22.2145C81.1139 22.4043 81.1703 22.6227 81.1703 22.86V23.8759C81.1703 23.9423 81.1515 23.9993 81.1045 24.0468C81.0575 24.0942 81.0011 24.1132 80.9353 24.1132C80.8696 24.1132 80.8132 24.0942 80.7662 24.0468C80.7192 23.9993 80.7004 23.9423 80.7004 23.8759V23.705C80.597 23.8379 80.4654 23.9423 80.3151 24.0088C80.1647 24.0847 80.0049 24.1227 79.8264 24.1227C79.6102 24.1227 79.4129 24.0657 79.2343 23.9613C79.0557 23.8474 78.9148 23.705 78.8208 23.5056C78.7174 23.3157 78.6704 23.0974 78.6704 22.86C78.6704 22.6227 78.7268 22.4043 78.8302 22.2145C78.943 22.0246 79.0839 21.8727 79.2813 21.7588C79.4692 21.6449 79.6854 21.5879 79.9204 21.5879C80.1459 21.5974 80.3621 21.6449 80.55 21.7588ZM80.3245 23.61C80.4466 23.5341 80.5406 23.4297 80.6158 23.3062C80.6816 23.1733 80.7192 23.0309 80.7192 22.8695C80.7192 22.7081 80.6816 22.5657 80.6158 22.4328C80.55 22.2999 80.4466 22.1955 80.3245 22.129C80.2023 22.0531 80.0613 22.0151 79.911 22.0151C79.7606 22.0151 79.6196 22.0531 79.4974 22.129C79.3753 22.205 79.2813 22.3094 79.2061 22.4328C79.1309 22.5657 79.1027 22.7081 79.1027 22.8695C79.1027 23.0309 79.1403 23.1733 79.2061 23.3062C79.2813 23.4392 79.3753 23.5341 79.4974 23.61C79.6196 23.686 79.7512 23.724 79.911 23.724C80.0707 23.7145 80.2023 23.6765 80.3245 23.61ZM79.7042 25.0436C79.6478 24.9866 79.6196 24.9107 79.6196 24.8347C79.6196 24.7493 79.6478 24.6828 79.7042 24.6259C79.7606 24.5689 79.8358 24.5404 79.911 24.5404C79.9861 24.5404 80.0613 24.5689 80.1177 24.6259C80.1741 24.6828 80.2023 24.7588 80.2023 24.8347C80.2023 24.9202 80.1741 24.9866 80.1177 25.0436C80.0613 25.1005 79.9861 25.129 79.911 25.129C79.8358 25.129 79.77 25.1005 79.7042 25.0436Z" fill="black"/>
    <path d="M84.5448 21.7303C84.7139 21.8252 84.8361 21.9581 84.9301 22.129C85.0241 22.2999 85.0711 22.5183 85.0711 22.7651V23.8854C85.0711 23.9518 85.0523 24.0088 85.0053 24.0562C84.9583 24.1037 84.9019 24.1227 84.8361 24.1227C84.7703 24.1227 84.714 24.1037 84.667 24.0562C84.62 24.0088 84.6012 23.9518 84.6012 23.8854V22.7651C84.6012 22.5183 84.5354 22.3284 84.4038 22.205C84.2722 22.0816 84.1031 22.0151 83.8775 22.0151C83.7553 22.0151 83.6332 22.0436 83.5298 22.0911C83.4264 22.1385 83.3418 22.2145 83.2854 22.2999C83.2291 22.3854 83.2009 22.4898 83.2009 22.5942V23.8854C83.2009 23.9518 83.1821 24.0088 83.1351 24.0562C83.0975 24.1037 83.0411 24.1227 82.9659 24.1227C82.9001 24.1227 82.8437 24.1037 82.7967 24.0562C82.7498 24.0088 82.731 23.9518 82.731 23.8854V21.8442C82.731 21.7778 82.7498 21.7208 82.7967 21.6733C82.8437 21.6354 82.9001 21.6069 82.9659 21.6069C83.0317 21.6069 83.0881 21.6259 83.1351 21.6733C83.1727 21.7113 83.2009 21.7683 83.2009 21.8442V21.8917C83.2948 21.7968 83.4076 21.7208 83.5486 21.6638C83.6802 21.6069 83.8211 21.5879 83.9715 21.5879C84.1877 21.5879 84.3756 21.6354 84.5448 21.7303Z" fill="black"/>
    <path d="M88.5296 21.7307C88.6988 21.8256 88.821 21.9585 88.915 22.1294C89.0089 22.3003 89.0559 22.5186 89.0559 22.7655V23.8857C89.0559 23.9522 89.0371 24.0091 88.9902 24.0566C88.9432 24.1041 88.8868 24.1231 88.821 24.1231C88.7552 24.1231 88.6988 24.1041 88.6518 24.0566C88.6048 24.0091 88.586 23.9522 88.586 23.8857V22.7655C88.586 22.5186 88.5202 22.3288 88.3887 22.2053C88.2571 22.0819 88.0879 22.0155 87.8624 22.0155C87.7402 22.0155 87.618 22.0439 87.5147 22.0914C87.4113 22.1389 87.3267 22.2148 87.2703 22.3003C87.2139 22.3857 87.1857 22.4901 87.1857 22.5946V23.8857C87.1857 23.9522 87.1669 24.0091 87.1199 24.0566C87.0823 24.1041 87.026 24.1231 86.9508 24.1231C86.885 24.1231 86.8286 24.1041 86.7816 24.0566C86.7346 24.0091 86.7158 23.9522 86.7158 23.8857V20.7813C86.7158 20.7148 86.7346 20.6579 86.7816 20.6104C86.8286 20.5724 86.885 20.5439 86.9508 20.5439C87.0166 20.5439 87.0729 20.5629 87.1199 20.6104C87.1575 20.6484 87.1857 20.7053 87.1857 20.7813V21.9015C87.2797 21.8066 87.3925 21.7307 87.5335 21.6737C87.665 21.6167 87.806 21.5977 87.9564 21.5977C88.1819 21.5882 88.3605 21.6357 88.5296 21.7307Z" fill="black"/>
    <path d="M93.079 24.0383C93.032 23.9909 93.0132 23.9339 93.0132 23.8674V20.7725C93.0132 20.706 93.032 20.6491 93.079 20.6016C93.126 20.5541 93.1823 20.5352 93.2481 20.5352H94.1503C94.3759 20.5352 94.5733 20.5826 94.7518 20.6871C94.9304 20.7915 95.062 20.9244 95.1653 21.1048C95.2593 21.2852 95.3157 21.4845 95.3157 21.7124C95.3157 21.9307 95.2687 22.1301 95.1653 22.3105C95.0714 22.4814 94.9304 22.6238 94.7518 22.7187C94.5733 22.8136 94.3759 22.8611 94.1503 22.8611H93.4831V23.8579C93.4831 23.9244 93.4643 23.9814 93.4173 24.0288C93.3703 24.0763 93.3139 24.0953 93.2481 24.0953C93.173 24.1143 93.1166 24.0858 93.079 24.0383ZM94.141 22.4339C94.3477 22.4339 94.5169 22.3674 94.6484 22.2345C94.78 22.1016 94.8458 21.9307 94.8458 21.7219C94.8458 21.5035 94.78 21.3231 94.6484 21.1902C94.5169 21.0478 94.3477 20.9814 94.141 20.9814H93.4737V22.4339H94.141Z" fill="black"/>
    <path d="M98.473 21.7307C98.6422 21.8256 98.7643 21.9585 98.8583 22.1294C98.9523 22.3003 98.9993 22.5186 98.9993 22.7655V23.8857C98.9993 23.9522 98.9805 24.0091 98.9335 24.0566C98.8865 24.1041 98.8301 24.1231 98.7643 24.1231C98.6986 24.1231 98.6422 24.1041 98.5952 24.0566C98.5482 24.0091 98.5294 23.9522 98.5294 23.8857V22.7655C98.5294 22.5186 98.4636 22.3288 98.332 22.2053C98.2005 22.0819 98.0313 22.0155 97.8057 22.0155C97.6836 22.0155 97.5614 22.0439 97.458 22.0914C97.3546 22.1389 97.2701 22.2148 97.2137 22.3003C97.1573 22.3857 97.1291 22.4901 97.1291 22.5946V23.8857C97.1291 23.9522 97.1103 24.0091 97.0633 24.0566C97.0257 24.1041 96.9693 24.1231 96.8941 24.1231C96.8283 24.1231 96.772 24.1041 96.725 24.0566C96.678 24.0091 96.6592 23.9522 96.6592 23.8857V20.7813C96.6592 20.7148 96.678 20.6579 96.725 20.6104C96.772 20.5724 96.8283 20.5439 96.8941 20.5439C96.9599 20.5439 97.0163 20.5629 97.0633 20.6104C97.1009 20.6484 97.1291 20.7053 97.1291 20.7813V21.9015C97.2231 21.8066 97.3358 21.7307 97.4768 21.6737C97.6084 21.6167 97.7493 21.5977 97.8997 21.5977C98.1159 21.5882 98.3038 21.6357 98.473 21.7307Z" fill="black"/>
    <path d="M102.881 21.674C102.918 21.712 102.946 21.7689 102.946 21.8449V23.886C102.946 23.9525 102.928 24.0094 102.881 24.0569C102.843 24.1044 102.787 24.1234 102.711 24.1234C102.646 24.1234 102.589 24.1044 102.542 24.0569C102.495 24.0094 102.477 23.9525 102.477 23.886V23.8291C102.383 23.924 102.27 23.9999 102.129 24.0569C101.997 24.1139 101.856 24.1329 101.706 24.1329C101.499 24.1329 101.311 24.0854 101.142 23.9999C100.973 23.905 100.851 23.7721 100.757 23.6012C100.663 23.4303 100.616 23.212 100.616 22.9651V21.8449C100.616 21.7784 100.635 21.7215 100.682 21.674C100.729 21.6265 100.785 21.6075 100.851 21.6075C100.916 21.6075 100.973 21.6265 101.02 21.674C101.067 21.7215 101.086 21.7784 101.086 21.8449V22.9651C101.086 23.212 101.151 23.4018 101.283 23.5253C101.415 23.6487 101.584 23.7151 101.809 23.7151C101.931 23.7151 102.054 23.6867 102.157 23.6392C102.26 23.5917 102.345 23.5158 102.401 23.4303C102.458 23.3449 102.486 23.2405 102.486 23.136V21.8449C102.486 21.7784 102.505 21.7215 102.552 21.674C102.599 21.6265 102.646 21.6075 102.721 21.6075C102.777 21.6075 102.834 21.6265 102.881 21.674ZM101.659 21.1518C101.621 21.1044 101.593 21.0569 101.593 20.981C101.593 20.9145 101.612 20.867 101.65 20.8291L102.091 20.3829C102.138 20.3354 102.195 20.3164 102.251 20.3164C102.317 20.3164 102.373 20.3354 102.42 20.3829C102.467 20.4303 102.486 20.4873 102.486 20.5537C102.486 20.6202 102.467 20.6772 102.42 20.7151L101.978 21.1613C101.931 21.1993 101.884 21.2278 101.819 21.2278C101.753 21.2183 101.696 21.1993 101.659 21.1518Z" fill="black"/>
    <path d="M105.136 23.9613C104.948 23.8474 104.797 23.705 104.694 23.5056C104.591 23.3157 104.534 23.0974 104.534 22.86C104.534 22.6132 104.591 22.3949 104.694 22.205C104.797 22.0151 104.948 21.8632 105.126 21.7493C105.314 21.6449 105.521 21.5879 105.756 21.5879C106.113 21.5879 106.404 21.7208 106.639 21.9961C106.668 22.0341 106.686 22.0721 106.686 22.1195C106.686 22.186 106.649 22.243 106.583 22.2904C106.555 22.3094 106.517 22.3189 106.48 22.3189C106.414 22.3189 106.348 22.2904 106.301 22.2335C106.226 22.148 106.141 22.0911 106.057 22.0531C105.972 22.0151 105.869 21.9961 105.756 21.9961C105.521 21.9961 105.333 22.0721 105.192 22.2335C105.051 22.3949 104.976 22.5942 104.976 22.86C104.976 23.0214 105.013 23.1733 105.079 23.2968C105.145 23.4297 105.239 23.5246 105.361 23.6006C105.483 23.6765 105.624 23.7145 105.775 23.7145C105.981 23.7145 106.141 23.6575 106.273 23.5531C106.329 23.5151 106.386 23.4866 106.442 23.4866C106.48 23.4866 106.527 23.4961 106.564 23.5246C106.621 23.5721 106.649 23.629 106.649 23.686C106.649 23.7335 106.63 23.7714 106.592 23.8094C106.376 24.0183 106.104 24.1132 105.775 24.1132C105.54 24.1322 105.333 24.0752 105.136 23.9613Z" fill="black"/>
    <path d="M28.796 4.72754H33.0439C36.5776 4.72754 38.3538 6.69273 38.3538 9.50285C38.3538 11.3541 37.602 12.8256 35.9385 13.6041L39.3406 18.1516H36.5964L33.777 14.2022C33.4011 14.2402 33.0064 14.2592 32.5834 14.2592H31.1267V18.1516H28.7866V4.72754H28.796ZM31.1361 6.91108V12.1611H32.8748C35.0645 12.1611 35.8258 10.9744 35.8258 9.50285C35.8258 8.03134 35.0927 6.91108 32.8748 6.91108H31.1361Z" fill="#DD3E1F"/>
    <path d="M43.5132 4.72754H52.15V6.91108H45.8627V10.6706H51.5673V12.7687H45.8627V15.9775H52.15V18.1516H43.5132V4.72754Z" fill="#DD3E1F"/>
    <path d="M57.1401 4.65234H57.8826L66.0965 13.3011V4.72829H68.446V18.2473H67.8163L59.4897 9.82639V18.1523H57.1401V4.65234Z" fill="#DD3E1F"/>
    <path d="M84.9962 17.2598C84.9962 17.2598 83.2764 18.3895 80.5697 18.3895C76.0681 18.3895 73.0889 15.4085 73.0889 11.4401C73.0889 7.56673 76.3218 4.50977 80.2502 4.50977C83.1636 4.50977 84.9398 5.60154 84.9398 5.60154L84.1316 7.62369C84.1316 7.62369 82.3742 6.75027 80.6543 6.75027C77.5342 6.75027 75.6263 8.73445 75.6263 11.4876C75.6263 14.1838 77.6657 16.168 80.4288 16.168C82.6749 16.168 84.282 15.2471 84.282 15.2471L84.9962 17.2598Z" fill="#DD3E1F"/>
    <path d="M91.782 4.72754H89.4419V18.1516H91.782V4.72754Z" fill="#DD3E1F"/>
    <path d="M95.6157 4.72754H106.79V6.91108H102.42V18.1516H100.061V6.91108H95.6157V4.72754Z" fill="#DD3E1F"/>
    <path d="M121 4.72754L116.122 12.8446V18.1516H113.763V12.8256L108.886 4.72754H111.583L114.966 10.6706L118.35 4.72754H121Z" fill="#DD3E1F"/>
    <mask id="mask0_1709_16675" style="mask-type:luminance" maskUnits="userSpaceOnUse" x="8" y="13" width="1" height="1">
        <path d="M8.05371 13.1929L8.06912 13.208V13.1777L8.05371 13.1929Z" fill="white"/>
    </mask>
    <g mask="url(#mask0_1709_16675)">
        <path d="M8.07078 13.1777H8.05371V13.1948H8.07078V13.1777Z" fill="url(#paint0_linear_1709_16675)"/>
    </g>
    <mask id="mask1_1709_16675" style="mask-type:luminance" maskUnits="userSpaceOnUse" x="8" y="13" width="1" height="1">
        <path d="M8.05371 13.1929L8.06912 13.208V13.1777L8.05371 13.1929Z" fill="white"/>
    </mask>
    <g mask="url(#mask1_1709_16675)">
        <path d="M8.07078 13.1777H8.05371V13.1948H8.07078V13.1777Z" fill="url(#paint1_linear_1709_16675)"/>
    </g>
    <mask id="mask2_1709_16675" style="mask-type:luminance" maskUnits="userSpaceOnUse" x="8" y="3" width="4" height="19">
        <path d="M8.91937 6.04747C8.75021 6.24684 8.66563 6.50316 8.69382 6.76899L9.31409 12.769L9.37048 13.3576L10.0753 20.1266L11.9643 21.9968L10.9306 3.75L8.91937 6.04747Z" fill="white"/>
    </mask>
    <g mask="url(#mask2_1709_16675)">
        <path d="M11.9746 3.74023H8.6665V21.9871H11.9746V3.74023Z" fill="url(#paint2_linear_1709_16675)"/>
    </g>
    <mask id="mask3_1709_16675" style="mask-type:luminance" maskUnits="userSpaceOnUse" x="4" y="12" width="18" height="13">
        <path d="M8.0536 13.1871L8.063 13.1776L8.0536 13.1871ZM16.9066 12.7314L16.869 13.358H18.2599C18.3727 13.358 18.4854 13.4055 18.5606 13.4814L19.0493 13.9751L20.6846 15.6555C20.835 15.8074 20.835 16.0542 20.6752 16.2061L16.4931 20.3359L14.5571 22.2441L13.4011 23.3928L12.4707 22.4814L11.9632 21.9783L10.0742 20.127L6.1176 16.2251C5.96723 16.0732 5.95784 15.8264 6.10821 15.6745L8.24156 13.4814C8.31675 13.396 8.42953 13.358 8.5423 13.358H9.37873L9.32234 12.7694H8.62689C8.43892 12.7694 8.25096 12.8169 8.0818 12.9023H8.0724V12.9118C7.95962 12.9688 7.84685 13.0447 7.75287 13.1397L5.13081 15.7884C4.90525 16.0163 4.90525 16.3865 5.12141 16.6144L12.8654 24.684C13.091 24.9213 13.4669 24.9213 13.7018 24.6935L21.6902 16.6239C21.9157 16.396 21.9157 16.0163 21.6902 15.7884L19.0211 13.0922C18.7956 12.8644 18.476 12.7314 18.1565 12.7314H16.9066Z" fill="white"/>
    </mask>
    <g mask="url(#mask3_1709_16675)">
        <path d="M21.9159 12.7314H4.896V24.9308H21.9159V12.7314Z" fill="url(#paint3_linear_1709_16675)"/>
    </g>
    <mask id="mask4_1709_16675" style="mask-type:luminance" maskUnits="userSpaceOnUse" x="11" y="0" width="4" height="24">
        <path d="M11.8037 3.02848L12.4804 22.5L13.4108 23.4019L14.5573 22.2532L14.0592 22.7468L14.1908 0L11.8037 3.02848Z" fill="white"/>
    </mask>
    <g mask="url(#mask4_1709_16675)">
        <path d="M14.5667 0H11.8037V23.4019H14.5667V0Z" fill="url(#paint4_linear_1709_16675)"/>
    </g>
    <mask id="mask5_1709_16675" style="mask-type:luminance" maskUnits="userSpaceOnUse" x="14" y="5" width="4" height="18">
        <path d="M14.5576 22.2531L16.4936 20.3449L16.8695 13.3575L16.9071 12.731L17.1609 7.95565C17.1703 7.69932 17.0763 7.45248 16.9071 7.2816L14.9617 5.31641L14.5576 22.2531Z" fill="white"/>
    </mask>
    <g mask="url(#mask5_1709_16675)">
        <path d="M17.1703 5.30664H14.5576V22.2528H17.1703V5.30664Z" fill="url(#paint5_linear_1709_16675)"/>
    </g>
    <mask id="mask6_1709_16675" style="mask-type:luminance" maskUnits="userSpaceOnUse" x="1" y="8" width="25" height="21">
        <path d="M18.2227 11.1167L22.9217 15.8351C23.0251 15.9395 23.0815 16.0819 23.0815 16.2148C23.0815 16.3572 23.0345 16.4901 22.9217 16.604L13.6364 25.9838C13.4297 26.1927 13.0913 26.1927 12.8752 25.9838L3.64629 16.6135C3.53352 16.4996 3.48653 16.3477 3.49593 16.1958C3.49593 16.1863 3.49593 16.1863 3.49593 16.1768C3.50532 16.1009 3.53352 15.968 3.64629 15.8446L8.27014 11.2116L7.80024 9.20848L6.992 10.0249C6.89802 10.1199 6.78525 10.2338 6.68187 10.3382L6.27775 10.7559L6.15558 10.8794L6.08979 10.9458L5.90183 11.1452L5.77026 11.2781L5.63868 11.411L5.0936 11.9616L4.95262 12.104L4.81165 12.2465L4.74587 12.3129L4.39814 12.6642L4.19138 12.873L4.05041 13.0154L3.91884 13.1484L3.72148 13.3477L3.52412 13.5471L3.38315 13.6705L3.19519 13.8604L3.07301 13.9838L2.95084 14.1072L2.83806 14.2211L2.62191 14.4395L2.47154 14.5914L2.42455 14.6389L2.33057 14.7338L2.23659 14.8287L2.152 14.9142L2.06742 14.9996L1.81367 15.2559L1.76668 15.3034L1.65391 15.4173C1.26859 15.8066 1.30618 16.2243 1.30618 16.2243C1.29678 16.5376 1.40956 16.8604 1.65391 17.0977L12.3959 27.949C12.8564 28.4142 13.5988 28.4142 14.0593 27.949L24.8389 17.0597C25.0645 16.8319 25.1772 16.5281 25.1866 16.2338C25.1866 15.93 25.0739 15.6167 24.8389 15.3794L18.4764 8.95215L18.2227 11.1167Z" fill="white"/>
    </mask>
    <g mask="url(#mask6_1709_16675)">
        <path d="M0 28.3189L1.38152 7.33789L26.4649 9.01827L25.0834 29.9993L0 28.3189Z" fill="url(#paint6_linear_1709_16675)"/>
    </g>
    <defs>
        <linearGradient id="paint0_linear_1709_16675" x1="8.05702" y1="13.192" x2="8.07182" y2="13.192" gradientUnits="userSpaceOnUse">
            <stop stop-color="#FF9900"/>
            <stop offset="1" stop-color="#DD3E1F"/>
        </linearGradient>
        <linearGradient id="paint1_linear_1709_16675" x1="8.05702" y1="13.192" x2="8.07182" y2="13.192" gradientUnits="userSpaceOnUse">
            <stop stop-color="#FF9900"/>
            <stop offset="1" stop-color="#DD3E1F"/>
        </linearGradient>
        <linearGradient id="paint2_linear_1709_16675" x1="10.332" y1="0.895044" x2="10.332" y2="22.343" gradientUnits="userSpaceOnUse">
            <stop stop-color="#FF9900"/>
            <stop offset="1" stop-color="#DD3E1F"/>
        </linearGradient>
        <linearGradient id="paint3_linear_1709_16675" x1="13.4169" y1="25.0869" x2="13.4169" y2="11.8819" gradientUnits="userSpaceOnUse">
            <stop stop-color="#FF9900"/>
            <stop offset="1" stop-color="#DD3E1F"/>
        </linearGradient>
        <linearGradient id="paint4_linear_1709_16675" x1="13.1934" y1="0.895316" x2="13.1934" y2="22.3433" gradientUnits="userSpaceOnUse">
            <stop stop-color="#FF9900"/>
            <stop offset="1" stop-color="#DD3E1F"/>
        </linearGradient>
        <linearGradient id="paint5_linear_1709_16675" x1="15.8827" y1="0.894993" x2="15.8827" y2="22.343" gradientUnits="userSpaceOnUse">
            <stop stop-color="#FF9900"/>
            <stop offset="1" stop-color="#DD3E1F"/>
        </linearGradient>
        <linearGradient id="paint6_linear_1709_16675" x1="12.648" y1="27.9734" x2="13.7777" y2="11.1338" gradientUnits="userSpaceOnUse">
            <stop stop-color="#FF9900"/>
            <stop offset="1" stop-color="#DD3E1F"/>
        </linearGradient>
    </defs>
</svg>