<svg width="24" height="24" viewBox="0 0 24 24" fill="none" xmlns="http://www.w3.org/2000/svg">
<g id="Icon/money">
<path id="Vector" fill-rule="evenodd" clip-rule="evenodd" d="M12 18.4042C10.7333 18.4042 9.49509 18.0286 8.44189 17.3248C7.38869 16.6211 6.56782 15.6209 6.08309 14.4506C5.59836 13.2803 5.47155 11.9926 5.71868 10.7503C5.96581 9.50795 6.57579 8.3668 7.47148 7.47113C8.36717 6.57547 9.50834 5.96553 10.7507 5.71843C11.993 5.47134 13.2807 5.5982 14.451 6.08296C15.6212 6.56773 16.6215 7.38863 17.3252 8.44185C18.0289 9.49507 18.4044 10.7333 18.4044 12C18.4025 13.6979 17.7271 15.3258 16.5265 16.5264C15.3258 17.727 13.698 18.4023 12 18.4042ZM12 4.7518C10.5664 4.7518 9.16508 5.1769 7.97312 5.97334C6.78116 6.76978 5.85214 7.9018 5.30354 9.22623C4.75494 10.5507 4.6114 12.008 4.89108 13.4141C5.17075 14.8201 5.86107 16.1116 6.87475 17.1252C7.88843 18.1389 9.17994 18.8293 10.5859 19.1089C11.992 19.3886 13.4493 19.2451 14.7738 18.6965C16.0982 18.1479 17.2302 17.2188 18.0267 16.0269C18.8231 14.8349 19.2482 13.4336 19.2482 12C19.2459 10.0784 18.4815 8.23607 17.1227 6.87726C15.7639 5.51845 13.9216 4.75408 12 4.7518ZM14.048 14.022C14.048 13.2526 13.3494 12.6084 12.422 12.4562V15.5878C13.3494 15.4354 14.048 14.7914 14.048 14.022ZM9.9522 9.978C9.9522 10.7472 10.6508 11.3912 11.5782 11.5436V8.412C10.6508 8.5644 9.9522 9.2086 9.9522 9.978ZM14.048 9.978C14.048 10.0899 14.0924 10.1972 14.1715 10.2763C14.2506 10.3554 14.3579 10.3998 14.4698 10.3998C14.5817 10.3998 14.689 10.3554 14.7681 10.2763C14.8472 10.1972 14.8916 10.0899 14.8916 9.978C14.8916 8.7514 13.817 7.7336 12.422 7.5604V6.9038C12.4232 6.84762 12.4132 6.79177 12.3926 6.73951C12.3719 6.68725 12.341 6.63964 12.3017 6.59948C12.2624 6.55932 12.2155 6.52741 12.1637 6.50562C12.1119 6.48383 12.0563 6.47261 12.0001 6.47261C11.9439 6.47261 11.8883 6.48383 11.8365 6.50562C11.7847 6.52741 11.7378 6.55932 11.6985 6.59948C11.6592 6.63964 11.6283 6.68725 11.6076 6.73951C11.587 6.79177 11.577 6.84762 11.5782 6.9038V7.56C10.1832 7.7332 9.1084 8.751 9.1084 9.9776C9.1084 11.2042 10.1832 12.222 11.5782 12.395V15.5878C10.6508 15.4354 9.9522 14.7914 9.9522 14.022C9.9498 13.9117 9.90429 13.8067 9.82544 13.7296C9.74658 13.6524 9.64063 13.6092 9.5303 13.6092C9.41997 13.6092 9.31403 13.6524 9.23517 13.7296C9.15631 13.8067 9.1108 13.9117 9.1084 14.022C9.1084 15.2484 10.1832 16.2664 11.5782 16.4396V17.0962C11.577 17.1524 11.587 17.2082 11.6076 17.2605C11.6283 17.3127 11.6592 17.3604 11.6985 17.4005C11.7378 17.4407 11.7847 17.4726 11.8365 17.4944C11.8883 17.5162 11.9439 17.5274 12.0001 17.5274C12.0563 17.5274 12.1119 17.5162 12.1637 17.4944C12.2155 17.4726 12.2624 17.4407 12.3017 17.4005C12.341 17.3604 12.3719 17.3127 12.3926 17.2605C12.4132 17.2082 12.4232 17.1524 12.422 17.0962V16.44C13.817 16.2668 14.8916 15.2488 14.8916 14.0224C14.8916 12.796 13.817 11.7776 12.422 11.6044V8.412C13.3494 8.5644 14.048 9.2086 14.048 9.978ZM12 3C10.22 3 8.47991 3.52784 6.99987 4.51677C5.51983 5.50571 4.36628 6.91131 3.68509 8.55585C3.0039 10.2004 2.82567 12.01 3.17294 13.7558C3.5202 15.5016 4.37737 17.1053 5.63604 18.364C6.89471 19.6226 8.49836 20.4798 10.2442 20.8271C11.99 21.1743 13.7996 20.9961 15.4442 20.3149C17.0887 19.6337 18.4943 18.4802 19.4832 17.0001C20.4722 15.5201 21 13.78 21 12C20.9972 9.61389 20.0482 7.32631 18.3609 5.63908C16.6737 3.95185 14.3861 3.00275 12 3Z" fill="#BFBFBF"/>
</g>
</svg>
