<svg width="21" height="20" viewBox="0 0 21 20" fill="none" xmlns="http://www.w3.org/2000/svg">
<path d="M10.5003 1.66699C8.85215 1.66699 7.24099 2.15573 5.87058 3.07141C4.50017 3.98709 3.43206 5.28858 2.80133 6.8113C2.1706 8.33401 2.00558 10.0096 2.32712 11.6261C2.64866 13.2426 3.44234 14.7274 4.60777 15.8929C5.77321 17.0583 7.25807 17.852 8.87458 18.1735C10.4911 18.4951 12.1666 18.33 13.6894 17.6993C15.2121 17.0686 16.5136 16.0005 17.4292 14.6301C18.3449 13.2597 18.8337 11.6485 18.8337 10.0003C18.8337 7.79019 17.9557 5.67057 16.3929 4.10777C14.8301 2.54497 12.7105 1.66699 10.5003 1.66699ZM10.3869 15.4826C10.1982 15.4826 10.0138 15.4266 9.85689 15.3218C9.70003 15.217 9.57776 15.068 9.50556 14.8937C9.43337 14.7194 9.41447 14.5276 9.45128 14.3426C9.48809 14.1576 9.57894 13.9876 9.71234 13.8542C9.84575 13.7208 10.0157 13.6299 10.2008 13.5931C10.3858 13.5563 10.5776 13.5752 10.7519 13.6474C10.9262 13.7196 11.0752 13.8419 11.18 13.9987C11.2848 14.1556 11.3408 14.34 11.3408 14.5287C11.3403 14.7815 11.2396 15.0239 11.0608 15.2027C10.8821 15.3815 10.6397 15.4821 10.3869 15.4826ZM11.4294 10.8514C11.4294 10.8514 11.3354 10.8851 11.3354 10.94V11.6971C11.3354 11.9489 11.2354 12.1904 11.0573 12.3685C10.8793 12.5466 10.6378 12.6466 10.386 12.6466C10.1342 12.6466 9.89265 12.5466 9.71459 12.3685C9.53653 12.1904 9.4365 11.9489 9.4365 11.6971V10.94C9.44066 10.52 9.57653 10.1118 9.82496 9.77302C10.0734 9.43426 10.4219 9.18198 10.8213 9.05174C11.0967 8.95983 11.335 8.78142 11.5008 8.54309C11.6666 8.30475 11.751 8.01923 11.7415 7.72905C11.7231 7.37818 11.572 7.04743 11.3188 6.80381C11.0656 6.56018 10.7293 6.42191 10.378 6.41699C10.125 6.4181 9.87754 6.49057 9.66395 6.62607C9.45035 6.76156 9.27933 6.95459 9.17054 7.18295C9.11641 7.29529 9.04067 7.39588 8.94767 7.47895C8.85466 7.56203 8.7462 7.62597 8.62848 7.66714C8.39073 7.75026 8.1297 7.73554 7.90281 7.62621C7.67592 7.51688 7.50175 7.32189 7.41862 7.08415C7.3355 6.8464 7.35022 6.58537 7.45955 6.35848C7.72132 5.80981 8.13251 5.34608 8.64591 5.02054C9.15932 4.695 9.75412 4.52084 10.362 4.51806H10.3815C11.2261 4.52295 12.0361 4.85376 12.6426 5.44145C13.2492 6.02915 13.6053 6.82835 13.6369 7.67231C13.6604 8.36882 13.4584 9.05431 13.061 9.62679C12.6636 10.1993 12.092 10.6281 11.4312 10.8496L11.4294 10.8514Z" fill="#4E89FC"/>
</svg>
