<svg width="16" height="17" viewBox="0 0 16 17" fill="none" xmlns="http://www.w3.org/2000/svg">
<path d="M11.9323 2.90534C12.0851 3.19934 11.9707 3.56161 11.6767 3.71449L11.1998 3.96249V14.5822C11.1998 15.024 10.8416 15.3822 10.3998 15.3822H8.5918C8.26043 15.3822 7.9918 15.1135 7.9918 14.7822V11.9822C7.9918 11.6508 7.72318 11.3822 7.39181 11.3822H5.3998C5.06843 11.3822 4.7998 11.6508 4.7998 11.9822V14.7822C4.7998 15.1135 4.53118 15.3822 4.1998 15.3822H1.3998C1.06843 15.3822 0.799805 15.1135 0.799805 14.7822C0.799805 14.4508 1.06843 14.1822 1.3998 14.1822H1.5998V8.94796C1.32217 9.04643 1.00737 8.92776 0.867598 8.65897C0.71472 8.36497 0.829119 8.0027 1.12312 7.84982L1.5998 7.60195V5.58215C1.5998 5.25078 1.86843 4.98215 2.1998 4.98215C2.53118 4.98215 2.7998 5.25078 2.7998 5.58215V6.97795L11.1231 2.64982C11.4171 2.49695 11.7794 2.61135 11.9323 2.90534Z" fill="#CCCDD0"/>
<path d="M12.689 7.83754C12.8682 7.72875 13.0911 7.72138 13.2771 7.8181L14.8766 8.64983C15.1706 8.80271 15.285 9.16497 15.1321 9.45897C14.9924 9.72772 14.6777 9.8464 14.4001 9.74801V14.1822H14.5998C14.9312 14.1822 15.1998 14.4508 15.1998 14.7822C15.1998 15.1135 14.9312 15.3822 14.5998 15.3822H12.9998C12.8407 15.3822 12.688 15.3189 12.5755 15.2064C12.463 15.0939 12.3998 14.9412 12.3998 14.7821L12.4003 8.35038C12.4003 8.14075 12.5098 7.94632 12.689 7.83754Z" fill="#CCCDD0"/>
</svg>
