<svg width="195" height="98" viewBox="0 0 195 98" fill="none" xmlns="http://www.w3.org/2000/svg">
<g clip-path="url(#clip0_7108_35069)">
<g filter="url(#filter0_d_7108_35069)">
<rect x="86.5679" y="25.3477" width="22.4874" height="6.82452" fill="#FF9900"/>
<path d="M87.0713 8.67798H109.559L106.594 21.0964L88.5817 21.3761L87.0713 8.67798Z" fill="#FF9900"/>
<path d="M127.942 72.0897C127.942 87.2494 113.8 90.1699 97.3698 90.1699C80.9393 90.1699 67.291 85.4413 67.291 70.2817C67.291 55.1221 80.9393 35.272 97.3698 35.272C113.8 35.272 127.942 56.9301 127.942 72.0897Z" fill="#FF9900"/>
<path d="M97.5 59.6916C96.0503 59.6916 94.8709 58.5122 94.8709 57.0625C94.8703 56.5455 95.0223 56.0398 95.3079 55.6087C95.5934 55.1777 95.9999 54.8405 96.4762 54.6394C97.6535 54.1409 99.0623 54.5663 100.342 55.8065C101.385 56.8168 103.05 56.7905 104.06 55.7478C105.07 54.705 105.044 53.0406 104.001 52.0303C102.814 50.8804 101.495 50.0677 100.129 49.609V46.5463C100.129 45.0944 98.9519 43.9172 97.5 43.9172C96.048 43.9172 94.8709 45.0944 94.8709 46.5463V49.626C94.7209 49.6788 94.5724 49.736 94.4257 49.7976C92.9975 50.4004 91.7791 51.4114 90.9229 52.7037C90.0667 53.9961 89.611 55.5123 89.6128 57.0625C89.6128 61.4115 93.151 64.9497 97.5 64.9497C98.9496 64.9497 100.129 66.1291 100.129 67.5787C100.129 68.6805 99.4341 69.6739 98.3998 70.0506C97.0493 70.5422 95.4773 69.8753 94.0871 68.2199C93.1532 67.108 91.495 66.9637 90.3831 67.8976C89.2712 68.8314 89.1269 70.4898 90.0608 71.6016C91.482 73.2938 93.1364 74.4543 94.8711 75.0383V78.095C94.8711 79.5469 96.0482 80.724 97.5001 80.724C98.9521 80.724 100.129 79.5469 100.129 78.095V75.0149C100.153 75.0067 100.176 74.9995 100.199 74.9911C103.302 73.861 105.387 70.8821 105.387 67.5787C105.387 63.2298 101.849 59.6916 97.5 59.6916Z" fill="white"/>
<path d="M121.1 45.8984C117.975 42.0542 115.152 36.7052 111.23 34.5028C111.888 33.7245 112.389 32.8269 112.707 31.8592C113.991 27.9491 112.115 23.3044 107.328 21.7913L112.492 10.4788C113.339 9.00197 114.125 6.73152 112.492 6.25688C107.64 4.84613 97.8647 6.25689 97.8647 6.25689C97.8647 6.25689 87.3599 4.84613 82.5077 6.25688C80.8731 6.73204 80.8291 9.00372 81.6748 10.4788L87.6721 21.7915C82.9038 23.2969 81.0046 27.9347 82.2941 31.8613C82.6116 32.8285 83.1131 33.7252 83.7709 34.5021C79.8492 36.7045 77.4931 42.0539 74.368 45.8984C68.1212 53.5835 64.376 60.9909 64.376 70.2078C64.376 89.3282 78.5791 92.323 97.5 92.323C116.434 92.323 130.016 89.3205 130.016 70.2078C130.016 60.9909 127.347 53.5835 121.1 45.8984ZM87.246 10.4788C90.6156 9.75281 94.053 9.66615 97.5 9.66764C100.947 9.66615 104.384 9.75281 107.754 10.4788L105.497 15.759L101.964 20.5747C99.0025 20.1608 95.9976 20.1609 93.0359 20.5749L88.9636 15.759L87.246 10.4788ZM88.9636 26.8978C93.4882 25.4136 98.2219 25.1323 102.824 26.0523L102.84 26.0554C103.92 26.2722 104.986 26.5531 106.033 26.8966C107.41 27.3507 108.163 28.841 107.712 30.2164C107.555 30.697 107.262 31.122 106.869 31.4402C106.477 31.7583 106 31.9561 105.497 32.0095C102.876 31.1888 100.202 30.772 97.5 30.772C94.8033 30.772 92.1348 31.187 89.5185 32.0045C88.4832 31.8979 87.6144 31.207 87.2889 30.2188C86.8365 28.841 87.5895 27.3505 88.9636 26.8978ZM97.5 88.6463C76.959 88.6463 68.5804 83.2795 68.5804 70.2078C68.5804 62.2958 71.8146 53.5934 77.2317 46.9287C82.9447 39.9006 90.1427 36.0301 97.5 36.0301C105.599 36.0301 112.682 40.6716 117.768 46.9287C123.185 53.5934 126.42 62.2958 126.42 70.2078C126.42 83.2795 118.041 88.6463 97.5 88.6463Z" fill="#002E23"/>
</g>
<g clip-path="url(#clip1_7108_35069)">
<g filter="url(#filter1_d_7108_35069)">
<path d="M87.3842 73.4871C87.3842 83.1681 80.0741 91.5523 70.3932 91.5523C60.7123 91.5523 53.4053 84.2873 53.4053 74.6064C53.4053 64.9254 59.8379 57.2991 69.5189 57.2991C79.1998 57.2991 87.3842 63.8062 87.3842 73.4871Z" fill="#636363"/>
<path d="M81.4394 85.428C87.4781 79.3893 87.4781 69.5985 81.4394 63.5598C75.4006 57.521 65.6098 57.521 59.5711 63.5598C53.5323 69.5985 53.5323 79.3893 59.5711 85.428C65.6098 91.4668 75.4006 91.4668 81.4394 85.428Z" fill="#FEE475"/>
<path d="M81.1628 85.1515C87.0489 79.2655 87.0489 69.7223 81.1628 63.8363C75.2768 57.9502 65.7336 57.9502 59.8476 63.8363C53.9615 69.7223 53.9615 79.2655 59.8476 85.1515C65.7336 91.0376 75.2768 91.0376 81.1628 85.1515Z" fill="#FED425"/>
<path d="M81.1876 63.8735L59.8855 85.1756C61.3163 86.5975 63.0226 87.7262 64.9244 88.4905L84.5024 68.9125C83.747 67.0106 82.6095 65.2955 81.1876 63.8735Z" fill="white"/>
<path d="M85.1956 77.8528L73.8647 89.1837C79.4902 87.904 83.9159 83.4782 85.1956 77.8528Z" fill="white"/>
<path d="M63.1028 61.3674L57.3796 67.0906C56.7486 68.2104 56.2509 69.4101 55.9221 70.6809L66.6931 59.9099C65.4223 60.2476 64.2226 60.7364 63.1028 61.3674Z" fill="white"/>
<path d="M79.206 62.1938L58.2061 83.1938C58.4549 83.5404 58.7126 83.8781 58.9792 84.198L80.2102 62.967C79.8903 62.7004 79.5526 62.4427 79.206 62.1938Z" fill="white"/>
<path d="M70.799 85.6999C76.8312 85.6999 81.7211 80.8099 81.7211 74.7778C81.7211 68.7457 76.8312 63.8557 70.799 63.8557C64.7669 63.8557 59.877 68.7457 59.877 74.7778C59.877 80.8099 64.7669 85.6999 70.799 85.6999Z" fill="white"/>
<path d="M78.2284 82.217C82.4937 77.9517 82.387 71.4066 78.1217 67.1413C73.8564 62.876 67.0797 62.6076 62.8144 66.8729C58.5491 71.1382 58.8847 77.6462 63.15 81.9115C67.4153 86.1768 73.9631 86.4823 78.2284 82.217Z" fill="#636363"/>
<path d="M77.4136 81.4025C81.229 77.5871 81.229 71.4012 77.4136 67.5858C73.5982 63.7704 67.4123 63.7704 63.5969 67.5858C59.7815 71.4012 59.7815 77.5871 63.5969 81.4025C67.4123 85.2179 73.5982 85.2179 77.4136 81.4025Z" fill="#FEB724"/>
<path d="M62.1084 73.6472C62.1084 68.2495 65.6403 65.256 71.0381 65.256C73.5979 65.256 75.9271 66.2418 77.676 67.8555C75.8953 65.9317 73.3435 64.7234 70.5134 64.7234C65.1157 64.7234 60.7434 69.0957 60.7434 74.4934C60.7434 77.3235 62.5557 81.9012 66.2964 83.3243C64.6747 81.5833 62.1084 76.207 62.1084 73.6472Z" fill="#FB9D12"/>
<path d="M70.5056 59.6255C78.9482 59.6255 85.8001 66.3884 85.96 74.7955C85.96 74.6978 85.9689 74.6 85.9689 74.5023C85.9689 65.953 79.046 59.03 70.5056 59.03C61.9652 59.03 55.0422 65.953 55.0422 74.4934C55.0422 74.5911 55.0511 74.6889 55.0511 74.7866C55.2111 66.3884 62.063 59.6255 70.5056 59.6255Z" fill="white"/>
</g>
<path d="M66.4395 81.0004C66.2277 81.0064 66.0527 80.8364 66.0527 80.6245V69.1114C66.0527 68.9037 66.2211 68.7354 66.4288 68.7354H70.683C71.5698 68.7354 72.3162 68.9068 72.9224 69.2496C73.5398 69.5814 74.0056 70.0238 74.3199 70.5768C74.6342 71.1187 74.7913 71.7104 74.7913 72.3518C74.7913 73.126 74.5668 73.8283 74.1178 74.4586C73.6801 75.089 73.2714 75.4991 72.4184 75.7534L75.0629 80.3398C75.2052 80.5866 75.0321 80.8959 74.7474 80.9036L72.8097 80.9563C72.6659 80.9602 72.5324 80.8817 72.466 80.7541L70.0675 76.1482L68.4478 76.2369L68.5296 80.5682C68.5335 80.7744 68.3705 80.9453 68.1643 80.9512L66.4395 81.0004ZM70.6493 70.4275H68.0227V74.3757H70.6493C71.3565 74.3757 71.8897 74.1766 72.2489 73.7785C72.6081 73.3693 72.7877 72.9103 72.7877 72.4016C72.7877 71.8928 72.6081 71.4394 72.2489 71.0413C71.8897 70.6321 71.3565 70.4275 70.6493 70.4275Z" fill="#938F8F"/>
<path d="M66.6072 80.4993V69.6849C66.6072 69.4772 66.7755 69.3088 66.9832 69.3088H70.7658C71.5623 69.3088 72.2327 69.4651 72.7771 69.7776C73.3316 70.0801 73.7499 70.4833 74.0322 70.9874C74.3145 71.4814 74.4557 72.0208 74.4557 72.6055C74.4557 73.3112 74.254 73.9514 73.8508 74.526C73.4576 75.1007 72.8779 75.5039 72.1117 75.7358L74.4864 79.9383C74.6281 80.189 74.447 80.4993 74.159 80.4993H73.0436C72.9071 80.4993 72.7813 80.4254 72.7149 80.3061L70.2819 75.9324H68.3765V80.4993H66.6072ZM70.7356 70.8513H68.3765V74.4504H70.7356C71.3707 74.4504 71.8496 74.269 72.1722 73.906C72.4948 73.533 72.6561 73.1146 72.6561 72.6509C72.6561 72.1871 72.4948 71.7738 72.1722 71.4108C71.8496 71.0378 71.3707 70.8513 70.7356 70.8513Z" fill="white"/>
</g>
</g>
<defs>
<filter id="filter0_d_7108_35069" x="56.8978" y="5.62988" width="73.1183" height="94.1713" filterUnits="userSpaceOnUse" color-interpolation-filters="sRGB">
<feFlood flood-opacity="0" result="BackgroundImageFix"/>
<feColorMatrix in="SourceAlpha" type="matrix" values="0 0 0 0 0 0 0 0 0 0 0 0 0 0 0 0 0 0 127 0" result="hardAlpha"/>
<feOffset dx="-3.7391" dy="3.7391"/>
<feGaussianBlur stdDeviation="1.86955"/>
<feComposite in2="hardAlpha" operator="out"/>
<feColorMatrix type="matrix" values="0 0 0 0 0.208542 0 0 0 0 0.116458 0 0 0 0 0.116458 0 0 0 0.28 0"/>
<feBlend mode="normal" in2="BackgroundImageFix" result="effect1_dropShadow_7108_35069"/>
<feBlend mode="normal" in="SourceGraphic" in2="effect1_dropShadow_7108_35069" result="shape"/>
</filter>
<filter id="filter1_d_7108_35069" x="45.9271" y="57.2991" width="41.4572" height="41.7314" filterUnits="userSpaceOnUse" color-interpolation-filters="sRGB">
<feFlood flood-opacity="0" result="BackgroundImageFix"/>
<feColorMatrix in="SourceAlpha" type="matrix" values="0 0 0 0 0 0 0 0 0 0 0 0 0 0 0 0 0 0 127 0" result="hardAlpha"/>
<feOffset dx="-3.7391" dy="3.7391"/>
<feGaussianBlur stdDeviation="1.86955"/>
<feComposite in2="hardAlpha" operator="out"/>
<feColorMatrix type="matrix" values="0 0 0 0 0.208542 0 0 0 0 0.116458 0 0 0 0 0.116458 0 0 0 0.28 0"/>
<feBlend mode="normal" in2="BackgroundImageFix" result="effect1_dropShadow_7108_35069"/>
<feBlend mode="normal" in="SourceGraphic" in2="effect1_dropShadow_7108_35069" result="shape"/>
</filter>
<clipPath id="clip0_7108_35069">
<rect width="195" height="98" fill="white"/>
</clipPath>
<clipPath id="clip1_7108_35069">
<rect width="45.1273" height="45.1273" fill="white" transform="translate(48 53)"/>
</clipPath>
</defs>
</svg>
