<svg width="24" height="24" viewBox="0 0 24 24" fill="none" xmlns="http://www.w3.org/2000/svg">
<path d="M11.248 15.1973C10.7896 15.0802 10.4503 14.6658 10.4502 14.1709V3.56055C10.4503 3.06558 10.7895 2.6502 11.248 2.5332V15.1973Z" stroke="#FF9900"/>
<path d="M18.8586 2.5332C19.3172 2.6502 19.6563 3.0656 19.6565 3.56055V14.1709C19.6564 14.6658 19.3171 15.0802 18.8586 15.1973V2.5332Z" stroke="#FF9900"/>
<mask id="path-3-inside-1_1966_5591" fill="white">
<path d="M13.0917 18.5317H12.7588C12.7214 18.5317 12.685 18.5279 12.6493 18.5219V19.4214C12.6493 20.4789 11.7889 21.3393 10.7314 21.3393H7.74681C6.68931 21.3393 5.82894 20.4789 5.82894 19.4214V11.0676C5.75502 11.0913 5.67635 11.1044 5.59454 11.1044H5.40265C5.32085 11.1044 5.24213 11.0913 5.16821 11.0676V19.4214C5.16821 20.8433 6.325 22 7.74685 22H10.7314C12.1533 22 13.3101 20.8433 13.3101 19.4214V18.494C13.2416 18.518 13.1683 18.5317 13.0917 18.5317Z"/>
</mask>
<path d="M12.6493 18.5219L12.8149 17.5357L11.6493 17.34V18.5219H12.6493ZM5.82894 11.0676H6.82894V9.69687L5.52363 10.1154L5.82894 11.0676ZM5.16821 11.0676L5.47352 10.1154L4.16821 9.69687V11.0676H5.16821ZM13.3101 18.494H14.3101V17.0836L12.9792 17.5504L13.3101 18.494ZM13.0917 18.5317V17.5317H12.7588V18.5317V19.5317H13.0917V18.5317ZM12.7588 18.5317V17.5317C12.7896 17.5317 12.8101 17.5349 12.8149 17.5357L12.6493 18.5219L12.4837 19.5081C12.5599 19.5209 12.6531 19.5317 12.7588 19.5317V18.5317ZM12.6493 18.5219H11.6493V19.4214H12.6493H13.6493V18.5219H12.6493ZM12.6493 19.4214H11.6493C11.6493 19.9266 11.2367 20.3393 10.7314 20.3393V21.3393V22.3393C12.3412 22.3393 13.6493 21.0313 13.6493 19.4214H12.6493ZM10.7314 21.3393V20.3393H7.74681V21.3393V22.3393H10.7314V21.3393ZM7.74681 21.3393V20.3393C7.24159 20.3393 6.82894 19.9266 6.82894 19.4214H5.82894H4.82894C4.82894 21.0312 6.13702 22.3393 7.74681 22.3393V21.3393ZM5.82894 19.4214H6.82894V11.0676H5.82894H4.82894V19.4214H5.82894ZM5.82894 11.0676L5.52363 10.1154C5.54509 10.1085 5.5693 10.1044 5.59454 10.1044V11.1044V12.1044C5.78339 12.1044 5.96495 12.0742 6.13425 12.0199L5.82894 11.0676ZM5.59454 11.1044V10.1044H5.40265V11.1044V12.1044H5.59454V11.1044ZM5.40265 11.1044V10.1044C5.42784 10.1044 5.45201 10.1085 5.47352 10.1154L5.16821 11.0676L4.8629 12.0199C5.03226 12.0742 5.21387 12.1044 5.40265 12.1044V11.1044ZM5.16821 11.0676H4.16821V19.4214H5.16821H6.16821V11.0676H5.16821ZM5.16821 19.4214H4.16821C4.16821 21.3956 5.77273 23 7.74685 23V22V21C6.87728 21 6.16821 20.291 6.16821 19.4214H5.16821ZM7.74685 22V23H10.7314V22V21H7.74685V22ZM10.7314 22V23C12.7056 23 14.3101 21.3955 14.3101 19.4214H13.3101H12.3101C12.3101 20.291 11.601 21 10.7314 21V22ZM13.3101 19.4214H14.3101V18.494H13.3101H12.3101V19.4214H13.3101ZM13.3101 18.494L12.9792 17.5504C13.0095 17.5397 13.048 17.5317 13.0917 17.5317V18.5317V19.5317C13.2887 19.5317 13.4737 19.4964 13.641 19.4377L13.3101 18.494Z" fill="#FF9900" mask="url(#path-3-inside-1_1966_5591)"/>
<path d="M5.86206 9.98022C5.86206 10.1282 5.74245 10.2488 5.59448 10.2488H5.4021C5.25426 10.2485 5.13452 10.128 5.13452 9.98022V7.49292C5.25348 7.51049 5.37519 7.52124 5.49878 7.52124C5.62215 7.52122 5.74331 7.51045 5.86206 7.49292V9.98022Z" stroke="#FF9900"/>
<path d="M5.49854 3.88086C6.13649 3.88091 6.65381 4.39813 6.65381 5.03613C6.65379 5.67405 6.13645 6.19136 5.49854 6.19141C4.86057 6.19141 4.34328 5.67412 4.34326 5.03613C4.34326 4.39811 4.86058 3.88086 5.49854 3.88086ZM5.49854 3.99707C4.92496 3.99707 4.45947 4.46255 4.45947 5.03613C4.4595 5.60969 4.92497 6.07422 5.49854 6.07422C6.07206 6.07417 6.5366 5.60966 6.53662 5.03613C6.53662 4.46258 6.07207 3.99712 5.49854 3.99707Z" stroke="#FF9900"/>
<path d="M13.2527 16.584V17.5098C13.2527 17.5987 13.1805 17.6709 13.0916 17.6709H12.7585C12.6695 17.6709 12.5974 17.5988 12.5974 17.5098V16.584H13.2527Z" stroke="#FF9900"/>
<path d="M17.4775 16.584V17.5098C17.4775 17.5987 17.4054 17.6709 17.3164 17.6709H16.9834C16.8944 17.6709 16.8223 17.5987 16.8223 17.5098V16.584H17.4775Z" stroke="#FF9900"/>
<mask id="path-9-inside-2_1966_5591" fill="white">
<path d="M17.3161 18.5316H16.9831C16.9175 18.5316 16.8543 18.5217 16.7944 18.5039V21.6056C16.7944 21.788 16.9424 21.936 17.1248 21.936C17.3073 21.936 17.4552 21.788 17.4552 21.6056V18.5166C17.4103 18.5263 17.3638 18.5316 17.3161 18.5316Z"/>
</mask>
<path d="M16.7944 18.5039L17.0794 17.5454L15.7944 17.1634V18.5039H16.7944ZM17.4552 18.5166H18.4552V17.2789L17.2451 17.539L17.4552 18.5166ZM17.3161 18.5316V17.5316H16.9831V18.5316V19.5316H17.3161V18.5316ZM16.9831 18.5316V17.5316C17.019 17.5316 17.0517 17.5371 17.0794 17.5454L16.7944 18.5039L16.5095 19.4624C16.6569 19.5063 16.816 19.5316 16.9831 19.5316V18.5316ZM16.7944 18.5039H15.7944V21.6056H16.7944H17.7944V18.5039H16.7944ZM16.7944 21.6056H15.7944C15.7944 22.3403 16.3901 22.936 17.1248 22.936V21.936V20.936C17.4946 20.936 17.7944 21.2357 17.7944 21.6056H16.7944ZM17.1248 21.936V22.936C17.8596 22.936 18.4552 22.3403 18.4552 21.6056H17.4552H16.4552C16.4552 21.2357 16.755 20.936 17.1248 20.936V21.936ZM17.4552 21.6056H18.4552V18.5166H17.4552H16.4552V21.6056H17.4552ZM17.4552 18.5166L17.2451 17.539C17.2651 17.5347 17.2891 17.5316 17.3161 17.5316V18.5316V19.5316C17.4386 19.5316 17.5556 19.5179 17.6653 19.4943L17.4552 18.5166Z" fill="#FF9900" mask="url(#path-9-inside-2_1966_5591)"/>
<path d="M17.5286 2.5V15.2314H12.5784V2.5H17.5286ZM15.053 6.59766C14.0447 6.59787 13.2269 7.41551 13.2268 8.42383V12.8447C13.2269 13.853 14.0447 14.6707 15.053 14.6709C16.0614 14.6709 16.879 13.8532 16.8792 12.8447V8.42383C16.879 7.41539 16.0615 6.59766 15.053 6.59766ZM14.3616 3.65723C13.9315 3.65723 13.5777 3.9844 13.5354 4.40332L13.5315 4.48828L13.5354 4.57227C13.5777 4.9912 13.9315 5.31836 14.3616 5.31836H15.7454C16.2037 5.31823 16.5752 4.94658 16.5754 4.48828C16.5754 4.02976 16.2039 3.65736 15.7454 3.65723H14.3616Z" stroke="#FF9900"/>
</svg>
