<svg width="32" height="32" viewBox="0 0 32 32" fill="none" xmlns="http://www.w3.org/2000/svg">
<g clip-path="url(#clip0_1014_17631)">
<g filter="url(#filter0_d_1014_17631)">
<path d="M19.5612 5.229L3.74309 21.0507C3.73955 21.0542 3.73955 21.0542 3.736 21.0578C3.72536 21.0684 3.71473 21.0826 3.70763 21.0932C3.70054 21.1039 3.69345 21.111 3.68636 21.1216C3.67927 21.1322 3.67217 21.1464 3.66863 21.1571C3.66154 21.1712 3.65445 21.1819 3.6509 21.1925C3.64381 21.2032 3.64381 21.2138 3.64026 21.2244C3.63672 21.2386 3.62962 21.2563 3.62962 21.2705C3.62962 21.2741 3.62962 21.2776 3.62608 21.2776L2.68642 27.6389C2.61196 28.1424 2.75379 28.614 3.07292 28.9332C3.39205 29.2523 3.8672 29.3906 4.37071 29.3161L10.7107 28.3552C10.7143 28.3552 10.7143 28.3552 10.7178 28.3516C10.732 28.3481 10.7462 28.3446 10.7639 28.341C10.7746 28.3375 10.7852 28.3339 10.7994 28.3304C10.81 28.3268 10.8242 28.3197 10.8348 28.3126C10.8455 28.3055 10.8597 28.302 10.8703 28.2949C10.8809 28.2878 10.888 28.2807 10.8987 28.2736C10.9128 28.263 10.9235 28.2559 10.9341 28.2453C10.9377 28.2453 10.9377 28.2417 10.9412 28.2417L26.7594 12.4236L19.5612 5.229ZM7.27478 28.0502L3.94521 24.7207L4.31752 22.2066L9.78171 27.6708L7.27478 28.0502Z" fill="#D68132"/>
<path d="M6.9375 28.4204L4.2959 28.8218C3.92433 28.8763 3.61671 28.7694 3.42676 28.5796C3.23424 28.3871 3.12627 28.0809 3.18066 27.7124L3.57324 25.0562L6.9375 28.4204ZM26.0518 12.4233L10.7305 27.7456H10.7266L10.6445 27.8267L10.1357 27.3169L4.6709 21.853L4.1582 21.3403L19.5615 5.93506L26.0518 12.4233Z" stroke="#060606"/>
</g>
<path d="M10.4453 9.5384L14.6719 5.32812L16.9874 7.59931L15.5863 7.0103L14.7427 6.33353L13.2465 7.23482L10.4453 9.5384Z" fill="white"/>
<path d="M7.98723 19.9888L5.65286 17.6541L7.07497 18.7724L7.98723 19.1677L8.89021 18.5076L12.228 15.6929L10.1462 17.8526L7.98723 19.9888Z" fill="white"/>
<path d="M13.0906 28.5312H28.8015C28.9553 28.5312 29.0837 28.6583 29.0837 28.8135C29.0836 28.9696 28.9576 29.0947 28.8015 29.0947H13.0906C12.9345 29.0947 12.8085 28.9696 12.8083 28.8135C12.8083 28.6572 12.9343 28.5312 13.0906 28.5312Z" fill="#D68132" stroke="black" stroke-width="0.5"/>
<path d="M21.7742 3.37354C22.396 2.74873 23.4148 2.74858 24.0408 3.37451L28.6111 7.94482C29.236 8.56665 29.237 9.58545 28.6111 10.2114L28.6101 10.2124L27.6414 11.186L20.8015 4.34619L21.7742 3.37354Z" fill="#6DA052" stroke="#060606" stroke-width="0.5"/>
<path d="M16.0894 3.23843C16.9139 2.2215 17.4406 2.21573 18.3675 3.28159C17.5133 2.66947 17.0092 2.76613 16.0894 3.23843Z" fill="white"/>
<path d="M20.1581 28.8131H16.6942C16.6942 28.8131 16.501 28.0703 16.3299 27.6103C16.1512 27.1298 15.9781 26.8905 15.7937 26.4121C15.4658 25.5615 15.1628 24.1646 15.1628 24.1646H21.6895C21.6895 24.1646 21.4227 25.2687 21.156 25.9429C21.0202 26.2862 20.8924 26.4575 20.7706 26.8059C20.6217 27.2314 20.6398 27.4993 20.5024 27.9287C20.3895 28.2817 20.1581 28.8131 20.1581 28.8131Z" fill="#002E23"/>
<path d="M20.0456 28.496H16.954L15.5872 24.1646H21.4124L20.0456 28.496Z" fill="#2B5F6B"/>
<path d="M17.0104 28.4872L15.8362 24.9043L16.4981 26.1477L17.1199 27.8058C17.2007 28.0212 17.394 28.1744 17.6223 28.2036L20.0664 28.5173L17.0104 28.4872Z" fill="white"/>
<path d="M20.5989 21.2349C21.1486 21.2349 21.5833 21.6601 21.5833 22.1704C21.5832 22.6807 21.1486 23.106 20.5989 23.106C20.0494 23.1058 19.6156 22.6806 19.6155 22.1704C19.6155 21.6602 20.0493 21.235 20.5989 21.2349Z" fill="#2F8C2F" stroke="#484747" stroke-width="0.3105"/>
<path d="M16.0762 22.4814C16.9731 22.4815 17.7109 23.1973 17.7109 24.04C17.7109 24.8828 16.9731 25.5985 16.0762 25.5986C15.1773 25.5986 14.4414 24.9122 14.4414 24.04C14.4414 23.1972 15.1792 22.4814 16.0762 22.4814Z" fill="#2F8C2F" stroke="#484747" stroke-width="0.3105"/>
<path d="M17.9319 20.0195C19.434 20.0198 20.6399 21.1841 20.6399 22.6064C20.6399 24.0288 19.434 25.1931 17.9319 25.1934C16.4296 25.1934 15.2229 24.0289 15.2229 22.6064C15.2229 21.184 16.4296 20.0195 17.9319 20.0195Z" fill="#3BA83E" stroke="#002E23" stroke-width="0.3105"/>
<path d="M21.0881 22.7617C21.8873 22.7619 22.4944 23.3533 22.4944 24.1025C22.4942 24.8225 21.885 25.4422 21.0881 25.4424C20.3193 25.4424 19.6811 24.8497 19.6809 24.1025C19.6809 23.3823 20.2909 22.7617 21.0881 22.7617Z" fill="#3BA83E" stroke="#002E23" stroke-width="0.3105"/>
</g>
<defs>
<filter id="filter0_d_1014_17631" x="-4.73301" y="-1.171" width="38.8923" height="38.9069" filterUnits="userSpaceOnUse" color-interpolation-filters="sRGB">
<feFlood flood-opacity="0" result="BackgroundImageFix"/>
<feColorMatrix in="SourceAlpha" type="matrix" values="0 0 0 0 0 0 0 0 0 0 0 0 0 0 0 0 0 0 127 0" result="hardAlpha"/>
<feOffset dy="1"/>
<feGaussianBlur stdDeviation="3.7"/>
<feComposite in2="hardAlpha" operator="out"/>
<feColorMatrix type="matrix" values="0 0 0 0 0.186421 0 0 0 0 0.165013 0 0 0 0 0.139881 0 0 0 0.32 0"/>
<feBlend mode="normal" in2="BackgroundImageFix" result="effect1_dropShadow_1014_17631"/>
<feBlend mode="normal" in="SourceGraphic" in2="effect1_dropShadow_1014_17631" result="shape"/>
</filter>
<clipPath id="clip0_1014_17631">
<rect width="32" height="32" fill="white"/>
</clipPath>
</defs>
</svg>
