<svg width="24" height="24" viewBox="0 0 24 24" fill="none" xmlns="http://www.w3.org/2000/svg">
<path d="M17.7937 11.5567C18.0007 10.8728 18.3736 10.3324 18.7848 10.0048C19.1978 9.67576 19.6052 9.58905 19.9336 9.68826C20.262 9.78767 20.5537 10.0859 20.7149 10.589C20.8754 11.0896 20.886 11.7462 20.6791 12.43C20.4721 13.1138 20.0991 13.6543 19.688 13.9819C19.2748 14.3111 18.8667 14.3975 18.5383 14.2981C18.21 14.1986 17.9191 13.9005 17.7579 13.3977C17.5974 12.897 17.5867 12.2405 17.7937 11.5567Z" stroke="#FF9900"/>
<path d="M11.8391 11.459C12.6031 11.3346 13.3844 11.5391 13.8479 12.2754C14.1666 12.7817 14.4476 13.271 14.7717 13.7998C15.4253 14.8697 16.2216 15.8456 17.1389 16.7002L17.1477 16.709C17.5519 17.067 17.8788 17.5032 18.1096 17.9912H18.1106C18.4264 18.702 18.4488 19.3667 18.1096 20.0283L18.1067 20.0342L18.1038 20.041C18.0023 20.2539 17.8428 20.434 17.6438 20.5605C17.4447 20.6871 17.2136 20.7544 16.9778 20.7559H16.9739C16.4557 20.7635 15.9381 20.7141 15.4309 20.6074L15.4211 20.6055L15.4124 20.6035L12.7063 20.1484H12.7053C12.4235 20.1023 12.1231 20.0716 11.8704 20.0391L11.8225 20.0332L11.7737 20.0361C11.081 20.0819 10.3929 20.1806 9.71509 20.3301C9.1037 20.4527 8.50964 20.5758 7.91138 20.6719L7.90259 20.6729L7.89282 20.6748C7.47589 20.7575 7.04702 20.7573 6.63013 20.6748C6.25041 20.5847 5.91521 20.3629 5.68481 20.0479C5.45685 19.736 5.34616 19.3538 5.37231 18.9688C5.42645 18.4628 5.60161 17.9776 5.88306 17.5537L5.88892 17.5439C6.18006 17.0825 6.54169 16.6693 6.96021 16.3193C7.48281 15.9017 7.96696 15.4379 8.40649 14.9336L8.41235 14.9258L8.41919 14.918C8.80201 14.4419 9.15771 13.9356 9.5022 13.4658L9.50806 13.458L9.51294 13.4502C9.79506 13.0333 10.1054 12.6363 10.4417 12.2617L10.4436 12.2588C10.8089 11.8469 11.2992 11.5659 11.8391 11.459Z" stroke="#FF9900"/>
<path d="M7.88133 4.11197C8.31641 3.98141 8.83826 4.10292 9.35072 4.513C9.86131 4.92165 10.3192 5.589 10.571 6.42753C10.8228 7.2661 10.8082 8.07523 10.6071 8.69758C10.4053 9.32226 10.0368 9.71098 9.60169 9.84169C9.16653 9.97235 8.64397 9.8512 8.13138 9.44094C7.62089 9.03222 7.16378 8.36456 6.91204 7.52613C6.66033 6.68761 6.67393 5.87866 6.87495 5.25635C7.07677 4.63159 7.44617 4.24262 7.88133 4.11197Z" stroke="#FF9900"/>
<path d="M13.4504 6.22986C13.704 5.39199 14.1626 4.72534 14.674 4.31776C15.1875 3.90865 15.7103 3.78866 16.1452 3.92028C16.58 4.05196 16.9477 4.44149 17.1481 5.06662C17.3477 5.68942 17.3605 6.49858 17.1069 7.33659C16.8532 8.17456 16.3939 8.84089 15.8824 9.2484C15.369 9.65734 14.8469 9.77769 14.4121 9.64617C13.9772 9.51454 13.6087 9.12476 13.4083 8.49955C13.2086 7.8768 13.1968 7.06781 13.4504 6.22986Z" stroke="#FF9900"/>
<path d="M4.11542 9.60076C4.45758 9.49803 4.87918 9.58993 5.30427 9.93002C5.72752 10.2688 6.11066 10.8261 6.32205 11.5301C6.53343 12.2341 6.52066 12.9103 6.35401 13.4262C6.18656 13.9443 5.88533 14.2531 5.54316 14.3559C5.20098 14.4586 4.77943 14.3668 4.35431 14.0266C3.93105 13.6879 3.54792 13.1305 3.33653 12.4265C3.12517 11.7225 3.13792 11.0463 3.30457 10.5304C3.47201 10.0124 3.77328 9.70351 4.11542 9.60076Z" stroke="#FF9900"/>
</svg>
