<svg xmlns="http://www.w3.org/2000/svg" width="20" height="21" viewBox="0 0 20 21" fill="none">
  <path d="M13.6418 13.7539C13.6334 14.2497 13.4288 14.7221 13.073 15.0674C12.7171 15.4128 12.2388 15.6031 11.7429 15.5966H5.89882C5.40294 15.6031 4.92469 15.4128 4.5688 15.0674C4.21291 14.722 4.00838 14.2497 4 13.7539C4 12.4753 4.50791 11.2491 5.412 10.345C6.3161 9.44088 7.54231 8.93297 8.82088 8.93297C10.0995 8.93297 11.3257 9.44088 12.2298 10.345C13.1339 11.2491 13.6418 12.4753 13.6418 13.7539ZM6.54399 5.85372C6.63648 8.86271 11.0048 8.86341 11.0978 5.85377C11.0053 2.84484 6.63692 2.84414 6.54399 5.85372Z" fill="#8A8C8E"/>
</svg>