<svg width="47" height="42" viewBox="0 0 47 42" fill="none" xmlns="http://www.w3.org/2000/svg">
<path d="M24.5834 7.4165H16.0368C15.5064 7.4165 14.9977 7.62722 14.6226 8.00229L11.6275 10.9974C11.2525 11.3725 10.7438 11.5832 10.2133 11.5832H3.66675C2.56218 11.5832 1.66675 12.4786 1.66675 13.5832L1.66675 38.7498C1.66675 39.8544 2.56218 40.7498 3.66675 40.7498H37.1667C38.2713 40.7498 39.1667 39.8544 39.1667 38.7498V21.9998M32.9167 7.4165H45.4167M39.1667 13.6665V1.1665M20.4167 34.4998C25.0191 34.4998 28.7501 30.7689 28.7501 26.1665C28.7501 21.5641 25.0191 17.8332 20.4167 17.8332C15.8144 17.8332 12.0834 21.5641 12.0834 26.1665C12.0834 30.7689 15.8144 34.4998 20.4167 34.4998Z" stroke="#727272" stroke-width="2" stroke-linecap="round" stroke-linejoin="round"/>
</svg>
