<svg xmlns="http://www.w3.org/2000/svg" width="21" height="20" viewBox="0 0 21 20" fill="none">
    <path d="M10.5003 1.66666C8.85215 1.66666 7.24099 2.1554 5.87058 3.07108C4.50017 3.98675 3.43206 5.28824 2.80133 6.81096C2.1706 8.33368 2.00558 10.0092 2.32712 11.6257C2.64866 13.2422 3.44234 14.7271 4.60777 15.8925C5.77321 17.058 7.25807 17.8517 8.87458 18.1732C10.4911 18.4947 12.1666 18.3297 13.6894 17.699C15.2121 17.0683 16.5136 16.0001 17.4292 14.6297C18.3449 13.2593 18.8337 11.6482 18.8337 9.99999C18.8337 7.78985 17.9557 5.67024 16.3929 4.10743C14.8301 2.54463 12.7105 1.66666 10.5003 1.66666ZM10.3869 15.4823C10.1982 15.4823 10.0138 15.4263 9.85689 15.3215C9.70003 15.2167 9.57776 15.0677 9.50556 14.8934C9.43337 14.7191 9.41447 14.5273 9.45128 14.3423C9.48809 14.1572 9.57894 13.9873 9.71234 13.8538C9.84575 13.7204 10.0157 13.6296 10.2008 13.5928C10.3858 13.556 10.5776 13.5749 10.7519 13.6471C10.9262 13.7193 11.0752 13.8415 11.18 13.9984C11.2848 14.1553 11.3408 14.3397 11.3408 14.5284C11.3403 14.7812 11.2396 15.0236 11.0608 15.2023C10.8821 15.3811 10.6397 15.4818 10.3869 15.4823ZM11.4294 10.8511C11.4294 10.8511 11.3354 10.8847 11.3354 10.9397V11.6968C11.3354 11.9486 11.2354 12.1901 11.0573 12.3682C10.8793 12.5462 10.6378 12.6463 10.386 12.6463C10.1342 12.6463 9.89265 12.5462 9.71459 12.3682C9.53653 12.1901 9.4365 11.9486 9.4365 11.6968V10.9397C9.44066 10.5196 9.57653 10.1115 9.82496 9.77269C10.0734 9.43392 10.4219 9.18165 10.8213 9.05141C11.0967 8.9595 11.335 8.78109 11.5008 8.54275C11.6666 8.30442 11.751 8.0189 11.7415 7.72871C11.7231 7.37784 11.572 7.04709 11.3188 6.80347C11.0656 6.55985 10.7293 6.42157 10.378 6.41666C10.125 6.41776 9.87754 6.49023 9.66395 6.62573C9.45035 6.76123 9.27933 6.95425 9.17054 7.18261C9.11641 7.29496 9.04067 7.39554 8.94767 7.47862C8.85466 7.5617 8.7462 7.62564 8.62848 7.6668C8.39073 7.74993 8.1297 7.73521 7.90281 7.62588C7.67592 7.51654 7.50175 7.32156 7.41862 7.08381C7.3355 6.84607 7.35022 6.58504 7.45955 6.35815C7.72132 5.80947 8.13251 5.34575 8.64591 5.0202C9.15932 4.69466 9.75412 4.5205 10.362 4.51772H10.3815C11.2261 4.52262 12.0361 4.85342 12.6426 5.44112C13.2492 6.02882 13.6053 6.82801 13.6369 7.67197C13.6604 8.36848 13.4584 9.05397 13.061 9.62645C12.6636 10.1989 12.092 10.6278 11.4312 10.8493L11.4294 10.8511Z" fill="#44AA56"/>
</svg>