<svg width="20" height="20" viewBox="0 0 20 20" fill="none" xmlns="http://www.w3.org/2000/svg">
<g id="Radio button">
<g id="icon">
<path d="M10.0003 1.66669C5.40033 1.66669 1.66699 5.40002 1.66699 10C1.66699 14.6 5.40033 18.3334 10.0003 18.3334C14.6003 18.3334 18.3337 14.6 18.3337 10C18.3337 5.40002 14.6003 1.66669 10.0003 1.66669ZM10.0003 16.6667C6.31699 16.6667 3.33366 13.6834 3.33366 10C3.33366 6.31669 6.31699 3.33335 10.0003 3.33335C13.6837 3.33335 16.667 6.31669 16.667 10C16.667 13.6834 13.6837 16.6667 10.0003 16.6667Z" fill="#FF9900"/>
<path d="M10.0003 14.1667C12.3015 14.1667 14.167 12.3012 14.167 10C14.167 7.69883 12.3015 5.83335 10.0003 5.83335C7.69914 5.83335 5.83366 7.69883 5.83366 10C5.83366 12.3012 7.69914 14.1667 10.0003 14.1667Z" fill="#FF9900"/>
</g>
</g>
</svg>
