<svg xmlns="http://www.w3.org/2000/svg" width="136" height="142" viewBox="0 0 136 142" fill="none">
  <mask id="mask0_668_58270" style="mask-type:alpha" maskUnits="userSpaceOnUse" x="7" y="17" width="82" height="65">
    <ellipse cx="47.9081" cy="49.1586" rx="40.9475" ry="31.103" transform="rotate(-14.96 47.9081 49.1586)" fill="#FFAC32"/>
  </mask>
  <g mask="url(#mask0_668_58270)">
    <ellipse cx="47.9081" cy="49.1586" rx="40.9475" ry="31.103" transform="rotate(-14.96 47.9081 49.1586)" fill="url(#paint0_linear_668_58270)"/>
    <ellipse cx="48.6009" cy="51.7542" rx="39.0824" ry="32.8607" transform="rotate(-14.96 48.6009 51.7542)" fill="url(#paint1_linear_668_58270)"/>
    <path d="M20.753 61.3538C17.7931 51.2658 23.5715 40.6884 33.6595 37.7285L56.4489 31.0418C67.0173 27.9409 78.0984 33.9945 81.1993 44.5629C84.3002 55.1312 78.2466 66.2124 67.6782 69.3132L46.6284 75.4895C35.5797 78.7313 23.9948 72.4026 20.753 61.3538Z" fill="url(#paint2_linear_668_58270)"/>
    <path d="M49.4806 58.5143C47.9269 64.6171 42.1843 68.2858 36.7659 66.9063C31.3475 65.5268 28.0584 59.5588 29.6121 53.4559C31.1658 47.3531 36.9084 43.6844 42.3268 45.0639C47.7452 46.4433 51.0344 52.4114 49.4806 58.5143Z" fill="#FED4BE" stroke="#F89460" stroke-width="1.74385"/>
    <path d="M72.5397 52.1568C71.1568 57.5888 65.2706 60.8843 59.2974 59.3636C53.3242 57.8429 49.7304 52.1339 51.1134 46.7019C52.4963 41.2699 58.3825 37.9744 64.3557 39.4951C70.3289 41.0158 73.9227 46.7248 72.5397 52.1568Z" fill="#FED4BE" stroke="#F48A56" stroke-width="1.74385"/>
    <path d="M33.4723 57.2213C33.3776 56.9552 33.4278 56.6572 33.6058 56.4379C37.3622 51.8119 40.0737 50.3834 45.7193 52.1333C45.9545 52.2062 46.1423 52.3886 46.2248 52.6207C46.4393 53.224 45.885 53.8239 45.2574 53.6967C40.4906 52.7306 37.9896 53.9739 34.8954 57.4798C34.4742 57.9571 33.6855 57.8211 33.4723 57.2213Z" fill="#826559"/>
    <path d="M53.9 48.7702C53.8054 48.504 53.8555 48.2061 54.0336 47.9868C57.7899 43.3607 60.5014 41.9323 66.147 43.6821C66.3823 43.755 66.57 43.9374 66.6525 44.1695C66.867 44.7729 66.3127 45.3727 65.6851 45.2455C60.9183 44.2794 58.4174 45.5227 55.3231 49.0287C54.9019 49.5059 54.1132 49.37 53.9 48.7702Z" fill="#826559"/>
  </g>
  <mask id="mask1_668_58270" style="mask-type:alpha" maskUnits="userSpaceOnUse" x="13" y="20" width="16" height="13">
    <rect x="13.2744" y="23.7202" width="3.6572" height="15.5235" transform="rotate(-57.5582 13.2744 23.7202)" fill="url(#paint3_linear_668_58270)"/>
  </mask>
  <g mask="url(#mask1_668_58270)">
    <rect x="13.2744" y="23.7202" width="3.6572" height="15.5235" transform="rotate(-57.5582 13.2744 23.7202)" fill="url(#paint4_linear_668_58270)"/>
    <path d="M23.9066 25.6143C24.5316 26.0164 24.397 27.339 23.6059 28.5683C22.8149 29.7976 21.667 30.4681 21.042 30.0659" stroke="#6F5548" stroke-width="1.74385"/>
    <path d="M18.7019 22.2466C19.3269 22.6488 19.2306 23.9116 18.4869 25.0673C17.7433 26.223 16.6338 26.8338 16.0088 26.4316" stroke="#6F5548" stroke-width="1.74385"/>
  </g>
  <path d="M11.4237 20.2356C11.936 19.488 12.941 19.2672 13.7196 19.7311L15.4448 20.7591L10.0785 30.3171C9.43929 31.4555 7.98164 31.834 6.86932 31.1504C5.74905 30.4619 5.43319 28.9759 6.17658 27.8913L11.4237 20.2356Z" fill="url(#paint5_linear_668_58270)"/>
  <mask id="mask2_668_58270" style="mask-type:alpha" maskUnits="userSpaceOnUse" x="37" y="10" width="5" height="16">
    <rect width="3.6572" height="15.5235" transform="matrix(-0.999807 -0.0196428 -0.0196428 0.999807 41.4717 10.1216)" fill="url(#paint6_linear_668_58270)"/>
  </mask>
  <g mask="url(#mask2_668_58270)">
    <rect width="3.6572" height="15.5235" transform="matrix(-0.999807 -0.0196428 -0.0196428 0.999807 41.4717 10.1216)" fill="url(#paint7_linear_668_58270)"/>
    <path d="M37.1707 20.0286C37.1602 20.7717 38.3367 21.3908 39.7983 21.4113C41.26 21.4319 42.4534 20.8461 42.4639 20.103" stroke="#6F5548" stroke-width="1.74385"/>
    <path d="M37.2435 13.8284C37.2331 14.5715 38.3386 15.1896 39.7127 15.209C41.0868 15.2283 42.2093 14.6416 42.2197 13.8984" stroke="#6F5548" stroke-width="1.74385"/>
  </g>
  <path d="M39.5947 6.65409C38.6885 6.66767 37.9488 7.38299 37.9048 8.28821L37.8075 10.2941L48.7387 11.1075C50.0407 11.2043 51.162 10.199 51.2075 8.89424C51.2532 7.5801 50.1896 6.49528 48.8748 6.51499L39.5947 6.65409Z" fill="url(#paint8_linear_668_58270)"/>
  <mask id="mask3_668_58270" style="mask-type:alpha" maskUnits="userSpaceOnUse" x="28" y="79" width="22" height="37">
    <path d="M36.2693 81.0289C38.0642 79.4802 40.5341 79.0198 42.8375 79.5811C48.7927 81.0324 50.7539 88.3669 48.1673 93.9239C46.329 97.8732 45.5314 102.034 45.5524 107.155C45.5744 112.535 40.7519 116.929 35.558 115.527C33.0733 114.855 31.0912 112.95 30.3996 110.471C26.5918 96.8208 26.803 89.1972 36.2693 81.0289Z" fill="url(#paint9_linear_668_58270)"/>
  </mask>
  <g mask="url(#mask3_668_58270)">
    <path d="M36.2693 81.0289C38.0642 79.4802 40.5341 79.0198 42.8375 79.5811C48.7927 81.0324 50.7539 88.3669 48.1673 93.9239C46.329 97.8732 45.5314 102.034 45.5524 107.155C45.5744 112.535 40.7519 116.929 35.558 115.527C33.0733 114.855 31.0912 112.95 30.3996 110.471C26.5918 96.8208 26.803 89.1972 36.2693 81.0289Z" fill="url(#paint10_linear_668_58270)"/>
    <path d="M28.2926 103.309C35.1093 101.096 39.0766 100.533 46.3291 100.33L46.6708 102.399C39.4621 102.565 35.4926 103.09 28.6343 105.378L28.2926 103.309Z" fill="url(#paint11_linear_668_58270)"/>
    <ellipse cx="30.4978" cy="100.968" rx="2.52955" ry="15.6636" transform="rotate(-0.588083 30.4978 100.968)" fill="#FFB69C" fill-opacity="0.3"/>
  </g>
  <path fill-rule="evenodd" clip-rule="evenodd" d="M90.9874 42.8689C85.6493 38.1266 77.5919 38.1804 72.3177 42.9938L30.3663 81.2791C28.0141 83.4258 29.5328 87.343 32.7174 87.343H44.6495V127.381C44.6495 135.085 50.8955 141.331 58.6004 141.331H106.167C113.872 141.331 120.118 135.085 120.118 127.381V87.343H131.871C135.079 87.343 136.586 83.3781 134.188 81.2479L90.9874 42.8689Z" fill="white"/>
  <mask id="mask4_668_58270" style="mask-type:alpha" maskUnits="userSpaceOnUse" x="66" y="91" width="33" height="33">
    <circle cx="82.2789" cy="107.683" r="16.2759" fill="#FF6400"/>
  </mask>
  <g mask="url(#mask4_668_58270)">
    <circle cx="82.2789" cy="107.683" r="16.2759" fill="#FF6400"/>
    <rect x="80.0361" y="99.5444" width="4.48311" height="16.2759" rx="2.24156" fill="white"/>
    <rect x="90.417" y="105.44" width="4.48311" height="16.2759" rx="2.24156" transform="rotate(90 90.417 105.44)" fill="white"/>
  </g>
  <path fill-rule="evenodd" clip-rule="evenodd" d="M68.6321 63.0749C75.7242 60.8198 79.6453 53.2423 77.3901 46.1502C75.1349 39.0581 67.5575 35.137 60.4654 37.3922C53.3733 39.6474 49.4522 47.2249 51.7074 54.3169C53.9626 61.409 61.54 65.3301 68.6321 63.0749ZM67.5675 59.7269C72.8114 58.0594 75.7107 52.4566 74.0432 47.2128C72.3757 41.9689 66.7729 39.0696 61.5291 40.7371C56.2852 42.4046 53.3859 48.0074 55.0534 53.2512C56.7209 58.4951 62.3236 61.3944 67.5675 59.7269Z" fill="url(#paint12_linear_668_58270)"/>
  <mask id="mask5_668_58270" style="mask-type:alpha" maskUnits="userSpaceOnUse" x="53" y="39" width="23" height="23">
    <circle cx="64.5256" cy="50.2283" r="10.914" transform="rotate(-17.6399 64.5256 50.2283)" fill="white"/>
  </mask>
  <g mask="url(#mask5_668_58270)">
    <circle cx="64.5256" cy="50.2283" r="10.914" transform="rotate(-17.6399 64.5256 50.2283)" fill="white" fill-opacity="0.2"/>
    <rect x="51.4443" y="44.6479" width="23.0231" height="9.49241" transform="rotate(-17.6399 51.4443 44.6479)" fill="url(#paint13_linear_668_58270)"/>
    <rect x="55.3525" y="54.8965" width="23.0231" height="8.98915" transform="rotate(-17.6399 55.3525 54.8965)" fill="url(#paint14_linear_668_58270)"/>
  </g>
  <path d="M75.9569 57.2547L77.4916 53.6562L90.7725 59.687L90.0629 64.3004L75.9569 57.2547Z" fill="url(#paint15_linear_668_58270)"/>
  <path d="M83.4537 38.715L86.5212 36.325C94.4866 35.0142 104.464 40.5121 104.719 44.9677L87.1779 50.1243C87.9012 46.3475 84.4076 44.3857 83.4537 38.715Z" fill="#FA7C50"/>
  <mask id="mask6_668_58270" style="mask-type:alpha" maskUnits="userSpaceOnUse" x="79" y="41" width="30" height="44">
    <path d="M95.0653 83.4859C92.463 84.8293 89.38 84.7769 86.6895 83.6202C78.8762 80.2614 78.358 69.5735 82.6233 62.2157C84.4181 59.1198 85.597 55.6975 86.2949 51.6741C87.5843 44.2407 95.1042 38.9629 101.97 42.0903C104.932 43.4397 107.091 46.1351 107.653 49.3415C110.743 66.9735 109.278 76.1492 95.0653 83.4859Z" fill="url(#paint16_linear_668_58270)"/>
  </mask>
  <g mask="url(#mask6_668_58270)">
    <path d="M97.9138 67.1479C96.2811 67.5989 94.5436 67.4036 92.992 66.7241L90.7907 65.7601C85.1954 63.3097 85.2719 55.5006 87.3322 49.7503C89.2631 44.3615 94.3603 38.6217 99.5695 40.9946L101.2 41.7372C103.038 42.5745 104.499 44.0837 105.216 45.9717C109.827 58.103 109.607 63.9177 97.9138 67.1479Z" fill="url(#paint17_linear_668_58270)"/>
    <path d="M108.278 57.736C99.618 59.0291 94.7219 58.9204 85.9363 57.736V55.2067C94.6617 56.4259 99.5528 56.5814 108.278 55.2067V57.736Z" fill="url(#paint18_linear_668_58270)"/>
  </g>
  <path d="M98.5784 38.4673C102.567 41.0558 105.232 44.028 104.533 45.1058C103.833 46.1836 100.033 44.959 96.0451 42.3705C92.057 39.782 87.2706 37.994 87.9702 36.9162C88.6697 35.8384 94.5903 35.8789 98.5784 38.4673Z" fill="#FFB69C" fill-opacity="0.3"/>
  <defs>
    <linearGradient id="paint0_linear_668_58270" x1="45.0918" y1="78.21" x2="27.9482" y2="21.8927" gradientUnits="userSpaceOnUse">
      <stop offset="0.0556745" stop-color="#FEA26E"/>
      <stop offset="1" stop-color="#FF813C"/>
    </linearGradient>
    <linearGradient id="paint1_linear_668_58270" x1="48.6009" y1="18.8935" x2="54.791" y2="88.3578" gradientUnits="userSpaceOnUse">
      <stop offset="0.0556745" stop-color="#FEA26E"/>
      <stop offset="1" stop-color="#D33804"/>
    </linearGradient>
    <linearGradient id="paint2_linear_668_58270" x1="45.4891" y1="34.2575" x2="56.7184" y2="72.529" gradientUnits="userSpaceOnUse">
      <stop stop-color="white"/>
      <stop offset="1" stop-color="#BF9C7C"/>
    </linearGradient>
    <linearGradient id="paint3_linear_668_58270" x1="20.2312" y1="32.5618" x2="12.6287" y2="32.8139" gradientUnits="userSpaceOnUse">
      <stop offset="0.328226" stop-color="#FF893D"/>
      <stop offset="0.750401" stop-color="#F5AD16"/>
    </linearGradient>
    <linearGradient id="paint4_linear_668_58270" x1="20.2312" y1="32.5618" x2="12.6287" y2="32.8139" gradientUnits="userSpaceOnUse">
      <stop offset="0.328226" stop-color="#FF833D"/>
      <stop offset="0.676041" stop-color="#F7931D"/>
      <stop offset="0.750401" stop-color="#F58E16"/>
    </linearGradient>
    <linearGradient id="paint5_linear_668_58270" x1="14.3823" y1="28.9007" x2="7.74144" y2="25.1946" gradientUnits="userSpaceOnUse">
      <stop offset="0.328226" stop-color="#FF6C3D"/>
      <stop offset="0.750401" stop-color="#F58116"/>
    </linearGradient>
    <linearGradient id="paint6_linear_668_58270" x1="6.95676" y1="8.84163" x2="-0.645722" y2="9.09372" gradientUnits="userSpaceOnUse">
      <stop offset="0.328226" stop-color="#FF893D"/>
      <stop offset="0.750401" stop-color="#F5AD16"/>
    </linearGradient>
    <linearGradient id="paint7_linear_668_58270" x1="6.95676" y1="8.84163" x2="-0.645722" y2="9.09372" gradientUnits="userSpaceOnUse">
      <stop offset="0.328226" stop-color="#FF833D"/>
      <stop offset="0.750401" stop-color="#F58116"/>
    </linearGradient>
    <linearGradient id="paint8_linear_668_58270" x1="45.1789" y1="13.9104" x2="45.7626" y2="6.32786" gradientUnits="userSpaceOnUse">
      <stop offset="0.328226" stop-color="#EC452F"/>
      <stop offset="0.750401" stop-color="#F58116"/>
    </linearGradient>
    <linearGradient id="paint9_linear_668_58270" x1="31.064" y1="98.6755" x2="53.0834" y2="100.808" gradientUnits="userSpaceOnUse">
      <stop stop-color="#FC6A37"/>
      <stop offset="0.41074" stop-color="#FA845C"/>
      <stop offset="1" stop-color="#FC6A37"/>
    </linearGradient>
    <linearGradient id="paint10_linear_668_58270" x1="31.064" y1="98.6755" x2="53.0834" y2="100.808" gradientUnits="userSpaceOnUse">
      <stop stop-color="#FC6A37"/>
      <stop offset="0.41074" stop-color="#FA845C"/>
      <stop offset="1" stop-color="#FC6A37"/>
    </linearGradient>
    <linearGradient id="paint11_linear_668_58270" x1="30.2302" y1="103.679" x2="45.3614" y2="102.648" gradientUnits="userSpaceOnUse">
      <stop stop-color="#855A38"/>
      <stop offset="0.530936" stop-color="#AD7C55"/>
      <stop offset="1" stop-color="#855A38"/>
    </linearGradient>
    <linearGradient id="paint12_linear_668_58270" x1="60.4654" y1="37.3922" x2="60.9991" y2="61.5092" gradientUnits="userSpaceOnUse">
      <stop stop-color="#31348A"/>
      <stop offset="1" stop-color="#B0A0CF"/>
    </linearGradient>
    <linearGradient id="paint13_linear_668_58270" x1="51.9531" y1="51.6907" x2="74.3408" y2="51.7436" gradientUnits="userSpaceOnUse">
      <stop stop-color="white" stop-opacity="0"/>
      <stop offset="0.487814" stop-color="white" stop-opacity="0.76"/>
      <stop offset="1" stop-color="white" stop-opacity="0"/>
    </linearGradient>
    <linearGradient id="paint14_linear_668_58270" x1="55.8613" y1="61.5659" x2="78.249" y2="61.6217" gradientUnits="userSpaceOnUse">
      <stop stop-color="white" stop-opacity="0"/>
      <stop offset="0.487814" stop-color="white" stop-opacity="0.76"/>
      <stop offset="1" stop-color="white" stop-opacity="0"/>
    </linearGradient>
    <linearGradient id="paint15_linear_668_58270" x1="76.6072" y1="55.606" x2="91.0045" y2="62.2645" gradientUnits="userSpaceOnUse">
      <stop stop-color="#ADC4E4"/>
      <stop offset="1" stop-color="#395685"/>
    </linearGradient>
    <linearGradient id="paint16_linear_668_58270" x1="104.96" y1="63.4594" x2="75.1508" y2="56.3213" gradientUnits="userSpaceOnUse">
      <stop stop-color="#FC6A37"/>
      <stop offset="0.41074" stop-color="#FA845C"/>
      <stop offset="1" stop-color="#FC6A37"/>
    </linearGradient>
    <linearGradient id="paint17_linear_668_58270" x1="104.631" y1="55.1614" x2="78.8999" y2="51.2711" gradientUnits="userSpaceOnUse">
      <stop stop-color="#FC6A37"/>
      <stop offset="0.41074" stop-color="#FA845C"/>
      <stop offset="1" stop-color="#FC6A37"/>
    </linearGradient>
    <linearGradient id="paint18_linear_668_58270" x1="106.016" y1="56.9152" x2="87.5692" y2="55.1214" gradientUnits="userSpaceOnUse">
      <stop stop-color="#855A38"/>
      <stop offset="0.530936" stop-color="#AD7C55"/>
      <stop offset="1" stop-color="#855A38"/>
    </linearGradient>
  </defs>
</svg>