<svg width="44" height="31" viewBox="0 0 44 31" fill="none" xmlns="http://www.w3.org/2000/svg">
<g clip-path="url(#clip0_668_55679)">
<path d="M4.9405 -0.789476L44.0697 -1.01794V30.3533L0.466797 30.6283L4.9405 -0.789476Z" fill="#72A2FF"/>
<g clip-path="url(#clip1_668_55679)">
<mask id="mask0_668_55679" style="mask-type:alpha" maskUnits="userSpaceOnUse" x="16" y="5" width="5" height="7">
<rect x="16.7266" y="6.21875" width="1.39113" height="5.90483" transform="rotate(-28.9729 16.7266 6.21875)" fill="url(#paint0_linear_668_55679)"/>
</mask>
<g mask="url(#mask0_668_55679)">
<rect x="16.7266" y="6.21875" width="1.39113" height="5.90483" transform="rotate(-28.9729 16.7266 6.21875)" fill="url(#paint1_linear_668_55679)"/>
<path d="M19.933 8.78665C20.0686 9.03472 19.7829 9.45197 19.295 9.7186C18.807 9.98523 18.3016 10.0003 18.166 9.7522" stroke="#6F5548" stroke-width="0.63154"/>
<path d="M18.8077 6.71495C18.9432 6.96303 18.6813 7.36733 18.2225 7.61799C17.7638 7.86866 17.282 7.87075 17.1465 7.62268" stroke="#6F5548" stroke-width="0.63154"/>
</g>
<path d="M16.7435 4.71935C17.0507 4.56291 17.4266 4.67206 17.6022 4.96871L17.9914 5.62606L14.4594 7.84189C14.0387 8.10582 13.4829 7.96696 13.2358 7.53618C12.9869 7.10232 13.1519 6.54848 13.5976 6.3215L16.7435 4.71935Z" fill="url(#paint2_linear_668_55679)"/>
<mask id="mask1_668_55679" style="mask-type:alpha" maskUnits="userSpaceOnUse" x="25" y="4" width="4" height="7">
<rect width="1.39113" height="5.90483" transform="matrix(-0.939017 -0.343871 -0.343871 0.939017 28.6406 5.37012)" fill="url(#paint3_linear_668_55679)"/>
</mask>
<g mask="url(#mask1_668_55679)">
<rect width="1.39113" height="5.90483" transform="matrix(-0.939017 -0.343871 -0.343871 0.939017 28.6406 5.37012)" fill="url(#paint4_linear_668_55679)"/>
<path d="M25.8671 8.40138C25.7713 8.66737 26.1179 9.03565 26.6411 9.22394C27.1643 9.41223 27.666 9.34924 27.7617 9.08325" stroke="#6F5548" stroke-width="0.63154"/>
<path d="M26.6622 6.18086C26.5664 6.44686 26.8876 6.80599 27.3794 6.983C27.8713 7.16002 28.3476 7.08789 28.4434 6.8219" stroke="#6F5548" stroke-width="0.63154"/>
</g>
<path d="M28.3953 3.89093C28.0677 3.78366 27.7131 3.94941 27.5853 4.26956L27.302 4.97902L31.1331 6.62441C31.5895 6.82038 32.1172 6.59758 32.295 6.13388C32.4741 5.66687 32.2258 5.14505 31.7505 4.98942L28.3953 3.89093Z" fill="url(#paint5_linear_668_55679)"/>
<mask id="mask2_668_55679" style="mask-type:alpha" maskUnits="userSpaceOnUse" x="12" y="9" width="25" height="19">
<ellipse cx="24.8359" cy="18.7463" rx="11.8476" ry="8.99923" fill="#FFAC32"/>
</mask>
<g mask="url(#mask2_668_55679)">
<ellipse cx="24.8359" cy="18.7463" rx="11.8476" ry="8.99923" fill="#FF6501"/>
<ellipse cx="24.8271" cy="17.9892" rx="11.7763" ry="8.18426" fill="#FF893D"/>
<path d="M15.4189 18.0242C15.3386 14.7179 17.9537 11.9725 21.2601 11.8921L28.0822 11.7263C31.447 11.6445 34.241 14.3059 34.3228 17.6707C34.4094 21.2335 31.5914 24.1918 28.0287 24.2784L22.1351 24.4217C18.5139 24.5097 15.507 21.6454 15.4189 18.0242Z" fill="#EF7309"/>
<path d="M15.8913 17.8258C15.8176 14.7918 18.2174 12.2725 21.2514 12.1988L28.1134 12.032C31.201 11.9569 33.7649 14.3991 33.84 17.4868C33.9194 20.7561 31.3336 23.4708 28.0642 23.5503L22.0543 23.6964C18.7314 23.7771 15.9721 21.1488 15.8913 17.8258Z" fill="#FFF0E5"/>
<path d="M24.2262 17.6703C23.3505 19.2342 21.5081 19.8128 20.1316 19.0421C18.7551 18.2714 18.2853 16.3983 19.1609 14.8344C20.0365 13.2704 21.8789 12.6919 23.2554 13.4626C24.6319 14.2333 25.1018 16.1064 24.2262 17.6703Z" fill="#FED4BE" stroke="#F89460" stroke-width="0.63154"/>
<path d="M31.147 17.6161C30.3739 18.9971 28.5228 19.4733 26.9935 18.6172C25.4643 17.761 24.9028 15.9339 25.676 14.553C26.4491 13.172 28.3002 12.6958 29.8295 13.5519C31.3587 14.4081 31.9202 16.2352 31.147 17.6161Z" fill="#FED4BE" stroke="#F48A56" stroke-width="0.63154"/>
<path d="M19.9041 16.1448C19.8976 16.0633 19.9338 15.9838 20 15.9358C21.3955 14.9232 22.2602 14.7265 23.7076 15.6373C23.7679 15.6752 23.8067 15.7402 23.8125 15.8113C23.8274 15.996 23.6276 16.1222 23.4617 16.0398C22.2014 15.4137 21.4094 15.5745 20.2826 16.3234C20.1293 16.4253 19.9189 16.3284 19.9041 16.1448Z" fill="#826559"/>
<path d="M26.328 15.7809C26.3214 15.6994 26.3577 15.6199 26.4238 15.5719C27.8193 14.5593 28.684 14.3626 30.1314 15.2734C30.1917 15.3113 30.2306 15.3763 30.2363 15.4474C30.2512 15.6321 30.0514 15.7583 29.8855 15.6759C28.6252 15.0498 27.8333 15.2106 26.7065 15.9595C26.5531 16.0614 26.3428 15.9645 26.328 15.7809Z" fill="#826559"/>
<path d="M15.0953 19.1194C15.0953 20.2225 14.9331 21.2074 14.6807 21.9052C14.554 22.2555 14.4106 22.5166 14.2672 22.6843C14.1229 22.8531 14.0081 22.8953 13.9311 22.8953C13.8541 22.8953 13.7394 22.8531 13.5951 22.6843C13.4517 22.5166 13.3083 22.2555 13.1816 21.9052C12.9292 21.2074 12.7669 20.2225 12.7669 19.1194C12.7669 18.0163 12.9292 17.0314 13.1816 16.3335C13.3083 15.9833 13.4517 15.7221 13.5951 15.5545C13.7394 15.3857 13.8541 15.3435 13.9311 15.3435C14.0081 15.3435 14.1229 15.3857 14.2672 15.5545C14.4106 15.7221 14.554 15.9833 14.6807 16.3335C14.9331 17.0314 15.0953 18.0163 15.0953 19.1194Z" stroke="#6F5548" stroke-width="0.63154"/>
<path d="M36.8961 19.4222C36.8961 20.5254 36.7339 21.5103 36.4815 22.2081C36.3548 22.5583 36.2114 22.8195 36.068 22.9871C35.9236 23.156 35.8089 23.1981 35.7319 23.1981C35.6549 23.1981 35.5402 23.156 35.3958 22.9871C35.2525 22.8195 35.109 22.5583 34.9824 22.2081C34.73 21.5103 34.5677 20.5254 34.5677 19.4222C34.5677 18.3191 34.73 17.3342 34.9824 16.6364C35.109 16.2862 35.2525 16.025 35.3958 15.8573C35.5402 15.6885 35.6549 15.6463 35.7319 15.6463C35.8089 15.6463 35.9236 15.6885 36.068 15.8573C36.2114 16.025 36.3548 16.2862 36.4815 16.6364C36.7339 17.3342 36.8961 18.3191 36.8961 19.4222Z" stroke="#6F5548" stroke-width="0.63154"/>
<mask id="mask3_668_55679" style="mask-type:alpha" maskUnits="userSpaceOnUse" x="22" y="20" width="7" height="3">
<path d="M22.733 20.4798C22.8667 20.3149 23.0921 20.2566 23.2893 20.3354C24.7136 20.9046 25.5038 21.1552 27.7143 20.5048C28.0755 20.3986 28.4234 20.7265 28.3233 21.0896C28.313 21.1269 28.2977 21.1639 28.2781 21.1973C26.775 23.7608 23.5987 22.9654 22.6644 20.9411C22.5939 20.7883 22.6271 20.6105 22.733 20.4798Z" fill="#4A1816"/>
</mask>
<g mask="url(#mask3_668_55679)">
<path d="M22.733 20.4798C22.8667 20.3149 23.0921 20.2566 23.2893 20.3354C24.7136 20.9046 25.5038 21.1552 27.7143 20.5048C28.0755 20.3986 28.4234 20.7265 28.3233 21.0896C28.313 21.1269 28.2977 21.1639 28.2781 21.1973C26.775 23.7608 23.5987 22.9654 22.6644 20.9411C22.5939 20.7883 22.6271 20.6105 22.733 20.4798Z" fill="#4A1816"/>
<ellipse cx="25.4761" cy="22.5885" rx="2.05615" ry="1.16789" fill="#F25A51"/>
</g>
</g>
<circle cx="31.1532" cy="18.6882" r="1.25668" fill="#FFC7C7"/>
<circle cx="19.4461" cy="18.6882" r="1.25668" fill="#FFC7C7"/>
<g clip-path="url(#clip2_668_55679)">
<path d="M32.5898 26.1727L34.0515 31.0383L35.2512 29.331L37.2349 30.0557L35.6688 25.3445L32.5898 26.1727Z" fill="#FF4C00"/>
<g opacity="0.7">
<path d="M33.41 27.5303L33.2559 27.5769L34.2329 30.7525L34.387 30.7059L33.41 27.5303Z" fill="#FFCE45"/>
</g>
<g opacity="0.7">
<path d="M35.642 26.097L35.4883 26.145L36.6887 29.9231L36.8425 29.8751L35.642 26.097Z" fill="#FFCE45"/>
</g>
<path d="M30.8141 25.655L29.248 30.1592L31.3874 29.4345L32.4846 31.0891L34.3107 26.2762L30.8141 25.655Z" fill="#FF4C00"/>
<g opacity="0.7">
<path d="M31.2074 25.4755L29.7461 29.926L29.8994 29.9755L31.3607 25.525L31.2074 25.4755Z" fill="#FFCE45"/>
</g>
<g opacity="0.7">
<path d="M33.8172 25.9905L32.1465 30.7007L32.2985 30.7537L33.9692 26.0436L33.8172 25.9905Z" fill="#FFCE45"/>
</g>
<path d="M28.5176 22.4983C28.5176 22.2804 29.0524 22.1024 29.0817 21.8935C29.1129 21.6792 28.6495 21.3595 28.7099 21.1561C28.7703 20.9491 29.3345 20.9291 29.4242 20.7348C29.514 20.5386 29.1623 20.1027 29.2777 19.9229C29.3949 19.7431 29.9408 19.8793 30.0836 19.7177C30.2247 19.5561 30.0104 19.0384 30.1734 18.8986C30.3364 18.7587 30.8218 19.0421 31.0049 18.9258C31.1863 18.8096 31.1258 18.2538 31.3236 18.1648C31.5196 18.0759 31.9043 18.4845 32.1131 18.4246C32.3182 18.3646 32.419 17.8143 32.6369 17.7834C32.8476 17.7544 33.1003 18.2538 33.3201 18.2538C33.5399 18.2538 33.7927 17.7544 34.0033 17.7834C34.2195 17.8143 34.3202 18.3646 34.5272 18.4246C34.736 18.4845 35.1206 18.0777 35.3166 18.1648C35.5144 18.2538 35.454 18.8114 35.6353 18.9258C35.8167 19.0421 36.3039 18.7587 36.4669 18.8986C36.6299 19.0384 36.4156 19.5561 36.5566 19.7177C36.6977 19.8793 37.2453 19.7413 37.3626 19.9229C37.4798 20.1027 37.1263 20.5386 37.216 20.7348C37.3058 20.9291 37.8699 20.9491 37.9304 21.1561C37.9908 21.3595 37.5274 21.6792 37.5586 21.8935C37.5879 22.1024 38.1227 22.2804 38.1227 22.4983C38.1227 22.7162 37.5879 22.8942 37.5586 23.1031C37.5274 23.3174 37.9908 23.6371 37.9304 23.8405C37.8699 24.0475 37.3058 24.0675 37.216 24.2618C37.1263 24.458 37.478 24.8939 37.3626 25.0737C37.2453 25.2535 36.6995 25.1173 36.5566 25.2789C36.4156 25.4405 36.6299 25.9581 36.4669 26.098C36.3039 26.2378 35.8185 25.9545 35.6353 26.0708C35.454 26.187 35.5144 26.7427 35.3166 26.8317C35.1206 26.9207 34.736 26.5121 34.5272 26.572C34.322 26.632 34.2213 27.1823 34.0033 27.2131C33.7927 27.2422 33.5399 26.7427 33.3201 26.7427C33.1003 26.7427 32.8476 27.2422 32.6369 27.2131C32.4208 27.1823 32.3201 26.632 32.1131 26.572C31.9043 26.5121 31.5196 26.9189 31.3236 26.8317C31.1258 26.7427 31.1863 26.1852 31.0049 26.0708C30.8236 25.9545 30.3364 26.2378 30.1734 26.098C30.0104 25.9581 30.2247 25.4405 30.0836 25.2789C29.9426 25.1173 29.3949 25.2553 29.2777 25.0737C29.1605 24.8939 29.514 24.458 29.4242 24.2618C29.3345 24.0675 28.7703 24.0475 28.7099 23.8405C28.6495 23.6371 29.1129 23.3174 29.0817 23.1031C29.0524 22.8942 28.5176 22.7162 28.5176 22.4983Z" fill="#FCAB28"/>
<path d="M33.32 26.3288C35.4534 26.3288 37.1829 24.6139 37.1829 22.4985C37.1829 20.383 35.4534 18.6681 33.32 18.6681C31.1865 18.6681 29.457 20.383 29.457 22.4985C29.457 24.6139 31.1865 26.3288 33.32 26.3288Z" fill="#FFCE45"/>
<path d="M33.3188 26.407C32.2656 26.407 31.2765 26.0002 30.5328 25.2628C29.7892 24.5254 29.3789 23.5429 29.3789 22.5004C29.3789 21.4579 29.7892 20.4753 30.5328 19.738C31.2765 19.0006 32.2674 18.5938 33.3188 18.5938C34.372 18.5938 35.361 19.0006 36.1047 19.738C36.8483 20.4753 37.2586 21.4579 37.2586 22.5004C37.2586 23.5429 36.8483 24.5254 36.1047 25.2628C35.361 26.0002 34.3701 26.407 33.3188 26.407ZM33.3188 18.7463C31.2307 18.7463 29.5346 20.4299 29.5346 22.4986C29.5346 24.5672 31.2325 26.2508 33.3188 26.2508C35.405 26.2508 37.1029 24.5672 37.1029 22.4986C37.1029 20.4299 35.405 18.7463 33.3188 18.7463Z" fill="#FCAB28"/>
<path d="M33.3205 25.241C34.848 25.241 36.0862 24.0132 36.0862 22.4986C36.0862 20.9839 34.848 19.7561 33.3205 19.7561C31.793 19.7561 30.5547 20.9839 30.5547 22.4986C30.5547 24.0132 31.793 25.241 33.3205 25.241Z" fill="#FFD733"/>
<path d="M35.6173 21.4125C35.6173 21.2381 35.6009 21.0674 35.5679 20.9021C35.066 20.2083 34.2473 19.7561 33.3205 19.7561C31.7929 19.7561 30.5547 20.9839 30.5547 22.4986C30.5547 22.6729 30.5712 22.8436 30.6041 23.0089C31.106 23.7027 31.9248 24.1549 32.8516 24.1549C34.3773 24.1549 35.6173 22.9272 35.6173 21.4125Z" fill="#FFE266"/>
<path d="M33.321 25.3209C31.7513 25.3209 30.4746 24.055 30.4746 22.4985C30.4746 20.942 31.7513 19.6761 33.321 19.6761C34.8907 19.6761 36.1673 20.942 36.1673 22.4985C36.1673 24.055 34.8907 25.3209 33.321 25.3209ZM33.321 19.836C31.8392 19.836 30.6358 21.031 30.6358 22.4985C30.6358 23.966 31.841 25.1611 33.321 25.1611C34.8009 25.1611 36.0062 23.966 36.0062 22.4985C36.0062 21.031 34.8009 19.836 33.321 19.836Z" fill="#FCAB28"/>
<path d="M31.4086 20.2174L31.6522 19.6072L31.8811 20.2247L32.3079 20.4662L31.872 20.6933L31.6284 21.4688L31.3994 20.6842L30.9727 20.4426L31.4086 20.2174Z" fill="white"/>
</g>
</g>
</g>
<defs>
<linearGradient id="paint0_linear_668_55679" x1="19.3728" y1="9.58194" x2="16.4809" y2="9.67783" gradientUnits="userSpaceOnUse">
<stop offset="0.328226" stop-color="#FF893D"/>
<stop offset="0.750401" stop-color="#F5AD16"/>
</linearGradient>
<linearGradient id="paint1_linear_668_55679" x1="19.3728" y1="9.58194" x2="16.4809" y2="9.67783" gradientUnits="userSpaceOnUse">
<stop offset="0.328226" stop-color="#FF893D"/>
<stop offset="0.750401" stop-color="#F5AD16"/>
</linearGradient>
<linearGradient id="paint2_linear_668_55679" x1="16.1547" y1="8.15209" x2="14.6111" y2="5.70558" gradientUnits="userSpaceOnUse">
<stop offset="0.328226" stop-color="#FF893D"/>
<stop offset="0.750401" stop-color="#F5AD16"/>
</linearGradient>
<linearGradient id="paint3_linear_668_55679" x1="2.64622" y1="3.36319" x2="-0.24562" y2="3.45908" gradientUnits="userSpaceOnUse">
<stop offset="0.328226" stop-color="#FF893D"/>
<stop offset="0.750401" stop-color="#F5AD16"/>
</linearGradient>
<linearGradient id="paint4_linear_668_55679" x1="2.64622" y1="3.36319" x2="-0.24562" y2="3.45908" gradientUnits="userSpaceOnUse">
<stop offset="0.328226" stop-color="#FF893D"/>
<stop offset="0.750401" stop-color="#F5AD16"/>
</linearGradient>
<linearGradient id="paint5_linear_668_55679" x1="29.5058" y1="7.19202" x2="30.6542" y2="4.53694" gradientUnits="userSpaceOnUse">
<stop offset="0.328226" stop-color="#FF893D"/>
<stop offset="0.750401" stop-color="#F5AD16"/>
</linearGradient>
<clipPath id="clip0_668_55679">
<path d="M0.730469 0.100586H39.886C41.9787 0.100586 43.6752 1.79709 43.6752 3.88983V25.3622C43.6752 28.1525 41.4132 30.4145 38.6229 30.4145H0.730469V0.100586Z" fill="white"/>
</clipPath>
<clipPath id="clip1_668_55679">
<rect width="30.3139" height="30.3139" fill="white" transform="translate(9.57227 0.100586)"/>
</clipPath>
<clipPath id="clip2_668_55679">
<rect width="9.60329" height="13.3055" fill="white" transform="translate(28.5176 17.7837)"/>
</clipPath>
</defs>
</svg>
