<svg width="24" height="24" viewBox="0 0 24 24" fill="none" xmlns="http://www.w3.org/2000/svg">
<path fill-rule="evenodd" clip-rule="evenodd" d="M20 8.36364C20 11.5695 17.0201 14.2216 13.1429 14.6628L13.1429 17.4545H15.4286C16.0597 17.4545 16.5714 17.8616 16.5714 18.3636C16.5714 18.8656 16.0597 19.2727 15.4286 19.2727H13.1429V21.0909C13.1429 21.5929 12.6311 22 12 22C11.3689 22 10.8571 21.5929 10.8571 21.0909V19.2727H8.57143C7.94029 19.2727 7.42857 18.8656 7.42857 18.3636C7.42857 17.8616 7.94029 17.4545 8.57143 17.4545H10.8571V14.6628C6.97991 14.2216 4 11.5695 4 8.36364C4 4.84912 7.58147 2 12 2C16.4185 2 20 4.84912 20 8.36364ZM17.7143 8.36364C17.7143 5.85321 15.1557 3.81818 12 3.81818C8.84431 3.81818 6.28571 5.85321 6.28571 8.36364C6.28571 10.8741 8.84431 12.9091 12 12.9091C15.1557 12.9091 17.7143 10.8741 17.7143 8.36364Z" fill="#FF7D7D"/>
</svg>
