<svg width="121" height="120" viewBox="0 0 121 120" fill="none" xmlns="http://www.w3.org/2000/svg">
<circle cx="60.5" cy="60" r="60" fill="#BFBFBF" fill-opacity="0.3"/>
<circle cx="60.4994" cy="59.9999" r="50.1923" fill="white"/>
<path d="M71.9924 41.4005C72.2346 40.6075 71.7893 39.7677 70.9963 39.5255C67.6057 38.4943 64.0822 37.9669 60.5393 37.963C53.7971 37.8653 47.1803 39.8185 41.5703 43.5646C35.9609 47.3107 31.625 52.6701 29.1323 58.9396C29.0073 59.2755 29.0073 59.6505 29.1323 59.9865C31.0698 65.1271 34.3315 69.6623 38.5854 73.1425C39.226 73.6659 40.1713 73.5761 40.6948 72.9354C41.2222 72.2948 41.1323 71.3495 40.4917 70.826C36.7964 67.8026 33.9253 63.8924 32.144 59.463C34.4995 53.9005 38.4565 49.17 43.515 45.873C48.5736 42.58 54.503 40.8691 60.538 40.9628C63.7841 40.9667 67.0146 41.4511 70.12 42.4003C70.913 42.6347 71.7489 42.1894 71.9911 41.4003L71.9924 41.4005Z" fill="#343639"/>
<path d="M60.5397 46.9626C61.9655 46.9548 63.3795 47.2008 64.7194 47.6891C65.4928 47.9626 66.3405 47.5641 66.6256 46.7985C66.9107 46.029 66.5279 45.1735 65.7623 44.8766C64.0904 44.2633 62.3209 43.9547 60.5396 43.9625C56.4302 43.9665 52.4888 45.6031 49.5866 48.5094C46.6804 51.4117 45.0436 55.3532 45.0397 59.4624C45.0319 61.2436 45.3405 63.0093 45.9538 64.6812C46.1725 65.2711 46.7311 65.6617 47.36 65.6617C47.5357 65.6617 47.7115 65.6305 47.8795 65.568C48.2545 65.4312 48.5553 65.15 48.7232 64.7867C48.8873 64.4273 48.9029 64.0133 48.7662 63.6422C48.2779 62.3024 48.0318 60.8883 48.0396 59.4625C48.0475 52.5641 53.6413 46.9706 60.5397 46.9626Z" fill="#343639"/>
<path d="M89.4805 28.4036L29.4805 88.4036C29.1798 88.6809 29.0079 89.0676 29.0001 89.4739C28.9962 89.8801 29.1524 90.2707 29.4415 90.5598C29.7305 90.8488 30.1212 91.0051 30.5274 91.0012C30.9336 90.9934 31.3204 90.8215 31.5977 90.5207L44.9027 77.2237C46.5668 78.0909 48.2972 78.8175 50.0824 79.3995C53.473 80.4307 56.9965 80.9581 60.5394 80.962C67.2816 81.0597 73.8984 79.1065 79.5084 75.3604C85.1178 71.6143 89.4537 66.2549 91.9464 59.9854C92.0714 59.6495 92.0714 59.2745 91.9464 58.9385C90.0089 53.8057 86.755 49.2705 82.5089 45.7975C81.3683 44.8522 80.1612 43.9928 78.8956 43.2272L91.5986 30.5202C92.1494 29.9304 92.1337 29.0085 91.5634 28.4382C90.9931 27.8679 90.0712 27.8523 89.4814 28.403L89.4805 28.4036ZM72.3165 55.2866H72.3126C72.8009 56.6225 73.047 58.0366 73.0392 59.4624C73.0314 66.3608 67.4376 71.9544 60.5392 71.9624C59.1056 71.9702 57.6837 71.7202 56.34 71.228C55.0705 70.7788 53.883 70.1264 52.8283 69.2944L70.3713 51.7514C71.2072 52.8139 71.8635 54.0092 72.3127 55.2826L72.3165 55.2866ZM80.5899 48.103H80.586C84.2813 51.1225 87.1524 55.0327 88.9337 59.462C86.5782 65.0245 82.6212 69.755 77.5627 73.052C72.5041 76.345 66.5747 78.0559 60.5397 77.9622C57.2975 77.9583 54.0749 77.4778 50.9733 76.5325C49.6608 76.1028 48.3795 75.5872 47.1374 74.9856L50.696 71.427C52.071 72.5637 53.6374 73.4504 55.3171 74.0481C56.989 74.6614 58.7585 74.9699 60.5398 74.9621C64.6492 74.9582 68.5906 73.3215 71.4928 70.4152C74.399 67.5129 76.0358 63.5714 76.0397 59.4622C76.0475 57.6888 75.7429 55.927 75.1335 54.263C74.5358 52.5716 73.6452 51.0013 72.5046 49.6185L76.7155 45.4076C78.0827 46.1928 79.3757 47.0912 80.5866 48.099L80.5899 48.103Z" fill="#343639"/>
</svg>
