<svg width="28" height="28" viewBox="0 0 28 28" fill="none" xmlns="http://www.w3.org/2000/svg">
<path d="M14 0C6.28071 0 0 6.28071 0 14C0 21.7193 6.28039 28 14 28C21.7196 28 28 21.7193 28 14C28 6.28071 21.7193 0 14 0ZM14 26.25C7.24554 26.25 1.75004 20.7548 1.75004 14C1.75004 7.24522 7.24554 1.75004 14 1.75004C20.7545 1.75004 26.25 7.24522 26.25 14C26.25 20.7548 20.7545 26.25 14 26.25ZM17.5905 14.1738C17.0247 13.6741 16.1908 13.3046 15.0492 13.049V9.21401C15.3478 9.28137 15.6144 9.3808 15.845 9.51263C16.2328 9.73331 16.5506 10.0281 16.8175 10.4136C16.908 10.5445 17.0481 10.6327 17.205 10.6584C17.3628 10.6824 17.5235 10.6443 17.6505 10.5487L18.2106 10.1285C18.4607 9.94052 18.5194 9.58865 18.3427 9.33013C17.9427 8.74443 17.4234 8.26875 16.7989 7.91688C16.3072 7.63975 15.7269 7.45403 15.0672 7.36229V6.45808C15.0672 6.13476 14.8051 5.87271 14.4815 5.87271H13.8861C13.5625 5.87271 13.3004 6.13476 13.3004 6.45808V7.34818C12.3491 7.45403 11.5488 7.75073 10.9153 8.23218C10.1064 8.84835 9.69579 9.74679 9.69579 10.9031C9.69579 11.9895 10.0512 12.8405 10.752 13.4323C11.3239 13.9156 12.1601 14.2903 13.3008 14.5719V18.8004C12.8905 18.7215 12.5335 18.5887 12.2362 18.4033C11.7724 18.115 11.3525 17.7313 10.9887 17.2634C10.8919 17.1392 10.7495 17.059 10.5933 17.0411C10.4371 17.0244 10.2799 17.0693 10.1574 17.1684L9.59731 17.6232C9.3529 17.8221 9.30896 18.1788 9.49948 18.4306C9.97452 19.0599 10.5602 19.5863 11.2393 19.9962C11.8096 20.341 12.5018 20.5604 13.3008 20.6509V21.5426C13.3008 21.8659 13.5628 22.1279 13.8865 22.1279H14.4811C14.8048 22.1279 15.0668 21.8659 15.0668 21.5426V20.6396C16.0313 20.5059 16.8339 20.1607 17.4577 19.6106C18.2285 18.9319 18.6192 17.9802 18.6192 16.7825C18.6192 15.6554 18.2728 14.7782 17.5905 14.1738ZM13.3004 12.6538C12.9745 12.5592 12.6939 12.4572 12.462 12.3494C12.1457 12.2022 11.9202 12.0174 11.7897 11.7999C11.6537 11.5728 11.5847 11.2595 11.5847 10.8678C11.5847 10.3017 11.7557 9.90716 12.1229 9.62714C12.4196 9.40133 12.8145 9.25058 13.3004 9.17648V12.6538ZM16.1738 18.2625C15.8912 18.5153 15.514 18.6926 15.0492 18.7921V14.9251C15.7173 15.1105 16.0762 15.3263 16.2671 15.4918C16.5792 15.7632 16.7309 16.1968 16.7309 16.8175C16.7309 17.4539 16.5484 17.9264 16.1738 18.2625Z" fill="#FF9900"/>
</svg>
