<svg width="30" height="30" viewBox="0 0 30 30" fill="none" xmlns="http://www.w3.org/2000/svg">
<path d="M11.6158 10.5051C8.71177 10.5051 6.36328 12.8535 6.36328 15.7576C6.36328 18.3586 8.25722 20.505 10.732 20.9343V22.9798H9.04005C8.56025 22.9798 8.15621 23.3838 8.15621 23.8636C8.15621 24.3434 8.56025 24.7475 9.04005 24.7475H10.732V26.6162C10.732 27.096 11.136 27.5 11.6158 27.5C12.0956 27.5 12.4744 27.096 12.4744 26.6162V24.7222H14.3431C14.8229 24.7222 15.2269 24.3182 15.2269 23.8384C15.2269 23.3586 14.8229 22.9545 14.3431 22.9545H12.4744V20.9091C14.6461 20.5303 16.3885 18.8384 16.7673 16.6414C16.3128 16.7677 15.8077 16.8182 15.3279 16.8182C15.2017 16.8182 15.0754 16.8182 14.9491 16.7929C14.4946 18.2071 13.1815 19.2172 11.6158 19.2172C9.69661 19.2172 8.10571 17.6515 8.10571 15.7071C8.10571 13.7626 9.67136 12.197 11.6158 12.197C12.5501 12.197 13.4087 12.5758 14.04 13.1818C14.4188 13.3838 14.8734 13.5101 15.3279 13.5101C15.6562 13.5101 15.9845 13.4343 16.2875 13.3333C15.4289 11.6667 13.636 10.5051 11.6158 10.5051ZM23.636 6.66667V3.38384C23.636 2.90404 23.232 2.5 22.7522 2.5H19.4693C18.9895 2.5 18.5855 2.90404 18.5855 3.38384C18.5855 3.63636 18.6865 3.83838 18.838 4.01515C18.9895 4.16667 19.2168 4.26768 19.4441 4.26768H20.6057L18.3077 6.56566C17.4491 5.9596 16.4138 5.58081 15.2774 5.58081C12.7017 5.58081 10.5552 7.44949 10.1007 9.92424C10.5552 9.79798 11.0603 9.74747 11.54 9.74747C11.6663 9.74747 11.7926 9.74747 11.9188 9.77273C12.3734 8.35859 13.6865 7.34848 15.2522 7.34848C17.1714 7.34848 18.7623 8.91414 18.7623 10.8586C18.7623 12.803 17.1966 14.3687 15.2522 14.3687C14.3178 14.3687 13.4592 13.9899 12.8279 13.3838C12.4491 13.1818 11.9946 13.0556 11.54 13.0556C11.2118 13.0556 10.8835 13.1313 10.5805 13.2323C11.439 14.9495 13.232 16.1111 15.2522 16.1111C18.1562 16.1111 20.5047 13.7626 20.5047 10.8586C20.5047 9.72222 20.1512 8.68687 19.5198 7.82828L21.8178 5.5303V6.66667C21.8178 7.14646 22.2219 7.5505 22.7017 7.5505C23.2572 7.52525 23.636 7.14646 23.636 6.66667Z" fill="#9175FA"/>
</svg>
