<svg width="24" height="24" viewBox="0 0 24 24" fill="none" xmlns="http://www.w3.org/2000/svg">
<rect width="24" height="24" rx="12" fill="#FF9900"/>
<path d="M11.75 16.875C8.925 16.875 6.625 14.575 6.625 11.75C6.625 8.925 8.925 6.625 11.75 6.625C14.575 6.625 16.875 8.925 16.875 11.75C16.875 14.575 14.575 16.875 11.75 16.875ZM11.75 7.375C9.335 7.375 7.375 9.34 7.375 11.75C7.375 14.16 9.335 16.125 11.75 16.125C14.165 16.125 16.125 14.16 16.125 11.75C16.125 9.34 14.165 7.375 11.75 7.375Z" fill="white"/>
<path d="M16.9997 17.3747C16.9047 17.3747 16.8097 17.3397 16.7347 17.2647L15.7347 16.2647C15.5897 16.1197 15.5897 15.8797 15.7347 15.7347C15.8797 15.5897 16.1197 15.5897 16.2647 15.7347L17.2647 16.7347C17.4097 16.8797 17.4097 17.1197 17.2647 17.2647C17.1897 17.3397 17.0947 17.3747 16.9997 17.3747Z" fill="white"/>
</svg>
