<svg width="22" height="22" viewBox="0 0 22 22" fill="none" xmlns="http://www.w3.org/2000/svg">
<path d="M7.87417 12.3841L14.135 16.0324M14.1258 5.96742L7.87417 9.61575M19.25 4.58325C19.25 6.10203 18.0188 7.33325 16.5 7.33325C14.9812 7.33325 13.75 6.10203 13.75 4.58325C13.75 3.06447 14.9812 1.83325 16.5 1.83325C18.0188 1.83325 19.25 3.06447 19.25 4.58325ZM8.25 10.9999C8.25 12.5187 7.01878 13.7499 5.5 13.7499C3.98122 13.7499 2.75 12.5187 2.75 10.9999C2.75 9.48114 3.98122 8.24992 5.5 8.24992C7.01878 8.24992 8.25 9.48114 8.25 10.9999ZM19.25 17.4166C19.25 18.9354 18.0188 20.1666 16.5 20.1666C14.9812 20.1666 13.75 18.9354 13.75 17.4166C13.75 15.8978 14.9812 14.6666 16.5 14.6666C18.0188 14.6666 19.25 15.8978 19.25 17.4166Z" stroke="#1E1E1E" stroke-width="1.5" stroke-linecap="round" stroke-linejoin="round"/>
</svg>
