<svg xmlns="http://www.w3.org/2000/svg" width="16" height="16" viewBox="0 0 16 16" fill="none">
  <path d="M1.4185 1.70078C2.84597 1.59729 5.10063 1.2544 7.23003 0.173842C7.68694 -0.0580157 8.24735 -0.0576387 8.70493 0.173121C10.8705 1.26525 13.1678 1.60421 14.5692 1.70563C15.3613 1.76295 15.975 2.35577 15.9937 3.07858C16.0724 6.11422 15.5117 13.4582 8.56581 15.9072C8.18405 16.0418 7.75557 16.0285 7.38174 15.8766C1.17622 13.3553 0.267873 8.62163 0.00155658 3.17057C-0.0353802 2.41454 0.589341 1.7609 1.4185 1.70078Z" fill="white"/>
  <path d="M2.04492 2.30162C3.33622 2.20799 5.37583 1.89781 7.30211 0.920322C7.71544 0.71058 8.22239 0.710921 8.63633 0.91967C10.5954 1.90763 12.6735 2.21426 13.9412 2.306C14.6578 2.35785 15.2129 2.89412 15.2299 3.54799C15.3011 6.29407 14.7939 12.9375 8.51048 15.153C8.16514 15.2747 7.77753 15.2627 7.43935 15.1253C1.82574 12.8444 1.00404 8.56232 0.763127 3.63121C0.729713 2.94729 1.29485 2.356 2.04492 2.30162Z" fill="#C9FFD3"/>
  <path d="M8.00041 3.19995C5.08817 3.19995 2.72461 5.35035 2.72461 7.99995C2.72461 10.6496 5.08817 12.8 8.00041 12.8C10.9126 12.8 13.2762 10.6496 13.2762 7.99995C13.2762 5.35035 10.9126 3.19995 8.00041 3.19995ZM8.00041 12.32C5.38361 12.32 3.25219 10.3808 3.25219 7.99995C3.25219 5.61915 5.38361 3.67995 8.00041 3.67995C10.6172 3.67995 12.7486 5.61915 12.7486 7.99995C12.7486 10.3808 10.6172 12.32 8.00041 12.32Z" fill="#44AA56"/>
  <path d="M6.01953 8.33341L7.09953 9.33342L9.97953 6.66675" stroke="#44AA56" stroke-width="1.5" stroke-linecap="round" stroke-linejoin="round"/>
</svg>