<svg width="354" height="8" viewBox="0 0 354 8" fill="none" xmlns="http://www.w3.org/2000/svg">
<g clip-path="url(#clip0_1798_49700)">
<rect width="354" height="7" transform="translate(0 0.5)" fill="#FFDFB0"/>
<path d="M2 2.91443L2 5.08563" stroke="#FF9900" stroke-width="0.5" stroke-linecap="round"/>
<path d="M9 2.91443L9 5.08563" stroke="#FF9900" stroke-width="0.5" stroke-linecap="round"/>
<path d="M16 2.91443L16 5.08563" stroke="#FF9900" stroke-width="0.5" stroke-linecap="round"/>
<path d="M23 2.91443L23 5.08563" stroke="#FF9900" stroke-width="0.5" stroke-linecap="round"/>
<path d="M30 2.91443L30 5.08563" stroke="#FF9900" stroke-width="0.5" stroke-linecap="round"/>
<path d="M37 2.91443L37 5.08563" stroke="#FF9900" stroke-width="0.5" stroke-linecap="round"/>
<path d="M44 2.91443L44 5.08563" stroke="#FF9900" stroke-width="0.5" stroke-linecap="round"/>
<path d="M51 2.91443L51 5.08563" stroke="#FF9900" stroke-width="0.5" stroke-linecap="round"/>
<path d="M58 2.91443L58 5.08563" stroke="#FF9900" stroke-width="0.5" stroke-linecap="round"/>
<path d="M65 2.91443L65 5.08563" stroke="#FF9900" stroke-width="0.5" stroke-linecap="round"/>
<path d="M72 2.91443L72 5.08563" stroke="#FF9900" stroke-width="0.5" stroke-linecap="round"/>
<path d="M79 2.91443L79 5.08563" stroke="#FF9900" stroke-width="0.5" stroke-linecap="round"/>
<path d="M86 2.91443L86 5.08563" stroke="#FF9900" stroke-width="0.5" stroke-linecap="round"/>
<path d="M93 2.91443L93 5.08563" stroke="#FF9900" stroke-width="0.5" stroke-linecap="round"/>
<path d="M100 2.91443L100 5.08563" stroke="#FF9900" stroke-width="0.5" stroke-linecap="round"/>
<path d="M107 2.91443L107 5.08563" stroke="#FF9900" stroke-width="0.5" stroke-linecap="round"/>
<path d="M114 2.91443L114 5.08563" stroke="#FF9900" stroke-width="0.5" stroke-linecap="round"/>
<path d="M121 2.91443L121 5.08563" stroke="#FF9900" stroke-width="0.5" stroke-linecap="round"/>
<path d="M128 2.91443L128 5.08563" stroke="#FF9900" stroke-width="0.5" stroke-linecap="round"/>
<path d="M135 2.91443L135 5.08563" stroke="#FF9900" stroke-width="0.5" stroke-linecap="round"/>
<path d="M142 2.91443L142 5.08563" stroke="#FF9900" stroke-width="0.5" stroke-linecap="round"/>
<path d="M149 2.91443L149 5.08563" stroke="#FF9900" stroke-width="0.5" stroke-linecap="round"/>
<path d="M156 2.91443L156 5.08563" stroke="#FF9900" stroke-width="0.5" stroke-linecap="round"/>
<path d="M163 2.91443L163 5.08563" stroke="#FF9900" stroke-width="0.5" stroke-linecap="round"/>
<path d="M170 2.91443L170 5.08563" stroke="#FF9900" stroke-width="0.5" stroke-linecap="round"/>
<path d="M177 2.91443L177 5.08563" stroke="#FF9900" stroke-width="0.5" stroke-linecap="round"/>
<path d="M184 2.91443L184 5.08563" stroke="#FF9900" stroke-width="0.5" stroke-linecap="round"/>
<path d="M191 2.91443L191 5.08563" stroke="#FF9900" stroke-width="0.5" stroke-linecap="round"/>
<path d="M198 2.91443L198 5.08563" stroke="#FF9900" stroke-width="0.5" stroke-linecap="round"/>
<path d="M205 2.91443L205 5.08563" stroke="#FF9900" stroke-width="0.5" stroke-linecap="round"/>
<path d="M212 2.91443L212 5.08563" stroke="#FF9900" stroke-width="0.5" stroke-linecap="round"/>
<path d="M219 2.91443L219 5.08563" stroke="#FF9900" stroke-width="0.5" stroke-linecap="round"/>
<path d="M226 2.91443L226 5.08563" stroke="#FF9900" stroke-width="0.5" stroke-linecap="round"/>
<path d="M233 2.91443L233 5.08563" stroke="#FF9900" stroke-width="0.5" stroke-linecap="round"/>
<path d="M240 2.91443L240 5.08563" stroke="#FF9900" stroke-width="0.5" stroke-linecap="round"/>
<path d="M247 2.91443L247 5.08563" stroke="#FF9900" stroke-width="0.5" stroke-linecap="round"/>
<path d="M254 2.91443L254 5.08563" stroke="#FF9900" stroke-width="0.5" stroke-linecap="round"/>
<path d="M261 2.91443L261 5.08563" stroke="#FF9900" stroke-width="0.5" stroke-linecap="round"/>
<path d="M268 2.91443L268 5.08563" stroke="#FF9900" stroke-width="0.5" stroke-linecap="round"/>
<path d="M275 2.91443L275 5.08563" stroke="#FF9900" stroke-width="0.5" stroke-linecap="round"/>
<path d="M282 2.91443L282 5.08563" stroke="#FF9900" stroke-width="0.5" stroke-linecap="round"/>
<path d="M289 2.91443L289 5.08563" stroke="#FF9900" stroke-width="0.5" stroke-linecap="round"/>
<path d="M296 2.91443L296 5.08563" stroke="#FF9900" stroke-width="0.5" stroke-linecap="round"/>
<path d="M303 2.91443L303 5.08563" stroke="#FF9900" stroke-width="0.5" stroke-linecap="round"/>
<path d="M310 2.91443L310 5.08563" stroke="#FF9900" stroke-width="0.5" stroke-linecap="round"/>
<path d="M317 2.91443L317 5.08563" stroke="#FF9900" stroke-width="0.5" stroke-linecap="round"/>
<path d="M324 2.91443L324 5.08563" stroke="#FF9900" stroke-width="0.5" stroke-linecap="round"/>
<path d="M331 2.91443L331 5.08563" stroke="#FF9900" stroke-width="0.5" stroke-linecap="round"/>
<path d="M338 2.91443L338 5.08563" stroke="#FF9900" stroke-width="0.5" stroke-linecap="round"/>
<path d="M345 2.91443L345 5.08563" stroke="#FF9900" stroke-width="0.5" stroke-linecap="round"/>
<path d="M352 2.91443L352 5.08563" stroke="#FF9900" stroke-width="0.5" stroke-linecap="round"/>
</g>
<defs>
<clipPath id="clip0_1798_49700">
<rect width="354" height="7" fill="white" transform="translate(0 0.5)"/>
</clipPath>
</defs>
</svg>
