<svg width="43" height="45" viewBox="0 0 43 45" fill="none" xmlns="http://www.w3.org/2000/svg">
<path id="Star 2" d="M20.904 2.47285C23.614 -1.54171 29.878 0.256905 30.0452 5.09763L30.2419 10.7891C30.3167 12.9539 31.777 14.8244 33.859 15.4222L39.3327 16.9939C43.9881 18.3307 44.2132 24.8438 39.6611 26.4988L34.309 28.4446C32.2733 29.1847 30.9456 31.1515 31.0204 33.3164L31.2171 39.0078C31.3843 43.8485 25.2595 46.0753 22.2789 42.2574L18.7744 37.7685C17.4414 36.0611 15.1606 35.4062 13.1249 36.1463L7.77275 38.0921C3.22064 39.747 -0.789789 34.6101 1.92019 30.5955L5.10641 25.8755C6.31835 24.0801 6.2364 21.7085 4.90341 20.0011L1.39896 15.5122C-1.58168 11.6943 2.06456 6.29278 6.72006 7.62955L12.1937 9.20125C14.2757 9.79908 16.5059 8.98828 17.7178 7.19292L20.904 2.47285Z" fill="#FF9900"/>
</svg>
