<svg width="50" height="50" viewBox="0 0 50 50" fill="none" xmlns="http://www.w3.org/2000/svg">
<rect x="0.5" y="0.5" width="49" height="49" rx="7.5" fill="#FCECE9"/>
<rect x="0.5" y="0.5" width="49" height="49" rx="7.5" stroke="#EC3220"/>
<g clip-path="url(#clip0_2584_2080)">
<path d="M31.965 26.7812L31.1934 25.4176C32.1742 20.8356 29.0135 16.3225 24.2957 15.7394C18.8156 15.0645 14.2791 19.8669 15.3435 25.2248C16.0268 28.6635 19.0294 31.354 22.5805 31.6111L21.9623 32.7267C17.9325 32.1896 14.6835 28.9895 14.1024 25.0136C13.1403 18.4757 19.2432 13.0995 25.718 14.8258C30.6728 16.148 33.5872 21.235 32.2067 26.143C32.1602 26.3129 32.0998 26.5516 32.0301 26.7031C32.0161 26.7352 32.0068 26.7766 31.965 26.7766V26.7812Z" fill="#EC3220"/>
<path d="M28.5811 24.2514C29.2132 24.2009 29.864 24.5131 30.2219 25.0273L34.8095 32.8553C35.3719 34.0444 34.6143 35.3575 33.3128 35.4998H24.0818C22.943 35.3758 22.19 34.3107 22.4689 33.2042C22.534 32.9471 22.7199 32.6578 22.85 32.4191C24.1189 30.1235 25.5366 27.7178 26.9078 25.4773C27.3261 24.7932 27.698 24.3203 28.5811 24.2514ZM28.5486 25.4405C28.3952 25.4681 28.2464 25.5737 28.1581 25.6976L23.6774 33.3557C23.4543 33.8148 23.7517 34.3153 24.2677 34.3382H33.192C33.6243 34.2969 33.9264 33.8561 33.7776 33.4521L29.2225 25.6517C29.0506 25.4543 28.8042 25.3992 28.5486 25.4451V25.4405Z" fill="#EC3220"/>
<path d="M23.6869 17.4884C23.8031 17.6032 23.8728 17.7869 23.8867 17.9522V22.5709C24.0262 22.7316 24.1889 22.805 24.3144 23.0024C25.0209 24.1227 23.6636 25.4128 22.576 24.6599C22.4551 24.5772 22.2134 24.2512 22.1344 24.2375L17.7885 24.2145C17.2307 23.9941 17.2632 23.2595 17.8442 23.0851L22.167 23.0713C22.2832 22.9887 22.3436 22.8555 22.4598 22.7499C22.5202 22.6948 22.5992 22.6627 22.6596 22.6122L22.6829 17.8328C22.7573 17.3737 23.3383 17.1441 23.6869 17.4839V17.4884Z" fill="#EC3220"/>
<path d="M28.3208 31.2942C28.2046 31.1932 28.1395 31.0095 28.1256 30.8626C28.0279 29.8939 28.0512 28.8746 27.9722 27.8967C28.1581 27.0382 29.3526 27.0933 29.4503 27.9656C29.3573 28.8746 29.3852 29.8021 29.3015 30.7111C29.2783 30.982 29.2457 31.2299 28.9762 31.3722C28.7716 31.4778 28.4974 31.4549 28.3208 31.2988V31.2942Z" fill="#EC3220"/>
<path d="M29.2926 33.2546C28.6651 33.9066 27.5402 33.1307 27.9911 32.2905C28.5489 31.2529 30.1664 32.3502 29.2926 33.2546Z" fill="#EC3220"/>
</g>
<defs>
<clipPath id="clip0_2584_2080">
<rect width="21" height="21" fill="white" transform="translate(14 14.5)"/>
</clipPath>
</defs>
</svg>
