<svg width="50" height="50" viewBox="0 0 50 50" fill="none" xmlns="http://www.w3.org/2000/svg">
<rect x="0.5" y="0.5" width="49" height="49" rx="7.5" fill="#F5EBFF" stroke="#8B36A1"/>
<path d="M39.1133 22.8544L27.1455 10.8867C25.9619 9.70443 24.0381 9.70443 22.8545 10.8867L10.8867 22.8544C9.70443 24.0373 9.70443 25.9624 10.8867 27.1453L22.8545 39.113C23.4463 39.7041 24.2228 40 25 40C25.7772 40 26.5537 39.7041 27.1455 39.113L39.1133 27.1453C40.2956 25.9624 40.2956 24.0373 39.1133 22.8544ZM38.2094 26.2414L26.2416 38.2091C25.5574 38.8932 24.4426 38.8932 23.7584 38.2091L11.7906 26.2414C11.1065 25.5567 11.1065 24.443 11.7906 23.7583L23.7584 11.7906C24.4426 11.1064 25.5574 11.1064 26.2416 11.7906L38.2094 23.7583C38.8935 24.443 38.8935 25.5567 38.2094 26.2414ZM13.7925 24.6272L13.4192 24.9998L13.7925 25.3725C13.8362 25.4162 13.8362 25.4874 13.7925 25.5311C13.7707 25.5529 13.742 25.5635 13.7132 25.5635C13.6845 25.5635 13.6558 25.5529 13.634 25.5311L13.182 25.0791C13.1383 25.0354 13.1383 24.9643 13.182 24.9206L13.634 24.4686C13.6777 24.4249 13.7488 24.4249 13.7925 24.4686C13.8362 24.5123 13.8362 24.5835 13.7925 24.6272ZM16.1478 22.1134C16.1915 22.1571 16.1915 22.2283 16.1478 22.272L15.2058 23.2139C15.1839 23.2358 15.1552 23.2464 15.1265 23.2464C15.0978 23.2464 15.0691 23.2358 15.0472 23.2139C15.0035 23.1702 15.0035 23.0991 15.0472 23.0554L15.9892 22.1134C16.0329 22.0697 16.1041 22.0697 16.1478 22.1134ZM17.4025 20.8587C17.3588 20.815 17.3588 20.7439 17.4025 20.7002L18.3451 19.7576C18.3888 19.7139 18.4599 19.7139 18.5036 19.7576C18.5473 19.8013 18.5473 19.8724 18.5036 19.9161L17.561 20.8587C17.5392 20.8806 17.5105 20.8912 17.4817 20.8912C17.453 20.8912 17.4243 20.8806 17.4025 20.8587ZM22.1135 16.1477C22.0699 16.104 22.0699 16.0328 22.1135 15.9891L23.0555 15.0472C23.0992 15.0035 23.1704 15.0035 23.2141 15.0472C23.2578 15.0909 23.2578 15.162 23.2141 15.2057L22.2721 16.1477C22.2503 16.1695 22.2215 16.1802 22.1928 16.1802C22.1641 16.1802 22.1354 16.1695 22.1135 16.1477ZM19.7577 18.5035C19.714 18.4598 19.714 18.3887 19.7577 18.345L20.7003 17.4024C20.744 17.3587 20.8151 17.3587 20.8588 17.4024C20.9025 17.4461 20.9025 17.5172 20.8588 17.5609L19.9162 18.5035C19.8944 18.5254 19.8657 18.536 19.837 18.536C19.8083 18.536 19.7795 18.5254 19.7577 18.5035ZM24.4688 13.7925C24.4251 13.7488 24.4251 13.6776 24.4688 13.6339L24.9207 13.182C24.9644 13.1383 25.0356 13.1383 25.0793 13.182L25.5312 13.6339C25.5749 13.6776 25.5749 13.7488 25.5312 13.7925C25.5094 13.8143 25.4807 13.8249 25.4519 13.8249C25.4232 13.8249 25.3945 13.8143 25.3727 13.7925L25 13.4192L24.6273 13.7925C24.5836 13.8362 24.5125 13.8362 24.4688 13.7925ZM26.7859 15.2057C26.7422 15.162 26.7422 15.0909 26.7859 15.0472C26.8296 15.0035 26.9008 15.0035 26.9445 15.0472L27.8865 15.9891C27.9301 16.0328 27.9301 16.104 27.8865 16.1477C27.8646 16.1695 27.8359 16.1802 27.8072 16.1802C27.7785 16.1802 27.7497 16.1695 27.7279 16.1477L26.7859 15.2057ZM29.1412 17.5609C29.0975 17.5172 29.0975 17.4461 29.1412 17.4024C29.1849 17.3587 29.256 17.3587 29.2997 17.4024L30.2423 18.345C30.286 18.3887 30.286 18.4598 30.2423 18.5035C30.2205 18.5254 30.1917 18.536 30.163 18.536C30.1343 18.536 30.1056 18.5254 30.0837 18.5035L29.1412 17.5609ZM34.9528 23.0554C34.9965 23.0991 34.9965 23.1702 34.9528 23.2139C34.9309 23.2358 34.9022 23.2464 34.8735 23.2464C34.8448 23.2464 34.8161 23.2358 34.7942 23.2139L33.8522 22.272C33.8085 22.2283 33.8085 22.1571 33.8522 22.1134C33.8959 22.0697 33.9671 22.0697 34.0108 22.1134L34.9528 23.0554ZM32.5975 20.7002C32.6412 20.7439 32.6412 20.815 32.5975 20.8587C32.5757 20.8806 32.547 20.8912 32.5183 20.8912C32.4895 20.8912 32.4608 20.8806 32.439 20.8587L31.4964 19.9161C31.4527 19.8724 31.4527 19.8013 31.4964 19.7576C31.5401 19.7139 31.6112 19.7139 31.6549 19.7576L32.5975 20.7002ZM36.818 24.9206C36.8617 24.9643 36.8617 25.0354 36.818 25.0791L36.366 25.5311C36.3442 25.5529 36.3155 25.5635 36.2868 25.5635C36.258 25.5635 36.2293 25.5529 36.2075 25.5311C36.1638 25.4874 36.1638 25.4162 36.2075 25.3725L36.5808 24.9998L36.2075 24.6272C36.1638 24.5835 36.1638 24.5123 36.2075 24.4686C36.2512 24.4249 36.3223 24.4249 36.366 24.4686L36.818 24.9206ZM30.2423 31.4962C30.286 31.5399 30.286 31.611 30.2423 31.6547L29.2997 32.5973C29.2779 32.6192 29.2492 32.6298 29.2204 32.6298C29.1917 32.6298 29.163 32.6192 29.1412 32.5973C29.0975 32.5536 29.0975 32.4824 29.1412 32.4387L30.0837 31.4962C30.1274 31.4525 30.1986 31.4525 30.2423 31.4962ZM27.8865 33.852C27.9301 33.8957 27.9301 33.9669 27.8865 34.0105L26.9445 34.9525C26.9226 34.9744 26.8939 34.985 26.8652 34.985C26.8365 34.985 26.8078 34.9744 26.7859 34.9525C26.7422 34.9088 26.7422 34.8377 26.7859 34.794L27.7279 33.852C27.7716 33.8083 27.8428 33.8083 27.8865 33.852ZM34.9528 26.7858C34.9965 26.8295 34.9965 26.9006 34.9528 26.9443L34.0108 27.8863C33.9889 27.9081 33.9602 27.9187 33.9315 27.9187C33.9028 27.9187 33.8741 27.9081 33.8522 27.8863C33.8085 27.8426 33.8085 27.7714 33.8522 27.7277L34.7942 26.7858C34.8379 26.7421 34.9091 26.7421 34.9528 26.7858ZM32.5975 29.141C32.6412 29.1847 32.6412 29.2558 32.5975 29.2995L31.6549 30.2421C31.6331 30.2639 31.6044 30.2746 31.5757 30.2746C31.547 30.2746 31.5182 30.2639 31.4964 30.2421C31.4527 30.1984 31.4527 30.1272 31.4964 30.0835L32.439 29.141C32.4827 29.0973 32.5538 29.0973 32.5975 29.141ZM25.5312 36.2072C25.5749 36.2509 25.5749 36.3221 25.5312 36.3658L25.0793 36.8177C25.0574 36.8395 25.0287 36.8502 25 36.8502C24.9713 36.8502 24.9426 36.8395 24.9207 36.8177L24.4688 36.3658C24.4251 36.3221 24.4251 36.2509 24.4688 36.2072C24.5125 36.1635 24.5836 36.1635 24.6273 36.2072L25 36.5805L25.3727 36.2072C25.4164 36.1635 25.4875 36.1635 25.5312 36.2072ZM23.2141 34.794C23.2578 34.8377 23.2578 34.9088 23.2141 34.9525C23.1922 34.9744 23.1635 34.985 23.1348 34.985C23.1061 34.985 23.0774 34.9744 23.0555 34.9525L22.1135 34.0105C22.0699 33.9669 22.0699 33.8957 22.1135 33.852C22.1572 33.8083 22.2284 33.8083 22.2721 33.852L23.2141 34.794ZM16.1478 27.7277C16.1915 27.7714 16.1915 27.8426 16.1478 27.8863C16.1259 27.9081 16.0972 27.9187 16.0685 27.9187C16.0398 27.9187 16.011 27.9081 15.9892 27.8863L15.0472 26.9443C15.0035 26.9006 15.0035 26.8295 15.0472 26.7858C15.0909 26.7421 15.1621 26.7421 15.2058 26.7858L16.1478 27.7277ZM20.8588 32.4387C20.9025 32.4824 20.9025 32.5536 20.8588 32.5973C20.837 32.6192 20.8083 32.6298 20.7796 32.6298C20.7508 32.6298 20.7221 32.6192 20.7003 32.5973L19.7577 31.6547C19.714 31.611 19.714 31.5399 19.7577 31.4962C19.8014 31.4525 19.8726 31.4525 19.9162 31.4962L20.8588 32.4387ZM18.5036 30.0835C18.5473 30.1272 18.5473 30.1984 18.5036 30.2421C18.4818 30.2639 18.453 30.2746 18.4243 30.2746C18.3956 30.2746 18.3669 30.2639 18.3451 30.2421L17.4025 29.2995C17.3588 29.2558 17.3588 29.1847 17.4025 29.141C17.4462 29.0973 17.5173 29.0973 17.561 29.141L18.5036 30.0835ZM27.6798 26.0311C27.4489 25.7995 27.1417 25.6721 26.8153 25.6721H26.814C26.4875 25.6721 26.1798 25.7989 25.9488 26.0304L25.9101 26.0691L25.2117 25.3706L26.0599 24.5223C27.1917 24.752 28.3621 24.41 29.1861 23.586C30.2348 22.5366 30.5014 20.9411 29.8497 19.6159C29.7585 19.4311 29.5837 19.3013 29.3802 19.2676C29.1799 19.2351 28.9707 19.3 28.824 19.4461L27.3577 20.9124C27.2466 21.0229 27.0662 21.0235 26.9551 20.9124C26.8827 20.84 26.8721 20.7551 26.8721 20.7114C26.8721 20.6671 26.8827 20.5828 26.9551 20.5104L28.422 19.0435C28.5675 18.898 28.6343 18.6908 28.6006 18.4873C28.5675 18.2844 28.4376 18.1096 28.2529 18.0185C26.9295 17.3637 25.3327 17.6309 24.2815 18.6821C23.4569 19.5067 23.1154 20.6758 23.347 21.8113L22.4998 22.6585L20.5411 20.6995L19.5728 20.2282L19.1655 20.6356L19.637 21.6037L21.5959 23.5624L18.9181 26.2402C18.556 26.6022 18.3563 27.0841 18.3563 27.5966C18.3563 28.1085 18.556 28.5904 18.9181 28.9524C19.292 29.3264 19.7827 29.513 20.2739 29.513C20.7652 29.513 21.2559 29.3264 21.6298 28.9524L24.3078 26.2745L25.0062 26.973L24.9682 27.0111C24.7366 27.2421 24.6092 27.5492 24.6092 27.8757C24.6086 28.2027 24.7359 28.5105 24.9675 28.7421L27.2947 31.0692C27.5331 31.3076 27.8465 31.4275 28.1605 31.4275C28.4739 31.4275 28.7872 31.3076 29.0257 31.0692L30.007 30.0885C30.4845 29.6116 30.4845 28.8345 30.007 28.3576L27.6798 26.0311ZM24.51 22.4561C24.6798 22.2863 24.7403 22.0354 24.666 21.8063C24.4082 21.0148 24.6074 20.164 25.1854 19.5859C25.603 19.1689 26.1555 18.9467 26.7154 18.9424L26.0518 19.6059C25.7559 19.9012 25.5936 20.2938 25.5936 20.7114C25.5936 21.1284 25.7559 21.521 26.0512 21.8163C26.6611 22.4262 27.653 22.4255 28.2616 21.8163L28.9246 21.1534C28.9196 21.7133 28.698 22.2657 28.2822 22.6821C27.7036 23.2589 26.8533 23.458 26.0631 23.2039C25.8334 23.129 25.5843 23.1908 25.4145 23.36L24.3078 24.4666L23.4038 23.5625L24.51 22.4561ZM20.7259 28.0486C20.4762 28.2983 20.0717 28.2983 19.822 28.0486C19.7015 27.9275 19.6347 27.767 19.6347 27.5966C19.6347 27.4256 19.7009 27.2658 19.822 27.1447L22.4999 24.4664L23.404 25.3705L20.7259 28.0486ZM28.1605 30.1266L25.9101 27.8769L26.814 26.973L29.0644 29.2227L28.1605 30.1266Z" fill="#8B36A1"/>
</svg>
