<svg width="84" height="120" viewBox="0 0 84 120" fill="none" xmlns="http://www.w3.org/2000/svg">
<path fill-rule="evenodd" clip-rule="evenodd" d="M21.1899 5.62066C34.2991 -1.99637 50.4125 -1.86323 63.3987 5.9694C76.2572 13.9616 84.0723 28.2252 83.9995 43.5689C83.7002 58.812 75.3202 73.1404 64.8452 84.2171C58.7993 90.639 52.036 96.3176 44.6933 101.137C43.9371 101.574 43.1087 101.867 42.2492 102.001C41.4218 101.965 40.6161 101.721 39.9047 101.289C28.6947 94.048 18.8601 84.8047 10.874 74.0042C4.19155 64.9886 0.395009 54.0964 6.98165e-06 42.8068C-0.00867507 27.4336 8.08064 13.2377 21.1899 5.62066ZM28.7673 49.1697C30.9724 54.6061 36.1774 58.1521 41.952 58.1521C45.735 58.1793 49.3715 56.664 52.0513 53.9439C54.731 51.2238 56.2314 47.5248 56.2179 43.6712C56.2381 37.7891 52.7752 32.4748 47.446 30.2095C42.1168 27.9443 35.9726 29.175 31.8822 33.327C27.7918 37.479 26.5621 43.7333 28.7673 49.1697Z" fill="#FF9900"/>
<ellipse opacity="0.4" cx="41.9972" cy="114" rx="30.0002" ry="6.00004" fill="#FF9900"/>
</svg>
