<svg width="20" height="20" viewBox="0 0 20 20" fill="none" xmlns="http://www.w3.org/2000/svg">
<path id="Vector" d="M18.9521 13.9542L16.9679 12.5215C15.9507 11.7765 14.561 11.884 13.6656 12.7794L12.7487 13.6963C12.3045 14.1404 11.6312 14.2765 11.0868 14.0258C8.77302 12.9656 7.04665 11.2393 5.97216 8.90401C5.72144 8.3596 5.85038 7.68625 6.30167 7.24212L7.21141 6.33238C8.10682 5.43696 8.21428 4.04728 7.47645 3.02292L6.04379 1.04585C5.54952 0.358166 4.79737 0 4.01657 0C3.46499 0 2.89193 0.179083 2.37617 0.544413C0.327456 1.98424 -0.517817 4.62751 0.313129 6.95559C2.53376 13.202 6.78877 17.4785 12.9492 19.6777C13.5653 19.8997 14.2028 20 14.8332 20C16.6312 20 18.379 19.1404 19.4535 17.6146L19.5395 17.4928C20.3418 16.361 20.0767 14.7708 18.9521 13.9542Z" fill="#FF9900"/>
</svg>
