<svg width="24" height="24" viewBox="0 0 24 24" fill="none" xmlns="http://www.w3.org/2000/svg">
<g id="icon/ telephone">
<path id="Vector" d="M20.9516 15.9542L18.9674 14.5215C17.9502 13.7765 16.5605 13.884 15.6651 14.7794L14.7482 15.6963C14.304 16.1404 13.6307 16.2765 13.0863 16.0258C10.7725 14.9656 9.04617 13.2393 7.97167 10.904C7.72095 10.3596 7.84989 9.68625 8.30118 9.24212L9.21092 8.33238C10.1063 7.43696 10.2138 6.04728 9.47596 5.02292L8.0433 3.04585C7.54903 2.35817 6.79688 2 6.01608 2C5.4645 2 4.89144 2.17908 4.37568 2.54441C2.32697 3.98424 1.4817 6.62751 2.31264 8.95559C4.53327 15.202 8.78829 19.4785 14.9487 21.6777C15.5648 21.8997 16.2023 22 16.8327 22C18.6307 22 20.3785 21.1404 21.453 19.6146L21.539 19.4928C22.3413 18.361 22.0763 16.7708 20.9516 15.9542Z" fill="#5B89FF"/>
</g>
</svg>
