<svg width="24" height="25" viewBox="0 0 24 25" fill="none" xmlns="http://www.w3.org/2000/svg">
<g id="icon/ telephone">
<path id="Vector" d="M20.9516 16.5088L18.9674 15.0762C17.9502 14.3312 16.5605 14.4386 15.6651 15.3341L14.7482 16.251C14.304 16.6951 13.6307 16.8312 13.0863 16.5805C10.7725 15.5203 9.04617 13.7939 7.97167 11.4587C7.72095 10.9143 7.84989 10.2409 8.30118 9.79681L9.21092 8.88707C10.1063 7.99165 10.2138 6.60197 9.47596 5.57761L8.0433 3.60053C7.54903 2.91285 6.79688 2.55469 6.01608 2.55469C5.4645 2.55469 4.89144 2.73377 4.37568 3.0991C2.32697 4.53893 1.4817 7.18219 2.31264 9.51027C4.53327 15.7567 8.78829 20.0332 14.9487 22.2323C15.5648 22.4544 16.2023 22.5547 16.8327 22.5547C18.6307 22.5547 20.3785 21.6951 21.453 20.1693L21.539 20.0475C22.3413 18.9157 22.0763 17.3255 20.9516 16.5088Z" fill="#FF9900"/>
</g>
</svg>
