<svg width="49" height="48" viewBox="0 0 49 48" fill="none" xmlns="http://www.w3.org/2000/svg">
<rect x="0.5" width="48" height="48" rx="24" fill="#FFF7EB"/>
<g clip-path="url(#clip0_7110_8353)">
<g filter="url(#filter0_d_7110_8353)">
<path d="M16.4295 15.1824L18.0205 13.2893H30.5991V24.6179L34.6733 26.874C34.8612 31.7657 33.5874 33.0881 30.5991 34.7106H14.1543V18.6695L16.4295 15.1824Z" fill="#FF9900"/>
<path d="M20.1512 21.6722H21.7458C21.929 21.6722 22.0781 21.5236 22.0781 21.34C22.0781 21.1568 21.9295 21.0078 21.7458 21.0078H20.4835V20.2791H21.1593C21.3425 20.2791 21.4915 20.1305 21.4915 19.9468C21.4915 19.7636 21.343 19.6146 21.1593 19.6146H20.4835V18.8859H21.7458C21.929 18.8859 22.0781 18.7373 22.0781 18.5537C22.0781 18.3705 21.9295 18.2214 21.7458 18.2214H20.1512C19.968 18.2214 19.819 18.37 19.819 18.5537V21.3395C19.8195 21.5236 19.968 21.6722 20.1512 21.6722ZM23.1827 21.6722C23.366 21.6722 23.515 21.5236 23.515 21.34V19.8903L24.4565 21.5072C24.4933 21.5703 24.5498 21.6196 24.6173 21.6473C24.6849 21.6751 24.7597 21.6798 24.8302 21.6608C24.9007 21.6418 24.9629 21.6002 25.0073 21.5423C25.0517 21.4843 25.0758 21.4134 25.0758 21.3404V18.5546C25.0758 18.3714 24.9273 18.2223 24.7436 18.2223C24.5604 18.2223 24.4114 18.3709 24.4114 18.5546V20.11L23.4699 18.4931C23.3942 18.3632 23.2411 18.3003 23.0962 18.3395C22.9512 18.3787 22.8505 18.5099 22.8505 18.6598V21.34C22.8505 21.5236 22.9995 21.6722 23.1827 21.6722ZM17.1225 21.3404V20.2804L18.3156 21.5537C18.3466 21.5869 18.3841 21.6134 18.4259 21.6314C18.4676 21.6494 18.5126 21.6587 18.558 21.6585C18.6396 21.6585 18.7207 21.6289 18.785 21.5688C18.8168 21.539 18.8425 21.5032 18.8605 21.4634C18.8785 21.4237 18.8885 21.3808 18.8899 21.3372C18.8913 21.2936 18.8841 21.2501 18.8687 21.2093C18.8532 21.1685 18.8299 21.1311 18.8 21.0994L18.0316 20.2795C18.5926 20.2722 19.047 19.8138 19.047 19.2514C19.047 18.6845 18.5858 18.2228 18.0184 18.2228H16.7902C16.607 18.2228 16.458 18.3714 16.458 18.555V21.3404C16.458 21.5236 16.6066 21.6727 16.7902 21.6727C16.9739 21.6727 17.1225 21.5236 17.1225 21.3404ZM18.3826 19.2509C18.3826 19.4519 18.2189 19.6155 18.018 19.6155H17.1225V18.8868H18.0184C18.2189 18.8863 18.3826 19.05 18.3826 19.2509ZM26.1801 18.8863H26.6805V21.34C26.6805 21.5232 26.829 21.6722 27.0127 21.6722C27.1964 21.6722 27.3449 21.5236 27.3449 21.34V18.8863H27.8449C28.0281 18.8863 28.1771 18.7378 28.1771 18.5541C28.1771 18.3709 28.0285 18.2219 27.8449 18.2219H26.1805C25.9973 18.2219 25.8483 18.3705 25.8483 18.5541C25.8482 18.5977 25.8567 18.641 25.8733 18.6813C25.8899 18.7216 25.9144 18.7583 25.9452 18.7891C25.976 18.82 26.0126 18.8445 26.0529 18.8612C26.0932 18.8778 26.1365 18.8864 26.1801 18.8863ZM16.5651 24.0653C16.5651 24.2485 16.7137 24.3975 16.8973 24.3975H27.7378C27.921 24.3975 28.07 24.2489 28.07 24.0653C28.07 23.882 27.9214 23.733 27.7378 23.733H16.8973C16.7137 23.733 16.5651 23.8816 16.5651 24.0653ZM23.6681 26.4232H16.8973C16.7141 26.4232 16.5651 26.5718 16.5651 26.7554C16.5651 26.9391 16.7137 27.0876 16.8973 27.0876H23.6681C23.8513 27.0876 24.0003 26.9391 24.0003 26.7554C24.0003 26.5718 23.8513 26.4232 23.6681 26.4232ZM20.0729 29.1138H16.8973C16.7141 29.1138 16.5651 29.2624 16.5651 29.446C16.5651 29.6292 16.7137 29.7783 16.8973 29.7783H20.0733C20.2565 29.7783 20.4055 29.6297 20.4055 29.446C20.4054 29.3579 20.3703 29.2734 20.3079 29.2111C20.2456 29.1488 20.161 29.1138 20.0729 29.1138Z" fill="white"/>
<path d="M30.0332 12.1333C30.6569 12.1335 31.1643 12.6407 31.1641 13.2651V23.7114C31.58 24.0967 33.021 25.3208 34.9355 25.7544L35.0605 25.7944C35.3414 25.9109 35.5293 26.1841 35.5293 26.4966V29.8931C35.5292 31.6302 34.5596 33.0146 33.5225 33.9995C32.7434 34.7393 31.9126 35.2671 31.3857 35.5649L30.9736 35.7856C30.8864 35.8293 30.7929 35.8519 30.6992 35.8599L30.7002 35.8618C30.6779 35.8649 30.6555 35.8667 30.6328 35.8667H14.6016C13.9773 35.8665 13.47 35.3591 13.4697 34.7349V18.5308C13.4698 17.5198 13.8644 16.5687 14.5791 15.854L17.1904 13.2427L17.3271 13.1118C18.0246 12.4798 18.9204 12.1333 19.8682 12.1333H30.0332ZM19.9346 13.1978C19.4482 13.1979 19.0519 13.5942 19.0518 14.0806V15.8022C19.0518 16.8761 18.1784 17.7495 17.1045 17.7495H15.417C14.9306 17.7496 14.5343 18.146 14.5342 18.6323V34.7349L14.54 34.7612C14.5434 34.7693 14.5484 34.7764 14.5547 34.7827L14.5762 34.7983C14.5844 34.8018 14.5935 34.8032 14.6025 34.8032H28.7051C28.1328 34.3805 27.5049 33.8324 26.9746 33.1655C26.274 32.2843 25.7363 31.1865 25.7363 29.894V26.4976C25.7363 26.1398 25.9809 25.8335 26.3301 25.7544L26.6875 25.6636C28.4223 25.1702 29.7108 24.0738 30.1006 23.7124V13.2661L30.0957 13.2397L30.0811 13.2183C30.0747 13.2119 30.0668 13.207 30.0586 13.2036L30.0322 13.1978H19.9346ZM30.6318 24.6626C29.9698 25.2406 28.6051 26.2648 26.7998 26.7319V29.894C26.8 31.2476 27.5695 32.3737 28.4629 33.2231C29.2892 34.0088 30.2007 34.5348 30.6318 34.7622C31.0623 34.5354 31.9746 34.0095 32.8018 33.2231C33.6953 32.3737 34.4657 31.2479 34.4658 29.894V26.7319C32.6595 26.2646 31.2937 25.2409 30.6318 24.6626ZM17.9434 13.9946V13.9956L15.3311 16.6069C15.303 16.635 15.2757 16.6638 15.249 16.6929C15.3044 16.6881 15.3604 16.6851 15.417 16.6851H17.1055C17.5919 16.6849 17.9883 16.2887 17.9883 15.8022V14.0806C17.9883 14.0352 17.9911 13.9904 17.9941 13.9458C17.9772 13.962 17.96 13.978 17.9434 13.9946Z" fill="#002E23" stroke="#FF9900" stroke-width="0.4"/>
<path d="M28.6171 29.4488C28.4872 29.3189 28.2771 29.3189 28.1472 29.4488C28.0173 29.5787 28.0173 29.7888 28.1472 29.9182L29.6461 31.4171C29.7085 31.4795 29.7929 31.5142 29.8808 31.5142C29.9688 31.5142 30.0535 31.4791 30.1155 31.4171L33.1174 28.4152C33.2473 28.2853 33.2473 28.0752 33.1174 27.9458C33.0866 27.9149 33.0499 27.8904 33.0096 27.8737C32.9693 27.857 32.9261 27.8484 32.8825 27.8484C32.8388 27.8484 32.7956 27.857 32.7553 27.8737C32.715 27.8904 32.6784 27.9149 32.6475 27.9458L29.8804 30.713L28.6171 29.4488Z" fill="white"/>
</g>
</g>
<defs>
<filter id="filter0_d_7110_8353" x="11.2695" y="11.9336" width="24.46" height="26.1328" filterUnits="userSpaceOnUse" color-interpolation-filters="sRGB">
<feFlood flood-opacity="0" result="BackgroundImageFix"/>
<feColorMatrix in="SourceAlpha" type="matrix" values="0 0 0 0 0 0 0 0 0 0 0 0 0 0 0 0 0 0 127 0" result="hardAlpha"/>
<feOffset dx="-1" dy="1"/>
<feGaussianBlur stdDeviation="0.5"/>
<feComposite in2="hardAlpha" operator="out"/>
<feColorMatrix type="matrix" values="0 0 0 0 0.208542 0 0 0 0 0.116458 0 0 0 0 0.116458 0 0 0 0.28 0"/>
<feBlend mode="normal" in2="BackgroundImageFix" result="effect1_dropShadow_7110_8353"/>
<feBlend mode="normal" in="SourceGraphic" in2="effect1_dropShadow_7110_8353" result="shape"/>
</filter>
<clipPath id="clip0_7110_8353">
<rect width="28" height="28" fill="white" transform="translate(10.5 10)"/>
</clipPath>
</defs>
</svg>
