<svg width="50" height="50" viewBox="0 0 50 50" fill="none" xmlns="http://www.w3.org/2000/svg">
<path d="M8 0.5H42C46.1421 0.5 49.5 3.85786 49.5 8V42C49.5 46.1421 46.1421 49.5 42 49.5H8C3.85787 49.5 0.5 46.1421 0.5 42V8C0.500001 3.85787 3.85786 0.5 8 0.5Z" fill="#FFE5E5" stroke="#F21C1C"/>
<g clip-path="url(#clip0_2477_10013)">
<path d="M32.77 22.4253L36.2362 19.0142C38.5495 17.4046 41.1976 20.2103 39.4049 22.4253L32.7998 28.9817L32.7551 35.1025C32.5989 35.922 32.041 36.6013 31.2303 36.8671C26.5367 37.1255 21.7911 36.9114 17.0753 36.9779C16.086 36.8819 15.2678 36.2395 15.0223 35.2797L14.9926 18.6524C15.0297 18.2094 15.2529 17.8107 15.5281 17.4784C16.8447 15.8393 18.7191 14.3774 20.0506 12.7236C20.5043 12.3027 21.0101 12.1108 21.6349 12.0665C24.6028 11.8597 27.8161 12.2215 30.8137 12.0738C31.5799 12.0738 32.77 13.1297 32.77 13.868V22.4253ZM27.4219 27.7339H19.4629C19.4629 27.7339 19.1134 27.5789 19.0613 27.5419C18.7191 27.2392 18.9348 26.7002 19.3291 26.56L28.5674 26.6116L31.5204 23.71L31.5873 23.4516V14.0673C31.5278 13.617 31.0666 13.2773 30.6278 13.2478L21.3448 13.2847C21.1663 13.3733 20.9952 13.4471 20.8465 13.58C19.2993 14.9829 17.9232 16.8804 16.3612 18.3054L16.1678 18.7041L16.1232 34.7259C16.1604 35.3018 16.5472 35.7817 17.1496 35.8039H30.6947C31.0146 35.8039 31.5873 35.3461 31.5873 35.0508V30.2295C31.1633 30.5986 30.8435 30.9826 30.3079 31.2262C29.1773 31.7357 27.7566 31.9867 26.5888 32.4519C24.3573 32.3116 21.8581 32.6512 19.6563 32.4592C18.7712 32.3854 18.5852 31.6102 19.396 31.2779L26.1648 31.241L27.4145 27.7339H27.4219ZM27.5483 30.8792L29.8319 30.163C32.889 27.3574 35.8569 24.3671 38.728 21.3547C39.2115 20.2472 37.9545 19.2578 36.9652 19.9297C34.094 22.8387 31.0741 25.6518 28.2922 28.6273L27.5483 30.8718V30.8792Z" fill="#EC3220"/>
<path d="M19.277 21.8494L28.3145 21.8346C29.1476 21.997 28.9914 22.979 28.1806 23.0159H19.5894C18.8158 22.9273 18.6299 22.285 19.2695 21.8494H19.277Z" fill="#EC3220"/>
</g>
<defs>
<clipPath id="clip0_2477_10013">
<rect width="25" height="25" fill="white" transform="translate(15 12)"/>
</clipPath>
</defs>
</svg>
