<svg width="50" height="50" viewBox="0 0 50 50" fill="none" xmlns="http://www.w3.org/2000/svg">
<path d="M8 0.5H42C46.1421 0.5 49.5 3.85786 49.5 8V42C49.5 46.1421 46.1421 49.5 42 49.5H8C3.85787 49.5 0.5 46.1421 0.5 42V8C0.500001 3.85787 3.85786 0.5 8 0.5Z" fill="#FF9900" fill-opacity="0.15" stroke="#FF9900"/>
<path d="M31.5135 13C30.8938 13 30.2752 13.3123 29.9401 13.937L23.2164 26.4793C22.6505 27.5341 23.4204 28.8612 24.5981 28.8612H38.4285C39.6063 28.8612 40.3761 27.5341 39.8102 26.4793L33.0865 13.937C32.7514 13.3123 32.132 13 31.5135 13ZM31.5135 13.8306C31.8373 13.8306 32.1612 14.0033 32.3472 14.35L39.0709 26.8923C39.3477 27.4082 39.0048 27.9997 38.4299 27.9997H24.5983C24.0235 27.9997 23.6806 27.4082 23.9574 26.8923L30.6799 14.35C30.8659 14.0033 31.1896 13.8306 31.5135 13.8306ZM21.6712 15.684C21.4739 15.684 21.3036 15.8224 21.2599 16.0192L20.8789 17.7227C20.3231 17.8931 19.7863 18.1197 19.2742 18.3977L17.8297 17.4721L17.8286 17.471C17.6628 17.3634 17.4454 17.3886 17.3064 17.5304L14.8075 20.0817H14.8064C14.6674 20.2236 14.6439 20.4455 14.7481 20.6148L15.6547 22.0895C15.3824 22.6124 15.1616 23.1604 14.9947 23.7278L13.3272 24.1168L13.3283 24.118C13.1356 24.1626 13 24.3365 13 24.5378V28.1461C13 28.3475 13.1356 28.5213 13.3272 28.566L14.9947 28.955C15.1616 29.5224 15.3824 30.0704 15.6558 30.5933L14.7492 32.068L14.7481 32.0691C14.6439 32.2396 14.6686 32.4604 14.8064 32.6023L17.3053 35.1546H17.3064C17.4454 35.2965 17.6617 35.3217 17.8286 35.2153L19.2731 34.2897C19.7852 34.5677 20.3219 34.7943 20.8778 34.9647L21.2588 36.6671L21.2599 36.6659C21.3036 36.8616 21.4739 37 21.6712 37H25.2054C25.4015 37 25.573 36.8616 25.6167 36.6659L25.9977 34.9624C26.5535 34.792 27.0903 34.5666 27.6024 34.2886L29.0468 35.2153C29.2138 35.3217 29.4312 35.2965 29.5702 35.1546L32.068 32.6023C32.2069 32.4604 32.2316 32.2396 32.1262 32.0691L31.2208 30.5967C31.306 30.4331 31.3878 30.2684 31.4629 30.1002C31.5088 29.9972 31.5133 29.8783 31.4741 29.7707C31.4348 29.6643 31.3553 29.5774 31.2544 29.5305C31.0415 29.4309 30.7916 29.527 30.6952 29.7433C30.5955 29.9675 30.4857 30.186 30.3669 30.4H30.3658C30.2918 30.5384 30.2974 30.7089 30.3826 30.8416L31.2399 32.2362L29.2172 34.3023L27.8512 33.4271H27.8523C27.7201 33.3425 27.5542 33.339 27.4186 33.4168C26.827 33.7612 26.195 34.0266 25.5383 34.2062V34.2074C25.387 34.2486 25.2716 34.371 25.2368 34.5266L24.876 36.1385H22.014L21.6532 34.5277C21.6184 34.3733 21.5019 34.2497 21.3517 34.2085C20.6939 34.0278 20.0619 33.7624 19.4714 33.418H19.4702C19.3358 33.339 19.1688 33.3425 19.0377 33.4271L17.6717 34.3023L15.6479 32.2362L16.5052 30.8416C16.5903 30.7089 16.597 30.5395 16.522 30.4C16.1847 29.7959 15.9247 29.1506 15.7476 28.4791C15.7073 28.3258 15.5863 28.2068 15.435 28.1713L13.8583 27.8029L13.8572 24.881L15.4361 24.5126C15.5874 24.4771 15.7084 24.3593 15.7488 24.2048C15.9258 23.5333 16.1858 22.888 16.522 22.2851C16.597 22.1455 16.5903 21.9751 16.5063 21.8424L15.649 20.4478L17.6728 18.3827L19.0388 19.2579H19.0377C19.1688 19.3426 19.3358 19.3472 19.4714 19.2682C20.063 18.9239 20.695 18.6584 21.3517 18.4777C21.503 18.4365 21.6184 18.3129 21.6532 18.1573L22.014 16.5453H24.876L25.2357 18.1516C25.2705 18.3072 25.3859 18.4296 25.536 18.472C25.7893 18.5418 26.0403 18.6253 26.2857 18.7214V18.7202C26.5042 18.8049 26.7474 18.6939 26.8303 18.4708C26.8707 18.3644 26.8673 18.2454 26.8214 18.1413C26.7754 18.0372 26.6903 17.956 26.586 17.9148C26.3944 17.8404 26.1994 17.7752 26.0033 17.7146L25.6235 16.0191C25.5798 15.8235 25.4094 15.685 25.2122 15.6839L21.6712 15.684ZM31.5135 18.6848C31.2804 18.6848 31.091 18.8781 31.091 19.1161V23.4979C31.091 23.7359 31.2804 23.9281 31.5135 23.9281C31.7466 23.9281 31.9348 23.7359 31.9348 23.4979V19.1161C31.9348 18.8782 31.7466 18.6848 31.5135 18.6848ZM23.5091 22.0415C21.9246 22.014 20.4287 22.9053 19.6892 24.3811C18.8431 26.0675 19.1793 28.1244 20.5162 29.4391C21.8519 30.7537 23.8792 31.0202 25.4971 30.0936C25.6999 29.978 25.7728 29.7149 25.6585 29.5078C25.5453 29.3007 25.2876 29.2264 25.0847 29.343C23.7871 30.0856 22.1724 29.8728 21.1009 28.8191C20.0296 27.7654 19.7618 26.1259 20.4398 24.7738C21.1178 23.4227 22.5779 22.6859 24.0415 22.9582C24.2701 23.0005 24.4897 22.8461 24.5323 22.6115C24.5737 22.3781 24.4213 22.1539 24.1927 22.1104C23.9641 22.0681 23.7367 22.0452 23.5103 22.0418L23.5091 22.0415ZM31.5135 24.825C31.4014 24.825 31.2938 24.8708 31.2154 24.9508C31.1358 25.0321 31.091 25.1419 31.091 25.2563V25.5778V25.5767C31.091 25.8146 31.2804 26.008 31.5135 26.008C31.7466 26.008 31.9348 25.8146 31.9348 25.5767V25.2552V25.2563C31.9348 25.1419 31.8911 25.0321 31.8116 24.9508C31.7331 24.8708 31.6255 24.825 31.5135 24.825Z" fill="#FF9900"/>
</svg>
