<svg width="16" height="17" viewBox="0 0 16 17" fill="none" xmlns="http://www.w3.org/2000/svg">
<path fill-rule="evenodd" clip-rule="evenodd" d="M13.5589 15.1589C13.6726 15.1589 13.7648 15.2511 13.7648 15.3648V15.7765C13.7648 15.8902 13.6726 15.9824 13.5589 15.9824H2.44123C2.32753 15.9824 2.23535 15.8902 2.23535 15.7765V15.3648C2.23535 15.2511 2.32753 15.1589 2.44123 15.1589H3.88241V2.39419C3.88241 2.16678 4.06676 1.98242 4.29417 1.98242H11.7059C11.9334 1.98242 12.1177 2.16678 12.1177 2.39419V15.1589H13.5589ZM5.32359 4.24713V8.77654C5.32359 9.00395 5.50794 9.1883 5.73535 9.1883H10.2648C10.4922 9.1883 10.6765 9.00395 10.6765 8.77654V4.24713C10.6765 4.01972 10.4922 3.83536 10.2648 3.83536H5.73535C5.50794 3.83536 5.32359 4.01972 5.32359 4.24713ZM5.73535 11.453C6.07647 11.453 6.353 11.1765 6.353 10.8354C6.353 10.4942 6.07647 10.2177 5.73535 10.2177C5.39423 10.2177 5.1177 10.4942 5.1177 10.8354C5.1177 11.1765 5.39423 11.453 5.73535 11.453ZM6.14712 8.36477V6.9236H7.58829V8.36477H6.14712ZM8.41182 8.36477V6.9236H9.853V8.36477H8.41182ZM8.41182 6.10007V4.65889H9.853V6.10007H8.41182ZM6.14712 4.65889H7.58829V6.10007H6.14712V4.65889Z" fill="#CCCDD0"/>
</svg>
