<svg width="25" height="24" viewBox="0 0 25 24" fill="none" xmlns="http://www.w3.org/2000/svg">
<path d="M16.875 10.333V19.916C16.875 20.3482 16.5572 20.666 16.125 20.666H15.375V21.5H15.25V20.666H9.75V21.5H9.625V20.666H8.875C8.44281 20.666 8.125 20.3482 8.125 19.916V12.708C8.125 12.9465 8.20666 13.184 8.38574 13.3633C8.56505 13.5426 8.80337 13.625 9.04199 13.625C9.28051 13.6249 9.51804 13.5425 9.69727 13.3633C9.87646 13.184 9.95801 12.9466 9.95801 12.708V11.458C9.95801 11.2195 9.87646 10.982 9.69727 10.8027C9.54033 10.6458 9.33872 10.563 9.13086 10.5449L9.04199 10.541C8.80337 10.541 8.56505 10.6234 8.38574 10.8027C8.20666 10.982 8.125 11.2195 8.125 11.458V10.333H16.875Z" stroke="#FF9900"/>
<path d="M8.875 2.5H16.125C16.5572 2.5 16.875 2.81781 16.875 3.25V8.5H9.58398C9.62358 8.47205 9.6618 8.44074 9.69727 8.40527C9.87646 8.22599 9.95801 7.98855 9.95801 7.75V6.5C9.95801 6.26145 9.87646 6.02401 9.69727 5.84473C9.54033 5.68779 9.33872 5.60498 9.13086 5.58691L9.04199 5.58301C8.80337 5.58301 8.56505 5.66542 8.38574 5.84473C8.20666 6.02399 8.125 6.26152 8.125 6.5V3.25C8.125 2.81781 8.44281 2.5 8.875 2.5ZM8.125 7.75C8.125 7.98848 8.20666 8.22601 8.38574 8.40527C8.42115 8.44068 8.45951 8.47208 8.49902 8.5H8.125V7.75Z" stroke="#FF9900"/>
</svg>
