<svg width="25" height="24" viewBox="0 0 25 24" fill="none" xmlns="http://www.w3.org/2000/svg">
<path d="M4.8374 2.5H11.2485C11.4885 2.50016 11.6788 2.70979 11.6685 2.91992L11.6675 2.93262V9.75H10.1606V13.4072H11.6675V19.7773C11.6675 20.012 11.4831 20.1971 11.2485 20.1973H5.64014V21.4746H5.51611V20.1973H4.8374C4.60269 20.1973 4.41748 20.0121 4.41748 19.7773V2.91992C4.41748 2.68521 4.60269 2.5 4.8374 2.5Z" stroke="#FF9900"/>
<path d="M13.7263 2.52441L13.739 2.52539H20.1628C20.3975 2.52546 20.5818 2.71064 20.5818 2.94531V19.8037C20.5816 20.0382 20.3973 20.2226 20.1628 20.2227H19.4587V21.5H19.3347V20.2227H13.7263C13.4918 20.2227 13.3066 20.0382 13.3064 19.8037V13.4062H14.8386V9.75H13.3064V2.94531C13.3064 2.70525 13.5161 2.51404 13.7263 2.52441Z" stroke="#FF9900"/>
</svg>
