<svg width="59" height="72" viewBox="0 0 59 72" fill="none" xmlns="http://www.w3.org/2000/svg">
<path d="M23.6573 49.1067C22.9404 49.2859 22.4028 49.4651 21.8651 49.8235C21.1482 48.7482 20.6106 47.4937 19.8937 46.5976C18.6391 44.8053 17.2054 43.1923 15.9508 41.4001C13.9794 38.7118 12.3664 36.0235 11.6495 32.6183C10.0365 24.1948 14.6962 15.9506 22.7612 12.7246C33.3353 8.42332 45.5224 15.5922 47.1354 26.8832C47.8523 32.0806 46.2393 36.3819 43.3717 40.504C42.1172 42.2962 40.5042 44.0885 39.2496 46.0599C38.3535 47.3144 37.8159 48.569 36.9198 49.8235C36.5613 50.3612 36.2029 50.8989 35.6652 51.0781C31.5431 52.6911 27.421 54.1249 23.2989 55.5586C22.7612 55.7379 22.4028 55.5586 22.2236 55.2002C22.0443 54.6625 22.0444 54.1249 22.582 53.9457C22.9405 53.7664 23.2989 53.5872 23.6573 53.5872C27.2417 52.3327 30.8262 51.0781 34.4106 49.6443C34.7691 49.4651 35.1275 49.1067 35.3067 48.7482C36.7405 46.0599 38.5328 43.9092 40.325 41.4001C42.1172 39.0702 43.7302 36.9196 44.447 34.052C46.2393 28.3169 44.9847 23.2987 41.0418 18.9974C36.5613 13.9792 30.8262 12.3662 24.3742 14.3376C17.9223 16.3091 14.3378 20.7896 13.0832 27.4208C12.1871 32.0806 13.8001 36.0235 16.4884 39.6079C18.1014 41.7586 19.7145 43.9092 21.3275 46.0599C22.4028 46.7768 22.9404 47.8521 23.6573 49.1067Z" fill="#FF0000"/>
<path d="M22.7603 66.8497C22.5811 66.6705 22.2227 66.4912 22.2227 66.1328C22.2227 65.7744 22.4019 65.4159 22.5811 65.0575C22.5811 64.8782 22.9395 64.8782 23.1188 64.8782C27.0616 63.4445 31.1838 62.0107 35.1266 60.5769C36.0228 60.2185 36.3812 60.3977 36.5604 60.9354C36.7396 61.473 36.3812 62.0107 35.6643 62.3691C31.5422 63.8029 27.5993 65.2367 23.4772 66.8497C23.298 66.6705 23.1187 66.6705 22.7603 66.8497Z" fill="#FF0000"/>
<path d="M22.7603 60.9355C22.5811 60.7563 22.2227 60.5771 22.2227 60.2186C22.2227 59.8602 22.4019 59.5017 22.5811 59.1433C22.5811 58.9641 22.9395 58.9641 23.1188 58.9641C27.0616 57.5303 31.1838 56.0965 35.1266 54.6627C36.0228 54.3043 36.3812 54.4835 36.5604 55.0212C36.7396 55.5589 36.5604 56.0965 35.6643 56.455C31.5422 57.8887 27.5993 59.5017 23.4772 60.9355C23.298 60.9355 23.1187 60.9355 22.7603 60.9355Z" fill="#FF0000"/>
<path d="M35.6647 65.9537C34.4101 70.2551 27.4205 72.7642 23.1191 70.4343C27.2412 69.0005 31.3633 67.3875 35.6647 65.9537Z" fill="#FF0000"/>
<path d="M30.2883 3.22599C30.2883 3.94288 30.2883 4.65977 30.2883 5.37665C30.2883 5.91432 29.9299 6.27276 29.3922 6.27276C28.8545 6.27276 28.4961 5.91432 28.4961 5.37665C28.4961 3.94288 28.4961 2.5091 28.4961 0.896109C28.4961 0.358443 28.8545 0 29.3922 0C29.9299 0 30.2883 0.358443 30.2883 0.896109C30.2883 1.613 30.2883 2.5091 30.2883 3.22599Z" fill="#FF0000"/>
<path d="M3.22597 28.3171C3.94286 28.3171 4.65977 28.3171 5.37665 28.3171C6.09354 28.3171 6.45199 28.6756 6.45199 29.2132C6.45199 29.7509 6.09354 30.1094 5.37665 30.1094C3.94288 30.1094 2.50912 30.1094 1.07534 30.1094C0.358454 30.1094 0 29.7509 0 29.2132C0 28.6756 0.358454 28.3171 1.07534 28.3171C1.79223 28.3171 2.50908 28.3171 3.22597 28.3171Z" fill="#FF0000"/>
<path d="M55.5585 30.2886C54.8416 30.2886 54.1247 30.2886 53.4078 30.2886C52.8702 30.2886 52.5117 29.9301 52.5117 29.3924C52.5117 28.8548 52.8702 28.4963 53.4078 28.4963C54.8416 28.4963 56.4546 28.4963 57.8884 28.4963C58.426 28.4963 58.7845 28.8548 58.7845 29.3924C58.7845 29.9301 58.426 30.2886 57.8884 30.2886C56.9923 30.2886 56.2754 30.2886 55.5585 30.2886Z" fill="#FF0000"/>
<path d="M8.96058 7.8858C9.31902 8.06502 9.49823 8.24425 9.67745 8.42347C10.7528 9.4988 11.6489 10.3949 12.7242 11.4702C13.2619 12.0079 13.2619 12.3663 12.7242 12.904C12.3658 13.2625 11.8281 13.2625 11.2904 12.904C10.2151 11.8287 9.13981 10.9326 8.2437 9.85724C8.06448 9.67802 7.88525 9.14036 8.06447 8.78191C8.24369 8.24425 8.78136 8.06502 8.96058 7.8858Z" fill="#FF0000"/>
<path d="M46.4181 45.3432C46.7765 45.5224 46.9557 45.7016 47.1349 45.8809C48.2103 46.777 49.1064 47.8523 50.1817 48.7484C50.7194 49.2861 50.7194 49.8237 50.361 50.1822C50.0025 50.5406 49.4648 50.5406 48.9272 50.003C47.8518 48.9276 46.9558 48.0315 45.8804 46.9562C45.7012 46.777 45.522 46.2393 45.7012 45.8809C45.7012 45.7016 46.0596 45.5224 46.4181 45.3432Z" fill="#FF0000"/>
<path d="M50.7206 8.96113C50.5414 9.31957 50.3622 9.49879 50.183 9.67802C49.1076 10.7533 48.2115 11.6495 47.1362 12.7248C46.7777 13.0832 46.2401 13.2625 45.7024 12.7248C45.344 12.3663 45.344 11.8287 45.7024 11.291C46.7778 10.2157 47.6738 9.14035 48.7492 8.24424C48.9284 8.06502 49.4661 7.8858 49.8245 8.06502C50.1829 8.24424 50.3622 8.78191 50.7206 8.96113Z" fill="#FF0000"/>
<path d="M8.96059 50.5406C8.78137 50.3614 8.42294 50.1821 8.24372 49.8237C8.06449 49.6445 8.24372 49.1068 8.24372 48.9276C9.31905 47.8523 10.3944 46.5977 11.6489 45.5224C12.0074 45.1639 12.545 45.1639 12.9034 45.5224C13.2619 45.8808 13.2619 46.4185 12.9034 46.7769C11.8281 47.8523 10.7528 48.9276 9.67747 50.0029C9.49825 50.3614 9.31904 50.5406 8.96059 50.5406Z" fill="#FF0000"/>
</svg>
