<svg xmlns="http://www.w3.org/2000/svg" width="17" height="16" viewBox="0 0 17 16" fill="none">
    <path d="M3.70818 7.85075H14.0181C14.0181 7.85075 13.9722 8.39685 13.9683 8.74761C13.9596 9.54157 14.1503 10.7726 14.1503 10.7726C14.1503 10.7726 14.0246 12.3737 14.0005 13.4019C13.9784 14.3455 14.0181 15.8187 14.0181 15.8187C14.0181 15.8187 13.1023 15.7569 12.5146 15.7484C11.7375 15.7372 11.3013 15.7615 10.5253 15.8047C9.90877 15.839 8.94887 15.9267 8.94887 15.9267L7.39122 15.7953C7.39122 15.7953 6.47505 15.7494 5.8875 15.746C5.03597 15.7411 3.70818 15.8187 3.70818 15.8187C3.70818 15.8187 3.8495 14.5371 3.86616 13.7125C3.88051 13.0025 3.85933 12.6036 3.81732 11.8946C3.76457 11.0044 3.59528 10.5142 3.58984 9.62236C3.58562 8.92898 3.70818 7.85075 3.70818 7.85075Z" fill="#472F00"/>
    <rect x="4.07715" y="8.13603" width="9.57162" height="7.39734" fill="#FFD27B"/>
    <path d="M2.69884 5.64816C2.69884 5.64816 3.37311 5.54374 3.80885 5.52507C4.70434 5.4867 5.19847 5.69525 6.09333 5.74615C7.17562 5.80771 8.86909 5.77071 8.86909 5.77071C8.86909 5.77071 10.7763 5.7845 11.9953 5.7128C12.6171 5.67622 12.9626 5.59658 13.5854 5.58647C14.1858 5.57671 15.1214 5.65489 15.1214 5.65489V8.41534L2.64741 8.4165C2.64741 8.4165 2.60071 8.01483 2.60474 7.7565C2.60905 7.48035 2.65792 7.32894 2.67626 7.05345C2.6944 6.78083 2.69862 6.354 2.69862 6.354L2.69884 5.64816Z" fill="#472F00"/>
    <rect x="2.87109" y="6.08589" width="11.9844" height="2.08901" fill="#FFD27B"/>
    <path d="M7.87036 6.09201H9.89445C9.89445 6.09201 9.84102 6.31722 9.83077 6.4644C9.82057 6.61078 9.82911 6.6938 9.84195 6.83997C9.85181 6.95227 9.86588 7.00388 9.87995 7.12612C9.90189 7.3167 9.86485 7.63158 9.86485 7.63158L9.89445 8.19068H7.87036C7.87036 8.19068 7.8809 7.83202 7.87152 7.60251C7.86412 7.42135 7.83632 7.32084 7.83691 7.13953C7.83749 6.9659 7.86387 6.86972 7.87152 6.69625C7.88192 6.46051 7.87036 6.09201 7.87036 6.09201Z" fill="#472F00"/>
    <rect x="8.08008" y="6.09203" width="1.60352" height="2.09867" fill="#FF9900"/>
    <path d="M7.81926 8.1353H9.93384C9.93384 8.1353 9.91591 9.38974 9.93372 10.1932C9.94768 10.8236 9.99457 11.176 9.99761 11.8065C10.0011 12.5243 9.94646 12.9258 9.93372 13.6435C9.92037 14.3951 9.93384 15.5684 9.93384 15.5684H7.81926L7.80604 12.6691C7.80604 12.6691 7.72838 11.9492 7.74179 11.4871C7.75178 11.1427 7.82201 10.6085 7.82201 10.6085L7.75795 9.23479L7.81926 8.1353Z" fill="#472F00"/>
    <rect x="8.06445" y="8.1353" width="1.61719" height="7.43313" fill="#FF9900"/>
    <rect x="4.08008" y="8.1768" width="9.59049" height="0.854065" fill="#FFB62A"/>
    <rect x="7.85547" y="8.1768" width="2.03646" height="0.854065" fill="#472F00"/>
    <rect x="8.06152" y="8.1768" width="1.625" height="0.854065" fill="#C87903"/>
    <path d="M8.87858 4.93877L9.68208 6.09456H8.0752L8.87858 4.93877Z" fill="#FF9900"/>
    <path d="M5.85938 0.890273C1.44638 3.94188 5.68353 6.46532 8.0306 6.11321L8.02334 5.55966C3.1608 4.1734 5.05889 -1.20098 8.68447 4.62127H9.15367C10.8172 1.78479 13.483 3.51227 9.70817 5.517L9.87878 6.0715C12.5745 5.76439 12.8646 3.91748 12.1394 3.08573C10.075 1.00422 9.16621 2.39797 8.96988 3.35503C8.64124 0.303429 6.70107 0.483842 5.85938 0.890273Z" fill="#FF9900" stroke="#472F00" stroke-width="0.5"/>
</svg>