<svg width="24" height="24" viewBox="0 0 24 24" fill="none" xmlns="http://www.w3.org/2000/svg">
<mask id="path-1-inside-1_3874_15143" fill="white">
<path d="M9.33984 3.58105C10.007 3.06555 10.9387 3.09216 11.5791 3.64062C13.6242 5.39219 15.836 7.93447 16.7002 10.4844C16.1479 9.79382 15.5305 9.15213 14.9189 8.60254C14.2917 8.03889 13.3547 8.01177 12.7021 8.5459C10.5909 10.2741 9.06453 12.5687 9.06445 14.8174C9.06445 16.6768 10.1291 18.2868 11.6816 19.0732C11.2924 19.1448 10.8914 19.1846 10.4814 19.1846C6.83926 19.1845 3.88672 16.232 3.88672 12.5898C3.88672 9.33202 6.20374 6.00494 9.33984 3.58105Z"/>
</mask>
<path d="M9.33984 3.58105L8.72843 2.78974L8.72831 2.78983L9.33984 3.58105ZM11.5791 3.64062L12.2296 2.88112L12.2296 2.8811L11.5791 3.64062ZM16.7002 10.4844L15.9193 11.109L17.6473 10.1634L16.7002 10.4844ZM14.9189 8.60254L15.5874 7.85877L15.5874 7.85876L14.9189 8.60254ZM12.7021 8.5459L12.0687 7.77208L12.0687 7.7721L12.7021 8.5459ZM9.06445 14.8174L8.06445 14.8174V14.8174H9.06445ZM11.6816 19.0732L11.8625 20.0567L14.7779 19.5206L12.1335 18.1812L11.6816 19.0732ZM10.4814 19.1846L10.4814 20.1846H10.4814V19.1846ZM3.88672 12.5898H2.88672V12.5898L3.88672 12.5898ZM9.33984 3.58105L9.95126 4.37237C10.2407 4.14871 10.6456 4.15774 10.9286 4.40015L11.5791 3.64062L12.2296 2.8811C11.2318 2.02659 9.77334 1.98239 8.72843 2.78974L9.33984 3.58105ZM11.5791 3.64062L10.9286 4.40013C12.9182 6.10413 14.9732 8.50411 15.7531 10.8053L16.7002 10.4844L17.6473 10.1634C16.6989 7.36484 14.3302 4.68025 12.2296 2.88112L11.5791 3.64062ZM16.7002 10.4844L17.4811 9.85975C16.8919 9.12303 16.2362 8.44187 15.5874 7.85877L14.9189 8.60254L14.2505 9.34631C14.8248 9.86239 15.4039 10.4646 15.9193 11.109L16.7002 10.4844ZM14.9189 8.60254L15.5874 7.85876C14.5977 6.96931 13.1079 6.92148 12.0687 7.77208L12.7021 8.5459L13.3356 9.31971C13.6015 9.10206 13.9858 9.10846 14.2505 9.34632L14.9189 8.60254ZM12.7021 8.5459L12.0687 7.7721C9.8516 9.58702 8.06454 12.137 8.06445 14.8174L9.06445 14.8174L10.0645 14.8174C10.0645 13.0004 11.3302 10.9613 13.3356 9.3197L12.7021 8.5459ZM9.06445 14.8174H8.06445C8.06445 17.0685 9.35444 19.0154 11.2298 19.9653L11.6816 19.0732L12.1335 18.1812C10.9038 17.5583 10.0645 16.285 10.0645 14.8174H9.06445ZM11.6816 19.0732L11.5008 18.0897C11.167 18.1511 10.8266 18.1846 10.4814 18.1846V19.1846V20.1846C10.9562 20.1846 11.4178 20.1385 11.8625 20.0567L11.6816 19.0732ZM10.4814 19.1846L10.4815 18.1846C7.39153 18.1845 4.88672 15.6797 4.88672 12.5898L3.88672 12.5898L2.88672 12.5898C2.88672 16.7844 6.287 20.1844 10.4814 20.1846L10.4814 19.1846ZM3.88672 12.5898H4.88672C4.88672 9.78151 6.92293 6.71296 9.95138 4.37227L9.33984 3.58105L8.72831 2.78983C5.48455 5.29693 2.88672 8.88253 2.88672 12.5898H3.88672Z" fill="#FF9900" mask="url(#path-1-inside-1_3874_15143)"/>
<path d="M13.1582 10.1152C13.6057 9.73675 14.2611 9.75279 14.6982 10.1562C15.4299 10.832 16.1565 11.6492 16.6963 12.5068C17.2399 13.3706 17.5683 14.2342 17.5684 15.0146C17.5684 17.0083 15.9517 18.625 13.958 18.625C11.9646 18.6248 10.3486 17.0081 10.3486 15.0146C10.3487 13.3406 11.4686 11.5451 13.1582 10.1152Z" stroke="#FF9900"/>
</svg>
