<svg width="24" height="24" viewBox="0 0 24 24" fill="none" xmlns="http://www.w3.org/2000/svg">
<path d="M12 16.8232C12.366 16.8232 12.7079 16.9656 12.9668 17.2246C13.2255 17.4834 13.3672 17.8254 13.3672 18.1914C13.3671 18.5573 13.2253 18.8985 12.9668 19.1572C12.7008 19.4232 12.3516 19.5566 12 19.5566C11.6484 19.5566 11.2992 19.4232 11.0332 19.1572C10.5008 18.6246 10.5008 17.7574 11.0332 17.2246C11.2922 16.9656 11.6341 16.8232 12 16.8232ZM12 10.2949C13.9427 10.2949 15.8064 11.0028 17.249 12.2871C17.3263 12.356 17.3739 12.4567 17.377 12.5615C17.3801 12.6672 17.3379 12.7733 17.2627 12.8486L15.5762 14.5352C15.4982 14.613 15.3997 14.6504 15.3027 14.6504C15.2384 14.6503 15.1734 14.6334 15.1133 14.5986L15.0547 14.5576C14.2031 13.8407 13.118 13.4463 12 13.4463C10.882 13.4463 9.79693 13.8407 8.94531 14.5576C8.80905 14.6722 8.62293 14.6799 8.48145 14.583L8.42383 14.5352L6.7373 12.8477C6.6621 12.7725 6.61995 12.6673 6.62305 12.5615C6.62607 12.4567 6.67366 12.356 6.75098 12.2871C8.19359 11.0028 10.0573 10.2949 12 10.2949ZM12 3.76562C15.5551 3.76563 19.1076 5.0668 21.876 7.66699C21.9552 7.74151 21.9982 7.83815 22 7.94531V7.94629C22.0017 8.05184 21.9621 8.14931 21.8867 8.22461L20.2031 9.9082C20.1259 9.98533 20.027 10.0225 19.9287 10.0225C19.8356 10.0224 19.7429 9.9896 19.668 9.91992V9.91895L19.2695 9.56641C17.2405 7.85411 14.6789 6.917 12 6.91699C9.14263 6.91699 6.41864 7.98313 4.33203 9.91895C4.17928 10.0606 3.94604 10.0571 3.79688 9.9082L2.11328 8.22461C2.03822 8.14962 1.99841 8.052 2 7.94531C2.00171 7.83786 2.04422 7.74127 2.12305 7.66699C4.89146 5.0668 8.44495 3.76542 12 3.76562Z" stroke="#FF9900"/>
</svg>
