<svg width="24" height="24" viewBox="0 0 24 24" fill="none" xmlns="http://www.w3.org/2000/svg">
<path d="M20.001 8.84297C21.333 7.51099 21.333 5.37981 20.001 4.04782C18.669 2.71583 16.5378 2.71583 15.2058 4.04782L14.5762 4.67749L19.3713 9.47264L20.001 8.84297Z" fill="#FFB03A"/>
<path d="M13.8944 5.35947L3.56836 15.6855L8.36322 20.4804L18.6893 10.1543L13.8944 5.35947Z" fill="#FFB03A"/>
<path d="M3.07265 16.641L3 19.6683C3 19.9831 3.12109 20.2979 3.33905 20.5159C3.55701 20.7338 3.84763 20.8792 4.16246 20.8792L7.35923 20.9518H7.38345C7.40767 20.9518 7.43188 20.9518 7.4561 20.9518L3.09687 16.5684C3.09687 16.5926 3.07265 16.6168 3.07265 16.641Z" fill="#FFB03A"/>
</svg>
