<svg xmlns="http://www.w3.org/2000/svg" width="25" height="24" viewBox="0 0 25 24" fill="none">
  <path d="M3.90228 18.6902L10.5925 12L3.90228 5.30977C3.77543 5.18482 3.67458 5.03599 3.60553 4.87187C3.53649 4.70774 3.50063 4.53157 3.50001 4.35352C3.49939 4.17547 3.53403 3.99906 3.60193 3.83446C3.66983 3.66986 3.76965 3.52033 3.89563 3.3945C4.02161 3.26867 4.17125 3.16903 4.33593 3.10133C4.50061 3.03362 4.67706 2.99919 4.85511 3.00001C5.03316 3.00084 5.20929 3.03691 5.37333 3.10615C5.53737 3.17539 5.68608 3.27642 5.81088 3.40341L12.4989 10.0937L19.1891 3.40341C19.3139 3.27642 19.4626 3.17539 19.6267 3.10615C19.7907 3.03691 19.9668 3.00084 20.1449 3.00001C20.3229 2.99919 20.4994 3.03362 20.6641 3.10133C20.8288 3.16903 20.9784 3.26867 21.1044 3.3945C21.2304 3.52033 21.3302 3.66986 21.3981 3.83446C21.466 3.99906 21.5006 4.17547 21.5 4.35352C21.4994 4.53157 21.4635 4.70774 21.3945 4.87187C21.3254 5.03599 21.2246 5.18482 21.0977 5.30977L14.4052 12L21.0955 18.6902C21.2223 18.8152 21.3232 18.964 21.3922 19.1282C21.4613 19.2923 21.4971 19.4684 21.4977 19.6465C21.4984 19.8245 21.4637 20.001 21.3958 20.1656C21.3279 20.3302 21.2281 20.4797 21.1021 20.6055C20.9761 20.7313 20.8265 20.831 20.6618 20.8987C20.4971 20.9664 20.3207 21.0008 20.1426 21C19.9646 20.9992 19.7885 20.9631 19.6244 20.8939C19.4604 20.8246 19.3117 20.7236 19.1869 20.5966L12.4989 13.9064L5.80864 20.5966C5.55513 20.8463 5.21323 20.9857 4.85739 20.9845C4.50156 20.9833 4.16063 20.8415 3.90886 20.59C3.6571 20.3385 3.51491 19.9978 3.51325 19.6419C3.5116 19.2861 3.65062 18.944 3.90003 18.6902H3.90228Z" fill="#292D32"/>
</svg>