<svg width="28" height="29" viewBox="0 0 28 29" fill="none" xmlns="http://www.w3.org/2000/svg">
<g id="icon/youtube" clip-path="url(#clip0_1912_12081)">
<g id="Group">
<path id="Vector" d="M14 28.5547C21.732 28.5547 28 22.2867 28 14.5547C28 6.8227 21.732 0.554688 14 0.554688C6.26801 0.554688 0 6.8227 0 14.5547C0 22.2867 6.26801 28.5547 14 28.5547Z" fill="#060606"/>
<path id="Vector_2" d="M22.9388 10.0541C22.7314 9.24519 22.0885 8.62297 21.2796 8.39482C19.8277 8.02148 13.9996 8.02148 13.9996 8.02148C13.9996 8.02148 8.17143 8.02148 6.69884 8.41556C5.88995 8.62297 5.26773 9.26593 5.03958 10.0748C4.64551 11.5267 4.64551 14.5756 4.64551 14.5756C4.64551 14.5756 4.64551 17.6037 5.03958 19.0763C5.24699 19.8852 5.88995 20.5074 6.69884 20.7356C8.15069 21.1296 13.9996 21.1296 13.9996 21.1296C13.9996 21.1296 19.8277 21.1296 21.3003 20.7356C22.1092 20.5282 22.7314 19.8852 22.9596 19.0763C23.3537 17.6244 23.3537 14.5756 23.3537 14.5756C23.3537 14.5756 23.3329 11.5267 22.9388 10.0541ZM12.1329 17.3548V11.7548L16.9862 14.5548L12.1329 17.3548Z" fill="white"/>
</g>
</g>
<defs>
<clipPath id="clip0_1912_12081">
<rect width="28" height="28" fill="white" transform="translate(0 0.554688)"/>
</clipPath>
</defs>
</svg>
