<svg width="16" height="16" viewBox="0 0 16 16" fill="none" xmlns="http://www.w3.org/2000/svg">
<line x1="0.5" y1="-0.5" x2="10.9358" y2="-0.5" transform="matrix(-0.721387 0.692532 -0.721387 -0.692532 11.9307 3.93848)" stroke="#818F9F" stroke-linecap="round"/>
<line x1="6.24121" y1="12.2188" x2="4.24121" y2="12.2188" stroke="#818F9F" stroke-linecap="round"/>
<line x1="0.5" y1="-0.5" x2="2.5" y2="-0.5" transform="matrix(0 1 1 0 4.25 9.15918)" stroke="#818F9F" stroke-linecap="round"/>
<line x1="9.83594" y1="3.78906" x2="11.8359" y2="3.78906" stroke="#818F9F" stroke-linecap="round"/>
<line x1="0.5" y1="-0.5" x2="2.5" y2="-0.5" transform="matrix(0 -1 -1 0 11.8613 6.89551)" stroke="#818F9F" stroke-linecap="round"/>
<line x1="0.5" y1="-0.5" x2="10.9358" y2="-0.5" transform="matrix(0.721387 0.692532 0.721387 -0.692532 4.08691 3.93848)" stroke="#818F9F" stroke-linecap="round"/>
<line x1="0.5" y1="-0.5" x2="2.5" y2="-0.5" transform="matrix(1 0 0 -1 9.27637 11.7188)" stroke="#818F9F" stroke-linecap="round"/>
<line x1="12.2676" y1="9.65918" x2="12.2676" y2="11.6592" stroke="#818F9F" stroke-linecap="round"/>
<line x1="0.5" y1="-0.5" x2="2.5" y2="-0.5" transform="matrix(-1 0 0 1 6.68164 4.28906)" stroke="#818F9F" stroke-linecap="round"/>
<line x1="3.65625" y1="6.39551" x2="3.65625" y2="4.39551" stroke="#818F9F" stroke-linecap="round"/>
</svg>
