<svg width="25" height="24" viewBox="0 0 25 24" fill="none" xmlns="http://www.w3.org/2000/svg">
<g id="Icon/size">
<g id="Layer 2">
<path id="Vector" d="M19.2124 3.81836H6.12154C5.47077 3.81907 4.84686 4.0779 4.3867 4.53806C3.92653 4.99823 3.6677 5.62214 3.66699 6.2729V17.7275C3.6677 18.3782 3.92653 19.0021 4.3867 19.4623C4.84686 19.9225 5.47077 20.1813 6.12154 20.182H19.2124C19.8632 20.1813 20.4871 19.9225 20.9473 19.4623C21.4074 19.0021 21.6663 18.3782 21.667 17.7275V6.2729C21.6663 5.62214 21.4074 4.99823 20.9473 4.53806C20.4871 4.0779 19.8632 3.81907 19.2124 3.81836ZM11.8488 17.7275H7.7579C7.54117 17.7266 7.33356 17.6401 7.18031 17.4869C7.02706 17.3336 6.94058 17.126 6.93972 16.9093V12.8184C6.93972 12.6014 7.02592 12.3933 7.17936 12.2398C7.3328 12.0864 7.54091 12.0002 7.7579 12.0002C7.9749 12.0002 8.183 12.0864 8.33644 12.2398C8.48988 12.3933 8.57608 12.6014 8.57608 12.8184V14.9341L10.4522 13.058C10.6059 12.9062 10.8135 12.8214 11.0296 12.8221C11.2457 12.8228 11.4527 12.9089 11.6055 13.0617C11.7583 13.2145 11.8444 13.4215 11.8451 13.6376C11.8458 13.8537 11.7609 14.0612 11.6091 14.215L9.73304 16.0911H11.8488C12.0658 16.0911 12.2739 16.1773 12.4274 16.3307C12.5808 16.4842 12.667 16.6923 12.667 16.9093C12.667 17.1263 12.5808 17.3344 12.4274 17.4878C12.2739 17.6412 12.0658 17.7275 11.8488 17.7275ZM18.3943 11.182C18.3943 11.399 18.3081 11.6071 18.1546 11.7605C18.0012 11.914 17.7931 12.0002 17.5761 12.0002C17.3591 12.0002 17.151 11.914 16.9975 11.7605C16.8441 11.6071 16.7579 11.399 16.7579 11.182V9.06623L14.8818 10.9423C14.7281 11.0941 14.5205 11.179 14.3044 11.1783C14.0883 11.1776 13.8813 11.0915 13.7285 10.9387C13.5757 10.7859 13.4896 10.5788 13.4889 10.3628C13.4882 10.1467 13.5731 9.93911 13.7249 9.78536L15.6009 7.90927H13.4852C13.2682 7.90927 13.0601 7.82307 12.9066 7.66963C12.7532 7.51619 12.667 7.30808 12.667 7.09109C12.667 6.87409 12.7532 6.66598 12.9066 6.51254C13.0601 6.35911 13.2682 6.2729 13.4852 6.2729H17.5761C17.7929 6.27364 18.0005 6.36008 18.1538 6.51336C18.3071 6.66664 18.3935 6.87432 18.3943 7.09109V11.182Z" fill="#BFBFBF"/>
</g>
</g>
</svg>
