<svg xmlns="http://www.w3.org/2000/svg" width="12" height="13" viewBox="0 0 12 13" fill="none">
  <path d="M8.83986 2.56621V1.53094C8.83986 1.44121 8.73674 1.39166 8.6671 1.44657L2.6296 6.16219C2.5783 6.20209 2.53679 6.25317 2.50824 6.31154C2.47969 6.36992 2.46484 6.43404 2.46484 6.49902C2.46484 6.56401 2.47969 6.62813 2.50824 6.68651C2.53679 6.74488 2.5783 6.79596 2.6296 6.83585L8.6671 11.5515C8.73808 11.6064 8.83986 11.5568 8.83986 11.4671V10.4318C8.83986 10.3662 8.80906 10.3033 8.75817 10.2631L3.93674 6.49969L8.75817 2.73496C8.80906 2.69478 8.83986 2.63184 8.83986 2.56621Z" fill="black" fill-opacity="0.85" />
</svg>