<svg width="25" height="24" viewBox="0 0 25 24" fill="none" xmlns="http://www.w3.org/2000/svg">
<path d="M15.1698 6L9.82983 6C6.50983 6 5.15983 8.35 6.80983 11.22L7.54983 12.5C7.72983 12.81 8.05983 13 8.41983 13L16.5798 13C16.9398 13 17.2698 12.81 17.4498 12.5L18.1898 11.22C19.8398 8.35 18.4898 6 15.1698 6Z" fill="#BFBFBF"/>
<path d="M15.7104 14.0004L9.28043 14.0004C8.89043 14.0004 8.65043 14.4204 8.85043 14.7504L9.49043 15.8504C11.1404 18.7204 13.8604 18.7204 15.5104 15.8504L16.1504 14.7504C16.3404 14.4204 16.1004 14.0004 15.7104 14.0004Z" fill="#292D32"/>
</svg>
