<svg width="24" height="24" viewBox="0 0 24 24" fill="none" xmlns="http://www.w3.org/2000/svg">
<path d="M20.9521 15.9542L18.9679 14.5215C17.9507 13.7765 16.561 13.884 15.6656 14.7794L14.7487 15.6963C14.3045 16.1404 13.6312 16.2765 13.0868 16.0258C10.773 14.9656 9.04665 13.2393 7.97216 10.904C7.72144 10.3596 7.85038 9.68625 8.30167 9.24212L9.21141 8.33238C10.1068 7.43696 10.2143 6.04728 9.47645 5.02292L8.04379 3.04585C7.54952 2.35817 6.79737 2 6.01657 2C5.46499 2 4.89193 2.17908 4.37617 2.54441C2.32746 3.98424 1.48218 6.62751 2.31313 8.95559C4.53376 15.202 8.78877 19.4785 14.9492 21.6777C15.5653 21.8997 16.2028 22 16.8332 22C18.6312 22 20.379 21.1404 21.4535 19.6146L21.5395 19.4928C22.3418 18.361 22.0767 16.7708 20.9521 15.9542Z" fill="#FF9900"/>
</svg>
