<svg width="150" height="150" viewBox="0 0 150 150" fill="none" xmlns="http://www.w3.org/2000/svg">
<rect width="150" height="150" rx="75" fill="white" fill-opacity="0.4"/>
<path d="M63.655 117.119L71.5448 120.835C72.4749 121.273 73.4812 121.5 74.4988 121.5C75.5164 121.5 76.5228 121.275 77.4531 120.838L85.345 117.119C94.1686 112.955 101.665 106.169 106.928 97.5821C112.191 88.9954 114.995 78.9758 115 68.7353V51.9291C115.006 50.1201 114.407 48.3673 113.311 46.9811C112.215 45.5948 110.692 44.6646 109.011 44.355C104.699 43.562 100.471 42.3239 96.3866 40.6583C90.1115 38.0944 84.234 34.5483 78.9498 30.1381C77.6823 29.0781 76.1128 28.4996 74.4985 28.5C72.8841 28.5004 71.317 29.0774 70.0499 30.1381C64.7649 34.5487 58.8868 38.0955 52.6112 40.6605C48.5274 42.3246 44.3001 43.562 39.9894 44.355C38.3084 44.6646 36.7849 45.5948 35.6887 46.9811C34.5925 48.3673 33.9943 50.1201 34 51.9291V68.7353C34.0054 78.9758 36.8091 88.9954 42.0719 97.5821C47.3348 106.169 54.8314 112.955 63.655 117.119ZM40.2308 51.9291C40.2252 51.676 40.3054 51.4291 40.4569 51.2334C40.6083 51.0376 40.821 50.906 41.0563 50.8625C45.7665 49.9957 50.3856 48.6438 54.8482 46.826C61.7044 44.0261 68.1257 40.1515 73.8977 35.3315C74.0673 35.1845 74.2796 35.104 74.4987 35.1036C74.7178 35.1032 74.9303 35.1829 75.1004 35.3294C80.8719 40.15 87.2932 44.0246 94.1497 46.8238C98.6127 48.6431 103.233 49.9958 107.944 50.8625C108.179 50.9061 108.392 51.0377 108.543 51.2334C108.695 51.4292 108.775 51.676 108.769 51.9292V68.7353C108.765 77.698 106.311 86.4672 101.704 93.9823C97.098 101.497 90.5366 107.436 82.8138 111.081L74.9199 114.801C74.7874 114.864 74.6439 114.896 74.4988 114.895C74.3538 114.895 74.2105 114.862 74.0782 114.799L66.1863 111.081C58.4636 107.436 51.9022 101.497 47.2958 93.9823C42.6895 86.4672 40.2355 77.698 40.2308 68.7353V51.9291Z" fill="white"/>
</svg>
