<svg width="40" height="40" viewBox="0 0 40 40" fill="none" xmlns="http://www.w3.org/2000/svg">
<g clip-path="url(#clip0_2530_9523)">
<path d="M34.2183 23.3936L32.7486 20.7963C34.6167 12.0687 28.5963 3.47232 19.61 2.3617C9.17177 1.07617 0.530781 10.2235 2.55823 20.429C3.85969 26.9791 9.57903 32.1037 16.3431 32.5934L15.1656 34.7185C7.48961 33.6953 1.30103 27.6 0.194348 20.0268C-1.63832 7.57377 9.98629 -2.66672 22.3192 0.621428C31.757 3.14001 37.3081 12.8296 34.6786 22.1781C34.5901 22.5016 34.475 22.9564 34.3422 23.245C34.3156 23.3062 34.2979 23.3849 34.2183 23.3849V23.3936Z" fill="#727272"/>
<path d="M27.7728 18.5746C28.9768 18.4784 30.2163 19.0731 30.8981 20.0525L39.6364 34.9629C40.7077 37.2279 39.2646 39.729 36.7856 40.0001H19.2026C17.0335 39.7639 15.5992 37.7351 16.1305 35.6275C16.2544 35.1378 16.6085 34.5868 16.8564 34.1321C19.2734 29.7596 21.9738 25.1771 24.5855 20.9095C25.3823 19.6065 26.0906 18.7058 27.7728 18.5746ZM27.7108 20.8396C27.4186 20.8921 27.1353 21.0932 26.9671 21.3293L18.4324 35.9161C18.0074 36.7906 18.574 37.7438 19.5568 37.7875H36.5554C37.3788 37.7088 37.9543 36.8693 37.671 36.0997L28.9946 21.2419C28.667 20.8658 28.1977 20.7609 27.7108 20.8483V20.8396Z" fill="#727272"/>
<path d="M18.4507 5.6934C18.672 5.91203 18.8048 6.26183 18.8314 6.57665V15.3742C19.097 15.6803 19.4069 15.8202 19.6459 16.1962C20.9916 18.33 18.4064 20.7874 16.3347 19.3532C16.1045 19.1958 15.6441 18.5749 15.4936 18.5487L7.21562 18.5049C6.1532 18.0852 6.21517 16.686 7.32186 16.3537L15.5556 16.3274C15.7769 16.17 15.892 15.9164 16.1134 15.7153C16.2285 15.6103 16.379 15.5491 16.4941 15.4529L16.5383 6.34928C16.68 5.47477 17.7867 5.03752 18.4507 5.68465V5.6934Z" fill="#727272"/>
<path d="M27.2773 31.9894C27.056 31.797 26.932 31.4472 26.9054 31.1674C26.7195 29.3221 26.7638 27.3807 26.6133 25.518C26.9674 23.8827 29.2428 23.9876 29.4287 25.6492C29.2516 27.3807 29.3047 29.1472 29.1454 30.8788C29.1011 31.3947 29.0391 31.867 28.5256 32.1381C28.1361 32.3392 27.6137 32.2955 27.2773 31.9981V31.9894Z" fill="#727272"/>
<path d="M29.128 35.7241C27.9328 36.9659 25.7903 35.4879 26.6491 33.8876C27.7115 31.9112 30.7925 34.0013 29.128 35.7241Z" fill="#727272"/>
</g>
<defs>
<clipPath id="clip0_2530_9523">
<rect width="40" height="40" fill="white"/>
</clipPath>
</defs>
</svg>
