<svg width="24" height="24" viewBox="0 0 24 24" fill="none" xmlns="http://www.w3.org/2000/svg">
<path d="M3.40228 18.6902L10.0925 12L3.40228 5.30977C3.27543 5.18482 3.17458 5.03599 3.10553 4.87187C3.03649 4.70774 3.00063 4.53157 3.00001 4.35352C2.99939 4.17547 3.03403 3.99906 3.10193 3.83446C3.16983 3.66986 3.26965 3.52033 3.39563 3.3945C3.52161 3.26867 3.67125 3.16903 3.83593 3.10133C4.00061 3.03362 4.17706 2.99919 4.35511 3.00001C4.53316 3.00084 4.70929 3.03691 4.87333 3.10615C5.03737 3.17539 5.18608 3.27642 5.31088 3.40341L11.9989 10.0937L18.6891 3.40341C18.8139 3.27642 18.9626 3.17539 19.1267 3.10615C19.2907 3.03691 19.4668 3.00084 19.6449 3.00001C19.8229 2.99919 19.9994 3.03362 20.1641 3.10133C20.3288 3.16903 20.4784 3.26867 20.6044 3.3945C20.7304 3.52033 20.8302 3.66986 20.8981 3.83446C20.966 3.99906 21.0006 4.17547 21 4.35352C20.9994 4.53157 20.9635 4.70774 20.8945 4.87187C20.8254 5.03599 20.7246 5.18482 20.5977 5.30977L13.9052 12L20.5955 18.6902C20.7223 18.8152 20.8232 18.964 20.8922 19.1282C20.9613 19.2923 20.9971 19.4684 20.9977 19.6465C20.9984 19.8245 20.9637 20.001 20.8958 20.1656C20.8279 20.3302 20.7281 20.4797 20.6021 20.6055C20.4761 20.7313 20.3265 20.831 20.1618 20.8987C19.9971 20.9664 19.8207 21.0008 19.6426 21C19.4646 20.9992 19.2885 20.9631 19.1244 20.8939C18.9604 20.8246 18.8117 20.7236 18.6869 20.5966L11.9989 13.9064L5.30864 20.5966C5.05513 20.8463 4.71323 20.9857 4.35739 20.9845C4.00156 20.9833 3.66063 20.8415 3.40886 20.59C3.1571 20.3385 3.01491 19.9978 3.01325 19.6419C3.0116 19.2861 3.15062 18.944 3.40003 18.6902H3.40228Z" fill="#9F9F9F"/>
</svg>
