<svg width="19" height="19" viewBox="0 0 19 19" fill="none" xmlns="http://www.w3.org/2000/svg">
<path d="M6.20528 1.01855H1.27657C0.571538 1.01855 0 1.59009 0 2.29512V7.22384C0 7.92886 0.571538 8.5004 1.27657 8.5004H6.20528C6.91031 8.5004 7.48185 7.92886 7.48185 7.22384V2.29512C7.48185 1.59009 6.91031 1.01855 6.20528 1.01855Z" fill="#FF9900"/>
<path d="M18.4024 3.85699L14.9165 0.371155C14.6777 0.133449 14.3545 0 14.0175 0C13.6806 0 13.3573 0.133449 13.1185 0.371155L9.62371 3.85699C9.3871 4.09637 9.25439 4.41939 9.25439 4.75598C9.25439 5.09257 9.3871 5.41559 9.62371 5.65497L13.1118 9.1498C13.3512 9.38641 13.6742 9.51911 14.0108 9.51911C14.3474 9.51911 14.6704 9.38641 14.9098 9.1498L18.4024 5.66171C18.5211 5.54333 18.6153 5.40269 18.6795 5.24785C18.7438 5.09301 18.7769 4.927 18.7769 4.75935C18.7769 4.5917 18.7438 4.4257 18.6795 4.27085C18.6153 4.11601 18.5211 3.97537 18.4024 3.85699Z" fill="#FF9900"/>
<path d="M6.20528 11.292H1.27657C0.571538 11.292 0 11.8635 0 12.5686V17.4973C0 18.2023 0.571538 18.7738 1.27657 18.7738H6.20528C6.91031 18.7738 7.48185 18.2023 7.48185 17.4973V12.5686C7.48185 11.8635 6.91031 11.292 6.20528 11.292Z" fill="#FF9900"/>
<path d="M16.4785 11.292H11.5498C10.8447 11.292 10.2732 11.8635 10.2732 12.5686V17.4973C10.2732 18.2023 10.8447 18.7738 11.5498 18.7738H16.4785C17.1835 18.7738 17.755 18.2023 17.755 17.4973V12.5686C17.755 11.8635 17.1835 11.292 16.4785 11.292Z" fill="#FF9900"/>
</svg>
