<svg width="20" height="20" viewBox="0 0 20 20" fill="none" xmlns="http://www.w3.org/2000/svg">
<path d="M17.3086 14.1926V16.1907H2.84375V14.1926C2.84375 11.5285 4.29536 9.1888 6.43009 7.94212C7.47183 7.32732 8.68436 6.98577 9.98227 6.96869C9.99935 6.96869 10.0164 6.96869 10.0335 6.96869H10.0677C10.8874 6.96869 11.673 7.10531 12.3902 7.36148C13.1246 7.61765 13.8077 7.97628 14.4054 8.4203C16.1644 9.73529 17.3086 11.8188 17.3086 14.1926Z" fill="#410AE1"/>
<path d="M17.3093 14.1926V16.1907H10V6.96869C10.0171 6.96869 10.0342 6.96869 10.0512 6.96869H10.0854C10.9051 6.96869 11.6907 7.10531 12.408 7.36148C13.1423 7.61765 13.8254 7.97628 14.4231 8.4203C16.1651 9.73529 17.3093 11.8188 17.3093 14.1926Z" fill="#6029FE"/>
<path d="M19 7.72008C17.5996 9.39371 17.5996 12.963 17.5996 12.963H2.40038C2.40038 12.963 2.40038 11.7504 2.12713 10.4184C1.9222 9.46202 1.58065 8.42027 1 7.72008C1 7.72008 4.48387 7.75424 5.93548 10.3501C5.93548 10.3501 6.63567 7.73716 10 3.65557C10 3.65557 10 3.65557 10.0171 3.63849C13.3814 7.72008 14.0987 10.3501 14.0987 10.3501C15.5161 7.77132 19 7.72008 19 7.72008Z" fill="#FBDC00"/>
<path d="M19 7.72008C17.5996 9.39371 17.5996 12.963 17.5996 12.963H10V3.65557C10 3.65557 10 3.65557 10.0171 3.63849C13.3814 7.72008 14.0987 10.3501 14.0987 10.3501C15.5161 7.77132 19 7.72008 19 7.72008Z" fill="#F8CA10"/>
<path d="M11.8275 12.7922C11.8275 12.8434 11.8275 12.8776 11.8275 12.9288H8.20703C8.20703 12.8776 8.20703 12.8434 8.20703 12.7922C8.20703 10.999 9.00969 9.53031 9.98312 9.49615C10.0002 9.49615 10.0002 9.49615 10.0173 9.49615C11.0249 9.49615 11.8275 10.9648 11.8275 12.7922Z" fill="#410AE1"/>
<path d="M11.8273 12.7922C11.8273 12.8434 11.8273 12.8776 11.8273 12.9288H10V9.49615C10.0171 9.49615 10.0171 9.49615 10.0342 9.49615C11.0247 9.49615 11.8273 10.9648 11.8273 12.7922Z" fill="#6029FE"/>
<path d="M3.905 12.98H2.40215C2.40215 12.98 2.40215 11.7675 2.12891 10.4354C2.99987 10.4184 3.71714 11.5113 3.905 12.98Z" fill="#410AE1"/>
<path d="M16.1133 12.98H17.599C17.599 12.98 17.5991 11.7675 17.8723 10.4354C17.0184 10.4184 16.2841 11.5113 16.1133 12.98Z" fill="#6029FE"/>
<path d="M17.6528 16.3614H2.40234V12.7922H17.6528" fill="#FBDC00"/>
<path d="M17.6533 12.7922H10.0195V16.3614H17.6533V12.7922Z" fill="#F8CA10"/>
<path d="M17.9253 12.7922H2.04297V13.1337H17.9253V12.7922Z" fill="#F7B818"/>
<path d="M17.9253 16.0199H2.04297V16.3615H17.9253V16.0199Z" fill="#F7B818"/>
<path d="M10.0161 15.3026C10.3746 15.3026 10.6651 15.0121 10.6651 14.6537C10.6651 14.2952 10.3746 14.0047 10.0161 14.0047C9.65774 14.0047 9.36719 14.2952 9.36719 14.6537C9.36719 15.0121 9.65774 15.3026 10.0161 15.3026Z" fill="#F7B818"/>
<path d="M8.42811 14.6537C8.42811 14.8928 8.24025 15.0806 8.00116 15.0806C7.76207 15.0806 7.57422 14.8928 7.57422 14.6537C7.57422 14.4146 7.76207 14.2267 8.00116 14.2267C8.24025 14.2267 8.42811 14.4146 8.42811 14.6537Z" fill="#F7B818"/>
<path d="M7.0453 14.6537C7.0453 14.8928 6.85744 15.0806 6.61835 15.0806C6.37926 15.0806 6.19141 14.8928 6.19141 14.6537C6.19141 14.4146 6.37926 14.2267 6.61835 14.2267C6.85744 14.2267 7.0453 14.4146 7.0453 14.6537Z" fill="#F7B818"/>
<path d="M5.66248 14.6537C5.66248 14.8928 5.47463 15.0806 5.23554 15.0806C4.99645 15.0806 4.80859 14.8928 4.80859 14.6537C4.80859 14.4146 4.99645 14.2267 5.23554 14.2267C5.47463 14.2267 5.66248 14.4146 5.66248 14.6537Z" fill="#F7B818"/>
<path d="M4.2953 14.6537C4.2953 14.8928 4.10744 15.0806 3.86835 15.0806C3.62926 15.0806 3.44141 14.8928 3.44141 14.6537C3.44141 14.4146 3.62926 14.2267 3.86835 14.2267C4.09036 14.2267 4.2953 14.4146 4.2953 14.6537Z" fill="#F7B818"/>
<path d="M16.6078 14.6537C16.6078 14.8928 16.4199 15.0806 16.1809 15.0806C15.9418 15.0806 15.7539 14.8928 15.7539 14.6537C15.7539 14.4146 15.9418 14.2267 16.1809 14.2267C16.4199 14.2267 16.6078 14.4146 16.6078 14.6537Z" fill="#F7B818"/>
<path d="M15.225 14.6537C15.225 14.8928 15.0371 15.0806 14.798 15.0806C14.5589 15.0806 14.3711 14.8928 14.3711 14.6537C14.3711 14.4146 14.5589 14.2267 14.798 14.2267C15.0371 14.2267 15.225 14.4146 15.225 14.6537Z" fill="#F7B818"/>
<path d="M13.8422 14.6537C13.8422 14.8928 13.6543 15.0806 13.4152 15.0806C13.1761 15.0806 12.9883 14.8928 12.9883 14.6537C12.9883 14.4146 13.1761 14.2267 13.4152 14.2267C13.6543 14.2267 13.8422 14.4146 13.8422 14.6537Z" fill="#F7B818"/>
<path d="M12.4594 14.6537C12.4594 14.8928 12.2715 15.0806 12.0324 15.0806C11.7933 15.0806 11.6055 14.8928 11.6055 14.6537C11.6055 14.4146 11.7933 14.2267 12.0324 14.2267C12.2715 14.2267 12.4594 14.4146 12.4594 14.6537Z" fill="#F7B818"/>
</svg>
