<svg xmlns="http://www.w3.org/2000/svg" width="21" height="15" viewBox="0 0 21 15" fill="none">
  <g clip-path="url(#clip0_668_55744)">
    <path d="M18.7325 12.0651V14.3085H2.49219V12.0651C2.49219 9.07402 4.12197 6.4472 6.51871 5.0475C7.68831 4.35724 9.04966 3.97376 10.5069 3.95459C10.526 3.95459 10.5452 3.95459 10.5644 3.95459H10.6027C11.5231 3.95459 12.4051 4.10798 13.2104 4.39559C14.0349 4.6832 14.8018 5.08585 15.4729 5.58437C17.4478 7.06076 18.7325 9.39998 18.7325 12.0651Z" fill="#410AE1"/>
    <path d="M18.7318 12.0651V14.3085H10.5254V3.95459C10.5446 3.95459 10.5637 3.95459 10.5829 3.95459H10.6213C11.5416 3.95459 12.4236 4.10798 13.2289 4.39559C14.0534 4.6832 14.8203 5.08585 15.4914 5.58437C17.4472 7.06076 18.7318 9.39998 18.7318 12.0651Z" fill="#6029FE"/>
    <path d="M20.6292 4.79826C19.0569 6.6773 19.0569 10.6846 19.0569 10.6846H1.99218C1.99218 10.6846 1.99218 9.3233 1.6854 7.82774C1.45531 6.754 1.07183 5.58439 0.419922 4.79826C0.419922 4.79826 4.3314 4.83661 5.96118 7.75104C5.96118 7.75104 6.74731 4.81743 10.5246 0.234872C10.5246 0.234872 10.5246 0.234872 10.5437 0.215698C14.321 4.79826 15.1263 7.75104 15.1263 7.75104C16.7177 4.85578 20.6292 4.79826 20.6292 4.79826Z" fill="#FBDC00"/>
    <path d="M20.63 4.79826C19.0578 6.6773 19.0578 10.6846 19.0578 10.6846H10.5254V0.234872C10.5254 0.234872 10.5254 0.234872 10.5446 0.215698C14.3218 4.79826 15.1271 7.75104 15.1271 7.75104C16.7186 4.85578 20.63 4.79826 20.63 4.79826Z" fill="#F8CA10"/>
    <path d="M12.5766 10.4928C12.5766 10.5503 12.5766 10.5887 12.5766 10.6462H8.51172C8.51172 10.5887 8.51172 10.5503 8.51172 10.4928C8.51172 8.47954 9.41289 6.83058 10.5058 6.79224C10.525 6.79224 10.525 6.79224 10.5442 6.79224C11.6754 6.79224 12.5766 8.44119 12.5766 10.4928Z" fill="#410AE1"/>
    <path d="M12.577 10.4928C12.577 10.5503 12.577 10.5887 12.577 10.6462H10.5254V6.79224C10.5446 6.79224 10.5446 6.79224 10.5637 6.79224C11.6758 6.79224 12.577 8.44119 12.577 10.4928Z" fill="#6029FE"/>
    <path d="M3.67963 10.7038H1.99233C1.99233 10.7038 1.99233 9.34247 1.68555 7.8469C2.66342 7.82773 3.46872 9.05486 3.67963 10.7038Z" fill="#410AE1"/>
    <path d="M17.3887 10.7038H19.0568C19.0568 10.7038 19.0568 9.34247 19.3636 7.8469C18.4049 7.82773 17.5804 9.05486 17.3887 10.7038Z" fill="#6029FE"/>
    <path d="M19.1145 14.5003H1.99219V10.4929H19.1145" fill="#FBDC00"/>
    <path d="M19.1157 10.4929H10.5449V14.5003H19.1157V10.4929Z" fill="#F8CA10"/>
    <path d="M19.4216 10.4929H1.58984V10.8764H19.4216V10.4929Z" fill="#F7B818"/>
    <path d="M19.4216 14.1168H1.58984V14.5003H19.4216V14.1168Z" fill="#F7B818"/>
    <path d="M10.545 13.3115C10.9474 13.3115 11.2736 12.9853 11.2736 12.5829C11.2736 12.1805 10.9474 11.8542 10.545 11.8542C10.1426 11.8542 9.81641 12.1805 9.81641 12.5829C9.81641 12.9853 10.1426 13.3115 10.545 13.3115Z" fill="#F7B818"/>
    <path d="M8.76143 12.5829C8.76143 12.8513 8.55052 13.0622 8.28208 13.0622C8.01365 13.0622 7.80273 12.8513 7.80273 12.5829C7.80273 12.3144 8.01365 12.1035 8.28208 12.1035C8.55052 12.1035 8.76143 12.3144 8.76143 12.5829Z" fill="#F7B818"/>
    <path d="M7.2087 12.5829C7.2087 12.8513 6.99778 13.0622 6.72935 13.0622C6.46091 13.0622 6.25 12.8513 6.25 12.5829C6.25 12.3144 6.46091 12.1035 6.72935 12.1035C6.99778 12.1035 7.2087 12.3144 7.2087 12.5829Z" fill="#F7B818"/>
    <path d="M5.65401 12.5829C5.65401 12.8513 5.44309 13.0622 5.17466 13.0622C4.90623 13.0622 4.69531 12.8513 4.69531 12.5829C4.69531 12.3144 4.90623 12.1035 5.17466 12.1035C5.44309 12.1035 5.65401 12.3144 5.65401 12.5829Z" fill="#F7B818"/>
    <path d="M4.1208 12.5829C4.1208 12.8513 3.90989 13.0622 3.64146 13.0622C3.37302 13.0622 3.16211 12.8513 3.16211 12.5829C3.16211 12.3144 3.37302 12.1035 3.64146 12.1035C3.89072 12.1035 4.1208 12.3144 4.1208 12.5829Z" fill="#F7B818"/>
    <path d="M17.945 12.5829C17.945 12.8513 17.7341 13.0622 17.4657 13.0622C17.1972 13.0622 16.9863 12.8513 16.9863 12.5829C16.9863 12.3144 17.1972 12.1035 17.4657 12.1035C17.7341 12.1035 17.945 12.3144 17.945 12.5829Z" fill="#F7B818"/>
    <path d="M16.3923 12.5829C16.3923 12.8513 16.1814 13.0622 15.9129 13.0622C15.6445 13.0622 15.4336 12.8513 15.4336 12.5829C15.4336 12.3144 15.6445 12.1035 15.9129 12.1035C16.1814 12.1035 16.3923 12.3144 16.3923 12.5829Z" fill="#F7B818"/>
    <path d="M14.8396 12.5829C14.8396 12.8513 14.6286 13.0622 14.3602 13.0622C14.0918 13.0622 13.8809 12.8513 13.8809 12.5829C13.8809 12.3144 14.0918 12.1035 14.3602 12.1035C14.6286 12.1035 14.8396 12.3144 14.8396 12.5829Z" fill="#F7B818"/>
    <path d="M13.2849 12.5829C13.2849 12.8513 13.074 13.0622 12.8055 13.0622C12.5371 13.0622 12.3262 12.8513 12.3262 12.5829C12.3262 12.3144 12.5371 12.1035 12.8055 12.1035C13.074 12.1035 13.2849 12.3144 13.2849 12.5829Z" fill="#F7B818"/>
    <path d="M10.1019 3.456C9.9102 3.456 9.75681 3.3793 9.66094 3.30261C9.69929 3.20674 9.75681 3.13004 9.75681 3.13004C9.75681 3.13004 9.69929 3.18756 9.58424 3.22591C9.43085 3.03417 9.41168 2.78491 9.41168 2.78491C9.41168 2.78491 9.3925 3.03417 9.23911 3.22591C9.18159 3.20674 9.14324 3.16839 9.08572 3.13004C9.14324 3.18756 9.16242 3.24509 9.20077 3.28343C9.1049 3.3793 8.9515 3.456 8.75977 3.456C8.9515 3.456 9.1049 3.53269 9.20077 3.60939C9.16242 3.70526 9.1049 3.78196 9.1049 3.78196C9.1049 3.78196 9.16242 3.72443 9.27746 3.68609C9.43085 3.87782 9.45003 4.12709 9.45003 4.12709C9.45003 4.12709 9.4692 3.87782 9.62259 3.68609C9.68011 3.70526 9.71846 3.74361 9.77598 3.78196C9.71846 3.72443 9.69929 3.66691 9.66094 3.62856C9.75681 3.53269 9.89103 3.456 10.1019 3.456Z" fill="white"/>
    <path d="M16.2387 8.78644C16.0469 8.78644 15.8935 8.70975 15.7977 8.63305C15.836 8.53718 15.8935 8.46049 15.8935 8.46049C15.8935 8.46049 15.836 8.51801 15.721 8.55636C15.5676 8.36462 15.5484 8.11536 15.5484 8.11536C15.5484 8.11536 15.5292 8.36462 15.3758 8.55636C15.3183 8.53718 15.28 8.49883 15.2224 8.46049C15.28 8.51801 15.2991 8.57553 15.3375 8.61388C15.2416 8.70975 15.0882 8.78644 14.8965 8.78644C15.0882 8.78644 15.2416 8.86314 15.3375 8.93983C15.2991 9.0357 15.2416 9.1124 15.2416 9.1124C15.2416 9.1124 15.2991 9.05488 15.4142 9.01653C15.5676 9.20827 15.5867 9.45753 15.5867 9.45753C15.5867 9.45753 15.6059 9.20827 15.7593 9.01653C15.8168 9.0357 15.8552 9.07405 15.9127 9.1124C15.8552 9.05488 15.836 8.99736 15.7977 8.95901C15.8935 8.86314 16.0469 8.78644 16.2387 8.78644Z" fill="white"/>
    <path d="M3.64055 7.2908C3.54468 7.2908 3.46799 7.25245 3.42964 7.2141C3.44881 7.15658 3.48716 7.13741 3.48716 7.13741C3.48716 7.13741 3.44881 7.15658 3.41046 7.17576C3.33377 7.07989 3.33377 6.96484 3.33377 6.96484C3.33377 6.96484 3.31459 7.07989 3.2379 7.17576C3.21873 7.15658 3.18038 7.15658 3.1612 7.11823C3.18038 7.13741 3.19955 7.17576 3.21873 7.19493C3.1612 7.25245 3.10368 7.27163 3.00781 7.27163C3.10368 7.27163 3.18038 7.30997 3.21873 7.34832C3.19955 7.40584 3.1612 7.42502 3.1612 7.42502C3.1612 7.42502 3.19955 7.40584 3.2379 7.38667C3.29542 7.50171 3.29542 7.61676 3.29542 7.61676C3.29542 7.61676 3.31459 7.50171 3.39129 7.40584C3.41046 7.42502 3.44881 7.42502 3.46799 7.46336C3.44881 7.44419 3.42964 7.40584 3.41046 7.38667C3.46799 7.32915 3.52551 7.2908 3.64055 7.2908Z" fill="white"/>
    <path d="M12.2128 11.8734C12.1169 11.8734 12.0403 11.8351 12.0019 11.7967C12.0211 11.7392 12.0594 11.7201 12.0594 11.7201C12.0594 11.7201 12.0211 11.7392 11.9827 11.7584C11.906 11.6625 11.906 11.5475 11.906 11.5475C11.906 11.5475 11.8869 11.6625 11.8102 11.7584C11.791 11.7392 11.7526 11.7392 11.7335 11.7009C11.7526 11.7201 11.7718 11.7584 11.791 11.7776C11.7335 11.8351 11.6759 11.8543 11.5801 11.8543C11.6759 11.8543 11.7526 11.8926 11.791 11.931C11.7718 11.9885 11.7335 12.0077 11.7335 12.0077C11.7335 12.0077 11.7718 11.9885 11.8102 11.9693C11.8869 12.0652 11.8869 12.1802 11.8869 12.1802C11.8869 12.1802 11.906 12.0652 11.9827 11.9693C12.0019 11.9885 12.0403 11.9885 12.0594 12.0268C12.0403 12.0077 12.0211 11.9693 12.0019 11.9501C12.0403 11.9118 12.1169 11.8734 12.2128 11.8734Z" fill="white"/>
  </g>
  <defs>
    <clipPath id="clip0_668_55744">
      <rect width="20.2093" height="14.2846" fill="white" transform="translate(0.419922 0.215698)"/>
    </clipPath>
  </defs>
</svg>