<svg width="30" height="34" viewBox="0 0 30 34" fill="none" xmlns="http://www.w3.org/2000/svg">
<path d="M26.6046 7.19884L25.5667 30.776C25.5337 31.5244 24.8505 32.143 24.0567 32.143H5.94355C5.14974 32.143 4.46651 31.523 4.43362 30.776L3.39563 7.19884C3.37611 6.75543 2.98048 6.41095 2.51197 6.42942C2.04345 6.4479 1.67947 6.82233 1.69899 7.26575L2.73698 30.8429C2.80777 32.4509 4.23955 33.7502 5.94355 33.7502H24.0567C25.7598 33.7502 27.1924 32.4531 27.2633 30.8429L28.3013 7.26575C28.3208 6.82233 27.9568 6.4479 27.4883 6.42942C27.0198 6.41095 26.6242 6.75543 26.6046 7.19884Z" fill="black"/>
<path d="M14.4341 10.4466V28.6609C14.4341 29.1047 14.8142 29.4645 15.2831 29.4645C15.7521 29.4645 16.1322 29.1047 16.1322 28.6609V10.4466C16.1322 10.0028 15.7521 9.64307 15.2831 9.64307C14.8142 9.64307 14.4341 10.0028 14.4341 10.4466Z" fill="black"/>
<path d="M7.92469 10.4703L8.49073 28.6846C8.50451 29.1282 8.89566 29.4772 9.36438 29.4642C9.8331 29.4511 10.2019 29.0809 10.1881 28.6373L9.62207 10.423C9.60828 9.97941 9.21714 9.63037 8.74842 9.64342C8.2797 9.65647 7.9109 10.0267 7.92469 10.4703Z" fill="black"/>
<path d="M20.3779 10.423L19.8119 28.6373C19.7981 29.0809 20.1669 29.4511 20.6356 29.4642C21.1043 29.4772 21.4955 29.1282 21.5093 28.6846L22.0753 10.4703C22.0891 10.0267 21.7203 9.65647 21.2516 9.64342C20.7829 9.63037 20.3917 9.97941 20.3779 10.423Z" fill="black"/>
<path d="M0.849057 4.55343H29.1509C29.6199 4.55343 30 4.19366 30 3.74986C30 3.30606 29.6199 2.94629 29.1509 2.94629H0.849057C0.380136 2.94629 0 3.30606 0 3.74986C0 4.19366 0.380136 4.55343 0.849057 4.55343Z" fill="black"/>
<path d="M10.1279 3.78058L10.7337 2.3472C10.895 1.9656 11.4545 1.60714 11.8868 1.60714H18.1132C18.5485 1.60714 19.1038 1.96296 19.2662 2.3472L19.872 3.78058L21.4487 3.1837L20.8429 1.75032C20.4226 0.755908 19.2429 0 18.1132 0H11.8868C10.7602 0 9.57626 0.758511 9.15708 1.75032L8.55127 3.1837L10.1279 3.78058Z" fill="black"/>
</svg>
