<svg width="18" height="20" viewBox="0 0 18 20" fill="none" xmlns="http://www.w3.org/2000/svg">
<rect x="4.16113" width="13.737" height="17.6676" rx="2" transform="rotate(11.2037 4.16113 0)" fill="#054510"/>
<path d="M0.363281 4.46191C0.363281 3.35734 1.25871 2.46191 2.36328 2.46191H12.4457C13.5503 2.46191 14.4458 3.35734 14.4458 4.46191V10.662C14.4458 10.762 14.4383 10.8617 14.4233 10.9605L13.7534 15.3992C13.7031 15.7321 13.5696 16.0469 13.3653 16.3145L12.6 17.3166L11.5204 18.5063C11.1413 18.9241 10.6034 19.1623 10.0393 19.1623H7.40452H2.36328C1.25871 19.1623 0.363281 18.2669 0.363281 17.1623V4.46191Z" fill="#44AA56"/>
<path d="M10.2246 18.7243C9.59129 16.9772 11.0868 15.1996 12.9165 15.5247C13.374 15.606 13.5719 16.152 13.2728 16.5075L11.2538 18.9072C10.9547 19.2627 10.3829 19.1611 10.2246 18.7243Z" fill="#C9FFD3"/>
<path d="M0.368164 4.48144C0.368164 3.37688 1.26359 2.48145 2.36816 2.48145H12.4466C13.5512 2.48145 14.4466 3.37688 14.4466 4.48145V5.80603H0.368164V4.48144Z" fill="#C9FFD3"/>
<rect x="2.16016" y="7.05176" width="5.08229" height="0.998578" rx="0.499289" fill="white"/>
<rect x="2.16016" y="8.63965" width="6.25597" height="0.998578" rx="0.499289" fill="white"/>
<path d="M4.48915 11.981C5.08163 11.9342 6.01745 11.7789 6.90127 11.2897C7.09092 11.1847 7.32352 11.1848 7.51344 11.2893C8.41229 11.7838 9.36578 11.9373 9.94743 11.9832C10.2762 12.0092 10.5309 12.2776 10.5387 12.6049C10.5714 13.9794 10.3387 17.3047 7.4557 18.4136C7.29725 18.4745 7.1194 18.4685 6.96424 18.3997C4.38859 17.2581 4.01157 15.1147 3.90104 12.6465C3.88571 12.3042 4.145 12.0083 4.48915 11.981Z" fill="white"/>
<path d="M4.7494 12.2533C5.28536 12.2109 6.13192 12.0704 6.93144 11.6278C7.10299 11.5329 7.31341 11.533 7.48522 11.6276C8.29833 12.0749 9.16087 12.2137 9.68704 12.2553C9.98448 12.2787 10.2149 12.5216 10.2219 12.8176C10.2515 14.061 10.0409 17.0691 7.43298 18.0723C7.28964 18.1274 7.12876 18.1219 6.9884 18.0597C4.65843 17.027 4.31737 15.0881 4.21738 12.8553C4.20351 12.5456 4.43808 12.2779 4.7494 12.2533Z" fill="#C9FFD3"/>
<path d="M7.22101 12.6602C6.01226 12.6602 5.03125 13.6338 5.03125 14.8336C5.03125 16.0333 6.01226 17.0069 7.22101 17.0069C8.42976 17.0069 9.41077 16.0333 9.41077 14.8336C9.41077 13.6338 8.42976 12.6602 7.22101 12.6602ZM7.22101 16.7896C6.13489 16.7896 5.25023 15.9116 5.25023 14.8336C5.25023 13.7555 6.13489 12.8775 7.22101 12.8775C8.30713 12.8775 9.1918 13.7555 9.1918 14.8336C9.1918 15.9116 8.30713 16.7896 7.22101 16.7896Z" fill="#44AA56"/>
<path d="M6.39941 14.9841L6.84768 15.4369L8.04304 14.2295" stroke="#44AA56" stroke-width="1.3416" stroke-linecap="round" stroke-linejoin="round"/>
</svg>
