<svg width="24" height="24" viewBox="0 0 24 24" fill="none" xmlns="http://www.w3.org/2000/svg">
<path d="M14.5 1.75C14.6339 1.75 14.75 1.86614 14.75 2V5.5H15.5898C16.3637 5.5 17 6.1363 17 6.91016V12C17 12.9866 16.664 13.8585 16.0742 14.4805C15.4883 15.0984 14.6235 15.5 13.5 15.5H12.25V22C12.25 22.1339 12.1339 22.25 12 22.25C11.8661 22.25 11.75 22.1339 11.75 22V15.5H10.5C9.37647 15.5 8.51172 15.0984 7.92578 14.4805C7.33598 13.8585 7 12.9866 7 12V6.91016C7 6.1363 7.6363 5.5 8.41016 5.5H9.25V2C9.25 1.86614 9.36614 1.75 9.5 1.75C9.63386 1.75 9.75 1.86614 9.75 2V5.5H14.25V2C14.25 1.86614 14.3661 1.75 14.5 1.75Z" stroke="#FF9900"/>
</svg>
