<svg width="21" height="20" viewBox="0 0 21 20" fill="none" xmlns="http://www.w3.org/2000/svg">
    <path d="M17.6667 3.41667V5.25C17.6667 5.91667 17.2501 6.75 16.8334 7.16667L13.2501 10.3333C12.7501 10.75 12.4167 11.5833 12.4167 12.25V15.8333C12.4167 16.3333 12.0834 17 11.6667 17.25L10.5001 18C9.41673 18.6667 7.91673 17.9167 7.91673 16.5833V12.1667C7.91673 11.5833 7.5834 10.8333 7.25007 10.4167L6.8584 10.0083C6.60007 9.73333 6.55007 9.31667 6.7584 8.99167L11.0251 2.14167C11.1751 1.9 11.4417 1.75 11.7334 1.75H16.0001C16.9167 1.75 17.6667 2.5 17.6667 3.41667Z" fill="#BFBFBF"/>
    <path d="M9.12467 3.025L6.16634 7.76667C5.88301 8.225 5.23301 8.29167 4.85801 7.9L4.08301 7.08333C3.66634 6.66667 3.33301 5.91667 3.33301 5.41667V3.5C3.33301 2.5 4.08301 1.75 4.99967 1.75H8.41634C9.06634 1.75 9.46634 2.46667 9.12467 3.025Z" fill="#BFBFBF"/>
</svg>
