<svg width="28" height="28" viewBox="0 0 28 28" fill="none" xmlns="http://www.w3.org/2000/svg">
<path fill-rule="evenodd" clip-rule="evenodd" d="M15.2152 4.03724C14.7657 2.95642 13.2346 2.95642 12.785 4.03724L10.2219 10.1997L3.56902 10.7331C2.40218 10.8266 1.92905 12.2828 2.81805 13.0443L7.88687 17.3863L6.33826 23.8784C6.06666 25.017 7.30534 25.917 8.30432 25.3068L14.0001 21.8278L19.696 25.3068C20.6949 25.917 21.9336 25.017 21.662 23.8784L20.1134 17.3863L25.1822 13.0443C26.0712 12.2828 25.5981 10.8266 24.4313 10.7331L17.7783 10.1997L15.2152 4.03724Z" fill="#F0F0F0"/>
<g clip-path="url(#clip0_4033_2592)">
<rect width="12" height="23" transform="translate(2 3)" fill="white"/>
<path fill-rule="evenodd" clip-rule="evenodd" d="M15.2152 4.03724C14.7657 2.95642 13.2346 2.95642 12.785 4.03724L10.2219 10.1997L3.56902 10.7331C2.40218 10.8266 1.92905 12.2828 2.81805 13.0443L7.88687 17.3863L6.33826 23.8784C6.06666 25.017 7.30534 25.917 8.30432 25.3068L14.0001 21.8278L19.696 25.3068C20.6949 25.917 21.9336 25.017 21.662 23.8784L20.1134 17.3863L25.1822 13.0443C26.0712 12.2828 25.5981 10.8266 24.4313 10.7331L17.7783 10.1997L15.2152 4.03724Z" fill="#FFC34F"/>
</g>
<defs>
<clipPath id="clip0_4033_2592">
<rect width="12" height="23" fill="white" transform="translate(2 3)"/>
</clipPath>
</defs>
</svg>
