<svg xmlns="http://www.w3.org/2000/svg" width="41" height="41" viewBox="0 0 41 41" fill="none">
  <path d="M16.397 6.44287C16.0255 6.44287 15.6786 6.62854 15.4725 6.93765L11.4013 13.0445C11.317 13.171 11.2417 13.3026 11.1758 13.4384C10.7386 13.2276 10.2482 13.1095 9.73036 13.1095H7.50814C5.66719 13.1095 4.1748 14.6019 4.1748 16.4429V30.8873C4.1748 32.7283 5.66719 34.2206 7.50814 34.2206H9.73036C10.5841 34.2206 11.3629 33.8997 11.9526 33.3719C12.5423 33.8997 13.3211 34.2206 14.1748 34.2206H21.3476C24.1574 34.2206 26.5247 32.1229 26.8629 29.3336L27.752 21.9984H33.0637C35.5183 21.9984 37.5081 20.0086 37.5081 17.554C37.5081 15.0994 35.5183 13.1095 33.0637 13.1095H21.621L21.9082 12.0325C22.6607 9.21093 20.534 6.44287 17.6139 6.44287H16.397Z" fill="white"/>
</svg>