<svg width="14" height="16" viewBox="0 0 14 16" fill="none" xmlns="http://www.w3.org/2000/svg">
<path d="M10.8206 2.31185V1.16163C10.8206 0.859331 10.5735 0.608643 10.2755 0.608643C9.97749 0.608643 9.73038 0.859331 9.73038 1.16163V2.26761H5.00627V1.16163C5.00627 0.859331 4.75916 0.608643 4.46118 0.608643C4.1632 0.608643 3.91609 0.859331 3.91609 1.16163V2.31185C1.95376 2.49618 1.00167 3.68327 0.856317 5.44546C0.841781 5.65928 1.01621 5.83624 1.21971 5.83624H13.5169C13.7277 5.83624 13.9021 5.65191 13.8803 5.44546C13.735 3.68327 12.7829 2.49618 10.8206 2.31185Z" fill="#808080"/>
<path d="M13.1874 6.94214H1.55882C1.15909 6.94214 0.832031 7.27393 0.832031 7.67946V12.2213C0.832031 14.4333 1.92221 15.9079 4.46596 15.9079H10.2803C12.824 15.9079 13.9142 14.4333 13.9142 12.2213V7.67946C13.9142 7.27393 13.5871 6.94214 13.1874 6.94214ZM5.34538 13.1135C5.30904 13.143 5.2727 13.1799 5.23636 13.202C5.19275 13.2315 5.14914 13.2536 5.10554 13.2683C5.06193 13.2905 5.01832 13.3052 4.97471 13.3126C4.92384 13.32 4.88023 13.3273 4.82936 13.3273C4.73487 13.3273 4.64039 13.3052 4.55318 13.2683C4.4587 13.2315 4.38602 13.1799 4.31334 13.1135C4.18252 12.9734 4.10257 12.7817 4.10257 12.59C4.10257 12.3983 4.18252 12.2066 4.31334 12.0665C4.38602 12.0002 4.4587 11.9485 4.55318 11.9117C4.684 11.8527 4.82936 11.8379 4.97471 11.8674C5.01832 11.8748 5.06193 11.8896 5.10554 11.9117C5.14914 11.9264 5.19275 11.9485 5.23636 11.978C5.2727 12.0075 5.30904 12.037 5.34538 12.0665C5.4762 12.2066 5.55614 12.3983 5.55614 12.59C5.55614 12.7817 5.4762 12.9734 5.34538 13.1135ZM5.34538 10.5329C5.20729 10.6656 5.01832 10.7467 4.82936 10.7467C4.64039 10.7467 4.45143 10.6656 4.31334 10.5329C4.18252 10.3928 4.10257 10.2011 4.10257 10.0094C4.10257 9.81768 4.18252 9.62598 4.31334 9.48589C4.51684 9.27944 4.83663 9.21308 5.10554 9.33105C5.20002 9.36792 5.27996 9.41953 5.34538 9.48589C5.4762 9.62598 5.55614 9.81768 5.55614 10.0094C5.55614 10.2011 5.4762 10.3928 5.34538 10.5329ZM7.88913 13.1135C7.75104 13.2462 7.56207 13.3273 7.37311 13.3273C7.18415 13.3273 6.99518 13.2462 6.85709 13.1135C6.72627 12.9734 6.64632 12.7817 6.64632 12.59C6.64632 12.3983 6.72627 12.2066 6.85709 12.0665C7.126 11.7937 7.62022 11.7937 7.88913 12.0665C8.01995 12.2066 8.0999 12.3983 8.0999 12.59C8.0999 12.7817 8.01995 12.9734 7.88913 13.1135ZM7.88913 10.5329C7.85279 10.5624 7.81645 10.5919 7.78011 10.6214C7.7365 10.6509 7.6929 10.673 7.64929 10.6877C7.60568 10.7098 7.56207 10.7246 7.51847 10.732C7.46759 10.7393 7.42399 10.7467 7.37311 10.7467C7.18415 10.7467 6.99518 10.6656 6.85709 10.5329C6.72627 10.3928 6.64632 10.2011 6.64632 10.0094C6.64632 9.81768 6.72627 9.62598 6.85709 9.48589C6.9225 9.41953 7.00245 9.36792 7.09693 9.33105C7.36584 9.21308 7.68563 9.27944 7.88913 9.48589C8.01995 9.62598 8.0999 9.81768 8.0999 10.0094C8.0999 10.2011 8.01995 10.3928 7.88913 10.5329ZM10.4329 13.1135C10.2948 13.2462 10.1058 13.3273 9.91686 13.3273C9.7279 13.3273 9.53893 13.2462 9.40084 13.1135C9.27002 12.9734 9.19008 12.7817 9.19008 12.59C9.19008 12.3983 9.27002 12.2066 9.40084 12.0665C9.66976 11.7937 10.164 11.7937 10.4329 12.0665C10.5637 12.2066 10.6437 12.3983 10.6437 12.59C10.6437 12.7817 10.5637 12.9734 10.4329 13.1135ZM10.4329 10.5329C10.3965 10.5624 10.3602 10.5919 10.3239 10.6214C10.2803 10.6509 10.2366 10.673 10.193 10.6877C10.1494 10.7098 10.1058 10.7246 10.0622 10.732C10.0113 10.7393 9.96047 10.7467 9.91686 10.7467C9.7279 10.7467 9.53893 10.6656 9.40084 10.5329C9.27002 10.3928 9.19008 10.2011 9.19008 10.0094C9.19008 9.81768 9.27002 9.62598 9.40084 9.48589C9.47352 9.41953 9.5462 9.36792 9.64068 9.33105C9.77151 9.27207 9.91686 9.25732 10.0622 9.28682C10.1058 9.29419 10.1494 9.30893 10.193 9.33105C10.2366 9.3458 10.2803 9.36792 10.3239 9.39741C10.3602 9.42691 10.3965 9.4564 10.4329 9.48589C10.5637 9.62598 10.6437 9.81768 10.6437 10.0094C10.6437 10.2011 10.5637 10.3928 10.4329 10.5329Z" fill="#808080"/>
</svg>
