<svg width="50" height="50" viewBox="0 0 50 50" fill="none" xmlns="http://www.w3.org/2000/svg">
<rect x="0.5" y="0.5" width="49" height="49" rx="7.5" fill="#F5EBFF" stroke="#8B36A1"/>
<g clip-path="url(#clip0_2477_10043)">
<path d="M32.5596 19.1461H28.5875C27.9818 19.1461 27.2234 18.246 27.2234 17.644V13.4966H17.9151C17.8278 13.4966 17.4459 13.7893 17.4241 13.9218L17.3913 35.9401C17.3804 36.3211 17.746 36.5697 18.0897 36.5862L32.0303 36.5697C32.2376 36.5365 32.4995 36.3212 32.5487 36.1113C32.696 35.4486 32.3468 33.7753 32.7396 33.3003C33.067 32.9027 33.8309 33.0629 33.94 33.5599C34.0218 33.9354 33.9945 35.6805 33.9564 36.1279C33.8691 37.0777 32.9851 37.9392 32.0412 37.9945H17.9697C16.9439 37.9116 16.0873 37.1164 16 36.0616V14.0212C16.0873 12.972 16.9548 12.1712 17.9697 12.0828C21.0688 11.8122 24.5444 12.2927 27.6817 12.0828L28.4183 12.3203L33.4435 16.8709C33.7436 17.1967 33.9182 17.4894 33.9564 17.9477C34.0709 19.2731 33.88 20.7698 33.94 22.1117C33.7545 22.5701 33.2089 22.7523 32.8269 22.4044C32.7451 22.3271 32.5596 22.0289 32.5596 21.9405V19.1461ZM32.2595 17.7379L28.6202 14.4244V17.5888C28.6202 17.5888 28.762 17.7434 28.773 17.7434H32.2595V17.7379Z" fill="#83388D"/>
<path d="M26.9069 21.1895C32.1122 20.7863 35.6696 26.4193 33.1379 31.0582C30.9172 35.1283 25.2428 35.6364 22.3401 32.0412C18.9736 27.8717 21.6363 21.6036 26.9069 21.1895ZM26.8469 22.6032C22.8039 23.0008 20.8015 27.9711 23.4041 31.1465C25.712 33.963 30.1152 33.6041 31.9048 30.4231C34.0055 26.6899 31.0427 22.189 26.8469 22.6032Z" fill="#83388D"/>
<path d="M27.2671 24.3815C27.5617 24.3263 27.9873 24.5306 28.0582 24.8398C28.2219 25.5909 27.9218 26.7562 28.1182 27.5459L30.3225 29.8598C30.5844 30.528 29.7333 31.1245 29.1986 30.633L26.7705 28.1202L26.7487 24.8951C26.776 24.6576 27.0597 24.4257 27.278 24.3815H27.2671Z" fill="#83388D"/>
</g>
<defs>
<clipPath id="clip0_2477_10043">
<rect width="18" height="26" fill="white" transform="translate(16 12)"/>
</clipPath>
</defs>
</svg>
