<svg width="50" height="50" viewBox="0 0 50 50" fill="none" xmlns="http://www.w3.org/2000/svg">
<rect x="0.5" y="0.5" width="49" height="49" rx="7.5" fill="#F1FFEB" stroke="#61BF61"/>
<g clip-path="url(#clip0_2477_10026)">
<path d="M36.7408 25.553C35.1915 23.6866 33.5113 21.9444 32.0235 20.0247L31.9647 15.0259C31.8498 14.8898 31.7403 14.7094 31.564 14.671C31.345 14.6236 29.7476 14.6414 29.6007 14.7153C29.5606 14.736 29.2774 15.0437 29.2774 15.0703V16.8923C28.5161 16.2446 27.9953 15.3069 27.274 14.6207C27.1752 14.529 27.071 14.526 27.0309 14.4935C26.9989 14.4698 27.1351 14.4314 26.8707 14.316C26.6917 13.9611 26.3605 13.5499 26.1094 13.2482C25.495 12.5117 24.8138 11.5534 23.8255 12.2307C20.3449 16.4191 16.5838 20.3442 13.1032 24.5296C12.8521 24.8313 12.0988 25.695 12.04 26.0174C11.813 27.2301 12.5689 28.0909 13.6615 27.9016C14.2251 27.8039 14.6097 26.9905 15.0692 26.6652C15.0211 26.9846 15.1386 27.2863 15.1547 27.5939C15.2882 30.1377 14.8849 33.2435 15.1493 35.6837C15.2161 36.3078 15.7584 36.8255 16.3113 36.8846C19.7171 37.2485 23.6492 36.6036 27.1111 36.8787C27.2179 36.8787 27.3248 36.8787 27.4316 36.8787C27.4851 36.8787 27.5385 36.8787 27.5919 36.8787C27.672 36.8787 27.7522 36.8787 27.8323 36.8787C27.9926 36.8787 28.1529 36.8787 28.3131 36.8787C28.3933 36.8787 28.4734 36.8787 28.5535 36.8787C28.607 36.8787 28.6604 36.8787 28.7138 36.8787C28.7672 36.8787 28.8207 36.8787 28.8741 36.8787C30.004 36.8728 31.8071 37.0503 32.8409 36.8728C33.5167 36.7574 33.9361 35.8494 33.9334 35.1484V26.6622C34.3635 26.958 34.7668 27.7714 35.2743 27.8868C36.5859 28.1855 37.4648 26.7716 36.7408 25.553ZM29.9987 15.4696H31.2835V19.1995C31.0885 19.0634 29.9987 17.8359 29.9987 17.7324V15.4666V15.4696ZM33.148 35.7015C32.9958 36.0209 32.7581 36.1304 32.4455 36.1688C31.3396 36.3078 29.7957 36.1629 28.6337 36.1688C28.5535 36.1688 28.4734 36.1688 28.3933 36.1688C28.1529 36.1688 27.9124 36.1688 27.672 36.1688C27.5652 36.1688 27.4583 36.1688 27.3515 36.1688C23.7266 36.1807 20.0991 36.157 16.4743 36.1688C16.151 36.154 15.8492 35.8435 15.7984 35.4944L15.8358 25.6831C18.3548 22.9353 20.7082 20.0011 23.1764 17.194C23.5931 16.7208 24.0285 16.2002 24.504 15.8157C24.6375 15.8157 25.7194 17.0668 25.9117 17.2828C28.3666 20.072 30.7119 22.9826 33.1961 25.7423C33.1961 29.0551 33.2816 32.3946 33.1507 35.6956L33.148 35.7015ZM35.2129 26.9787C31.7964 23.0299 28.3479 19.1167 24.9848 15.1117C24.3303 14.6059 24.1754 15.0437 23.7801 15.4696C20.3529 19.1906 17.1901 23.2222 13.7897 26.9757C13.1539 27.5673 12.2724 26.6504 12.8628 25.9494L24.1433 12.9436C24.3303 12.7661 24.6482 12.7513 24.8379 12.9199L36.1772 25.9967C36.6901 26.7125 35.8166 27.5525 35.2102 26.9787H35.2129Z" fill="#15A554"/>
<path d="M27.3275 24.3344C27.0951 23.4825 26.3471 22.7608 25.5458 22.6661C22.7971 22.3378 21.3199 23.0388 21.5683 26.3575C21.5817 26.538 21.5737 26.7894 21.75 26.8722C22.4258 26.9018 27.1058 27.0733 27.3301 26.8219C27.5332 26.5942 27.4343 24.7218 27.3275 24.3373V24.3344ZM26.7078 26.1298H22.2949V24.6627C22.2949 24.2545 22.968 23.589 23.334 23.5032C23.7694 23.4026 25.3855 23.4056 25.7915 23.5476C26.1041 23.657 26.7104 24.3018 26.7104 24.6627V26.1298H26.7078Z" fill="#15A554"/>
<path d="M27.9499 30.3921C26.7452 30.4927 26.0079 31.4333 25.9037 32.7466C25.8797 33.0512 25.8343 34.4799 26.1067 34.5716H31.5641C31.6228 34.5716 31.7457 34.3556 31.7617 34.258C31.8659 33.6605 31.7831 32.2201 31.5373 31.6669C30.8722 30.1732 29.2535 30.2826 27.9472 30.3921H27.9499ZM31.0031 33.8587H26.6303V32.3916C26.6303 32.0219 27.1939 31.3741 27.5145 31.238C27.9632 31.0458 29.4431 31.0339 29.9266 31.1434C30.3487 31.238 30.8188 31.6669 30.9817 32.1077C31.0806 32.3768 31.2622 33.8587 31.0058 33.8587H31.0031Z" fill="#15A554"/>
<path d="M20.9727 30.3921C19.6397 30.2767 17.8633 30.1969 17.3024 31.8444C17.1368 32.3325 17.0727 33.7522 17.1581 34.258C17.1768 34.3616 17.2783 34.5479 17.3558 34.5716H22.8131C23.0749 34.5716 23.0348 33.0897 23.0161 32.8353C22.9173 31.4836 22.2228 30.5015 20.97 30.3921H20.9727ZM22.2949 33.8587H17.9221C17.7565 33.8587 17.7859 33.0098 17.7992 32.8353C17.858 32.0396 18.256 31.315 19.0013 31.1464C19.4634 31.0399 20.9967 31.0487 21.4134 31.241C21.7179 31.38 22.2949 32.0367 22.2949 32.3975V33.8646V33.8587Z" fill="#15A554"/>
<path d="M27.5038 28.7593C27.5999 29.0167 27.7255 28.9782 27.8056 29.0906C27.8617 29.1675 27.8484 29.3036 27.9472 29.4189C28.5429 30.1111 29.7236 29.7709 30.0922 28.9427C30.8054 27.3425 29.1252 25.8399 27.9178 26.9787C27.4797 27.3928 27.2767 28.1471 27.5038 28.7564V28.7593ZM28.2784 27.6472C28.8901 26.8071 30.1029 27.9311 29.411 28.7682C28.8527 29.4456 27.6026 28.573 28.2784 27.6472Z" fill="#15A554"/>
<path d="M24.2663 22.0361C26.5074 22.3526 26.4673 18.4748 24.1167 18.954C22.7463 19.235 22.6929 21.8142 24.2663 22.0361ZM24.3624 19.6609C25.3802 19.4479 25.5965 21.2227 24.5734 21.3321C23.6465 21.4297 23.4195 19.8591 24.3624 19.6609Z" fill="#15A554"/>
<path d="M20.8498 29.5077C21.0261 29.3835 21.1383 29.2563 21.2504 29.064C21.3012 28.9782 21.3012 28.8777 21.3306 28.7978C21.352 28.7446 21.392 28.7002 21.4107 28.6203C21.8408 26.7924 19.7946 25.8222 18.8891 27.2922C17.9915 28.7446 19.5061 30.469 20.8498 29.5077ZM19.5222 27.6383C20.1045 26.9284 20.9673 27.7271 20.8498 28.5316C20.6975 28.5464 20.5559 28.7268 20.5292 28.8865C19.7385 29.3421 18.9024 28.3926 19.5222 27.6383Z" fill="#15A554"/>
</g>
<defs>
<clipPath id="clip0_2477_10026">
<rect width="25" height="25" fill="white" transform="translate(12 12)"/>
</clipPath>
</defs>
</svg>
