<svg width="18" height="17" viewBox="0 0 18 17" fill="none" xmlns="http://www.w3.org/2000/svg">
<path d="M8.30806 1.43306C8.55214 1.18898 8.94786 1.18898 9.19194 1.43306L16.4331 8.67417C16.6771 8.91825 17.0729 8.91825 17.3169 8.67417C17.561 8.4301 17.561 8.03437 17.3169 7.79029L10.0758 0.549174C9.34359 -0.183059 8.15641 -0.183057 7.42417 0.549175L0.183058 7.79029C-0.0610194 8.03437 -0.0610194 8.4301 0.183058 8.67417C0.427136 8.91825 0.822864 8.91825 1.06694 8.67417L8.30806 1.43306Z" fill="#FF9900"/>
<path d="M8.75 2.75888L15.5492 9.55806C15.5739 9.58282 15.5992 9.60675 15.625 9.62985V14.7947C15.625 15.6577 14.9254 16.3572 14.0625 16.3572H11.25C10.9048 16.3572 10.625 16.0774 10.625 15.7322V11.9822C10.625 11.6371 10.3452 11.3572 10 11.3572H7.5C7.15482 11.3572 6.875 11.6371 6.875 11.9822V15.7322C6.875 16.0774 6.59518 16.3572 6.25 16.3572H3.4375C2.57456 16.3572 1.875 15.6577 1.875 14.7947V9.62985C1.90077 9.60675 1.92606 9.58282 1.95083 9.55806L8.75 2.75888Z" fill="#FF9900"/>
</svg>
