<svg xmlns="http://www.w3.org/2000/svg" width="20" height="21" viewBox="0 0 20 21" fill="none">
  <path d="M14.9156 2.98361C15.1067 3.35111 14.9637 3.80394 14.5962 3.99504L14 4.30504V17.5796C14 18.1319 13.5523 18.5796 13 18.5796H10.74C10.3258 18.5796 9.99 18.2438 9.99 17.8296V14.3296C9.99 13.9154 9.65421 13.5796 9.24 13.5796H6.75C6.33579 13.5796 6 13.9154 6 14.3296V17.8296C6 18.2438 5.66421 18.5796 5.25 18.5796H1.75C1.33579 18.5796 1 18.2438 1 17.8296C1 17.4154 1.33579 17.0796 1.75 17.0796H2V10.5369C1.65296 10.66 1.25946 10.5116 1.08474 10.1756C0.893644 9.80814 1.03664 9.35531 1.40414 9.16421L2 8.85436V6.32962C2 5.91541 2.33579 5.57962 2.75 5.57962C3.16421 5.57962 3.5 5.91541 3.5 6.32962V8.07436L13.9041 2.66421C14.2716 2.47311 14.7245 2.61611 14.9156 2.98361Z" fill="#CCCDD0"/>
  <path d="M15.8615 9.14885C16.0854 9.01287 16.3642 9.00366 16.5967 9.12455L18.596 10.1642C18.9635 10.3553 19.1065 10.8081 18.9154 11.1756C18.7407 11.5116 18.3473 11.6599 18.0003 11.5369V17.0796H18.25C18.6642 17.0796 19 17.4154 19 17.8296C19 18.2438 18.6642 18.5796 18.25 18.5796H16.25C16.0511 18.5796 15.8603 18.5006 15.7196 18.3599C15.579 18.2193 15.5 18.0285 15.5 17.8296L15.5006 9.7899C15.5007 9.52786 15.6375 9.28483 15.8615 9.14885Z" fill="#CCCDD0"/>
</svg>