<svg width="25" height="24" viewBox="0 0 25 24" fill="none" xmlns="http://www.w3.org/2000/svg">
<path d="M22.0002 13.75V21.5H11.3333V13.75H22.0002Z" stroke="#FF9900"/>
<path d="M9.5 13.75V21.5H3V13.75H9.5ZM7.91699 16.292C7.4118 16.292 7.00018 16.7029 7 17.208V18.042C7.00018 18.5471 7.4118 18.958 7.91699 18.958C8.42946 18.9578 8.83283 18.5438 8.83301 18.042V17.208C8.83284 16.7376 8.47832 16.3444 8.01172 16.2969L7.91699 16.292Z" stroke="#FF9900"/>
<path d="M9.5 2.5V11.917H3V2.5H9.5ZM7.91699 5.45801C7.41169 5.45801 7 5.8697 7 6.375V8.04199C7.00018 8.54715 7.4118 8.95801 7.91699 8.95801C8.42946 8.95783 8.83283 8.54377 8.83301 8.04199V6.375C8.83301 5.90442 8.47846 5.51039 8.01172 5.46289L7.91699 5.45801Z" stroke="#FF9900"/>
<path d="M18.25 2.5V7.78906L18.4629 7.93848L20.5732 9.41699H12.7656L14.8701 7.94336L15.083 7.79395V2.5H18.25Z" stroke="#FF9900"/>
</svg>
