<svg xmlns="http://www.w3.org/2000/svg" width="40" height="44" viewBox="0 0 40 44" fill="none">
    <path d="M36.9051 18.9394C36.9051 23.6387 34.976 28.4912 31.8211 32.773C28.736 36.9603 24.5102 40.5569 19.8829 42.8827C15.4944 41.0019 11.2871 37.4272 8.15288 33.1277C4.94271 28.724 2.91309 23.6363 2.91309 18.9394C2.91309 9.55273 10.5225 1.94336 19.9091 1.94336C29.2957 1.94336 36.9051 9.55273 36.9051 18.9394Z" fill="#EC654D" stroke="white" stroke-width="1.5"/>
    <ellipse cx="19.7249" cy="17.9918" rx="9.51693" ry="8.79188" fill="white"/>
    <mask id="mask0_837_5863" style="mask-type:alpha" maskUnits="userSpaceOnUse" x="15" y="11" width="3" height="4">
        <rect width="0.842883" height="3.624" transform="matrix(0.8698 -0.493405 0.475452 0.879742 15.1631 11.7221)" fill="url(#paint0_linear_837_5863)"/>
    </mask>
    <g mask="url(#mask0_837_5863)">
        <rect width="0.842883" height="3.624" transform="matrix(0.8698 -0.493405 0.475452 0.879742 15.1631 11.7221)" fill="url(#paint1_linear_837_5863)"/>
        <path d="M17.0947 13.3065C17.1764 13.4596 17.0043 13.7171 16.7104 13.8817C16.4164 14.0463 16.1119 14.0555 16.0303 13.9024" stroke="#6F5548" stroke-width="0.20355"/>
        <path d="M16.4167 12.0281C16.4984 12.1812 16.3406 12.4307 16.0642 12.5854C15.7879 12.7401 15.4977 12.7414 15.416 12.5883" stroke="#6F5548" stroke-width="0.20355"/>
    </g>
    <path d="M15.1732 10.7964C15.3581 10.6999 15.5832 10.7655 15.6877 10.9462L15.9245 11.3561L13.8024 12.7201C13.546 12.8849 13.2086 12.8009 13.0598 12.5351C12.9099 12.2673 13.012 11.924 13.2838 11.7822L15.1732 10.7964Z" fill="url(#paint2_linear_837_5863)"/>
    <mask id="mask1_837_5863" style="mask-type:alpha" maskUnits="userSpaceOnUse" x="20" y="10" width="3" height="5">
        <rect width="0.840474" height="3.63407" transform="matrix(-0.936274 -0.35127 -0.336586 0.941653 22.3408 11.1984)" fill="url(#paint3_linear_837_5863)"/>
    </mask>
    <g mask="url(#mask1_837_5863)">
        <rect width="0.840474" height="3.63407" transform="matrix(-0.936274 -0.35127 -0.336586 0.941653 22.3408 11.1984)" fill="url(#paint4_linear_837_5863)"/>
        <path d="M20.6702 13.0686C20.6125 13.2327 20.8213 13.46 21.1364 13.5762C21.4516 13.6924 21.7539 13.6536 21.8115 13.4894" stroke="#6F5548" stroke-width="0.20355"/>
        <path d="M21.1477 11.6987C21.09 11.8628 21.2835 12.0845 21.5798 12.1937C21.8761 12.303 22.163 12.2585 22.2207 12.0943" stroke="#6F5548" stroke-width="0.20355"/>
    </g>
    <path d="M22.1908 10.2852C21.9937 10.2191 21.7815 10.3185 21.706 10.5123L21.5327 10.9569L23.8316 11.9684C24.1113 12.0915 24.4334 11.9558 24.5405 11.6698C24.6483 11.3816 24.4944 11.0579 24.2029 10.9601L22.1908 10.2852Z" fill="url(#paint5_linear_837_5863)"/>
    <mask id="mask2_837_5863" style="mask-type:alpha" maskUnits="userSpaceOnUse" x="12" y="13" width="16" height="13">
        <ellipse cx="20.0472" cy="19.4536" rx="7.13703" ry="5.55403" fill="#FFAC32"/>
    </mask>
    <g mask="url(#mask2_837_5863)">
        <ellipse cx="20.0472" cy="19.4537" rx="7.13703" ry="5.55403" fill="#FF6501"/>
        <ellipse cx="20.0423" cy="18.987" rx="7.09408" ry="5.05106" fill="#FF893D"/>
        <path d="M14.3738 19.0084C14.3254 16.9679 15.9403 15.2725 17.9808 15.2217L21.9123 15.1238C23.9889 15.0721 25.7123 16.7136 25.7615 18.7903C25.8137 20.9891 24.0735 22.8159 21.8748 22.8707L18.5163 22.9543C16.2815 23.01 14.4268 21.2433 14.3738 19.0084Z" fill="#EF7309"/>
        <path d="M14.6586 18.8859C14.6141 17.0134 16.096 15.4577 17.9685 15.4111L21.9387 15.3122C23.8442 15.2647 25.4256 16.7711 25.4709 18.6767C25.5187 20.6944 23.9219 22.3708 21.9043 22.4211L18.4599 22.5068C16.4091 22.5579 14.7072 20.9368 14.6586 18.8859Z" fill="#FFF0E5"/>
        <path d="M19.7573 18.8343C19.2085 19.8384 18.0463 20.2204 17.1689 19.7171C16.2915 19.2138 16.0018 17.9991 16.5506 16.995C17.0993 15.9909 18.2615 15.6089 19.1389 16.1122C20.0163 16.6155 20.306 17.8302 19.7573 18.8343Z" fill="#FED4BE" stroke="#F89460" stroke-width="0.20355"/>
        <path d="M23.9263 18.8007C23.4328 19.7038 22.2603 20.0041 21.3024 19.4547C20.3446 18.9053 19.9816 17.7242 20.4752 16.8211C20.9687 15.918 22.1412 15.6177 23.099 16.1671C24.0569 16.7165 24.4199 17.8976 23.9263 18.8007Z" fill="#FED4BE" stroke="#F48A56" stroke-width="0.20355"/>
        <path d="M17.0757 17.8469C17.0719 17.7975 17.0936 17.7491 17.1335 17.7195C17.9744 17.0944 18.4953 16.973 19.3675 17.5355C19.4036 17.5588 19.4268 17.5981 19.4301 17.641C19.4391 17.7548 19.3152 17.8324 19.2136 17.7809C18.4594 17.3986 17.9834 17.497 17.3089 17.9552C17.2148 18.0191 17.0847 17.9601 17.0757 17.8469Z" fill="#826559"/>
        <path d="M20.9459 17.6225C20.942 17.5731 20.9638 17.5247 21.0036 17.4951C21.8445 16.87 22.3654 16.7486 23.2376 17.3111C23.2737 17.3344 23.2969 17.3737 23.3002 17.4166C23.3092 17.5304 23.1854 17.608 23.0837 17.5565C22.3295 17.1742 21.8535 17.2726 21.179 17.7308C21.0849 17.7947 20.9548 17.7357 20.9459 17.6225Z" fill="#826559"/>
        <path d="M14.1655 19.6842C14.1655 20.3647 14.0677 20.972 13.9159 21.402C13.8397 21.6179 13.7537 21.7782 13.6682 21.8805C13.5819 21.984 13.5164 22.0058 13.4775 22.0058C13.4385 22.0058 13.3731 21.984 13.2867 21.8805C13.2013 21.7782 13.1152 21.6179 13.039 21.402C12.8872 20.972 12.7895 20.3647 12.7895 19.6842C12.7895 19.0036 12.8872 18.3963 13.039 17.9663C13.1152 17.7504 13.2013 17.5901 13.2867 17.4878C13.3731 17.3843 13.4385 17.3625 13.4775 17.3625C13.5164 17.3625 13.5819 17.3843 13.6682 17.4878C13.7537 17.5901 13.8397 17.7504 13.9159 17.9663C14.0677 18.3963 14.1655 19.0036 14.1655 19.6842Z" stroke="#6F5548" stroke-width="0.407101"/>
        <path d="M27.2983 19.8709C27.2983 20.5514 27.2006 21.1587 27.0488 21.5887C26.9725 21.8046 26.8865 21.9649 26.801 22.0672C26.7147 22.1707 26.6493 22.1926 26.6103 22.1926C26.5713 22.1926 26.5059 22.1707 26.4195 22.0672C26.3341 21.9649 26.248 21.8046 26.1718 21.5887C26.02 21.1587 25.9223 20.5514 25.9223 19.8709C25.9223 19.1903 26.02 18.583 26.1718 18.153C26.248 17.9371 26.3341 17.7768 26.4195 17.6745C26.5059 17.571 26.5713 17.5492 26.6103 17.5492C26.6493 17.5492 26.7147 17.571 26.801 17.6745C26.8865 17.7768 26.9725 17.9371 27.0488 18.153C27.2006 18.583 27.2983 19.1903 27.2983 19.8709Z" stroke="#6F5548" stroke-width="0.407101"/>
        <mask id="mask3_837_5863" style="mask-type:alpha" maskUnits="userSpaceOnUse" x="18" y="20" width="5" height="2">
            <path d="M18.7789 20.5265C18.8606 20.4232 19.0008 20.3868 19.1227 20.4367C19.9744 20.7852 20.451 20.9383 21.7709 20.5421C21.9932 20.4754 22.2092 20.6761 22.1489 20.9002C22.1428 20.9229 22.1337 20.9453 22.122 20.9657C21.2156 22.5502 19.2982 22.0562 18.738 20.8033C18.6969 20.7115 18.7165 20.6054 18.7789 20.5265Z" fill="#4A1816"/>
        </mask>
        <g mask="url(#mask3_837_5863)">
            <path d="M18.7789 20.5265C18.8606 20.4232 19.0008 20.3868 19.1227 20.4367C19.9744 20.7852 20.451 20.9383 21.7709 20.5421C21.9932 20.4754 22.2092 20.6761 22.1489 20.9002C22.1428 20.9229 22.1337 20.9453 22.122 20.9657C21.2156 22.5502 19.2982 22.0562 18.738 20.8033C18.6969 20.7115 18.7165 20.6054 18.7789 20.5265Z" fill="#4A1816"/>
            <ellipse cx="20.433" cy="21.825" rx="1.23863" ry="0.720786" fill="#F25A51"/>
        </g>
    </g>
    <ellipse cx="23.8527" cy="19.4176" rx="0.757025" ry="0.775579" fill="#FFC7C7"/>
    <ellipse cx="16.801" cy="19.4176" rx="0.757025" ry="0.775579" fill="#FFC7C7"/>
    <defs>
        <linearGradient id="paint0_linear_837_5863" x1="1.60334" y1="2.0641" x2="-0.14887" y2="2.12146" gradientUnits="userSpaceOnUse">
            <stop offset="0.328226" stop-color="#FF893D"/>
            <stop offset="0.750401" stop-color="#F5AD16"/>
        </linearGradient>
        <linearGradient id="paint1_linear_837_5863" x1="1.60334" y1="2.0641" x2="-0.14887" y2="2.12146" gradientUnits="userSpaceOnUse">
            <stop offset="0.328226" stop-color="#FF893D"/>
            <stop offset="0.750401" stop-color="#F5AD16"/>
        </linearGradient>
        <linearGradient id="paint2_linear_837_5863" x1="14.8181" y1="12.9151" x2="13.8557" y2="11.4263" gradientUnits="userSpaceOnUse">
            <stop offset="0.328226" stop-color="#FF893D"/>
            <stop offset="0.750401" stop-color="#F5AD16"/>
        </linearGradient>
        <linearGradient id="paint3_linear_837_5863" x1="1.59876" y1="2.06984" x2="-0.148465" y2="2.12671" gradientUnits="userSpaceOnUse">
            <stop offset="0.328226" stop-color="#FF893D"/>
            <stop offset="0.750401" stop-color="#F5AD16"/>
        </linearGradient>
        <linearGradient id="paint4_linear_837_5863" x1="1.59876" y1="2.06984" x2="-0.148465" y2="2.12671" gradientUnits="userSpaceOnUse">
            <stop offset="0.328226" stop-color="#FF893D"/>
            <stop offset="0.750401" stop-color="#F5AD16"/>
        </linearGradient>
        <linearGradient id="paint5_linear_837_5863" x1="22.8603" y1="12.3227" x2="23.5808" y2="10.6968" gradientUnits="userSpaceOnUse">
            <stop offset="0.328226" stop-color="#FF893D"/>
            <stop offset="0.750401" stop-color="#F5AD16"/>
        </linearGradient>
    </defs>
</svg>