<svg width="24" height="24" viewBox="0 0 24 24" fill="none" xmlns="http://www.w3.org/2000/svg">
<path d="M4.90345 3.33102V11.4675C4.90427 11.6147 4.84946 11.7568 4.74999 11.8652C4.65052 11.9737 4.51375 12.0406 4.36705 12.0525L3.75878 12.1058C3.43213 12.1347 3.12132 12.2595 2.86537 12.4645C2.60943 12.6695 2.41977 12.9455 2.32022 13.258C2.22067 13.5704 2.21567 13.9053 2.30584 14.2206C2.39602 14.5359 2.57735 14.8175 2.82706 15.03L10.2748 21.3623C10.7549 21.7738 11.3664 22 11.9988 22C12.6311 22 13.2426 21.7738 13.7228 21.3623L21.1712 15.0307C21.4219 14.8187 21.604 14.537 21.6944 14.2214C21.7848 13.9057 21.7794 13.5704 21.679 13.2578C21.5818 12.9434 21.3925 12.6656 21.1354 12.4603C20.8783 12.255 20.5655 12.1317 20.2375 12.1064L19.6312 12.0539C19.4844 12.0418 19.3475 11.9748 19.248 11.8662C19.1484 11.7576 19.0935 11.6155 19.0941 11.4682V3.33102C19.0941 2.97801 18.9539 2.63946 18.7043 2.38985C18.4547 2.14023 18.1161 2 17.7631 2H6.23447C5.88147 2 5.54292 2.14023 5.2933 2.38985C5.04369 2.63946 4.90345 2.97801 4.90345 3.33102ZM11.9985 11.9554C11.3254 11.9576 10.6742 11.7169 10.1644 11.2775C9.65462 10.8381 9.32047 10.2295 9.22336 9.56357C9.12624 8.8976 9.27268 8.21894 9.63577 7.65227C9.99886 7.0856 10.5542 6.66896 11.1998 6.47888V5.96577C11.1998 5.75397 11.284 5.55084 11.4338 5.40107C11.5835 5.2513 11.7867 5.16716 11.9985 5.16716C12.2103 5.16716 12.4134 5.2513 12.5632 5.40107C12.7129 5.55084 12.7971 5.75397 12.7971 5.96577V6.47888C13.3746 6.64902 13.8817 7.00107 14.243 7.48263C14.6043 7.9642 14.8004 8.54954 14.8022 9.15157C14.8022 9.36338 14.7181 9.5665 14.5683 9.71627C14.4186 9.86604 14.2154 9.95018 14.0036 9.95018C13.7918 9.95018 13.5887 9.86604 13.4389 9.71627C13.2892 9.5665 13.205 9.36338 13.205 9.15157C13.205 8.91293 13.1343 8.67966 13.0017 8.48124C12.8691 8.28282 12.6807 8.12817 12.4602 8.03684C12.2397 7.94552 11.9971 7.92163 11.7631 7.96818C11.529 8.01474 11.314 8.12965 11.1453 8.2984C10.9765 8.46714 10.8616 8.68213 10.8151 8.91618C10.7685 9.15023 10.7924 9.39283 10.8837 9.6133C10.9751 9.83378 11.1297 10.0222 11.3281 10.1548C11.5265 10.2874 11.7598 10.3581 11.9985 10.3581C12.6715 10.3559 13.3227 10.5966 13.8325 11.036C14.3423 11.4754 14.6764 12.084 14.7736 12.7499C14.8707 13.4159 14.7242 14.0946 14.3611 14.6612C13.9981 15.2279 13.4427 15.6445 12.7971 15.8346V16.3477C12.7971 16.5595 12.7129 16.7627 12.5632 16.9124C12.4134 17.0622 12.2103 17.1463 11.9985 17.1463C11.7867 17.1463 11.5835 17.0622 11.4338 16.9124C11.284 16.7627 11.1998 16.5595 11.1998 16.3477V15.8346C10.6225 15.6644 10.1155 15.3123 9.75434 14.8307C9.39318 14.3492 9.19712 13.7639 9.19533 13.1619C9.19533 12.9501 9.27947 12.747 9.42924 12.5972C9.579 12.4475 9.78213 12.3633 9.99394 12.3633C10.2057 12.3633 10.4089 12.4475 10.5586 12.5972C10.7084 12.747 10.7926 12.9501 10.7926 13.1619C10.7926 13.4006 10.8633 13.6339 10.9959 13.8323C11.1286 14.0308 11.317 14.1854 11.5375 14.2767C11.7581 14.368 12.0007 14.3919 12.2348 14.3453C12.4688 14.2987 12.6838 14.1837 12.8525 14.0149C13.0212 13.8461 13.1361 13.631 13.1826 13.3969C13.2291 13.1628 13.2051 12.9202 13.1137 12.6997C13.0222 12.4793 12.8675 12.2909 12.669 12.1584C12.4705 12.0259 12.2371 11.9552 11.9985 11.9554Z" fill="#FF9900"/>
</svg>
