<svg width="24" height="24" viewBox="0 0 24 24" fill="none" xmlns="http://www.w3.org/2000/svg">
<mask id="path-1-inside-1_1966_5943" fill="white">
<path d="M18.2502 22.0003H5.75016C5.63966 22.0003 5.53367 21.9564 5.45553 21.8783C5.37739 21.8001 5.3335 21.6942 5.3335 21.5837V21.167H18.6668V21.5837C18.6668 21.6942 18.6229 21.8001 18.5448 21.8783C18.4667 21.9564 18.3607 22.0003 18.2502 22.0003Z"/>
</mask>
<path d="M5.3335 21.167V20.167H4.3335V21.167H5.3335ZM18.6668 21.167H19.6668V20.167H18.6668V21.167ZM18.2502 22.0003V21.0003H5.75016V22.0003V23.0003H18.2502V22.0003ZM5.75016 22.0003V21.0003C5.90487 21.0003 6.05324 21.0618 6.16264 21.1712L5.45553 21.8783L4.74843 22.5854C5.01411 22.8511 5.37444 23.0003 5.75016 23.0003V22.0003ZM5.45553 21.8783L6.16264 21.1712C6.27204 21.2806 6.3335 21.429 6.3335 21.5837H5.3335H4.3335C4.3335 21.9594 4.48275 22.3197 4.74843 22.5854L5.45553 21.8783ZM5.3335 21.5837H6.3335V21.167H5.3335H4.3335V21.5837H5.3335ZM5.3335 21.167V22.167H18.6668V21.167V20.167H5.3335V21.167ZM18.6668 21.167H17.6668V21.5837H18.6668H19.6668V21.167H18.6668ZM18.6668 21.5837H17.6668C17.6668 21.429 17.7283 21.2806 17.8377 21.1712L18.5448 21.8783L19.2519 22.5854C19.5176 22.3197 19.6668 21.9594 19.6668 21.5837H18.6668ZM18.5448 21.8783L17.8377 21.1712C17.9471 21.0618 18.0955 21.0003 18.2502 21.0003V22.0003V23.0003C18.6259 23.0003 18.9862 22.8511 19.2519 22.5854L18.5448 21.8783Z" fill="#FF9900" mask="url(#path-1-inside-1_1966_5943)"/>
<path d="M19 6.66699V19.917C18.9993 20.0052 18.9638 20.09 18.9014 20.1523C18.8387 20.2149 18.7536 20.2497 18.665 20.25H5.33496C5.24639 20.2497 5.16134 20.2149 5.09863 20.1523C5.05168 20.1054 5.01989 20.0456 5.00684 19.9814L5 19.915V6.66699H19ZM12 10C12.8174 10.0002 13.6048 10.3085 14.2051 10.8633C14.5934 11.2221 14.8826 11.6682 15.0576 12.1582C14.8233 12.1031 14.5829 12.0745 14.3408 12.0752C13.8658 12.0759 13.3978 12.1837 12.9717 12.3896L12.792 12.4844C12.3408 12.7394 11.9605 13.1015 11.6826 13.5381C11.4419 13.7771 11.1564 13.9665 10.8418 14.0938C10.6021 14.1907 10.3495 14.2505 10.0928 14.2715L9.83496 14.2793H9.83203L8.91406 14.2666C8.8228 13.9934 8.7684 13.709 8.75391 13.4209L8.75 13.252V13.25C8.75008 12.4421 9.05116 11.6654 9.59082 11.0693L9.70215 10.9521C10.2735 10.3808 11.0356 10.0437 11.8389 10.0039L12 10ZM17.917 11.999C17.9159 11.6462 17.7748 11.3081 17.5254 11.0586C17.2759 10.8091 16.9378 10.6681 16.585 10.667H16.3779C15.8532 9.77783 15.0692 9.06668 14.127 8.63281C13.09 8.15538 11.9224 8.04078 10.8125 8.30762C9.7028 8.57442 8.71533 9.20719 8.00879 10.1035C7.30227 11 6.91804 12.1086 6.91797 13.25C6.91797 14.3915 7.30221 15.4999 8.00879 16.3965C8.71532 17.293 9.70269 17.9255 10.8125 18.1924C11.9224 18.4592 13.0901 18.3456 14.127 17.8682C15.0692 17.4343 15.8532 16.723 16.3779 15.834H16.585C16.9378 15.8329 17.2759 15.6919 17.5254 15.4424C17.7749 15.1929 17.9159 14.8548 17.917 14.502V11.999Z" stroke="#FF9900"/>
<path d="M6.16699 2.5H17.833C18.1424 2.5 18.4394 2.623 18.6582 2.8418C18.877 3.06059 19 3.35757 19 3.66699V5.25H5V3.66699C5 3.35757 5.123 3.06059 5.3418 2.8418C5.56059 2.623 5.85757 2.5 6.16699 2.5ZM7.83008 2.54199C7.4784 2.5446 7.14133 2.68501 6.89258 2.93359C6.67489 3.15128 6.53994 3.4367 6.50781 3.74023L6.5 3.87109V3.87695C6.50117 4.22969 6.64217 4.56795 6.8916 4.81738C7.14111 5.06672 7.47928 5.20695 7.83203 5.20801H10.333V5.20703C10.5087 5.20765 10.6826 5.17422 10.8447 5.10645C11.0037 5.03992 11.1471 4.94149 11.2686 4.81934L11.2695 4.82031C11.271 4.81891 11.272 4.81684 11.2734 4.81543C11.2749 4.81395 11.2769 4.81301 11.2783 4.81152L11.2773 4.81055C11.3996 4.68904 11.4979 4.54582 11.5645 4.38672C11.6156 4.26441 11.6486 4.13539 11.6611 4.00391L11.667 3.87207C11.6656 3.51969 11.5246 3.18182 11.2754 2.93262C11.0259 2.68321 10.6877 2.54308 10.335 2.54199H7.83008ZM15.9062 2.56738C15.6477 2.61887 15.41 2.74622 15.2236 2.93262C15.086 3.07033 14.9804 3.23567 14.9141 3.41699C14.8779 3.31844 14.8343 3.222 14.7754 3.13379C14.6289 2.91465 14.4203 2.74443 14.1768 2.64355C13.9331 2.54264 13.6649 2.51594 13.4062 2.56738C13.1477 2.61887 12.91 2.74622 12.7236 2.93262C12.5373 3.11904 12.4108 3.35674 12.3594 3.61523C12.308 3.87362 12.3339 4.14134 12.4346 4.38477C12.5355 4.62833 12.7066 4.8369 12.9258 4.9834C13.145 5.12991 13.4033 5.20801 13.667 5.20801H13.668C14.0207 5.20695 14.3589 5.06672 14.6084 4.81738C14.7471 4.67871 14.8508 4.51178 14.917 4.33105C14.9234 4.34872 14.9274 4.36734 14.9346 4.38477C15.0355 4.62833 15.2066 4.8369 15.4258 4.9834C15.645 5.12991 15.9033 5.20801 16.167 5.20801H16.168C16.5207 5.20695 16.8589 5.06672 17.1084 4.81738C17.3268 4.59899 17.4622 4.31243 17.4932 4.00781L17.5 3.87695V3.875C17.5 3.61129 17.4219 3.35306 17.2754 3.13379C17.1289 2.91465 16.9203 2.74443 16.6768 2.64355C16.4331 2.54264 16.1649 2.51594 15.9062 2.56738Z" stroke="#FF9900"/>
<path d="M12 10C12.8174 10.0002 13.6048 10.3085 14.2051 10.8633C14.5932 11.222 14.8826 11.6674 15.0576 12.1572C14.8777 12.1149 14.694 12.0887 14.5088 12.0791L14.3408 12.0752C13.798 12.076 13.2645 12.2164 12.792 12.4834C12.3409 12.7383 11.9605 13.1007 11.6826 13.5371C11.4418 13.7762 11.1565 13.9665 10.8418 14.0938C10.5222 14.223 10.1797 14.286 9.83496 14.2793H9.83203L8.91406 14.2666C8.80497 13.9401 8.749 13.5976 8.75 13.252V13.25C8.75 12.3881 9.09266 11.5616 9.70215 10.9521C10.2736 10.3807 11.0356 10.0438 11.8389 10.0039L12 10Z" stroke="#FF9900"/>
<path d="M12 10C12.8174 10.0002 13.6048 10.3085 14.2051 10.8633C14.5932 11.222 14.8826 11.6674 15.0576 12.1572C14.8777 12.1149 14.694 12.0887 14.5088 12.0791L14.3408 12.0752C13.798 12.076 13.2645 12.2164 12.792 12.4834C12.3409 12.7383 11.9605 13.1007 11.6826 13.5371C11.4418 13.7762 11.1565 13.9665 10.8418 14.0938C10.5222 14.223 10.1797 14.286 9.83496 14.2793H9.83203L8.91406 14.2666C8.80497 13.9401 8.749 13.5976 8.75 13.252V13.25C8.75 12.3881 9.09266 11.5616 9.70215 10.9521C10.2736 10.3807 11.0356 10.0438 11.8389 10.0039L12 10Z" stroke="#FF9900"/>
</svg>
