<svg width="16" height="16" viewBox="0 0 16 16" fill="none" xmlns="http://www.w3.org/2000/svg">
<path d="M11.6418 11.1571C11.6334 11.6529 11.4288 12.1252 11.073 12.4706C10.7171 12.816 10.2388 13.0063 9.74294 12.9998H3.89882C3.40294 13.0063 2.92469 12.816 2.5688 12.4706C2.21291 12.1252 2.00838 11.6529 2 11.1571C2 9.87847 2.50791 8.65226 3.412 7.74817C4.3161 6.84408 5.54231 6.33617 6.82088 6.33617C8.09946 6.33617 9.32567 6.84408 10.2298 7.74817C11.1339 8.65226 11.6418 9.87848 11.6418 11.1571ZM4.54399 3.25692C4.63648 6.26591 9.00485 6.2666 9.09778 3.25697C9.00529 0.248034 4.63692 0.247336 4.54399 3.25692Z" fill="#8A8C8E"/>
</svg>
