<svg xmlns="http://www.w3.org/2000/svg" width="15" height="18" viewBox="0 0 15 18" fill="none">
  <path d="M14.5339 15.2356C14.5214 15.9794 14.2146 16.6879 13.6807 17.2059C13.1469 17.724 12.4295 18.0095 11.6857 17.9998H2.91953C2.17569 18.0095 1.45832 17.724 0.92449 17.2059C0.390659 16.6879 0.0838664 15.9794 0.0712891 15.2356C0.0712891 13.3177 0.833159 11.4784 2.1893 10.1223C3.54543 8.76612 5.38475 8.00425 7.30262 8.00425C9.22048 8.00425 11.0598 8.76612 12.4159 10.1223C13.7721 11.4784 14.5339 13.3177 14.5339 15.2356ZM3.88727 3.38538C4.02601 7.89886 10.5786 7.89991 10.718 3.38545C10.5792 -1.12795 4.02667 -1.129 3.88727 3.38538Z" fill="#BFBFBF"/>
</svg>