<svg xmlns="http://www.w3.org/2000/svg" height="24px" viewBox="0 0 24 24" width="24px" fill="currentColor">
  <path d="M0 0h24v24H0V0z" fill="none"/>
  <path d="M14 2H6c-1.1 0-1.99.9-1.99 2L4 20c0 1.1.89 2 1.99 2H18c1.1 0 2-.9 2-2V8l-6-6zm3 16H6v-2h12v2zm0-4H6v-2h12v2zM13 9V3.5L18.5 9H13z" opacity=".3"/>
  
  <path d="M10.2 13.6c1 0 1.8-.8 1.8-1.8s-.8-1.8-1.8-1.8-1.8.8-1.8 1.8.8 1.8 1.8 1.8z"/>
  <path d="M10.2 14.4c-1.3 0-3.9.7-3.9 1.9V17h7.8v-.7c0-1.2-2.6-1.9-3.9-1.9z"/>
  <path d="M14.5 13c.8 0 1.5-.7 1.5-1.5S15.3 10 14.5 10s-1.5.7-1.5 1.5.7 1.5 1.5 1.5z"/>
  <path d="M14.5 13.7c-1.1 0-3.3.5-3.3 1.6V16h6.6v-.7c0-1.1-2.2-1.6-3.3-1.6z"/>
</svg>

