<svg width="20" height="20" viewBox="0 0 20 20" fill="none" xmlns="http://www.w3.org/2000/svg">
<path d="M19.2449 1.79775H15.0408V0.20429C15.0408 0.102145 14.9592 0 14.8367 0H13.4286C13.3265 0 13.2245 0.0817159 13.2245 0.20429V1.79775H6.81632V0.20429C6.81632 0.102145 6.7347 0 6.61225 0H5.20409C5.10205 0 4.99999 0.0817159 4.99999 0.20429V1.79775H0.795917C0.346937 1.79775 0 2.16548 0 2.59448V19.2033C0 19.6527 0.346937 20 0.795917 20H19.2041C19.6531 20 20 19.6323 20 19.2033V2.59448C20 2.14505 19.6531 1.79775 19.2041 1.79775H19.2449ZM18.2449 18.2022H1.83675V8.70276H18.2449V18.2022ZM1.85715 7.00715V3.59551H5.06124V4.80082C5.06124 4.90296 5.14286 5.00511 5.26531 5.00511H6.67348C6.77552 5.00511 6.87757 4.92339 6.87757 4.80082V3.59551H13.2857V4.80082C13.2857 4.90296 13.3673 5.00511 13.4898 5.00511H14.898C15 5.00511 15.1021 4.92339 15.1021 4.80082V3.59551H18.3061V7.00715H1.89797H1.85715Z" fill="#979797"/>
</svg>
