<svg width="25" height="24" viewBox="0 0 25 24" fill="none" xmlns="http://www.w3.org/2000/svg">
<g id="Icon/profile">
<g id="Group">
<path id="Vector" d="M19.5642 18.2356C19.5516 18.9794 19.2448 19.6879 18.711 20.2059C18.1772 20.724 17.4598 21.0095 16.716 20.9998H7.9498C7.20597 21.0095 6.4886 20.724 5.95476 20.2059C5.42093 19.6879 5.11414 18.9794 5.10156 18.2356C5.10156 16.3177 5.86343 14.4784 7.21957 13.1223C8.57571 11.7661 10.415 11.0042 12.3329 11.0042C14.2508 11.0042 16.0901 11.7661 17.4462 13.1223C18.8023 14.4784 19.5642 16.3177 19.5642 18.2356ZM8.91755 6.38538C9.05628 10.8989 15.6088 10.8999 15.7482 6.38545C15.6095 1.87205 9.05695 1.871 8.91755 6.38538Z" fill="#BFBFBF"/>
</g>
</g>
</svg>
