<svg width="24" height="24" viewBox="0 0 24 24" fill="none" xmlns="http://www.w3.org/2000/svg">
<path d="M17.1112 16.2664C17.089 17.3552 16.9556 18.4219 16.7112 19.4886C16.6445 19.7552 16.4667 19.8886 16.2667 19.8441C16.0445 19.7997 15.9334 19.5997 16.0001 19.3552C16.2445 18.2886 16.3779 17.1997 16.3779 16.1108C16.3779 13.3775 14.489 11.133 11.8001 10.6441C8.84452 10.1108 5.93341 12.1997 5.48896 15.1775C5.46674 15.3552 5.44452 15.5552 5.4223 15.733C5.40008 15.9997 5.24452 16.133 5.0223 16.1108C4.8223 16.0886 4.68896 15.933 4.68896 15.6886C4.75563 14.3775 5.20008 13.1775 6.06674 12.1775C7.73341 10.2219 9.86674 9.44414 12.3556 10.0664C14.8445 10.6886 16.3779 12.3552 16.9779 14.8441C17.0223 15.0441 17.0445 15.2441 17.0667 15.4664C17.089 15.6886 17.1112 15.9775 17.1112 16.2664Z" fill="#FF9900"/>
<path d="M18.5778 16.4214C18.5555 16.688 18.5555 16.9769 18.5333 17.2436C18.5111 17.5102 18.3555 17.6658 18.1555 17.6658C17.9333 17.6658 17.7778 17.4658 17.8 17.1991C17.8666 16.288 17.8666 15.3769 17.6666 14.4658C17.0444 11.7102 14.6666 9.51024 11.8444 9.15469C8.86664 8.77691 6.15553 10.1769 4.73331 12.8214C4.59997 13.0658 4.44442 13.1325 4.24442 13.088C4.02219 13.0214 3.93331 12.7769 4.04442 12.5547C4.35553 11.9547 4.73331 11.3769 5.19997 10.888C7.35553 8.64358 9.95553 7.82135 12.9333 8.6658C15.9555 9.51024 17.7555 11.5769 18.4444 14.6214C18.4889 14.8214 18.5111 15.0214 18.5333 15.2436C18.5555 15.6214 18.5555 16.0214 18.5778 16.4214Z" fill="#FF9900"/>
<path d="M15.6666 16.2436C15.6222 17.7547 15.3333 19.2214 14.8666 20.6658C14.7777 20.9325 14.5999 21.0436 14.3777 20.977C14.1555 20.8881 14.0888 20.7103 14.1777 20.4214C14.6222 19.0881 14.8444 17.7325 14.911 16.3547C14.9777 14.2658 13.6888 12.5103 11.7555 12.1103C9.22216 11.577 6.93327 13.4214 6.8666 15.9992C6.84438 16.6214 6.75549 17.2214 6.55549 17.8214C6.53327 17.8658 6.53327 17.9325 6.51104 17.977C6.42215 18.1547 6.24438 18.2436 6.0666 18.177C5.88882 18.1103 5.75549 17.9325 5.82216 17.7547C6.11104 16.977 6.08882 16.177 6.17771 15.377C6.39993 13.3547 8.0666 11.6436 10.0444 11.3325C12.6888 10.9103 15.0444 12.5547 15.5333 15.177C15.6444 15.5547 15.6444 15.9103 15.6666 16.2436Z" fill="#FF9900"/>
<path d="M19.7777 13.9549C19.7777 14.1771 19.6666 14.3104 19.4889 14.3549C19.3111 14.3993 19.1333 14.2882 19.0666 14.0882C19 13.8438 18.9333 13.5993 18.8444 13.3549C17.6666 10.1549 15.4 8.22155 12.0222 7.73266C9.22219 7.31044 6.82219 8.22155 4.82219 10.2216C4.77775 10.266 4.75553 10.2882 4.7333 10.3327C4.55553 10.5104 4.35553 10.5327 4.17775 10.3771C4.02219 10.2216 4.02219 10.0216 4.19997 9.82155C5.11108 8.84377 6.17775 8.08822 7.42219 7.57711C12.5555 5.44377 18.4 8.37711 19.7777 13.7771C19.7777 13.8438 19.7777 13.9104 19.7777 13.9549Z" fill="#FF9900"/>
<path d="M14.2 16.466C14.1111 18.1104 13.7333 19.666 13.1333 21.1771C13.0444 21.4216 12.8444 21.5327 12.6222 21.4438C12.4222 21.3549 12.3555 21.1549 12.4444 20.9104C12.9111 19.7549 13.2444 18.5771 13.3555 17.3327C13.4 16.7327 13.4444 16.1327 13.3778 15.5327C13.2222 14.3549 12.1111 13.4882 10.9111 13.466C9.68886 13.466 8.59998 14.3327 8.39998 15.5104C8.31109 15.9993 8.33331 16.4882 8.26664 16.9771C8.17775 17.7771 7.91109 18.5104 7.59998 19.2438C7.51109 19.466 7.28886 19.5327 7.11109 19.4438C6.93331 19.3549 6.84442 19.1549 6.93331 18.9549C7.19998 18.2882 7.44442 17.6216 7.53331 16.8882C7.57775 16.4438 7.57775 15.9993 7.64442 15.5771C7.84442 13.9549 9.24442 12.7327 10.9111 12.7327C12.5333 12.7327 13.9555 13.9549 14.1555 15.5549C14.1778 15.866 14.1778 16.1549 14.2 16.466Z" fill="#FF9900"/>
<path d="M11.3113 5.42188C14.7113 5.55521 17.7335 7.15521 19.8446 10.3774C19.8891 10.4441 19.9113 10.4885 19.9557 10.5552C20.0224 10.733 19.9779 10.9108 19.8224 10.9997C19.6668 11.0885 19.4891 11.0663 19.3557 10.933C19.3335 10.8885 19.2891 10.8663 19.2668 10.8219C17.6446 8.31076 15.3557 6.75521 12.4002 6.28854C9.86683 5.88854 7.5335 6.4441 5.37795 7.8441C5.31128 7.88854 5.24461 7.93299 5.17795 7.95521C5.02239 8.0441 4.82239 7.97743 4.71128 7.8441C4.60017 7.68854 4.62239 7.51076 4.75572 7.37743C4.80017 7.33299 4.86683 7.28854 4.9335 7.2441C6.75572 6.0441 8.7335 5.4441 11.3113 5.42188Z" fill="#FF9900"/>
<path d="M12.7334 16.4215C12.6667 18.066 12.2222 19.6437 11.5556 21.1326C11.5111 21.2437 11.3778 21.3771 11.2667 21.4215C11.1778 21.4437 11 21.3771 10.9334 21.3104C10.8 21.1993 10.8222 21.0437 10.8889 20.8882C11.1334 20.266 11.3778 19.6437 11.5778 18.9993C11.8667 18.0437 12.0222 17.066 12.0222 16.066C12.0222 15.3993 11.5556 14.9104 10.9334 14.9104C10.3111 14.9104 9.84447 15.3993 9.84447 16.066C9.7778 17.5326 9.3778 18.8882 8.7778 20.1771C8.66669 20.3993 8.48892 20.466 8.28892 20.3993C8.08892 20.3104 8.02225 20.1104 8.13336 19.866C8.53336 18.9771 8.86669 18.0437 9.00003 17.066C9.04447 16.666 9.04447 16.2437 9.08892 15.8215C9.20003 14.8215 10 14.1326 11 14.1771C11.9334 14.2215 12.6889 14.9993 12.7334 15.9771C12.7334 16.1549 12.7334 16.2882 12.7334 16.4215Z" fill="#FF9900"/>
<path d="M19.2 7.35479C19.2666 7.46591 19.2666 7.62146 19.1778 7.71035C19.1333 7.75479 19.0889 7.82146 19.0444 7.84368C18.8889 7.93257 18.7555 7.86591 18.6222 7.75479C18.2444 7.44368 17.8889 7.11035 17.5111 6.84368C15.2444 5.22146 12.7111 4.53257 9.93331 4.75479C8.75553 4.84368 7.6222 5.13257 6.51109 5.59924C6.26664 5.68813 6.11109 5.66591 5.99998 5.51035C5.86664 5.31035 5.95553 5.06591 6.2222 4.95479C7.06664 4.59924 7.95553 4.33257 8.86665 4.17702C11.8 3.68813 14.5333 4.22146 17.0889 5.71035C17.8 6.13257 18.4666 6.64368 19.0889 7.22146C19.1333 7.24368 19.1778 7.28813 19.2 7.35479Z" fill="#FF9900"/>
<path d="M10.889 2.5548C12.9779 2.53258 14.9779 2.97702 16.8446 3.91035C16.889 3.93258 16.9112 3.9548 16.9557 3.9548C17.1779 4.06591 17.2668 4.28813 17.1779 4.48813C17.089 4.68813 16.8668 4.73258 16.6446 4.62146C15.5112 4.06591 14.3335 3.66591 13.089 3.44369C11.7112 3.19924 10.3112 3.19924 8.93346 3.39924C8.8668 3.39924 8.80013 3.42146 8.75568 3.42146C8.53346 3.44369 8.37791 3.31035 8.35568 3.13258C8.31124 2.91035 8.44457 2.73258 8.6668 2.71035C9.08902 2.64369 9.48902 2.57702 9.91124 2.5548C10.2446 2.53258 10.5779 2.5548 10.889 2.5548Z" fill="#FF9900"/>
<path d="M11.2666 16.5326C11.2 18.1549 10.7555 19.6437 10.0888 21.066C9.97773 21.2882 9.77773 21.3549 9.59995 21.266C9.39995 21.1771 9.33328 20.9771 9.4444 20.7326C9.8444 19.8437 10.2 18.9326 10.3555 17.9771C10.4444 17.4215 10.4888 16.866 10.5333 16.2882C10.5555 16.0215 10.6888 15.8438 10.8888 15.8438C11.1111 15.8438 11.2444 16.0215 11.2444 16.2882C11.2666 16.3993 11.2666 16.4882 11.2666 16.5326Z" fill="#FF9900"/>
<path d="M2 2.51074C2.73333 2.51074 3.44444 2.51074 4.15556 2.51074C4.15556 2.75519 4.15556 2.97741 4.15556 3.22185C3.68889 3.22185 3.22222 3.22185 2.73333 3.22185C2.73333 3.71074 2.73333 4.17741 2.73333 4.6663C2.48889 4.6663 2.24444 4.6663 2 4.6663C2 3.97741 2 3.24408 2 2.51074Z" fill="#FF9900"/>
<path d="M19.8223 3.24408C19.8223 2.97741 19.8223 2.75519 19.8223 2.51074C20.5334 2.51074 21.2667 2.51074 22 2.51074C22 3.22185 22 3.93296 22 4.6663C21.7778 4.6663 21.5334 4.6663 21.2889 4.6663C21.2889 4.19963 21.2889 3.73296 21.2889 3.22185C20.8 3.24408 20.3112 3.24408 19.8223 3.24408Z" fill="#FF9900"/>
<path d="M2.71111 20.7552C3.22222 20.7552 3.68889 20.7552 4.15556 20.7552C4.15556 20.9997 4.15556 21.2219 4.15556 21.4663C3.44444 21.4663 2.71111 21.4663 2 21.4663C2 20.7552 2 20.0219 2 19.3108C2.22222 19.3108 2.46667 19.3108 2.71111 19.3108C2.71111 19.7997 2.71111 20.2663 2.71111 20.7552Z" fill="#FF9900"/>
<path d="M19.8223 21.4886C19.8223 21.2441 19.8223 21.0219 19.8223 20.7775C20.3112 20.7775 20.7778 20.7775 21.2667 20.7775C21.2667 20.2886 21.2667 19.8219 21.2667 19.333C21.5112 19.333 21.7556 19.333 22 19.333C22 20.0441 22 20.7552 22 21.4886C21.2889 21.4886 20.5778 21.4886 19.8223 21.4886Z" fill="#FF9900"/>
</svg>
