<svg width="14" height="14" viewBox="0 0 14 14" fill="none" xmlns="http://www.w3.org/2000/svg">
<path fill-rule="evenodd" clip-rule="evenodd" d="M9.69491 0.500109C10.1366 0.500109 10.5776 0.561004 10.9969 0.69853C13.5806 1.51958 14.5116 4.29064 13.7339 6.71274C13.2929 7.95048 12.5719 9.08011 11.6276 10.0031C10.2759 11.2826 8.79262 12.4184 7.19594 13.3968L7.02094 13.5001L6.83894 13.39C5.23666 12.4184 3.74497 11.2826 2.38069 9.99627C1.4427 9.07327 0.721004 7.95048 0.273009 6.71274C-0.517983 4.29064 0.413007 1.51958 3.02468 0.684162C3.22768 0.615741 3.43698 0.567846 3.64697 0.541162H3.73097C3.92767 0.513109 4.12297 0.500109 4.31897 0.500109H4.39597C4.83696 0.513109 5.26396 0.588372 5.67765 0.725899H5.71895C5.74695 0.738899 5.76795 0.753267 5.78195 0.766267C5.93665 0.814846 6.08295 0.869583 6.22295 0.944846L6.48894 1.06116C6.55322 1.09467 6.62536 1.14587 6.68771 1.19012C6.72722 1.21815 6.76279 1.2434 6.78994 1.25958C6.80136 1.26617 6.81297 1.2728 6.82468 1.27947C6.8847 1.31372 6.94722 1.34939 6.99994 1.3889C7.77763 0.808004 8.72192 0.493267 9.69491 0.500109ZM11.5569 5.42643C11.8439 5.4189 12.0889 5.19379 12.1099 4.90574V4.82432C12.1309 3.86574 11.5366 2.99748 10.6329 2.66221C10.3459 2.56574 10.0309 2.71695 9.92595 3.00432C9.82795 3.29169 9.98195 3.60643 10.2759 3.70837C10.7246 3.87258 11.0249 4.30432 11.0249 4.78258V4.80379C11.0116 4.96048 11.0599 5.11169 11.1579 5.228C11.2559 5.34432 11.4029 5.41206 11.5569 5.42643Z" fill="#F97066"/>
</svg>
