<svg width="28" height="27" viewBox="0 0 28 27" fill="none" xmlns="http://www.w3.org/2000/svg">
<path d="M19.6506 0.100586C17.3985 0.100586 17.3985 3.52769 19.6506 3.52769H21.2826L17.1701 7.64022C13.0575 4.73534 7.44362 5.22493 3.88596 8.74995C-0.128652 12.7972 -0.128652 19.325 3.88596 23.3396C7.93321 27.3542 14.4284 27.3542 18.4756 23.3396C22.0333 19.782 22.4902 14.168 19.5854 10.0882L23.6979 5.94299V7.57494C23.6979 9.82704 27.125 9.82704 27.125 7.57494V1.8631C27.125 0.851285 26.3743 0.100586 25.3625 0.100586H19.6506ZM16.0277 11.1979C18.7367 13.8743 18.7367 18.2153 16.0277 20.9243C13.3513 23.6007 9.0103 23.6007 6.33389 20.9243C3.62484 18.2153 3.62484 13.8743 6.33389 11.1979C9.0103 8.52147 13.3513 8.48884 16.0277 11.1979Z" fill="#00BE57"/>
</svg>
