<svg width="24" height="24" viewBox="0 0 24 24" fill="none" xmlns="http://www.w3.org/2000/svg">
<g clip-path="url(#clip0_7350_2760)">
<path d="M21.6608 11.241C21.6608 16.543 17.588 21.1104 11.6808 21.0003C6.37889 21.0003 2.43565 16.5609 2.69253 11.7547C2.69253 6.45274 6.59954 2.50903 11.9015 2.50903C17.2034 2.50903 21.3672 6.14126 21.6608 11.241Z" fill="#6B6B6B"/>
<path d="M17.939 17.7553C21.2194 14.4749 21.2194 9.15641 17.939 5.87603C14.6587 2.59566 9.34013 2.59566 6.05976 5.87603C2.77938 9.15641 2.77938 14.4749 6.05976 17.7553C9.34013 21.0357 14.6587 21.0357 17.939 17.7553Z" fill="#CFDCE6"/>
<path d="M17.7892 17.6051C20.9866 14.4077 20.9866 9.22365 17.7892 6.02623C14.5918 2.82881 9.40776 2.82881 6.21034 6.02623C3.01292 9.22365 3.01292 14.4077 6.21034 17.6051C9.40776 20.8025 14.5918 20.8025 17.7892 17.6051Z" fill="#CAD5DE"/>
<path d="M17.8022 6.04639L6.23047 17.6181C7.00771 18.3905 7.93461 19.0036 8.96771 19.4188L19.6029 8.78363C19.1925 7.75052 18.5746 6.8188 17.8022 6.04639Z" fill="#EBF1F5"/>
<path d="M9.91867 3.66385L3.81253 10.084C3.72526 10.3889 3.36091 12.0105 3.72533 13.1037L13.501 3.70471C12.1291 3.11125 11.0239 3.30728 9.91867 3.66385Z" fill="#EBF1F5"/>
<path d="M12.1587 17.9028C15.4355 17.9028 18.0918 15.2465 18.0918 11.9697C18.0918 8.69296 15.4355 6.03662 12.1587 6.03662C8.88193 6.03662 6.22559 8.69296 6.22559 11.9697C6.22559 15.2465 8.88193 17.9028 12.1587 17.9028Z" fill="white"/>
<path d="M16.3312 15.8079C18.6743 13.4648 18.3697 9.97959 16.0388 7.64873C13.708 5.31788 10.2041 5.21972 7.861 7.56282C5.5179 9.90593 5.59615 13.5688 7.927 15.8997C10.2579 18.2305 13.6394 18.3605 16.3312 15.8079Z" fill="#6B6B6B"/>
<path d="M15.7618 15.6545C17.7787 13.6375 17.7787 10.3674 15.7618 8.3504C13.7448 6.33344 10.4747 6.33344 8.4577 8.3504C6.44074 10.3674 6.44074 13.6375 8.4577 15.6545C10.4747 17.6714 13.7448 17.6714 15.7618 15.6545Z" fill="#A6C6DE"/>
<path d="M6.38991 12.1386C6.38991 8.8607 9.04508 6.20553 12.323 6.20553C13.8775 6.20553 15.292 6.80415 16.354 7.78415C15.2727 6.61587 13.723 5.88208 12.0044 5.88208C8.72646 5.88208 6.07129 8.53725 6.07129 11.8152C6.07129 13.5338 6.80508 15.0835 7.97336 16.1648C6.98853 15.1076 6.38991 13.6931 6.38991 12.1386Z" fill="#C3CFD9"/>
<path d="M10.2559 15.6702C10.149 15.6671 10.0635 15.5804 10.0618 15.4735L9.96685 9.42979C9.96251 9.15375 10.1827 8.92644 10.4588 8.922L12.7786 8.88477C13.3102 8.88477 13.7941 9.17655 14.1485 9.39652C14.5029 9.61039 14.7597 10.0034 14.9369 10.3455C15.1141 10.6816 15.2027 11.036 15.2027 11.4087C15.2027 11.7815 15.1141 12.1389 14.9369 12.4811C14.7597 12.8233 14.4939 13.1044 14.1395 13.3243C13.7851 13.5382 13.3421 13.6451 12.8105 13.6451L11.466 13.6277L11.3956 15.5053C11.3915 15.615 11.2997 15.7009 11.1899 15.6977L10.2559 15.6702ZM12.8105 10.1164L11.6002 10.1534C11.4908 10.1568 11.4044 10.2474 11.4064 10.3569L11.4474 12.6775L12.8105 12.7102C13.1038 12.7102 13.3482 12.6491 13.5437 12.5269C13.7393 12.3986 13.8859 12.2367 13.9837 12.0412C14.0815 11.8395 14.1303 11.6318 14.1303 11.4179C14.1303 11.1979 14.0815 10.9902 13.9837 10.7947C13.8859 10.593 13.7393 10.4311 13.5437 10.3089C13.3482 10.1806 13.1038 10.1164 12.8105 10.1164Z" fill="#6B6B6B"/>
<path d="M10.4627 15.4477C10.3522 15.4477 10.2627 15.3582 10.2627 15.2477V9.68164C10.2627 9.4055 10.4866 9.18164 10.7627 9.18164H12.6167C13.1078 9.18164 13.5171 9.28325 13.8445 9.48648C14.1719 9.68405 14.4175 9.94091 14.5812 10.257C14.7449 10.5675 14.8268 10.8949 14.8268 11.2393C14.8268 11.5836 14.7449 11.9139 14.5812 12.23C14.4175 12.5461 14.1719 12.8058 13.8445 13.009C13.5171 13.2066 13.1078 13.3054 12.6167 13.3054H11.2534V15.2477C11.2534 15.3582 11.1639 15.4477 11.0534 15.4477H10.4627ZM12.6167 10.0453H11.2534V12.4417H12.6167C12.8877 12.4417 13.1135 12.3852 13.2941 12.2723C13.4748 12.1538 13.6102 12.0042 13.7006 11.8235C13.7909 11.6373 13.836 11.4453 13.836 11.2477C13.836 11.0445 13.7909 10.8526 13.7006 10.6719C13.6102 10.4857 13.4748 10.3361 13.2941 10.2232C13.1135 10.1046 12.8877 10.0453 12.6167 10.0453Z" fill="white"/>
</g>
<defs>
<clipPath id="clip0_7350_2760">
<rect width="20.4" height="20.4" fill="white" transform="translate(1.7998 1.19995)"/>
</clipPath>
</defs>
</svg>
