<svg width="24" height="25" viewBox="0 0 24 25" fill="none" xmlns="http://www.w3.org/2000/svg">
<g id="vuesax/bold/sms">
<g id="sms">
<path id="Vector" d="M17 4.05469H7C4 4.05469 2 5.55469 2 9.05469V16.0547C2 19.5547 4 21.0547 7 21.0547H17C20 21.0547 22 19.5547 22 16.0547V9.05469C22 5.55469 20 4.05469 17 4.05469ZM17.47 10.1447L14.34 12.6447C13.68 13.1747 12.84 13.4347 12 13.4347C11.16 13.4347 10.31 13.1747 9.66 12.6447L6.53 10.1447C6.21 9.88469 6.16 9.40469 6.41 9.08469C6.67 8.76469 7.14 8.70469 7.46 8.96469L10.59 11.4647C11.35 12.0747 12.64 12.0747 13.4 11.4647L16.53 8.96469C16.85 8.70469 17.33 8.75469 17.58 9.08469C17.84 9.40469 17.79 9.88469 17.47 10.1447Z" fill="#FF9900"/>
</g>
</g>
</svg>
