<svg width="50" height="50" viewBox="0 0 50 50" fill="none" xmlns="http://www.w3.org/2000/svg">
<rect x="0.5" y="0.5" width="49" height="49" rx="7.5" fill="#F3F3F3"/>
<rect x="0.5" y="0.5" width="49" height="49" rx="7.5" stroke="#818181"/>
<path d="M35.8498 18.805C35.8326 18.769 35.8127 18.7344 35.7902 18.7015C34.7015 16.8447 33.1549 15.2981 31.2981 14.2093C31.265 14.1868 31.2303 14.1668 31.1942 14.1495C29.3087 13.0687 27.1733 12.5 25 12.5C22.8267 12.5 20.6913 13.0687 18.8058 14.1495C18.7696 14.1668 18.7347 14.1869 18.7015 14.2095C16.8448 15.2982 15.2981 16.8449 14.2094 18.7017C14.1869 18.7347 14.1669 18.7695 14.1496 18.8056C13.0687 20.6911 12.5 22.8266 12.5 25C12.5 27.1734 13.0687 29.3089 14.1496 31.1945C14.165 31.2259 14.1824 31.2563 14.202 31.2853C15.2911 33.1478 16.8405 34.6992 18.7017 35.7906C18.7308 35.8101 18.7612 35.8276 18.7927 35.8429C20.6813 36.9286 22.8216 37.5 25 37.5C27.1784 37.5 29.3187 36.9286 31.2073 35.8429C31.2388 35.8276 31.2692 35.8101 31.2983 35.7906C33.1595 34.6992 34.7089 33.1478 35.798 31.2853C35.8175 31.2563 35.835 31.2259 35.8504 31.1945C36.9313 29.3089 37.5 27.1734 37.5 25C37.5 22.8266 36.9313 20.6911 35.8504 18.8056L35.8498 18.805ZM35.3351 30.5156L33.6412 29.5374C33.5968 29.5118 33.5477 29.4951 33.4969 29.4884C33.446 29.4818 33.3943 29.4851 33.3447 29.4984C33.2952 29.5117 33.2487 29.5346 33.208 29.5659C33.1673 29.5971 33.1332 29.6361 33.1075 29.6805C33.0819 29.7249 33.0652 29.774 33.0585 29.8249C33.0519 29.8757 33.0552 29.9274 33.0685 29.977C33.0818 30.0265 33.1047 30.073 33.136 30.1137C33.1672 30.1544 33.2062 30.1885 33.2506 30.2142L34.9426 31.1907C33.9928 32.7098 32.7098 33.9927 31.1908 34.9425L30.2143 33.2505C30.1886 33.2061 30.1545 33.1671 30.1138 33.1359C30.0731 33.1046 30.0266 33.0817 29.9771 33.0684C29.9275 33.0552 29.8758 33.0518 29.825 33.0585C29.7741 33.0652 29.725 33.0818 29.6806 33.1074C29.6362 33.1331 29.5972 33.1672 29.566 33.2079C29.5347 33.2486 29.5118 33.2951 29.4986 33.3447C29.4853 33.3942 29.4819 33.4459 29.4886 33.4968C29.4953 33.5476 29.5119 33.5967 29.5375 33.6411L30.5157 35.3351C28.9357 36.1814 27.1816 36.6514 25.3901 36.7083V34.7527C25.3901 34.6491 25.349 34.5497 25.2757 34.4764C25.2025 34.4032 25.1031 34.362 24.9995 34.362C24.8959 34.362 24.7966 34.4032 24.7233 34.4764C24.65 34.5497 24.6089 34.6491 24.6089 34.7527V36.7085C22.8174 36.6516 21.0633 36.1816 19.4834 35.3353L20.4615 33.6413C20.5133 33.5516 20.5273 33.4449 20.5005 33.3449C20.4736 33.2448 20.4082 33.1594 20.3184 33.1076C20.2287 33.0558 20.122 33.0418 20.0219 33.0686C19.9219 33.0955 19.8365 33.161 19.7847 33.2507L18.8082 34.9427C17.2893 33.9929 16.0064 32.7099 15.0567 31.1909L16.7486 30.2144C16.7931 30.1887 16.832 30.1546 16.8632 30.1139C16.8945 30.0732 16.9174 30.0267 16.9307 29.9772C16.944 29.9276 16.9474 29.8759 16.9407 29.825C16.934 29.7742 16.9173 29.7251 16.8917 29.6807C16.866 29.6363 16.8319 29.5973 16.7912 29.5661C16.7505 29.5348 16.704 29.5119 16.6545 29.4986C16.6049 29.4853 16.5532 29.4819 16.5024 29.4886C16.4515 29.4953 16.4024 29.512 16.358 29.5376L14.6641 30.5157C13.8177 28.9358 13.3478 27.1816 13.2909 25.3902H15.2465C15.3501 25.3902 15.4494 25.349 15.5227 25.2758C15.596 25.2025 15.6371 25.1031 15.6371 24.9995C15.6371 24.8959 15.596 24.7966 15.5227 24.7233C15.4494 24.6501 15.3501 24.6089 15.2465 24.6089H13.2909C13.3478 22.8174 13.8177 21.0633 14.6641 19.4833L16.358 20.4614C16.4024 20.4871 16.4515 20.5037 16.5024 20.5104C16.5532 20.5171 16.6049 20.5137 16.6545 20.5004C16.704 20.4872 16.7505 20.4642 16.7912 20.433C16.8319 20.4018 16.866 20.3628 16.8917 20.3184C16.9173 20.2739 16.934 20.2249 16.9407 20.174C16.9474 20.1232 16.944 20.0715 16.9307 20.0219C16.9174 19.9724 16.8945 19.9259 16.8632 19.8852C16.832 19.8445 16.7931 19.8103 16.7486 19.7847L15.0567 18.8081C16.0064 17.2892 17.2893 16.0063 18.8082 15.0566L19.7847 16.7486C19.8104 16.793 19.8445 16.8319 19.8852 16.8632C19.9259 16.8944 19.9724 16.9173 20.0219 16.9306C20.0715 16.9439 20.1232 16.9473 20.1741 16.9406C20.2249 16.9339 20.274 16.9173 20.3184 16.8916C20.3628 16.866 20.4018 16.8318 20.433 16.7911C20.4643 16.7504 20.4872 16.704 20.5005 16.6544C20.5138 16.6049 20.5172 16.5532 20.5105 16.5023C20.5038 16.4514 20.4871 16.4024 20.4615 16.3579L19.4834 14.664C21.0633 13.8176 22.8174 13.3477 24.6089 13.2907V15.2464C24.6089 15.35 24.65 15.4494 24.7233 15.5226C24.7966 15.5959 24.8959 15.637 24.9995 15.637C25.1031 15.637 25.2025 15.5959 25.2757 15.5226C25.349 15.4494 25.3901 15.35 25.3901 15.2464V13.2907C27.1816 13.3477 28.9357 13.8176 30.5157 14.664L29.5375 16.3579C29.4857 16.4477 29.4717 16.5543 29.4986 16.6544C29.5254 16.7545 29.5909 16.8398 29.6806 16.8916C29.7704 16.9434 29.877 16.9575 29.9771 16.9306C30.0772 16.9038 30.1625 16.8383 30.2143 16.7486L31.1908 15.0566C32.7097 16.0063 33.9926 17.2892 34.9424 18.8081L33.2504 19.7847C33.1607 19.8365 33.0952 19.9218 33.0683 20.0219C33.0415 20.122 33.0555 20.2286 33.1073 20.3184C33.1591 20.4081 33.2445 20.4736 33.3445 20.5004C33.4446 20.5273 33.5513 20.5132 33.641 20.4614L35.3349 19.4833C36.1813 21.0633 36.6512 22.8174 36.7082 24.6089H34.7525C34.6489 24.6089 34.5496 24.6501 34.4763 24.7233C34.4031 24.7966 34.3619 24.8959 34.3619 24.9995C34.3619 25.1031 34.4031 25.2025 34.4763 25.2758C34.5496 25.349 34.6489 25.3902 34.7525 25.3902H36.7084C36.6514 27.1816 36.1815 28.9356 35.3351 30.5156Z" fill="#818181"/>
<path d="M25.7602 30.119C25.7024 30.09 25.6383 30.0759 25.5737 30.0779C25.5091 30.0798 25.446 30.0979 25.3901 30.1304V27.1108C25.1321 27.1606 24.8669 27.1606 24.6089 27.1108V30.1304C24.5361 30.0884 24.4518 30.071 24.3684 30.0807C24.285 30.0904 24.2069 30.1267 24.1458 30.1843C24.0847 30.2418 24.0437 30.3176 24.029 30.4003C24.0143 30.4829 24.0266 30.5681 24.0641 30.6433L24.6501 31.8151C24.6825 31.88 24.7324 31.9346 24.7941 31.9728C24.8558 32.0109 24.9269 32.0311 24.9995 32.0311C25.072 32.0311 25.1431 32.0109 25.2049 31.9728C25.2666 31.9346 25.3164 31.88 25.3489 31.8151L25.9348 30.6433C25.9578 30.5974 25.9715 30.5474 25.9751 30.4962C25.9788 30.4451 25.9723 30.3937 25.9561 30.345C25.9399 30.2963 25.9142 30.2513 25.8806 30.2125C25.847 30.1738 25.8061 30.142 25.7602 30.119Z" fill="#818181"/>
<path d="M25.3901 22.8884V17.9683C25.3901 17.8647 25.349 17.7653 25.2757 17.692C25.2025 17.6188 25.1031 17.5776 24.9995 17.5776C24.8959 17.5776 24.7966 17.6188 24.7233 17.692C24.65 17.7653 24.6089 17.8647 24.6089 17.9683V22.8884C24.8669 22.8386 25.1321 22.8386 25.3901 22.8884Z" fill="#818181"/>
<path d="M24.9995 23.6323C24.7291 23.6323 24.4648 23.7125 24.2399 23.8627C24.0151 24.013 23.8399 24.2265 23.7364 24.4763C23.6329 24.7261 23.6058 25.001 23.6586 25.2662C23.7113 25.5314 23.8416 25.7751 24.0328 25.9663C24.224 26.1575 24.4676 26.2877 24.7328 26.3404C24.998 26.3932 25.2729 26.3661 25.5227 26.2626C25.7725 26.1591 25.986 25.9839 26.1363 25.7591C26.2865 25.5342 26.3667 25.2699 26.3667 24.9995C26.3663 24.637 26.2221 24.2895 25.9658 24.0332C25.7095 23.7769 25.362 23.6327 24.9995 23.6323ZM24.9995 25.5854C24.8836 25.5854 24.7703 25.5511 24.674 25.4867C24.5776 25.4223 24.5025 25.3308 24.4582 25.2237C24.4138 25.1167 24.4022 24.9989 24.4248 24.8852C24.4474 24.7715 24.5032 24.6671 24.5852 24.5852C24.6671 24.5032 24.7715 24.4474 24.8852 24.4248C24.9988 24.4022 25.1167 24.4138 25.2237 24.4582C25.3308 24.5025 25.4223 24.5776 25.4867 24.674C25.5511 24.7703 25.5854 24.8836 25.5854 24.9995C25.5854 25.1549 25.5237 25.3039 25.4138 25.4138C25.3039 25.5237 25.1549 25.5854 24.9995 25.5854Z" fill="#818181"/>
</svg>
