<svg width="50" height="50" viewBox="0 0 50 50" fill="none" xmlns="http://www.w3.org/2000/svg">
<rect x="0.5" y="0.5" width="49" height="49" rx="7.5" fill="#F1FFEB" stroke="#61BF61"/>
<path d="M31.8312 22.3045L31.8244 22.2909L31.8222 22.2875L31.8176 22.2785L31.8165 22.2751L31.8074 22.2514V22.2492L31.8052 22.2447V22.2424L31.7995 22.2232V22.2221L31.7972 22.2097V22.2086L31.7961 22.2029V22.2018L31.7938 22.1815V22.1239L31.7949 22.1171V22.116L31.7961 22.1104V22.1092L31.7972 22.1036V22.1025L31.7983 22.0968V22.0957L31.7995 22.0901V22.0889L31.8006 22.0833V22.0822L31.8029 22.0765V22.0754L31.8052 22.0697V22.0686L31.8074 22.063L31.8086 22.0618L31.8108 22.0562V22.0551L31.8131 22.0494L31.8142 22.0483L31.8165 22.0427L31.8176 22.0415L31.8312 22.0144L31.8335 22.0111L31.8358 22.0088L31.838 22.0054L31.8403 22.0032L31.8448 21.9964L31.8471 21.9941L31.8539 21.9851L31.8551 21.9828L31.8585 21.9795L31.8596 21.9772L31.8687 21.9659C32.2441 21.5032 32.607 21.0484 32.9552 20.6049C33.3147 20.1456 33.6686 19.6874 34.0133 19.2315V19.2303L34.0167 19.2258L34.0235 19.219L34.027 19.2145L34.0372 19.2044L34.0383 19.2021L34.0417 19.1987L34.0428 19.1965L34.0474 19.192L34.0519 19.1886L34.0632 19.1795L34.0644 19.1784L34.0746 19.1705L34.0871 19.1615L34.1063 19.1502L34.112 19.1468H34.1131L34.1256 19.1412H34.1268L34.1324 19.1389L34.1653 19.1265H34.1676L34.1721 19.1254H34.1744L34.1789 19.1242H34.1812L34.1857 19.1231H34.188L34.2084 19.1197L34.213 19.1186H34.2152L34.2198 19.1175H34.222L34.2266 19.1163H34.2651L34.2855 19.1186H34.2901L34.2923 19.1197H34.2969L34.2991 19.1209L34.3037 19.122L34.306 19.1231C34.3275 19.1276 34.3502 19.1344 34.3706 19.1446L34.3717 19.1457L34.3774 19.1479L34.3785 19.1491L34.3967 19.1592L34.4205 19.175H34.4216L34.4262 19.1784L34.433 19.1852L34.4375 19.1886L34.4477 19.1987L34.45 19.1999L34.4534 19.2032L34.4557 19.2044L34.4602 19.2089L34.4636 19.2134L34.4727 19.2247L34.4738 19.2258L34.4817 19.236L34.4908 19.2484C35.2133 20.2381 35.786 21.3441 36.1716 22.5289C36.5471 23.6801 36.7512 24.9091 36.7512 26.1831C36.7512 29.4457 35.422 32.4004 33.2729 34.5389C31.1248 36.6775 28.1544 38 24.8756 38C21.5968 38 18.6266 36.6773 16.4783 34.5389C14.3291 32.4003 13 29.4457 13 26.1831C13 22.9204 14.3292 19.9649 16.4783 17.8272C18.6264 15.6886 21.5968 14.3661 24.8756 14.3661C25.8476 14.3661 26.7957 14.4835 27.7053 14.7047C28.6376 14.9315 29.529 15.269 30.3615 15.7012L30.3671 15.7034L30.3683 15.7046L30.374 15.7068L30.3751 15.708L30.3808 15.7113L30.3819 15.7125L30.3876 15.7159L30.3887 15.717L30.3944 15.7204L30.3955 15.7215L30.4012 15.7249L30.4023 15.726L30.408 15.7294L30.4091 15.7305L30.4137 15.7339L30.4148 15.735L30.4193 15.7384L30.4205 15.7396L30.4261 15.7441L30.4307 15.7475L30.4318 15.7486L30.4363 15.752L30.4375 15.7531L30.442 15.7565L30.4431 15.7576L30.4477 15.761L30.4533 15.7666L30.4567 15.7712L30.4692 15.7881L30.4704 15.7892L30.4738 15.7937L30.4749 15.796L30.4862 15.8129L30.4998 15.84L30.5055 15.8524L30.5089 15.8592L30.5112 15.866L30.5135 15.8705L30.5169 15.884V15.8863L30.5214 15.9043V15.9066L30.5225 15.9111L30.5237 15.9201L30.5248 15.9258V15.928L30.5259 15.9325V15.9348L30.5271 15.9393V15.9416L30.5282 15.9608V16.0014L30.5259 16.0206V16.0217L30.5248 16.0273V16.0285L30.5237 16.0341L30.5225 16.0364L30.5214 16.042L30.5203 16.0443L30.5191 16.0499L30.518 16.051L30.5169 16.0567L30.5157 16.0578L30.5146 16.0635L30.5135 16.0646L30.5112 16.0702L30.5101 16.0714L30.5078 16.077L30.5067 16.0781L30.5044 16.0838L30.5032 16.0849L30.501 16.0905L30.4998 16.0917L30.4976 16.0973L30.4964 16.0984L30.4942 16.1041L30.493 16.1052L30.4908 16.1108L30.4896 16.112L30.4862 16.1176L30.4851 16.1187L30.4817 16.1244L30.4772 16.13C30.2129 16.5713 29.9339 17.0148 29.6402 17.4617L29.6243 17.4832C29.3147 17.9515 28.9869 18.43 28.6421 18.9142V18.9153L28.6387 18.9198L28.6376 18.9209L28.6342 18.9266L28.633 18.9277L28.6296 18.9334L28.6285 18.9345L28.6251 18.9401H28.624L28.6149 18.9514L28.6104 18.9559L28.5763 18.983L28.5707 18.9864L28.565 18.9909L28.5639 18.992L28.5582 18.9954L28.5571 18.9966L28.5514 18.9999L28.5502 19.0011L28.5446 19.0045L28.5434 19.0056L28.5378 19.0078L28.5366 19.009L28.531 19.0112L28.5298 19.0124L28.5242 19.0146L28.523 19.0157L28.5174 19.018L28.5162 19.0191L28.5106 19.0214L28.5094 19.0225L28.5037 19.0248H28.5026L28.4969 19.027L28.4958 19.0282L28.4901 19.0304L28.489 19.0315L28.4833 19.0338H28.4822L28.4765 19.0361L28.4697 19.0383H28.4686L28.4629 19.0394H28.4618L28.4561 19.0406H28.455L28.4493 19.0417H28.4482L28.4425 19.0428H28.4414L28.4357 19.044H28.4346L28.4289 19.0451H28.3733L28.3676 19.044H28.3665L28.3608 19.0428H28.3597L28.3461 19.0406H28.345L28.3382 19.0394L28.3245 19.0361L28.2973 19.027L28.278 19.0191L28.2769 19.018L28.2712 19.0157L28.2701 19.0146L28.2644 19.0124L28.2576 19.009C27.737 18.7652 27.187 18.5767 26.6154 18.4503C26.0574 18.3262 25.4733 18.2607 24.8688 18.2607C22.6663 18.2607 20.6713 19.1489 19.2286 20.5844C17.7859 22.02 16.8934 24.0051 16.8934 26.1968C16.8934 28.3805 17.7803 30.3588 19.2127 31.7932L19.2286 31.8079C20.6713 33.2434 22.6663 34.1327 24.8676 34.1327C27.0702 34.1327 29.064 33.2445 30.5067 31.8079C31.9493 30.3724 32.8419 28.3884 32.8419 26.1967C32.8419 25.5004 32.7523 24.8266 32.5856 24.189C32.4132 23.5288 32.1546 22.9002 31.8268 22.3167L31.8312 22.3045ZM33.3839 12.1519C33.4486 12.0334 33.5892 11.9725 33.723 12.012C34.374 12.2072 35.0511 12.4183 35.7532 12.644C36.4461 12.8663 37.1312 13.0943 37.8037 13.3245C37.8264 13.3324 37.8479 13.3426 37.8672 13.3561L37.8695 13.3572C37.8854 13.3674 37.9001 13.3798 37.9137 13.3922L37.9341 13.4137L37.9375 13.4182L37.9387 13.4193L37.9421 13.4238L37.9432 13.4261L37.9511 13.4374L37.9534 13.4407L37.9545 13.443L37.9579 13.4486L37.9602 13.452L37.9614 13.4543L37.9682 13.4667L37.9704 13.4701L37.9716 13.4723C37.9908 13.5141 38.001 13.5592 37.9999 13.6066V13.6145L37.9965 13.6484V13.6495L37.9954 13.6552V13.6563L37.9863 13.6913C37.9784 13.7139 37.9682 13.7353 37.9545 13.7545L37.9534 13.7567L37.9319 13.785L37.9228 13.7962C35.6046 16.6763 33.3772 19.4955 31.2449 22.2491C29.1116 25.0039 27.0666 27.7 25.1149 30.3328L25.1115 30.3384L25.0979 30.3554H25.0968L25.0934 30.361L25.0809 30.3734L25.0775 30.3779L25.0593 30.396L25.0491 30.405H25.048L25.0423 30.4095H25.0412L25.0298 30.4186L25.0185 30.4253H25.0174L25.0117 30.4287L25.0106 30.4298L25.0049 30.4321L25.0038 30.4332L24.9765 30.4468L24.9595 30.4524L24.9573 30.4536L24.9527 30.4547L24.9504 30.4558L24.93 30.4626H24.9266L24.9232 30.4637H24.9198L24.9164 30.4648H24.913L24.9096 30.466H24.9062L24.9028 30.4671H24.8994L24.896 30.4682H24.8926L24.8892 30.4693H24.8336L24.8302 30.4682H24.8268L24.8234 30.4671H24.82L24.7758 30.4524L24.7735 30.4513L24.769 30.4502L24.735 30.4332L24.7338 30.4321L24.7293 30.4298L24.7282 30.4287L24.7225 30.4253H24.7213L24.7157 30.422H24.7145L24.7089 30.4186H24.7077L24.7021 30.4152L24.6851 30.4016V30.4005L24.6794 30.3971L24.6669 30.3847L24.6624 30.3813L24.6442 30.3633L24.6352 30.3531V30.352L24.6306 30.3463V30.3452L24.6215 30.3339C23.5373 28.798 22.5177 27.3275 21.5639 25.9246C20.6113 24.5241 19.7119 23.171 18.8647 21.8663L18.8601 21.8607L18.8431 21.8324V21.8313L18.8408 21.8257V21.8245L18.8386 21.8189V21.8178L18.8363 21.8121V21.811L18.834 21.8054V21.8042L18.8318 21.7986V21.7975L18.8295 21.7918V21.7896L18.8272 21.7839L18.8261 21.7817L18.825 21.7771V21.7749L18.8238 21.7704L18.8227 21.7681L18.8216 21.7636V21.7613L18.8204 21.7568V21.7546L18.8193 21.7501V21.7478L18.8182 21.7433V21.741L18.817 21.7365V21.662L18.8182 21.6586V21.6553L18.8193 21.6519L18.8204 21.6474V21.6451L18.8216 21.6417L18.8227 21.6395L18.8238 21.6349L18.825 21.6327L18.8261 21.6282L18.8272 21.6259L18.8284 21.6214L18.8295 21.6191L18.8306 21.6146L18.8318 21.6124L18.8329 21.6079L18.834 21.6056L18.8352 21.6011L18.8363 21.5988L18.8374 21.5943L18.8613 21.5469L18.8624 21.5458L18.8658 21.5413L18.8669 21.5401L18.8703 21.5356L18.8715 21.5345L18.8749 21.53L18.876 21.5289L18.8794 21.5244L18.8805 21.5232L18.8839 21.5187L18.8885 21.5131V21.5119L18.893 21.5074L18.9066 21.4905L18.9168 21.4803C19.2004 21.205 19.4794 20.9476 19.7527 20.7061C20.0215 20.4692 20.2857 20.2491 20.5432 20.0482L20.5477 20.0437L20.5648 20.0302C20.5818 20.0177 20.5999 20.0076 20.6192 19.9997L20.6215 19.9986L20.626 19.9974C20.6464 19.9895 20.6668 19.9839 20.6873 19.9805L20.6895 19.9794H20.6941L20.6975 19.9782H20.7009C20.719 19.976 20.7383 19.976 20.7564 19.9771H20.7598L20.7632 19.9782H20.7666L20.77 19.9794L20.7837 19.9816H20.7871L20.7905 19.9828H20.7939L20.7973 19.9839H20.8007L20.8075 19.9861C20.8199 19.9895 20.8324 19.9929 20.8438 19.9986L20.8472 19.9997L20.8506 20.0019L20.854 20.0031L20.8574 20.0053L20.8698 20.011L20.8733 20.0121L20.8767 20.0144L20.8801 20.0155L20.8835 20.0177L20.8857 20.0189C20.9175 20.0381 20.947 20.0651 20.9708 20.0967C21.4505 20.757 22.0323 21.4984 22.714 22.32C23.331 23.0637 24.0421 23.8887 24.8485 24.7926C26.0541 23.1461 27.347 21.3032 28.724 19.2673C30.1802 17.114 31.7328 14.7429 33.3808 12.1529L33.3839 12.1519ZM37.2263 13.7376C36.6638 13.5468 36.1137 13.3663 35.5761 13.1925C34.9864 13.0029 34.3818 12.8144 33.7649 12.6282C32.1532 15.1573 30.6335 17.4775 29.2068 19.5869C27.7471 21.7458 26.3827 23.6859 25.117 25.4046L25.1125 25.4103C25.1011 25.4272 25.0875 25.443 25.0716 25.4577L25.0705 25.4599L25.0648 25.4656L25.0331 25.4893L25.0297 25.4915C24.9526 25.5412 24.8573 25.5502 24.7734 25.5209L24.7711 25.5197C24.7303 25.5051 24.6928 25.4814 24.6622 25.4486L24.6599 25.4475L24.6543 25.4419C23.7651 24.4487 22.9689 23.529 22.2692 22.6848C21.6579 21.9467 21.1282 21.2775 20.6825 20.6782C20.5044 20.8227 20.323 20.9773 20.1381 21.1398C19.926 21.326 19.7071 21.5269 19.4826 21.7402C20.281 22.9658 21.1384 24.2535 22.0537 25.6009C22.9497 26.9179 23.891 28.2778 24.8778 29.6794C26.7616 27.1436 28.7306 24.5478 30.7856 21.8948C32.8475 19.2314 34.9956 16.5127 37.2266 13.7366L37.2263 13.7376ZM17.5852 26.3952H18.6014V25.9133H17.5852V26.3952ZM18.8838 26.973H17.2937C17.1338 26.973 17.0034 26.8433 17.0034 26.6841V25.6233C17.0034 25.4642 17.1338 25.3344 17.2937 25.3344H18.8917C19.0517 25.3344 19.1821 25.4642 19.1821 25.6233V26.6841C19.1821 26.8433 19.0517 26.973 18.8917 26.973H18.8838ZM31.1734 26.3952H32.1896V25.9133H31.1734V26.3952ZM32.4732 26.973H30.8831C30.7232 26.973 30.5928 26.8433 30.5928 26.6841V25.6233C30.5928 25.4642 30.7232 25.3344 30.8831 25.3344H32.4811C32.641 25.3344 32.7715 25.4642 32.7715 25.6233V26.6841C32.7715 26.8433 32.641 26.973 32.4811 26.973H32.4732ZM24.6453 18.8871V19.8982H25.1284V18.8871H24.6453ZM24.0646 20.1793V18.597C24.0646 18.4379 24.195 18.3081 24.3549 18.3081H25.4199C25.5798 18.3081 25.7102 18.4379 25.7102 18.597V20.1872C25.7102 20.3463 25.5798 20.4761 25.4199 20.4761H24.3549C24.195 20.4761 24.0646 20.3463 24.0646 20.1872V20.1793ZM24.6453 32.4093V33.4205H25.1284V32.4093H24.6453ZM24.0646 33.7016V32.1193C24.0646 31.9602 24.195 31.8304 24.3549 31.8304H25.4199C25.5798 31.8304 25.7102 31.9602 25.7102 32.1193V33.7094C25.7102 33.8686 25.5798 33.9983 25.4199 33.9983H24.3549C24.195 33.9983 24.0646 33.8686 24.0646 33.7094V33.7016ZM25.066 25.463C25.0558 25.4721 25.0433 25.4811 25.032 25.489L25.066 25.463ZM32.4311 22.1937C32.7385 22.7693 32.9812 23.3855 33.1513 24.031C33.3317 24.7206 33.4281 25.4428 33.4281 26.1843C33.4281 28.5339 32.4697 30.6635 30.9227 32.2028C29.3746 33.7444 27.2357 34.6981 24.872 34.6981C22.5096 34.6981 20.3694 33.7444 18.8212 32.204L18.8042 32.1859C17.2663 30.6466 16.3159 28.5249 16.3159 26.1844C16.3159 23.8348 17.2743 21.7052 18.8213 20.1659C20.3705 18.6243 22.5106 17.6706 24.872 17.6706C25.5105 17.6706 26.1377 17.7417 26.7433 17.876C27.2832 17.9957 27.8038 18.1661 28.2971 18.3805C28.6011 17.9483 28.8812 17.5397 29.1353 17.1549L29.1477 17.1335C29.395 16.7588 29.6196 16.4055 29.8214 16.0771C29.1081 15.7318 28.3527 15.4576 27.5656 15.2657C26.7059 15.0569 25.8031 14.9452 24.872 14.9452C21.7532 14.9452 18.929 16.2035 16.8853 18.2373C14.8415 20.271 13.5768 23.0812 13.5768 26.1846C13.5768 29.2881 14.8414 32.0983 16.8853 34.1319C18.929 36.1656 21.7532 37.424 24.872 37.424C27.9909 37.424 30.815 36.1657 32.8588 34.1319C34.9025 32.0983 36.1672 29.2881 36.1672 26.1846C36.1672 24.9703 35.9733 23.8022 35.6172 22.7088C35.2883 21.6998 34.8199 20.7541 34.2358 19.8953C33.9658 20.2497 33.6902 20.6063 33.4113 20.9629C33.0858 21.3771 32.7602 21.7879 32.4313 22.1941L32.4311 22.1937Z" fill="#61BF61"/>
</svg>
