<svg width="25" height="24" viewBox="0 0 25 24" fill="none" xmlns="http://www.w3.org/2000/svg">
<g id="icon/support">
<g id="Group">
<g id="Group_2">
<path id="Vector" d="M18.6923 17.1365H18.9592C19.833 17.1365 20.548 16.4215 20.548 15.5476V11.374C20.548 10.5001 19.833 9.78516 18.9592 9.78516H18.6923C17.8185 9.78516 17.1035 10.5001 17.1035 11.374V15.5476C17.1035 16.4215 17.8185 17.1365 18.6923 17.1365Z" fill="#FF9900"/>
<g id="Group_3">
<path id="Vector_2" d="M18.6924 17.3399C18.833 17.3399 18.9735 17.346 19.1141 17.3318C19.3646 17.3073 19.6029 17.2381 19.8229 17.1158C20.2486 16.8816 20.5705 16.4701 20.6927 15.9996C20.7456 15.8 20.7517 15.5983 20.7517 15.3926C20.7517 15.1767 20.7517 14.9608 20.7517 14.7428C20.7517 14.0808 20.7517 13.4208 20.7517 12.7588C20.7517 12.3087 20.7517 11.8585 20.7517 11.4084C20.7517 10.5651 20.1733 9.79306 19.332 9.61789C19.1446 9.57919 18.9572 9.57715 18.7678 9.57715C18.562 9.57715 18.3583 9.59548 18.1608 9.65863C17.7004 9.80529 17.2991 10.1393 17.0873 10.5773C16.8693 11.0254 16.8999 11.4959 16.8999 11.9767C16.8999 12.6203 16.8999 13.266 16.8999 13.9097C16.8999 14.4189 16.8999 14.9261 16.8999 15.4354C16.8999 15.6839 16.9223 15.9304 17.0119 16.1646C17.1851 16.6148 17.5273 16.9896 17.9713 17.1831C18.2015 17.2849 18.4419 17.3379 18.6924 17.3399C18.9552 17.3419 18.9552 16.9346 18.6924 16.9325C17.9224 16.9264 17.3093 16.295 17.3073 15.5291C17.3073 15.1298 17.3073 14.7306 17.3073 14.3314C17.3073 13.3455 17.2991 12.3616 17.3073 11.3758C17.3093 10.9847 17.4743 10.616 17.7615 10.3512C18.0487 10.0884 18.4052 9.99065 18.7861 9.99065C18.9572 9.99065 19.1242 9.98861 19.2913 10.0314C19.4827 10.0803 19.664 10.1679 19.8188 10.2901C20.1488 10.5549 20.3403 10.9521 20.3444 11.3758C20.3525 12.3433 20.3444 13.3088 20.3444 14.2764C20.3444 14.6919 20.3444 15.1054 20.3444 15.5209C20.3444 15.8183 20.2629 16.0974 20.0918 16.3439C19.8636 16.6759 19.4746 16.902 19.0713 16.9305C18.945 16.9386 18.8187 16.9346 18.6924 16.9346C18.4296 16.9325 18.4296 17.3399 18.6924 17.3399Z" fill="#FF9900"/>
</g>
</g>
<g id="Group_4">
<path id="Vector_3" d="M5.6474 17.1365H5.91424C6.78809 17.1365 7.50305 16.4215 7.50305 15.5476V11.374C7.50305 10.5001 6.78809 9.78516 5.91424 9.78516H5.6474C4.77356 9.78516 4.05859 10.5001 4.05859 11.374V15.5476C4.05859 16.4215 4.77356 17.1365 5.6474 17.1365Z" fill="#FF9900"/>
<g id="Group_5">
<path id="Vector_4" d="M5.64748 17.3399C5.78803 17.3399 5.92858 17.346 6.06913 17.3318C6.31967 17.3073 6.55799 17.2381 6.77798 17.1158C7.2037 16.8816 7.52554 16.4701 7.64776 15.9996C7.70072 15.8 7.70683 15.5983 7.70683 15.3926C7.70683 15.1767 7.70683 14.9608 7.70683 14.7428C7.70683 14.0808 7.70683 13.4208 7.70683 12.7588C7.70683 12.3087 7.70683 11.8585 7.70683 11.4084C7.70683 10.5651 7.12834 9.79306 6.28708 9.61789C6.09968 9.57919 5.91229 9.57715 5.72285 9.57715C5.51712 9.57715 5.31343 9.59548 5.11584 9.65863C4.6555 9.80529 4.25422 10.1393 4.04238 10.5773C3.82443 11.0254 3.85498 11.4959 3.85498 11.9767C3.85498 12.6203 3.85498 13.266 3.85498 13.9097C3.85498 14.4189 3.85498 14.9261 3.85498 15.4354C3.85498 15.6839 3.87739 15.9304 3.96701 16.1646C4.14015 16.6148 4.48236 16.9896 4.92641 17.1831C5.15658 17.2849 5.39694 17.3379 5.64748 17.3399C5.91025 17.3419 5.91025 16.9346 5.64748 16.9325C4.87752 16.9264 4.2644 16.295 4.26237 15.5291C4.26237 15.1298 4.26237 14.7306 4.26237 14.3314C4.26237 13.3455 4.25422 12.3616 4.26237 11.3758C4.2644 10.9847 4.4294 10.616 4.7166 10.3512C5.00381 10.0884 5.36028 9.99065 5.74118 9.99065C5.91229 9.99065 6.07931 9.98861 6.24634 10.0314C6.43782 10.0803 6.6191 10.1679 6.77391 10.2901C7.10389 10.5549 7.29537 10.9521 7.29944 11.3758C7.30759 12.3433 7.29944 13.3088 7.29944 14.2764C7.29944 14.6919 7.29944 15.1054 7.29944 15.5209C7.29944 15.8183 7.21796 16.0974 7.04686 16.3439C6.81872 16.6759 6.42967 16.902 6.02635 16.9305C5.90006 16.9386 5.77377 16.9346 5.64748 16.9346C5.38472 16.9325 5.38472 17.3399 5.64748 17.3399Z" fill="#FF9900"/>
</g>
</g>
<g id="Group_6">
<g id="Group_7">
<path id="Vector_5" d="M5.07665 15.547C5.07665 14.8789 5.07665 14.2108 5.07665 13.5426C5.07665 12.6056 5.07665 11.6687 5.07665 10.7317C5.07665 10.2856 5.08684 9.84153 5.14795 9.39748C5.1398 9.45247 5.13369 9.50543 5.12554 9.56043C5.21924 8.87602 5.40256 8.20791 5.67144 7.57238C5.65107 7.62127 5.6307 7.67015 5.61033 7.71904C5.76514 7.35443 5.94846 7 6.15623 6.66187C6.25808 6.49688 6.364 6.338 6.47807 6.18115C6.50658 6.14042 6.53714 6.10171 6.56565 6.06301C6.57584 6.04875 6.58806 6.03449 6.59825 6.02024C6.66343 5.93265 6.50047 6.14449 6.56769 6.05894C6.6288 5.98153 6.68991 5.90413 6.75509 5.8308C7.00563 5.53341 7.28062 5.25435 7.5719 4.99769C7.64319 4.93659 7.71449 4.87548 7.78782 4.81437C7.82244 4.78585 7.85707 4.75734 7.8917 4.73086C7.92633 4.70234 8.01392 4.63919 7.853 4.75937C7.8754 4.74308 7.89577 4.72678 7.91818 4.71049C8.07502 4.59234 8.23798 4.47828 8.40501 4.37236C8.77777 4.13403 9.16886 3.9283 9.57625 3.75516C9.52736 3.77553 9.47847 3.7959 9.42959 3.81627C10.0651 3.5474 10.7332 3.36407 11.4176 3.27037C11.3626 3.27852 11.3097 3.28463 11.2547 3.29278C11.9493 3.19908 12.6561 3.19908 13.3507 3.29278C13.2957 3.28463 13.2427 3.27852 13.1877 3.27037C13.8721 3.36407 14.5403 3.5474 15.1758 3.81627C15.1269 3.7959 15.078 3.77553 15.0291 3.75516C15.3937 3.90997 15.7482 4.09329 16.0863 4.30106C16.2513 4.40291 16.4102 4.50883 16.567 4.6229C16.6078 4.65142 16.6465 4.68197 16.6852 4.71049C16.6994 4.72067 16.7137 4.73289 16.7279 4.74308C16.8155 4.80826 16.6037 4.6453 16.6892 4.71252C16.7666 4.77363 16.844 4.83474 16.9174 4.89992C17.2148 5.15046 17.4938 5.42545 17.7505 5.71673C17.8116 5.78803 17.8727 5.85932 17.9338 5.93265C17.9623 5.96728 17.9908 6.0019 18.0173 6.03653C18.0458 6.07116 18.109 6.15875 17.9888 5.99783C18.0051 6.02024 18.0214 6.04061 18.0377 6.06301C18.1558 6.21986 18.2699 6.38281 18.3758 6.54984C18.6141 6.9226 18.8199 7.31369 18.993 7.72108C18.9726 7.67219 18.9523 7.6233 18.9319 7.57442C19.2008 8.20994 19.3841 8.87806 19.4778 9.56247C19.4696 9.50747 19.4635 9.45451 19.4554 9.39951C19.5165 9.85579 19.5267 10.3121 19.5267 10.7704C19.5267 11.2613 19.5267 11.7522 19.5267 12.2431C19.5267 13.4693 19.5267 14.6976 19.5267 15.9238C19.5267 16.3149 19.543 16.7141 19.4921 17.1032C19.5002 17.0482 19.5063 16.9952 19.5145 16.9402C19.4696 17.258 19.3841 17.5697 19.2619 17.8671C19.2822 17.8182 19.3026 17.7693 19.323 17.7204C19.2293 17.9445 19.1132 18.1583 18.9787 18.36C18.9462 18.4089 18.9115 18.4557 18.8789 18.5026C18.8036 18.6085 18.9686 18.3926 18.9013 18.4741C18.885 18.4944 18.8687 18.5168 18.8504 18.5372C18.773 18.6309 18.6936 18.7185 18.608 18.804C18.5225 18.8896 18.4328 18.9711 18.3412 19.0464C18.3208 19.0627 18.3004 19.0811 18.278 19.0974C18.1945 19.1646 18.3982 19.0077 18.3167 19.0668C18.2658 19.1035 18.2149 19.1401 18.164 19.1748C17.9623 19.3092 17.7484 19.4253 17.5244 19.519C17.5733 19.4986 17.6221 19.4783 17.671 19.4579C17.3736 19.5801 17.064 19.6657 16.7442 19.7105C16.7992 19.7023 16.8522 19.6962 16.9072 19.6881C16.5772 19.7329 16.2431 19.7227 15.9111 19.7227C15.4956 19.7227 15.08 19.7227 14.6645 19.7227C14.5627 19.7227 14.4588 19.7227 14.3569 19.7227C14.0371 19.7227 13.7316 20.0038 13.7459 20.3338C13.7601 20.6658 14.0147 20.9449 14.3569 20.9449C14.8743 20.9449 15.3937 20.9449 15.9111 20.9449C16.1067 20.9449 16.3042 20.9489 16.4998 20.9428C17.0722 20.9286 17.6181 20.7962 18.1416 20.5741C19.0663 20.181 19.8607 19.4253 20.2966 18.5189C20.5451 18.0056 20.6898 17.4719 20.7387 16.9036C20.7509 16.7529 20.7509 16.6021 20.7509 16.4514C20.7509 16.0114 20.7509 15.5714 20.7509 15.1294C20.7509 14.4552 20.7509 13.783 20.7509 13.1088C20.7509 12.4916 20.7509 11.8744 20.7509 11.2572C20.7509 10.9842 20.7509 10.7133 20.7509 10.4404C20.7488 9.44025 20.5737 8.42993 20.2152 7.49498C19.8506 6.54169 19.3311 5.66988 18.663 4.89788C18.0336 4.1707 17.2657 3.5474 16.4265 3.07483C15.5709 2.59411 14.6238 2.25598 13.6522 2.10525C12.6011 1.94433 11.5439 1.9647 10.501 2.18876C9.54773 2.39449 8.61889 2.77947 7.798 3.30296C6.96286 3.83664 6.22752 4.50679 5.62255 5.29101C5.01147 6.08134 4.54298 6.96741 4.24151 7.9207C3.98078 8.74158 3.85449 9.60932 3.85449 10.4689C3.85449 10.8681 3.85449 11.2674 3.85449 11.6666C3.85449 12.3429 3.85449 13.0171 3.85449 13.6934C3.85449 14.227 3.85449 14.7607 3.85449 15.2924C3.85449 15.3738 3.85449 15.4574 3.85449 15.5388C3.85449 15.8586 4.13559 16.1642 4.46557 16.1499C4.79556 16.1438 5.07665 15.8892 5.07665 15.547Z" fill="#FF9900"/>
</g>
</g>
<g id="Group_8">
<path id="Vector_6" d="M14.3561 20.3363C14.3561 21.0289 13.7898 21.5951 13.0973 21.5951H11.7285C11.3822 21.5951 11.0685 21.4546 10.8404 21.2265C10.6122 20.9983 10.4717 20.6785 10.4717 20.3322C10.4717 19.6397 11.0379 19.0693 11.7305 19.0693H13.0973C13.4436 19.0693 13.7573 19.216 13.9854 19.4441C14.2135 19.6723 14.3561 19.99 14.3561 20.3363Z" fill="#FF9900"/>
<g id="Group_9">
<path id="Vector_7" d="M13.9483 20.3361C13.9483 20.3647 13.9483 20.3932 13.9463 20.4217C13.9463 20.4319 13.9442 20.44 13.9442 20.4502C13.9402 20.495 13.9402 20.4869 13.9483 20.4237C13.9565 20.4278 13.9239 20.5459 13.9198 20.5582C13.9157 20.5704 13.8892 20.6845 13.877 20.6865C13.8831 20.6702 13.8913 20.6539 13.8974 20.6396C13.8892 20.6559 13.8831 20.6722 13.875 20.6885C13.8628 20.713 13.8505 20.7354 13.8363 20.7598C13.822 20.7822 13.8098 20.8046 13.7935 20.827C13.7894 20.8352 13.7833 20.8413 13.7792 20.8494C13.7589 20.878 13.7589 20.878 13.7792 20.8515C13.7854 20.8454 13.7894 20.8372 13.7955 20.8311C13.7854 20.8454 13.7731 20.8576 13.7609 20.8718C13.7426 20.8922 13.7263 20.9106 13.708 20.9309C13.6774 20.9635 13.6428 20.992 13.6102 21.0205C13.545 21.0776 13.6693 20.988 13.6183 21.0124C13.5919 21.0267 13.5674 21.047 13.5409 21.0633C13.5022 21.0857 13.4635 21.1061 13.4228 21.1265C13.3393 21.1692 13.5104 21.0979 13.4207 21.1265C13.3983 21.1326 13.378 21.1407 13.3576 21.1489C13.3087 21.1631 13.2619 21.1733 13.2109 21.1835C13.1315 21.2018 13.2374 21.1794 13.2374 21.1815C13.2334 21.1916 13.1376 21.1896 13.1254 21.1896C13.0643 21.1916 13.0052 21.1896 12.9441 21.1896C12.6773 21.1896 12.4104 21.1896 12.1456 21.1896C12.0336 21.1896 11.9216 21.1896 11.8116 21.1896C11.7871 21.1896 11.7606 21.1896 11.7362 21.1896C11.7219 21.1896 11.7097 21.1896 11.6975 21.1896C11.669 21.1896 11.6425 21.1855 11.614 21.1855C11.5834 21.1815 11.5916 21.1835 11.6405 21.1896C11.6201 21.1855 11.5977 21.1815 11.5773 21.1774C11.5244 21.1672 11.4755 21.1509 11.4225 21.1346C11.3227 21.1041 11.4958 21.1754 11.4021 21.1285C11.3797 21.1163 11.3553 21.1061 11.3329 21.0918C11.286 21.0654 11.227 21.0368 11.1883 20.9981C11.2514 21.0592 11.2107 21.0165 11.1985 21.0043C11.1679 20.9757 11.1373 20.9493 11.1088 20.9187C11.0905 20.9004 11.0742 20.88 11.0559 20.8596C11.0131 20.8148 11.1068 20.9391 11.0518 20.8556C11.0233 20.8107 10.9948 20.768 10.9703 20.7211C10.9561 20.6946 10.9398 20.6661 10.9296 20.6356C10.9642 20.7333 10.9316 20.6295 10.9255 20.6152C10.9072 20.5582 10.8787 20.4869 10.8807 20.4278C10.8787 20.5154 10.8848 20.4604 10.8827 20.438C10.8827 20.4054 10.8787 20.3708 10.8787 20.3382C10.8787 20.3239 10.8746 20.2037 10.8868 20.1976C10.8848 20.216 10.8827 20.2323 10.8787 20.2506C10.8807 20.2323 10.8848 20.2139 10.8888 20.1956C10.8929 20.1773 10.897 20.1589 10.9011 20.1426C10.9072 20.1161 10.9153 20.0897 10.9235 20.0652C10.9275 20.053 10.9561 19.9471 10.9398 20.0123C10.9255 20.0734 10.9459 20 10.952 19.9878C10.9642 19.9634 10.9764 19.941 10.9907 19.9165C10.9988 19.9002 11.0518 19.8025 11.064 19.8045C11.0538 19.8188 11.0436 19.831 11.0335 19.8452C11.0436 19.831 11.0559 19.8188 11.0681 19.8045C11.0803 19.7902 11.0905 19.778 11.1027 19.7658C11.1394 19.7271 11.1781 19.6925 11.2188 19.6578C11.2881 19.5967 11.1435 19.7067 11.2209 19.6578C11.2433 19.6436 11.2657 19.6273 11.2881 19.6151C11.3268 19.5927 11.3655 19.5723 11.4062 19.5519C11.4836 19.5112 11.341 19.5682 11.396 19.556C11.4164 19.5519 11.4388 19.5397 11.4592 19.5336C11.5121 19.5173 11.5651 19.5051 11.6181 19.4949C11.7118 19.4745 11.5223 19.501 11.6201 19.4949C11.6384 19.4928 11.6568 19.4928 11.6751 19.4908C11.6955 19.4908 11.7179 19.4888 11.7382 19.4888C11.7627 19.4888 11.7892 19.4888 11.8136 19.4888C12.0723 19.4888 12.329 19.4888 12.5876 19.4888C12.72 19.4888 12.8524 19.4888 12.9869 19.4888C13.0215 19.4888 13.0541 19.4888 13.0887 19.4888C13.0989 19.4888 13.1091 19.4888 13.1193 19.4888C13.1478 19.4888 13.1743 19.4908 13.2028 19.4928C13.2496 19.4969 13.2456 19.4969 13.1926 19.4908C13.213 19.4949 13.2354 19.499 13.2558 19.503C13.3087 19.5152 13.3963 19.5234 13.4391 19.558C13.3841 19.5152 13.4024 19.5397 13.4289 19.554C13.4656 19.5723 13.5043 19.5906 13.5389 19.613C13.5613 19.6273 13.5837 19.6415 13.6041 19.6558C13.6896 19.7149 13.5756 19.6232 13.6326 19.6782C13.6774 19.721 13.7222 19.7658 13.765 19.8106C13.8363 19.8839 13.7222 19.7413 13.7772 19.8269C13.7935 19.8534 13.8118 19.8778 13.8281 19.9063C13.8444 19.9328 13.8587 19.9613 13.8729 19.9899C13.8872 20.0163 13.9341 20.0754 13.8831 20.0082C13.9157 20.051 13.9259 20.1386 13.9381 20.1915C13.9422 20.2139 13.9768 20.3076 13.9442 20.2119C13.9544 20.2424 13.9483 20.2974 13.9483 20.3361C13.9504 20.55 14.1337 20.7537 14.3557 20.7435C14.5737 20.7333 14.7651 20.5643 14.7631 20.3361C14.7549 19.7189 14.4026 19.1119 13.8342 18.8451C13.5959 18.7331 13.3515 18.672 13.0867 18.6699C12.9991 18.6699 12.9115 18.6699 12.8219 18.6699C12.5204 18.6699 12.2169 18.6699 11.9155 18.6699C11.5651 18.6699 11.2331 18.7066 10.9194 18.8797C10.4407 19.1425 10.1372 19.6314 10.0741 20.1671C10.0007 20.7863 10.3144 21.3913 10.8277 21.7335C11.1557 21.9514 11.5284 22.0003 11.9093 22.0003C12.2088 22.0003 12.5082 22.0003 12.8076 22.0003C13.1845 22.0003 13.5389 21.982 13.8831 21.8027C14.4229 21.5196 14.757 20.9391 14.7631 20.3341C14.7651 20.1202 14.5737 19.9165 14.3557 19.9267C14.1337 19.9389 13.9504 20.108 13.9483 20.3361Z" fill="#FF9900"/>
</g>
</g>
</g>
</g>
</svg>
