<svg width="96" height="96" viewBox="0 0 96 96" fill="none" xmlns="http://www.w3.org/2000/svg">
<path d="M81.0947 28.8247C82.3605 37.5701 76.2971 45.6858 67.5516 46.9516C58.8062 48.2174 50.6905 42.1539 49.4247 33.4085C48.1589 24.6631 54.2224 16.5474 62.9678 15.2816C71.7132 14.0158 79.8289 20.0792 81.0947 28.8247Z" fill="#021024" fill-opacity="0.1"/>
<path d="M77.9825 28.2647C79.0901 35.917 73.7846 43.0182 66.1323 44.1257C58.4801 45.2333 51.3789 39.9278 50.2713 32.2755C49.1637 24.6233 54.4692 17.5221 62.1215 16.4145C69.7737 15.3069 76.875 20.6125 77.9825 28.2647Z" fill="#FFCF23"/>
<path fill-rule="evenodd" clip-rule="evenodd" d="M79.9619 27.9782C81.2277 36.7237 75.1642 44.8394 66.4188 46.1051C57.6734 47.3709 49.5577 41.3075 48.2919 32.562C47.0261 23.8166 53.0896 15.7009 61.835 14.4351C70.5804 13.1694 78.6961 19.2328 79.9619 27.9782ZM66.1323 44.1258C73.7846 43.0182 79.0901 35.917 77.9825 28.2647C76.875 20.6125 69.7737 15.307 62.1215 16.4145C54.4692 17.5221 49.1637 24.6233 50.2713 32.2756C51.3788 39.9278 58.4801 45.2333 66.1323 44.1258Z" fill="#B96F00"/>
<path fill-rule="evenodd" clip-rule="evenodd" d="M62.5511 19.3836C56.5386 20.2538 52.37 25.8333 53.2402 31.8458C54.1105 37.8583 59.69 42.0269 65.7025 41.1567C71.715 40.2865 75.8836 34.7069 75.0134 28.6944C74.1431 22.682 68.5636 18.5133 62.5511 19.3836ZM51.2609 32.1323C50.2324 25.0266 55.159 18.4326 62.2646 17.4042C69.3703 16.3757 75.9643 21.3023 76.9927 28.4079C78.0212 35.5136 73.0946 42.1076 65.989 43.1361C58.8833 44.1645 52.2893 39.238 51.2609 32.1323Z" fill="#F9B300"/>
<path fill-rule="evenodd" clip-rule="evenodd" d="M62.8376 21.3629C57.9183 22.0749 54.5076 26.64 55.2196 31.5593C55.2987 32.1059 54.9198 32.6131 54.3732 32.6922C53.8266 32.7713 53.3193 32.3924 53.2402 31.8458C52.37 25.8333 56.5386 20.2538 62.5511 19.3835C63.0977 19.3044 63.6049 19.6834 63.684 20.23C63.7632 20.7766 63.3842 21.2838 62.8376 21.3629Z" fill="#FFE792"/>
<path fill-rule="evenodd" clip-rule="evenodd" d="M58.7227 21.7941C59.0649 22.2276 58.9908 22.8564 58.5573 23.1986C57.9616 23.6688 57.429 24.2116 56.9713 24.8116C56.6364 25.2508 56.0089 25.3352 55.5698 25.0003C55.1306 24.6654 55.0462 24.0379 55.3811 23.5987C55.9397 22.8664 56.59 22.2035 57.3182 21.6287C57.7517 21.2865 58.3806 21.3606 58.7227 21.7941Z" fill="#FFF8DF"/>
<path d="M73.7374 26.8582C73.8165 27.4048 73.4375 27.912 72.8909 27.9912C72.3443 28.0703 71.8371 27.6913 71.758 27.1447C71.6789 26.5981 72.0578 26.0909 72.6044 26.0118C73.151 25.9327 73.6583 26.3116 73.7374 26.8582Z" fill="#F9B300"/>
<path d="M76.2899 30.5306C76.369 31.0772 75.99 31.5844 75.4434 31.6635C74.8968 31.7426 74.3896 31.3637 74.3105 30.8171C74.2314 30.2705 74.6103 29.7633 75.1569 29.6841C75.7035 29.605 76.2107 29.984 76.2899 30.5306Z" fill="#F9B300"/>
<path d="M74.8834 34.7757C74.9625 35.3223 74.5835 35.8295 74.0369 35.9086C73.4903 35.9878 72.9831 35.6088 72.904 35.0622C72.8249 34.5156 73.2038 34.0084 73.7504 33.9293C74.297 33.8502 74.8042 34.2291 74.8834 34.7757Z" fill="#F9B300"/>
<path d="M70.3646 38.461C70.4437 39.0076 70.0647 39.5148 69.5181 39.5939C68.9715 39.6731 68.4643 39.2941 68.3852 38.7475C68.3061 38.2009 68.685 37.6937 69.2316 37.6146C69.7782 37.5355 70.2855 37.9144 70.3646 38.461Z" fill="#F9B300"/>
<path d="M67.6819 40.8702C67.7611 41.4168 67.3821 41.924 66.8355 42.0031C66.2889 42.0822 65.7817 41.7033 65.7026 41.1567C65.6235 40.6101 66.0024 40.1029 66.549 40.0237C67.0956 39.9446 67.6028 40.3236 67.6819 40.8702Z" fill="#F9B300"/>
<path d="M73.4639 31.95C73.543 32.4966 73.1641 33.0038 72.6175 33.083C72.0709 33.1621 71.5637 32.7831 71.4846 32.2365C71.4054 31.6899 71.7844 31.1827 72.331 31.1036C72.8776 31.0245 73.3848 31.4034 73.4639 31.95Z" fill="#F9B300"/>
<path d="M71.0547 29.2674C71.1339 29.814 70.7549 30.3212 70.2083 30.4003C69.6617 30.4795 69.1545 30.1005 69.0754 29.5539C68.9963 29.0073 69.3752 28.5001 69.9218 28.421C70.4684 28.3419 70.9756 28.7208 71.0547 29.2674Z" fill="#F9B300"/>
<path d="M71.9144 35.2054C71.9935 35.752 71.6145 36.2592 71.0679 36.3383C70.5213 36.4174 70.0141 36.0385 69.935 35.4919C69.8559 34.9453 70.2348 34.4381 70.7814 34.359C71.328 34.2798 71.8353 34.6588 71.9144 35.2054Z" fill="#F9B300"/>
<path d="M59.5252 25.4737L61.159 36.7623L59.1101 37.0588L57.822 28.1594L55.2379 29.4491L54.9984 27.7945L59.2932 25.5072L59.5252 25.4737Z" fill="#B96F00"/>
<path d="M71.4467 28.5398L71.7209 30.4341C71.8462 31.3001 71.8656 32.0524 71.7792 32.6912C71.6927 33.33 71.5128 33.8691 71.2396 34.3086C70.9657 34.743 70.6128 35.0861 70.1809 35.3381C69.7482 35.5849 69.251 35.749 68.6891 35.8303C68.2407 35.8952 67.8149 35.8989 67.4119 35.8415C67.0082 35.7789 66.6341 35.6488 66.2898 35.4513C65.9499 35.2479 65.6415 34.9715 65.3646 34.6222C65.0929 34.2721 64.8593 33.8401 64.6639 33.3263C64.4737 32.8118 64.3286 32.2092 64.2286 31.5185L63.9544 29.6242C63.8291 28.7582 63.81 28.0084 63.8973 27.3748C63.9896 26.7404 64.1728 26.2061 64.4467 25.7717C64.7207 25.3374 65.0743 24.9994 65.5077 24.7577C65.9404 24.5109 66.4376 24.3469 66.9995 24.2655C67.4531 24.1999 67.8788 24.1962 68.2767 24.2543C68.6797 24.3118 69.0508 24.4396 69.39 24.6379C69.7336 24.8302 70.0412 25.1015 70.3129 25.4516C70.5839 25.7965 70.8145 26.2263 71.0047 26.7408C71.1994 27.2494 71.3467 27.8491 71.4467 28.5398ZM69.7199 31.0079L69.364 28.5491C69.3014 28.1161 69.2211 27.7436 69.1233 27.4315C69.0299 27.1134 68.9204 26.8477 68.7948 26.6344C68.6692 26.421 68.5268 26.2548 68.3674 26.1358C68.2074 26.0116 68.0323 25.929 67.8422 25.8881C67.6521 25.8472 67.4488 25.8424 67.2323 25.8738C66.9642 25.9126 66.7324 26.0014 66.5367 26.1402C66.3403 26.2739 66.1863 26.4646 66.0748 26.7123C65.9633 26.96 65.8961 27.2776 65.8733 27.665C65.8548 28.0466 65.8844 28.5055 65.962 29.0415L66.3179 31.5003C66.3805 31.9333 66.4586 32.3088 66.552 32.6268C66.6505 32.9441 66.763 33.212 66.8893 33.4305C67.0208 33.6483 67.1644 33.8222 67.3201 33.9523C67.4801 34.0765 67.6556 34.1616 67.8464 34.2077C68.0366 34.2486 68.2399 34.2534 68.4564 34.222C68.7296 34.1825 68.9614 34.0937 69.1519 33.9556C69.3476 33.8167 69.5008 33.6209 69.6116 33.3681C69.7216 33.1101 69.7854 32.7877 69.8031 32.401C69.8252 32.0083 69.7975 31.544 69.7199 31.0079Z" fill="#B96F00"/>
<path d="M61.0166 78.9619C58.7295 87.4973 49.9561 92.5627 41.4207 90.2756C32.8852 87.9885 27.8199 79.2151 30.1069 70.6797C32.394 62.1442 41.1674 57.0789 49.7029 59.366C58.2383 61.653 63.3036 70.4264 61.0166 78.9619Z" fill="#021024" fill-opacity="0.1"/>
<path d="M58.3778 77.2194C56.3766 84.6879 48.6999 89.12 41.2314 87.1189C33.7628 85.1177 29.3307 77.441 31.3319 69.9724C33.333 62.5039 41.0098 58.0717 48.4783 60.0729C55.9468 62.0741 60.379 69.7508 58.3778 77.2194Z" fill="#FFCF23"/>
<path fill-rule="evenodd" clip-rule="evenodd" d="M60.3095 77.737C58.0225 86.2725 49.2491 91.3378 40.7136 89.0507C32.1782 86.7637 27.1128 77.9903 29.3999 69.4548C31.687 60.9194 40.4604 55.854 48.9958 58.1411C57.5313 60.4282 62.5966 69.2016 60.3095 77.737ZM41.2313 87.1189C48.6998 89.1201 56.3765 84.6879 58.3777 77.2194C60.3789 69.7509 55.9467 62.0741 48.4782 60.073C41.0097 58.0718 33.3329 62.5039 31.3318 69.9725C29.3306 77.441 33.7627 85.1177 41.2313 87.1189Z" fill="#B96F00"/>
<path fill-rule="evenodd" clip-rule="evenodd" d="M47.7018 62.9708C41.8336 61.3985 35.8019 64.8809 34.2296 70.749C32.6572 76.6171 36.1396 82.6488 42.0077 84.2212C47.8759 85.7935 53.9076 82.3111 55.4799 76.443C57.0523 70.5749 53.5699 64.5432 47.7018 62.9708ZM32.2977 70.2314C34.1559 63.2963 41.2843 59.1807 48.2194 61.039C55.1544 62.8972 59.27 70.0256 57.4118 76.9606C55.5535 83.8957 48.4252 88.0113 41.4901 86.153C34.555 84.2948 30.4395 77.1664 32.2977 70.2314Z" fill="#F9B300"/>
<path fill-rule="evenodd" clip-rule="evenodd" d="M47.1842 64.9026C42.383 63.6162 37.448 66.4654 36.1615 71.2666C36.0186 71.8001 35.4702 72.1166 34.9368 71.9737C34.4033 71.8308 34.0867 71.2824 34.2297 70.749C35.802 64.8808 41.8337 61.3984 47.7018 62.9708C48.2353 63.1137 48.5519 63.6621 48.409 64.1955C48.266 64.729 47.7177 65.0456 47.1842 64.9026Z" fill="#FFE792"/>
<path fill-rule="evenodd" clip-rule="evenodd" d="M43.2328 63.6751C43.3762 64.2084 43.0601 64.757 42.5267 64.9004C41.7938 65.0974 41.0903 65.3861 40.433 65.7569C39.952 66.0283 39.3421 65.8584 39.0707 65.3773C38.7993 64.8963 38.9693 64.2864 39.4503 64.015C40.2524 63.5625 41.1115 63.2098 42.0075 62.969C42.5408 62.8256 43.0894 63.1417 43.2328 63.6751Z" fill="#FFF8DF"/>
<path d="M55.0314 74.2524C54.8885 74.7858 54.3402 75.1024 53.8067 74.9595C53.2732 74.8165 52.9566 74.2682 53.0996 73.7347C53.2425 73.2013 53.7909 72.8847 54.3243 73.0276C54.8578 73.1706 55.1744 73.7189 55.0314 74.2524Z" fill="#F9B300"/>
<path d="M55.9282 78.6337C55.7852 79.1672 55.2369 79.4838 54.7034 79.3408C54.1699 79.1979 53.8534 78.6495 53.9963 78.1161C54.1392 77.5826 54.6876 77.266 55.2211 77.409C55.7545 77.5519 56.0711 78.1002 55.9282 78.6337Z" fill="#F9B300"/>
<path d="M52.9609 81.9797C52.8179 82.5131 52.2696 82.8297 51.7361 82.6868C51.2027 82.5438 50.8861 81.9955 51.029 81.462C51.172 80.9286 51.7203 80.612 52.2538 80.7549C52.7872 80.8979 53.1038 81.4462 52.9609 81.9797Z" fill="#F9B300"/>
<path d="M47.3549 83.5834C47.212 84.1169 46.6636 84.4335 46.1302 84.2905C45.5967 84.1476 45.2801 83.5992 45.4231 83.0658C45.566 82.5323 46.1143 82.2157 46.6478 82.3587C47.1813 82.5016 47.4979 83.05 47.3549 83.5834Z" fill="#F9B300"/>
<path d="M43.9394 84.7389C43.7964 85.2724 43.2481 85.589 42.7146 85.446C42.1812 85.3031 41.8646 84.7548 42.0075 84.2213C42.1505 83.6878 42.6988 83.3712 43.2323 83.5142C43.7657 83.6571 44.0823 84.2055 43.9394 84.7389Z" fill="#F9B300"/>
<path d="M52.7714 78.8232C52.6285 79.3566 52.0801 79.6732 51.5467 79.5303C51.0132 79.3873 50.6966 78.839 50.8396 78.3055C50.9825 77.7721 51.5308 77.4555 52.0643 77.5984C52.5978 77.7414 52.9144 78.2897 52.7714 78.8232Z" fill="#F9B300"/>
<path d="M51.6161 75.4076C51.4732 75.9411 50.9249 76.2577 50.3914 76.1147C49.8579 75.9718 49.5414 75.4235 49.6843 74.89C49.8272 74.3565 50.3756 74.0399 50.909 74.1829C51.4425 74.3258 51.7591 74.8742 51.6161 75.4076Z" fill="#F9B300"/>
<path d="M50.0632 81.2033C49.9202 81.7368 49.3719 82.0533 48.8384 81.9104C48.305 81.7675 47.9884 81.2191 48.1313 80.6857C48.2743 80.1522 48.8226 79.8356 49.3561 79.9785C49.8895 80.1215 50.2061 80.6698 50.0632 81.2033Z" fill="#F9B300"/>
<path d="M42.5185 67.3729L39.5664 78.3905L37.5666 77.8547L39.8939 69.1689L37.0106 69.3345L37.4433 67.7196L42.2921 67.3122L42.5185 67.3729Z" fill="#B96F00"/>
<path d="M52.2635 74.8935L51.7681 76.7424C51.5416 77.5876 51.2626 78.2866 50.9312 78.8394C50.5997 79.3922 50.2218 79.8167 49.7973 80.1128C49.3743 80.4038 48.9146 80.5799 48.4183 80.641C47.9234 80.6971 47.4017 80.6517 46.8534 80.5048C46.4157 80.3875 46.023 80.223 45.6754 80.0112C45.329 79.7944 45.0366 79.5273 44.7981 79.21C44.566 78.889 44.3917 78.5134 44.2751 78.0831C44.1636 77.6542 44.1194 77.1652 44.1425 76.616C44.1707 76.0681 44.2751 75.4572 44.4557 74.783L44.9511 72.9342C45.1776 72.089 45.4559 71.3925 45.786 70.8447C46.1211 70.2982 46.5002 69.8795 46.9233 69.5884C47.3464 69.2974 47.8047 69.1263 48.2983 69.0753C48.7932 69.0192 49.3149 69.0646 49.8632 69.2115C50.3059 69.3301 50.6986 69.4947 51.0412 69.7051C51.3889 69.9169 51.6795 70.1807 51.9129 70.4967C52.1528 70.809 52.3285 71.1796 52.44 71.6085C52.5529 72.0324 52.5953 72.5183 52.5671 73.0661C52.5453 73.6102 52.4441 74.2194 52.2635 74.8935ZM49.703 76.4802L50.346 74.0805C50.4593 73.6579 50.5325 73.2839 50.5658 72.9585C50.6054 72.6294 50.6096 72.3421 50.5784 72.0965C50.5472 71.8508 50.4818 71.6419 50.3824 71.4697C50.2843 71.2924 50.156 71.1475 49.9974 71.0349C49.8389 70.9223 49.6539 70.8377 49.4426 70.7811C49.181 70.711 48.9329 70.7012 48.6984 70.7516C48.4651 70.7969 48.2484 70.9114 48.0483 71.095C47.8481 71.2786 47.6611 71.5439 47.4872 71.891C47.3197 72.2343 47.1659 72.6676 47.0257 73.1908L46.3827 75.5905C46.2694 76.0131 46.193 76.389 46.1534 76.718C46.1187 77.0485 46.1164 77.339 46.1463 77.5896C46.1812 77.8416 46.2445 78.0581 46.3362 78.2391C46.4343 78.4163 46.562 78.5638 46.7192 78.6814C46.8777 78.794 47.0627 78.8786 47.2739 78.9352C47.5406 79.0066 47.7887 79.0165 48.0182 78.9647C48.2528 78.9144 48.4708 78.7949 48.6724 78.6062C48.8752 78.4125 49.0611 78.1415 49.2299 77.7931C49.4051 77.4411 49.5629 77.0034 49.703 76.4802Z" fill="#B96F00"/>
<path d="M44.2756 58.4207C46.5627 66.9561 41.4973 75.7295 32.9619 78.0166C24.4264 80.3036 15.653 75.2383 13.366 66.7029C11.0789 58.1674 16.1442 49.394 24.6797 47.1069C33.2151 44.8199 41.9885 49.8852 44.2756 58.4207Z" fill="#021024" fill-opacity="0.1"/>
<path d="M41.1189 58.2314C43.12 65.6999 38.6879 73.3766 31.2194 75.3778C23.7508 77.379 16.0741 72.9468 14.0729 65.4783C12.0717 58.0098 16.5039 50.333 23.9724 48.3319C31.441 46.3307 39.1177 50.7628 41.1189 58.2314Z" fill="#CEDAEA"/>
<path fill-rule="evenodd" clip-rule="evenodd" d="M43.0507 57.7136C45.3378 66.2491 40.2725 75.0225 31.737 77.3095C23.2016 79.5966 14.4282 74.5313 12.1411 65.9958C9.85404 57.4604 14.9194 48.687 23.4548 46.3999C31.9903 44.1128 40.7637 49.1782 43.0507 57.7136ZM31.2194 75.3777C38.6879 73.3765 43.1201 65.6998 41.1189 58.2313C39.1177 50.7627 31.441 46.3306 23.9725 48.3318C16.5039 50.3329 12.0718 58.0097 14.073 65.4782C16.0741 72.9467 23.7509 77.3789 31.2194 75.3777Z" fill="#6A7788"/>
<path fill-rule="evenodd" clip-rule="evenodd" d="M24.749 51.2296C18.8809 52.8019 15.3985 58.8336 16.9708 64.7018C18.5432 70.5699 24.5749 74.0523 30.443 72.4799C36.3111 70.9076 39.7935 64.8759 38.2212 59.0077C36.6488 53.1396 30.6171 49.6572 24.749 51.2296ZM15.039 65.2194C13.1807 58.2843 17.2963 51.1559 24.2314 49.2977C31.1664 47.4395 38.2948 51.555 40.153 58.4901C42.0113 65.4252 37.8957 72.5535 30.9606 74.4118C24.0256 76.27 16.8972 72.1544 15.039 65.2194Z" fill="#ACB7C5"/>
<path fill-rule="evenodd" clip-rule="evenodd" d="M25.2666 53.1615C20.4654 54.448 17.6162 59.383 18.9026 64.1842C19.0456 64.7177 18.729 65.266 18.1955 65.409C17.6621 65.5519 17.1137 65.2353 16.9708 64.7018C15.3984 58.8337 18.8808 52.802 24.749 51.2297C25.2824 51.0867 25.8308 51.4033 25.9737 51.9368C26.1166 52.4702 25.8001 53.0186 25.2666 53.1615Z" fill="#E2EFFF"/>
<path fill-rule="evenodd" clip-rule="evenodd" d="M21.2308 54.0742C21.6217 54.4644 21.6222 55.0976 21.232 55.4884C20.6958 56.0256 20.2309 56.6273 19.8471 57.2771C19.5662 57.7526 18.953 57.9104 18.4775 57.6295C18.002 57.3486 17.8442 56.7354 18.125 56.2599C18.5935 55.4669 19.1612 54.732 19.8166 54.0754C20.2068 53.6845 20.84 53.684 21.2308 54.0742Z" fill="#FEFFFF"/>
<path d="M36.7375 57.3348C36.8805 57.8682 36.5639 58.4166 36.0304 58.5595C35.497 58.7024 34.9486 58.3859 34.8057 57.8524C34.6628 57.3189 34.9793 56.7706 35.5128 56.6277C36.0463 56.4847 36.5946 56.8013 36.7375 57.3348Z" fill="#ACB7C5"/>
<path d="M39.7048 60.681C39.8478 61.2144 39.5312 61.7628 38.9977 61.9057C38.4643 62.0486 37.9159 61.7321 37.773 61.1986C37.63 60.6651 37.9466 60.1168 38.4801 59.9738C39.0136 59.8309 39.5619 60.1475 39.7048 60.681Z" fill="#ACB7C5"/>
<path d="M38.8081 65.0621C38.951 65.5955 38.6345 66.1439 38.101 66.2868C37.5675 66.4297 37.0192 66.1132 36.8763 65.5797C36.7333 65.0462 37.0499 64.4979 37.5834 64.355C38.1168 64.212 38.6652 64.5286 38.8081 65.0621Z" fill="#ACB7C5"/>
<path d="M34.7551 69.254C34.8981 69.7874 34.5815 70.3358 34.048 70.4787C33.5146 70.6216 32.9662 70.3051 32.8233 69.7716C32.6803 69.2381 32.9969 68.6898 33.5304 68.5468C34.0638 68.4039 34.6122 68.7205 34.7551 69.254Z" fill="#ACB7C5"/>
<path d="M32.375 71.9624C32.5179 72.4959 32.2014 73.0443 31.6679 73.1872C31.1344 73.3301 30.5861 73.0136 30.4431 72.4801C30.3002 71.9466 30.6168 71.3983 31.1503 71.2553C31.6837 71.1124 32.2321 71.429 32.375 71.9624Z" fill="#ACB7C5"/>
<path d="M37.0659 62.4231C37.2089 62.9566 36.8923 63.5049 36.3588 63.6479C35.8253 63.7908 35.277 63.4742 35.1341 62.9408C34.9911 62.4073 35.3077 61.859 35.8412 61.716C36.3746 61.5731 36.923 61.8897 37.0659 62.4231Z" fill="#ACB7C5"/>
<path d="M34.3574 60.043C34.5004 60.5765 34.1838 61.1248 33.6503 61.2678C33.1168 61.4107 32.5685 61.0941 32.4256 60.5607C32.2826 60.0272 32.5992 59.4788 33.1327 59.3359C33.6661 59.193 34.2145 59.5095 34.3574 60.043Z" fill="#ACB7C5"/>
<path d="M35.9104 65.8387C36.0533 66.3721 35.7368 66.9205 35.2033 67.0634C34.6698 67.2064 34.1215 66.8898 33.9785 66.3563C33.8356 65.8228 34.1522 65.2745 34.6857 65.1316C35.2191 64.9886 35.7675 65.3052 35.9104 65.8387Z" fill="#ACB7C5"/>
<path d="M25.7339 63.1463L24.0385 63.1881L23.1636 57.4777L29.2082 55.8581L29.651 57.5107L25.2591 58.6876L25.6598 61.3301C25.7901 61.1928 25.9909 61.0365 26.2621 60.8614C26.537 60.6799 26.8631 60.5386 27.2404 60.4375C27.7636 60.2973 28.2544 60.2575 28.7128 60.318C29.1698 60.3735 29.5841 60.5213 29.9558 60.7614C30.3325 61.0001 30.6552 61.3289 30.9237 61.7476C31.196 62.1599 31.409 62.6528 31.5626 63.2264C31.6974 63.7294 31.7487 64.2226 31.7164 64.7057C31.6878 65.1825 31.5684 65.6324 31.3582 66.0554C31.1466 66.4733 30.8383 66.8417 30.433 67.1606C30.0264 67.4744 29.5137 67.7143 28.8949 67.8801C28.4271 68.0054 27.9586 68.0582 27.4896 68.0383C27.0242 68.012 26.5847 67.9113 26.1712 67.7364C25.7563 67.5564 25.3932 67.2978 25.0817 66.9607C24.7754 66.6222 24.544 66.2016 24.3878 65.6988L26.3574 65.1711C26.4829 65.4987 26.6503 65.7612 26.8595 65.9586C27.0688 66.1559 27.3085 66.2858 27.5786 66.3482C27.8538 66.4093 28.1499 66.3974 28.4668 66.3125C28.7536 66.2356 28.9859 66.1167 29.1639 65.9558C29.3455 65.7885 29.478 65.5886 29.5612 65.356C29.6445 65.1234 29.6831 64.865 29.6771 64.5808C29.671 64.2967 29.6255 63.9961 29.5406 63.6792C29.4584 63.3723 29.3458 63.1032 29.203 62.8719C29.0588 62.6355 28.8837 62.4452 28.6779 62.3008C28.4721 62.1565 28.2375 62.0657 27.974 62.0284C27.7157 61.9898 27.4305 62.0123 27.1186 62.0958C26.701 62.2077 26.3959 62.3569 26.2032 62.5433C26.0156 62.7284 25.8591 62.9294 25.7339 63.1463Z" fill="#6A7788"/>
<path d="M90.0166 57.9619C87.7295 66.4973 78.9561 71.5627 70.4207 69.2756C61.8852 66.9885 56.8199 58.2151 59.1069 49.6797C61.394 41.1442 70.1674 36.0789 78.7029 38.366C87.2383 40.653 92.3036 49.4264 90.0166 57.9619Z" fill="#021024" fill-opacity="0.1"/>
<path d="M87.3778 56.2194C85.3766 63.6879 77.6999 68.12 70.2314 66.1189C62.7628 64.1177 58.3307 56.441 60.3319 48.9724C62.333 41.5039 70.0098 37.0717 77.4783 39.0729C84.9468 41.0741 89.379 48.7508 87.3778 56.2194Z" fill="#CEDAEA"/>
<path fill-rule="evenodd" clip-rule="evenodd" d="M89.3095 56.737C87.0225 65.2725 78.2491 70.3378 69.7136 68.0507C61.1782 65.7637 56.1128 56.9903 58.3999 48.4548C60.687 39.9194 69.4604 34.854 77.9958 37.1411C86.5313 39.4282 91.5966 48.2016 89.3095 56.737ZM70.2313 66.1189C77.6998 68.1201 85.3765 63.6879 87.3777 56.2194C89.3789 48.7509 84.9467 41.0741 77.4782 39.073C70.0097 37.0718 62.3329 41.5039 60.3318 48.9725C58.3306 56.441 62.7627 64.1177 70.2313 66.1189Z" fill="#6A7788"/>
<path fill-rule="evenodd" clip-rule="evenodd" d="M76.7018 41.9708C70.8336 40.3985 64.8019 43.8809 63.2296 49.749C61.6572 55.6171 65.1396 61.6488 71.0077 63.2212C76.8759 64.7935 82.9076 61.3111 84.4799 55.443C86.0523 49.5749 82.5699 43.5432 76.7018 41.9708ZM61.2977 49.2314C63.1559 42.2963 70.2843 38.1807 77.2194 40.039C84.1544 41.8972 88.27 49.0256 86.4118 55.9606C84.5535 62.8957 77.4252 67.0113 70.4901 65.153C63.555 63.2948 59.4395 56.1664 61.2977 49.2314Z" fill="#ACB7C5"/>
<path fill-rule="evenodd" clip-rule="evenodd" d="M76.1842 43.9026C71.383 42.6162 66.448 45.4654 65.1615 50.2666C65.0186 50.8001 64.4702 51.1166 63.9368 50.9737C63.4033 50.8308 63.0867 50.2824 63.2297 49.749C64.802 43.8808 70.8337 40.3984 76.7018 41.9708C77.2353 42.1137 77.5519 42.6621 77.409 43.1955C77.266 43.729 76.7177 44.0456 76.1842 43.9026Z" fill="#E2EFFF"/>
<path fill-rule="evenodd" clip-rule="evenodd" d="M72.2328 42.6751C72.3762 43.2084 72.0601 43.757 71.5267 43.9004C70.7938 44.0974 70.0903 44.3861 69.433 44.7569C68.952 45.0283 68.3421 44.8584 68.0707 44.3773C67.7993 43.8963 67.9693 43.2864 68.4503 43.015C69.2524 42.5625 70.1115 42.2098 71.0075 41.969C71.5408 41.8256 72.0894 42.1417 72.2328 42.6751Z" fill="#FEFFFF"/>
<path d="M84.0314 53.2524C83.8885 53.7858 83.3402 54.1024 82.8067 53.9595C82.2732 53.8165 81.9566 53.2682 82.0996 52.7347C82.2425 52.2013 82.7909 51.8847 83.3243 52.0276C83.8578 52.1706 84.1744 52.7189 84.0314 53.2524Z" fill="#ACB7C5"/>
<path d="M84.9282 57.6337C84.7852 58.1672 84.2369 58.4838 83.7034 58.3408C83.1699 58.1979 82.8534 57.6495 82.9963 57.1161C83.1392 56.5826 83.6876 56.266 84.2211 56.409C84.7545 56.5519 85.0711 57.1002 84.9282 57.6337Z" fill="#ACB7C5"/>
<path d="M81.9609 60.9797C81.8179 61.5131 81.2696 61.8297 80.7361 61.6868C80.2027 61.5438 79.8861 60.9955 80.029 60.462C80.172 59.9286 80.7203 59.612 81.2538 59.7549C81.7872 59.8979 82.1038 60.4462 81.9609 60.9797Z" fill="#ACB7C5"/>
<path d="M76.3549 62.5834C76.212 63.1169 75.6636 63.4335 75.1302 63.2905C74.5967 63.1476 74.2801 62.5992 74.4231 62.0658C74.566 61.5323 75.1143 61.2157 75.6478 61.3587C76.1813 61.5016 76.4979 62.05 76.3549 62.5834Z" fill="#ACB7C5"/>
<path d="M72.9394 63.7389C72.7964 64.2724 72.2481 64.589 71.7146 64.446C71.1812 64.3031 70.8646 63.7548 71.0075 63.2213C71.1505 62.6878 71.6988 62.3712 72.2323 62.5142C72.7657 62.6571 73.0823 63.2055 72.9394 63.7389Z" fill="#ACB7C5"/>
<path d="M81.7714 57.8232C81.6285 58.3566 81.0801 58.6732 80.5467 58.5303C80.0132 58.3873 79.6966 57.839 79.8396 57.3055C79.9825 56.7721 80.5308 56.4555 81.0643 56.5984C81.5978 56.7414 81.9144 57.2897 81.7714 57.8232Z" fill="#ACB7C5"/>
<path d="M80.6161 54.4076C80.4732 54.9411 79.9249 55.2577 79.3914 55.1147C78.8579 54.9718 78.5414 54.4235 78.6843 53.89C78.8272 53.3565 79.3756 53.0399 79.909 53.1829C80.4425 53.3258 80.7591 53.8742 80.6161 54.4076Z" fill="#ACB7C5"/>
<path d="M79.0632 60.2033C78.9202 60.7368 78.3719 61.0533 77.8384 60.9104C77.305 60.7675 76.9884 60.2191 77.1313 59.6857C77.2743 59.1522 77.8226 58.8356 78.3561 58.9785C78.8895 59.1215 79.2061 59.6698 79.0632 60.2033Z" fill="#ACB7C5"/>
<path d="M71.5963 52.7834L70.1072 51.9719L72.2046 46.5891L78.2492 48.2088L77.8064 49.8614L73.4144 48.6846L72.4402 51.1735C72.6217 51.1197 72.8737 51.0848 73.1962 51.0687C73.525 51.049 73.8781 51.0897 74.2554 51.1908C74.7786 51.331 75.2235 51.5419 75.5902 51.8235C75.9583 52.1 76.2432 52.4352 76.4451 52.829C76.6519 53.2241 76.767 53.6701 76.7902 54.167C76.8198 54.6602 76.7578 55.1936 76.6041 55.7671C76.4693 56.2702 76.2671 56.7229 75.9976 57.1252C75.7344 57.5237 75.406 57.8537 75.0125 58.1149C74.6204 58.3711 74.1691 58.5359 73.6587 58.6094C73.1497 58.678 72.5857 58.6293 71.967 58.4635C71.4991 58.3381 71.067 58.1496 70.6708 57.8978C70.2809 57.6424 69.9506 57.3355 69.68 56.9772C69.4107 56.6139 69.2254 56.2083 69.1243 55.7607C69.0282 55.3143 69.0382 54.8344 69.1542 54.3209L71.1238 54.8487C71.0687 55.1952 71.0824 55.5062 71.165 55.7817C71.2475 56.0573 71.3901 56.2896 71.5929 56.4787C71.8007 56.6692 72.063 56.8069 72.38 56.8918C72.6667 56.9687 72.9274 56.9819 73.162 56.9315C73.4029 56.8775 73.6176 56.7705 73.806 56.6107C73.9944 56.4509 74.1571 56.2465 74.2939 55.9973C74.4307 55.7482 74.5416 55.4652 74.6266 55.1483C74.7088 54.8414 74.7459 54.5521 74.7378 54.2803C74.7311 54.0035 74.6747 53.7511 74.5686 53.5232C74.4625 53.2953 74.3047 53.0993 74.0953 52.9354C73.8908 52.7727 73.6326 52.6496 73.3207 52.566C72.9031 52.4542 72.5643 52.4308 72.3042 52.4959C72.0492 52.5623 71.8132 52.6582 71.5963 52.7834Z" fill="#6A7788"/>
<path d="M42.6978 26.7968C40.7679 35.42 32.2129 40.8461 23.5897 38.9162C14.9664 36.9863 9.54037 28.4313 11.4702 19.8081C13.4001 11.1849 21.9551 5.75881 30.5784 7.68869C39.2016 9.61856 44.6276 18.1736 42.6978 26.7968Z" fill="#021024" fill-opacity="0.1"/>
<path d="M39.9884 25.1656C38.2998 32.7109 30.8142 37.4587 23.2689 35.7701C15.7235 34.0814 10.9757 26.5958 12.6644 19.0505C14.353 11.5051 21.8386 6.75734 29.384 8.44598C36.9293 10.1346 41.6771 17.6202 39.9884 25.1656Z" fill="#EAA683"/>
<path fill-rule="evenodd" clip-rule="evenodd" d="M41.9402 25.6025C40.0103 34.2257 31.4553 39.6517 22.8321 37.7219C14.2088 35.792 8.7828 27.237 10.7127 18.6138C12.6426 9.99052 21.1976 4.56447 29.8208 6.49435C38.444 8.42423 43.8701 16.9792 41.9402 25.6025ZM23.2689 35.7702C30.8142 37.4588 38.2998 32.711 39.9885 25.1657C41.6771 17.6203 36.9293 10.1347 29.384 8.44607C21.8387 6.75743 14.353 11.5052 12.6644 19.0506C10.9758 26.5959 15.7235 34.0815 23.2689 35.7702Z" fill="#A35530"/>
<path fill-rule="evenodd" clip-rule="evenodd" d="M28.7289 11.3736C22.8004 10.0469 16.9188 13.7773 15.5921 19.7057C14.2653 25.6342 17.9957 31.5158 23.9241 32.8426C29.8526 34.1694 35.7342 30.4389 37.061 24.5105C38.3878 18.582 34.6574 12.7004 28.7289 11.3736ZM13.6403 19.2689C15.2084 12.2626 22.1593 7.8539 29.1657 9.42192C36.1721 10.9899 40.5807 17.9409 39.0127 24.9473C37.4447 31.9536 30.4937 36.3623 23.4874 34.7943C16.481 33.2263 12.0723 26.2753 13.6403 19.2689Z" fill="#D8754B"/>
<path fill-rule="evenodd" clip-rule="evenodd" d="M28.2921 13.3253C23.4415 12.2397 18.6293 15.2919 17.5437 20.1424C17.4231 20.6814 16.8884 21.0205 16.3495 20.8999C15.8105 20.7793 15.4714 20.2446 15.592 19.7057C16.9188 13.7772 22.8004 10.0468 28.7288 11.3736C29.2678 11.4942 29.6069 12.0289 29.4863 12.5678C29.3657 13.1068 28.831 13.4459 28.2921 13.3253Z" fill="#FFC4A7"/>
<path fill-rule="evenodd" clip-rule="evenodd" d="M24.2931 12.2635C24.4586 12.7904 24.1655 13.3517 23.6386 13.5172C22.9145 13.7446 22.2236 14.0622 21.5824 14.4601C21.1131 14.7512 20.4966 14.6068 20.2054 14.1375C19.9143 13.6682 20.0587 13.0517 20.528 12.7606C21.3106 12.275 22.1543 11.887 23.0394 11.609C23.5664 11.4436 24.1276 11.7366 24.2931 12.2635Z" fill="#FFE9DF"/>
<path d="M36.5219 22.3401C36.4013 22.8791 35.8666 23.2182 35.3276 23.0976C34.7887 22.977 34.4496 22.4423 34.5702 21.9034C34.6908 21.3644 35.2255 21.0253 35.7644 21.1459C36.3034 21.2665 36.6425 21.8012 36.5219 22.3401Z" fill="#D8754B"/>
<path d="M37.6 26.6805C37.4794 27.2194 36.9447 27.5586 36.4058 27.4379C35.8668 27.3173 35.5277 26.7826 35.6483 26.2437C35.7689 25.7047 36.3036 25.3656 36.8426 25.4862C37.3815 25.6068 37.7206 26.1415 37.6 26.6805Z" fill="#D8754B"/>
<path d="M34.7748 30.147C34.6542 30.686 34.1195 31.0251 33.5806 30.9045C33.0416 30.7839 32.7025 30.2492 32.8231 29.7102C32.9437 29.1713 33.4784 28.8322 34.0174 28.9528C34.5563 29.0734 34.8954 29.6081 34.7748 30.147Z" fill="#D8754B"/>
<path d="M29.2402 31.9827C29.1195 32.5217 28.5849 32.8608 28.0459 32.7402C27.5069 32.6196 27.1678 32.0849 27.2884 31.5459C27.4091 31.007 27.9437 30.6678 28.4827 30.7885C29.0216 30.9091 29.3608 31.4438 29.2402 31.9827Z" fill="#D8754B"/>
<path d="M25.8759 33.2794C25.7553 33.8183 25.2206 34.1574 24.6816 34.0368C24.1427 33.9162 23.8036 33.3815 23.9242 32.8426C24.0448 32.3036 24.5795 31.9645 25.1184 32.0851C25.6574 32.2057 25.9965 32.7404 25.8759 33.2794Z" fill="#D8754B"/>
<path d="M34.454 27.001C34.3334 27.54 33.7987 27.8791 33.2598 27.7585C32.7208 27.6379 32.3817 27.1032 32.5023 26.5642C32.6229 26.0253 33.1576 25.6862 33.6966 25.8068C34.2355 25.9274 34.5746 26.4621 34.454 27.001Z" fill="#D8754B"/>
<path d="M33.1576 23.6368C33.037 24.1757 32.5023 24.5149 31.9634 24.3942C31.4244 24.2736 31.0853 23.7389 31.2059 23.2C31.3265 22.661 31.8612 22.3219 32.4002 22.4425C32.9391 22.5631 33.2783 23.0978 33.1576 23.6368Z" fill="#D8754B"/>
<path d="M31.8471 29.492C31.7265 30.031 31.1918 30.3701 30.6528 30.2495C30.1139 30.1288 29.7748 29.5942 29.8954 29.0552C30.016 28.5163 30.5507 28.1771 31.0896 28.2977C31.6286 28.4184 31.9677 28.953 31.8471 29.492Z" fill="#D8754B"/>
<path d="M28.6126 17.0798L26.1215 28.2107L24.1012 27.7586L26.065 18.9835L23.1911 19.269L23.5562 17.6375L28.3839 17.0287L28.6126 17.0798Z" fill="#A35530"/>
</svg>
