<svg width="49" height="48" viewBox="0 0 49 48" fill="none" xmlns="http://www.w3.org/2000/svg">
<rect x="0.5" width="48" height="48" rx="24" fill="#FFF7EB"/>
<g clip-path="url(#clip0_7110_8364)">
<g filter="url(#filter0_d_7110_8364)">
<rect x="21.0889" y="16.6201" width="7.01648" height="2.12937" fill="#FF9900"/>
<path d="M21.2461 11.4187H28.2626L27.3375 15.2935L21.7174 15.3807L21.2461 11.4187Z" fill="#FF9900"/>
<path d="M33.9983 31.2043C33.9983 35.9344 29.5859 36.8457 24.4593 36.8457C19.3327 36.8457 15.0742 35.3703 15.0742 30.6402C15.0742 25.9101 19.3327 19.7166 24.4593 19.7166C29.5859 19.7166 33.9983 26.4743 33.9983 31.2043Z" fill="#FF9900"/>
<path d="M24.5006 27.3359C24.0483 27.3359 23.6803 26.9679 23.6803 26.5156C23.6802 26.3543 23.7276 26.1965 23.8167 26.062C23.9058 25.9275 24.0326 25.8223 24.1812 25.7596C24.5486 25.604 24.9881 25.7368 25.3876 26.1237C25.713 26.439 26.2323 26.4307 26.5475 26.1054C26.8628 25.78 26.8545 25.2607 26.5292 24.9455C26.1588 24.5867 25.7471 24.3331 25.321 24.19V23.2344C25.321 22.7813 24.9537 22.4141 24.5006 22.4141C24.0476 22.4141 23.6803 22.7813 23.6803 23.2344V24.1953C23.6335 24.2118 23.5872 24.2296 23.5414 24.2488C23.0958 24.4369 22.7156 24.7524 22.4485 25.1556C22.1814 25.5588 22.0392 26.0319 22.0397 26.5156C22.0397 27.8726 23.1437 28.9766 24.5006 28.9766C24.953 28.9766 25.321 29.3446 25.321 29.7969C25.321 30.1406 25.1041 30.4506 24.7814 30.5681C24.36 30.7215 23.8696 30.5134 23.4358 29.9969C23.1444 29.65 22.627 29.605 22.2801 29.8964C21.9331 30.1877 21.8881 30.7052 22.1795 31.0521C22.623 31.5801 23.1391 31.9422 23.6804 32.1244V33.0781C23.6804 33.5312 24.0477 33.8984 24.5007 33.8984C24.9537 33.8984 25.321 33.5312 25.321 33.0781V32.1171C25.3283 32.1145 25.3357 32.1123 25.3429 32.1097C26.3111 31.757 26.9616 30.8276 26.9616 29.7969C26.9616 28.4399 25.8576 27.3359 24.5006 27.3359Z" fill="white"/>
<path d="M31.864 23.0323C30.889 21.8328 30.008 20.1638 28.7845 19.4766C28.9895 19.2338 29.1459 18.9537 29.2451 18.6518C29.6457 17.4318 29.0605 15.9825 27.5668 15.5104L29.1782 11.9807C29.4424 11.5199 29.6876 10.8115 29.1782 10.6634C27.6642 10.2232 24.6141 10.6634 24.6141 10.6634C24.6141 10.6634 21.3364 10.2232 19.8225 10.6634C19.3124 10.8117 19.2987 11.5205 19.5626 11.9807L21.4338 15.5105C19.9461 15.9802 19.3535 17.4273 19.7558 18.6524C19.8549 18.9542 20.0113 19.234 20.2166 19.4764C18.993 20.1636 18.2578 21.8327 17.2827 23.0323C15.3336 25.4302 14.165 27.7414 14.165 30.6172C14.165 36.5832 18.5967 37.5176 24.5003 37.5176C30.4082 37.5176 34.6459 36.5807 34.6459 30.6172C34.6459 27.7414 33.813 25.4302 31.864 23.0323ZM21.3009 11.9807C22.3523 11.7542 23.4248 11.7272 24.5003 11.7276C25.5758 11.7272 26.6484 11.7542 27.6998 11.9807L26.9956 13.6283L25.8933 15.1308C24.9691 15.0017 24.0315 15.0017 23.1074 15.1309L21.8368 13.6283L21.3009 11.9807ZM21.8368 17.1037C23.2486 16.6406 24.7256 16.5529 26.1615 16.8399L26.1667 16.8409C26.5036 16.9085 26.8362 16.9962 27.1627 17.1034C27.5926 17.245 27.8275 17.7101 27.6866 18.1392C27.6376 18.2892 27.5464 18.4218 27.4238 18.521C27.3012 18.6203 27.1525 18.682 26.9956 18.6987C26.1777 18.4426 25.3434 18.3125 24.5003 18.3125C23.6589 18.3125 22.8263 18.442 22.01 18.6971C21.6869 18.6639 21.4158 18.4483 21.3143 18.14C21.1731 17.7101 21.4081 17.245 21.8368 17.1037ZM24.5003 36.3704C18.0912 36.3704 15.4769 34.6958 15.4769 30.6172C15.4769 28.1485 16.486 25.4332 18.1763 23.3538C19.9588 21.1608 22.2047 19.9532 24.5003 19.9532C27.0272 19.9532 29.2374 21.4014 30.8244 23.3538C32.5146 25.4332 33.5238 28.1485 33.5238 30.6172C33.5238 34.6958 30.9095 36.3704 24.5003 36.3704Z" fill="#002E23"/>
</g>
</g>
<defs>
<filter id="filter0_d_7110_8364" x="12.165" y="10.4678" width="22.4805" height="29.0498" filterUnits="userSpaceOnUse" color-interpolation-filters="sRGB">
<feFlood flood-opacity="0" result="BackgroundImageFix"/>
<feColorMatrix in="SourceAlpha" type="matrix" values="0 0 0 0 0 0 0 0 0 0 0 0 0 0 0 0 0 0 127 0" result="hardAlpha"/>
<feOffset dx="-1" dy="1"/>
<feGaussianBlur stdDeviation="0.5"/>
<feComposite in2="hardAlpha" operator="out"/>
<feColorMatrix type="matrix" values="0 0 0 0 0.208542 0 0 0 0 0.116458 0 0 0 0 0.116458 0 0 0 0.28 0"/>
<feBlend mode="normal" in2="BackgroundImageFix" result="effect1_dropShadow_7110_8364"/>
<feBlend mode="normal" in="SourceGraphic" in2="effect1_dropShadow_7110_8364" result="shape"/>
</filter>
<clipPath id="clip0_7110_8364">
<rect width="28" height="28" fill="white" transform="translate(10.5 10)"/>
</clipPath>
</defs>
</svg>
