<svg width="28" height="29" viewBox="0 0 28 29" fill="none" xmlns="http://www.w3.org/2000/svg">
<g id="icon/tiktok" clip-path="url(#clip0_1912_12085)">
<g id="Group">
<path id="Vector" d="M14 28.5547C21.732 28.5547 28 22.2867 28 14.5547C28 6.8227 21.732 0.554688 14 0.554688C6.26801 0.554688 0 6.8227 0 14.5547C0 22.2867 6.26801 28.5547 14 28.5547Z" fill="#060606"/>
<g id="Group_2">
<g id="Group_3">
<path id="Vector_2" d="M10.2658 20.1746C10.2866 20.1954 10.3073 20.1954 10.3073 20.2161C10.4525 20.3198 10.577 20.4858 10.7221 20.6102C11.1784 20.9835 11.6969 21.1909 12.2984 21.2117C13.7088 21.2946 14.9325 20.2369 15.0984 18.8472C15.0984 18.785 15.0984 18.7021 15.0984 18.6398C15.0984 14.4502 15.0984 10.2606 15.0984 6.07095C15.0984 5.78058 15.0984 5.78058 15.3888 5.78058C16.0318 5.78058 16.654 5.78058 17.297 5.78058C17.3592 5.78058 17.4214 5.75983 17.4836 5.80132C17.4836 5.80132 17.4836 5.80132 17.5044 5.80132C17.5251 5.8428 17.5458 5.86354 17.5458 5.90502C17.7947 7.02502 18.3755 7.93761 19.3088 8.62206C19.371 8.66354 19.4125 8.72576 19.4747 8.76724C19.5162 8.80872 19.5577 8.82946 19.5992 8.87095C19.7444 8.95391 19.8481 9.09909 19.9932 9.2028C20.5118 9.63835 21.0925 9.92872 21.7355 10.0946C21.7977 10.1154 21.8599 10.1154 21.9014 10.1569C21.9014 10.1569 21.9014 10.1569 21.9221 10.1569C21.9636 10.1984 21.9636 10.2398 21.9636 10.3021C21.9636 11.0487 21.9636 11.7747 21.9636 12.5213C21.9636 12.6872 21.9429 12.708 21.7769 12.708C21.2377 12.708 20.6984 12.6458 20.1799 12.5213C19.2673 12.3139 18.4377 11.9406 17.6703 11.4428C17.6288 11.4221 17.5873 11.3598 17.5458 11.3806C17.4836 11.4013 17.5251 11.4843 17.5251 11.5258C17.5251 13.5998 17.5251 15.6739 17.5251 17.7687C17.5251 19.2206 17.0481 20.5272 16.094 21.6265C15.0777 22.8087 13.7918 23.4932 12.2569 23.6798C11.0747 23.825 9.93399 23.6176 8.87621 23.0784C8.71028 22.9954 8.54436 22.8917 8.37843 22.7672C8.33695 22.7258 8.27473 22.6843 8.23325 22.6428C7.85991 22.3317 7.61102 21.9376 7.36214 21.5435C6.9888 20.9213 6.76065 20.2576 6.63621 19.5317C6.57399 19.1169 6.53251 18.7021 6.55325 18.308C6.63621 16.9806 7.07177 15.7984 7.92214 14.7613C8.64806 13.8902 9.53991 13.2887 10.5977 12.9361C11.0332 12.7909 11.4895 12.6872 11.9666 12.6665C12.0495 12.6665 12.1325 12.6458 12.2362 12.6458C12.2777 12.6458 12.3192 12.6458 12.3607 12.6665C12.3607 12.6665 12.3607 12.6665 12.3814 12.6665C12.4021 12.708 12.4021 12.7495 12.4021 12.7909C12.4021 13.5376 12.4021 14.2843 12.4021 15.0309C12.4021 15.0517 12.4021 15.0932 12.4021 15.1139C12.4021 15.1969 12.3607 15.2176 12.2984 15.1969C12.091 15.1346 11.8836 15.1139 11.6762 15.0932C11.3444 15.0724 11.0332 15.1139 10.7221 15.2384C9.6851 15.6117 9.06288 16.3584 8.93843 17.4369C8.81399 18.5154 9.2288 19.3658 10.1207 19.988C10.1207 20.0709 10.1829 20.1124 10.2658 20.1746Z" fill="white"/>
<path id="Vector_3" d="M8.31641 22.7891C8.35789 22.7683 8.37863 22.8098 8.39937 22.8306C9.06307 23.2454 9.789 23.515 10.5564 23.6395C10.9505 23.7017 11.3446 23.7224 11.7386 23.7017C13.066 23.6395 14.2275 23.2039 15.2646 22.3535C16.2394 21.5446 16.9031 20.5076 17.2349 19.2839C17.3386 18.8898 17.4009 18.4957 17.4216 18.1017C17.4423 17.8735 17.4423 17.6454 17.4423 17.4172C17.4423 15.4261 17.4423 13.4557 17.4423 11.4646C17.4423 11.4232 17.4423 11.3817 17.4423 11.3195C17.4838 11.2987 17.5253 11.3402 17.546 11.3609C18.2512 11.838 19.0186 12.2113 19.8483 12.4187C20.3046 12.5432 20.7609 12.6261 21.2379 12.6676C21.4246 12.6883 21.632 12.6883 21.8186 12.6883C21.9016 12.6883 21.9016 12.6883 21.9016 12.6054C21.9016 12.5017 21.9016 12.4187 21.9016 12.315C21.9016 11.6513 21.9016 10.9669 21.9016 10.3032C21.9016 10.2617 21.9016 10.2202 21.9016 10.1787C22.0883 10.1995 22.2542 10.2409 22.4201 10.2409C22.5238 10.2409 22.6483 10.2617 22.752 10.2617C22.8142 10.2617 22.8349 10.2824 22.8142 10.3239C22.8142 10.3446 22.8142 10.3654 22.8142 10.3861C22.8142 11.3609 22.8142 12.315 22.8142 13.2898C22.8142 13.3106 22.8142 13.3313 22.8142 13.352C22.8142 13.435 22.8142 13.435 22.7312 13.435C22.4201 13.435 22.1297 13.4143 21.8186 13.3728C21.1964 13.2898 20.6157 13.1446 20.0349 12.9165C19.4749 12.7091 18.9564 12.4187 18.4794 12.0869C18.4586 12.0661 18.4171 12.0454 18.3757 12.0246C18.3757 12.0869 18.3757 12.1283 18.3757 12.1698C18.3757 14.2854 18.3757 16.4009 18.3757 18.5165C18.3757 19.6365 18.0853 20.6943 17.4838 21.6483C16.7579 22.8098 15.7416 23.6187 14.4557 24.075C13.6675 24.3654 12.8794 24.4691 12.0497 24.4069C10.6601 24.3032 9.43641 23.7639 8.42011 22.8306C8.37863 22.8513 8.35789 22.8098 8.31641 22.7891Z" fill="#CB1C54"/>
<path id="Vector_4" d="M17.4632 5.82278C17.4217 5.82278 17.3802 5.82278 17.3387 5.82278C16.6543 5.82278 15.9698 5.82278 15.2854 5.82278C15.1195 5.82278 15.1195 5.82278 15.1195 5.96797C15.1195 10.1369 15.1195 14.3057 15.1195 18.4746C15.1195 18.765 15.0987 19.0554 15.0158 19.325C14.7047 20.2998 14.041 20.9428 13.0454 21.1709C11.9669 21.4198 11.0543 21.088 10.3284 20.2583C10.3076 20.2376 10.3076 20.2169 10.3076 20.2169C10.515 20.2998 10.7224 20.3828 10.9506 20.4243C11.6558 20.5694 12.2987 20.4657 12.921 20.0717C13.6261 19.6361 14.041 19.0139 14.1861 18.205C14.2069 18.0598 14.2276 17.8939 14.2276 17.7487C14.2276 13.5798 14.2276 9.41093 14.2276 5.2213C14.2276 5.03463 14.2069 5.05537 14.3935 5.05537C15.3476 5.05537 16.3224 5.05537 17.2765 5.05537C17.2972 5.05537 17.318 5.05537 17.3387 5.05537C17.4424 5.05537 17.4424 5.05537 17.4424 5.15908C17.4217 5.38723 17.4217 5.61537 17.4632 5.82278Z" fill="#6ABAC5"/>
<path id="Vector_5" d="M12.3194 12.668C11.7387 12.6887 11.1579 12.7717 10.5979 12.9584C9.78904 13.228 9.06312 13.6428 8.44089 14.2235C7.61126 14.9702 7.05126 15.9035 6.76089 16.9613C6.65719 17.3346 6.59497 17.7287 6.55349 18.1228C6.53274 18.3509 6.53274 18.5998 6.55349 18.828C6.59497 19.4917 6.71941 20.1346 6.9683 20.7361C7.25867 21.4206 7.632 22.0428 8.15052 22.5821C8.15052 22.6028 8.17126 22.6028 8.17126 22.6235C8.04682 22.5821 7.96386 22.4991 7.86015 22.4161C6.90608 21.6695 6.24237 20.7154 5.86904 19.5332C5.7446 19.1184 5.66163 18.7243 5.62015 18.2887C5.59941 17.9776 5.57867 17.6665 5.59941 17.3761C5.64089 16.6709 5.80682 15.9865 6.09719 15.3435C6.4083 14.6798 6.82312 14.0784 7.34163 13.5598C7.96386 12.9584 8.66904 12.5021 9.47793 12.2117C9.99645 12.025 10.515 11.9213 11.0542 11.8798C11.4483 11.8591 11.8424 11.8591 12.2157 11.9006C12.2779 11.9006 12.2987 11.9213 12.2987 11.9835C12.3194 12.2324 12.3194 12.4606 12.3194 12.668Z" fill="#6ABAC5"/>
<path id="Vector_6" d="M10.2666 20.1752C10.0384 20.0715 9.83104 19.9056 9.64437 19.7397C9.16733 19.2834 8.8977 18.7441 8.83548 18.1012C8.6903 16.753 9.54067 15.5915 10.7229 15.2182C11.2207 15.073 11.7392 15.0523 12.237 15.1975C12.2577 15.1975 12.2992 15.2182 12.3199 15.2182C12.3407 15.1767 12.3199 15.1352 12.3199 15.0937C12.3199 14.3263 12.3199 13.5797 12.3199 12.8123C12.3199 12.7708 12.3199 12.7293 12.3199 12.6878C12.6103 12.6671 12.9007 12.6878 13.191 12.7293C13.2325 12.7293 13.2533 12.75 13.2533 12.7915C13.2533 12.8123 13.2533 12.833 13.2533 12.8537C13.2533 13.8493 13.2533 14.8656 13.2533 15.8612C13.2533 15.9026 13.2533 15.9441 13.2325 15.9856C13.1081 15.9649 12.9629 15.9234 12.8384 15.9026C12.071 15.7989 11.3659 15.9856 10.7436 16.4626C10.2044 16.8775 9.87252 17.4375 9.76882 18.1219C9.64437 18.8478 9.78956 19.5115 10.2044 20.113C10.2251 20.113 10.2459 20.1545 10.2666 20.1752Z" fill="#CB1C54"/>
<path id="Vector_7" d="M19.454 8.78839C19.1636 8.62246 18.9147 8.39431 18.6659 8.16617C18.0436 7.5232 17.6288 6.7558 17.4629 5.86394V5.8432C17.7325 5.82246 18.0022 5.8432 18.2718 5.8432C18.3133 5.8432 18.334 5.86394 18.334 5.90542C18.334 5.92617 18.334 5.94691 18.334 5.96765C18.3133 6.73505 18.5414 7.4195 18.9147 8.0832C19.0392 8.31135 19.2051 8.5395 19.371 8.74691C19.4333 8.74691 19.454 8.76765 19.454 8.78839Z" fill="#CB1C54"/>
<path id="Vector_8" d="M21.8813 10.2C21.1139 10.0341 20.4295 9.68147 19.828 9.16295C19.745 9.07999 19.6413 9.01777 19.5791 8.91406C19.5998 8.91406 19.6206 8.9348 19.6413 8.9348C20.1184 9.20443 20.6161 9.37036 21.1554 9.47406C21.3628 9.51554 21.5702 9.53628 21.7776 9.53628C21.8606 9.53628 21.8606 9.53629 21.8606 9.61925C21.8813 9.80591 21.8813 9.99258 21.8813 10.2Z" fill="#6ABAC5"/>
</g>
</g>
</g>
</g>
<defs>
<clipPath id="clip0_1912_12085">
<rect width="28" height="28" fill="white" transform="translate(0 0.554688)"/>
</clipPath>
</defs>
</svg>
