<svg xmlns="http://www.w3.org/2000/svg" width="16" height="17" viewBox="0 0 16 17" fill="none">
  <path d="M5.28544 2.64118H5.14258C5.22115 2.64118 5.28544 2.5769 5.28544 2.49833V2.64118H10.714V2.49833C10.714 2.5769 10.7783 2.64118 10.8569 2.64118H10.714V3.9269H11.9997V2.49833C11.9997 1.86797 11.4872 1.35547 10.8569 1.35547H5.14258C4.51222 1.35547 3.99972 1.86797 3.99972 2.49833V3.9269H5.28544V2.64118ZM14.2854 3.9269H1.71401C1.39794 3.9269 1.14258 4.18225 1.14258 4.49833V5.06975C1.14258 5.14833 1.20686 5.21261 1.28544 5.21261H2.36401L2.80508 14.5519C2.83365 15.1608 3.33722 15.6412 3.94615 15.6412H12.0533C12.664 15.6412 13.1658 15.1626 13.1944 14.5519L13.6354 5.21261H14.714C14.7926 5.21261 14.8569 5.14833 14.8569 5.06975V4.49833C14.8569 4.18225 14.6015 3.9269 14.2854 3.9269ZM11.9158 14.3555H4.08365L3.65151 5.21261H12.3479L11.9158 14.3555Z" fill="white"/>
</svg>