<svg width="72" height="72" viewBox="0 0 72 72" fill="none" xmlns="http://www.w3.org/2000/svg">
<path d="M69.5323 2.04169C68.457 2.04169 67.2024 2.04169 66.1271 2.04169C58.779 2.40013 51.7894 4.01313 45.1582 7.23912C37.0932 11.0028 30.2828 16.3794 24.9061 23.5483C21.1425 28.3873 18.4541 33.7639 16.4827 39.499C16.3035 39.8575 16.4827 40.0367 16.6619 40.2159C18.2749 41.8289 19.8879 43.4419 21.5009 45.0549C21.6801 45.2341 21.8593 45.5926 21.8593 45.951C21.8593 46.3095 21.6801 46.6679 21.3217 46.8471C20.9632 47.0263 20.4256 47.0263 20.2463 46.6679C19.3502 45.7718 18.6334 45.0549 17.7372 44.1588C16.6619 43.0835 15.7658 42.0081 14.6905 41.112C14.332 40.7536 14.1528 40.2159 14.332 39.6783C16.6619 32.6886 20.0671 26.2366 24.9061 20.5015C29.7451 14.5872 35.6594 9.92744 42.2906 6.52223C48.3842 3.29624 55.0154 1.3248 61.8258 0.428692C64.6933 0.0702485 67.5609 -0.108973 70.4284 0.0702485C71.3245 0.0702485 71.5038 0.428692 71.683 1.3248C72.0414 12.9742 69.1739 23.7275 62.9011 33.7639C56.6284 43.6211 48.0257 50.9692 37.2724 55.629C35.6594 56.3459 33.8672 56.8835 32.075 57.6004C31.5373 57.7797 31.1789 57.7797 30.8204 57.242C29.0282 55.4498 27.0568 53.4783 25.2646 51.6861C24.9061 51.3277 24.7269 50.79 25.0853 50.2523C25.4438 49.7147 26.1607 49.7147 26.6983 50.2523C28.3113 51.8653 29.9243 53.4783 31.5373 55.0913C31.8958 55.4498 32.075 55.4498 32.4334 55.2705C40.3192 52.5822 47.3088 48.2809 53.2231 42.5458C60.2128 35.7354 64.8726 27.6704 67.5609 18.5301C68.9947 13.5119 69.7115 8.31445 69.7115 2.9378C69.7115 2.57935 69.5323 2.40013 69.5323 2.04169Z" fill="#FF0000"/>
<path d="M59.6756 23.0107C59.6756 29.1043 54.8366 33.9432 48.7431 33.9432C42.6495 33.9432 37.8105 29.1043 37.8105 23.0107C37.8105 17.0964 42.6495 12.0782 48.5639 12.0782C54.8366 12.0782 59.6756 16.9172 59.6756 23.0107ZM57.5249 23.1899C57.5249 18.1717 53.5821 14.2288 48.5639 14.2288C43.5456 14.2288 39.6028 18.1717 39.6028 23.1899C39.6028 28.2081 43.5456 32.151 48.5639 32.151C53.5821 31.9718 57.5249 28.0289 57.5249 23.1899Z" fill="#FF0000"/>
<path d="M32.2539 68.8914C33.5084 68.1745 34.763 67.2784 35.8383 66.3823C39.4228 63.1563 41.3942 59.2134 42.2903 54.5537C42.4695 53.8368 42.828 53.4783 43.3656 53.4783C44.0825 53.4783 44.441 54.016 44.441 54.7329C44.2617 55.629 44.0825 56.7043 43.7241 57.6004C41.7526 63.694 38.1682 68.1745 32.6123 71.2213C31.3578 71.9382 30.8201 71.5797 30.6409 70.3252C29.924 66.5615 29.2071 62.6186 28.4902 58.855C28.4902 58.4965 28.4902 58.1381 28.4902 57.9589C28.6695 57.6004 29.0279 57.4212 29.5656 57.4212C29.924 57.4212 30.2825 57.7797 30.4617 58.1381C30.6409 59.2134 30.8201 60.2888 31.1786 61.5433C31.3578 64.0524 31.8954 66.3823 32.2539 68.8914Z" fill="#FF0000"/>
<path d="M2.68219 39.3198C3.75752 39.499 4.83285 39.6782 5.72896 39.8574C8.23806 40.3951 10.7472 40.7536 13.077 41.2912C13.2563 41.2912 13.2563 41.2912 13.4355 41.2912C13.9732 41.4704 14.3316 42.0081 14.1524 42.5458C13.9732 43.0834 13.6147 43.4419 12.8978 43.2627C11.4641 42.9042 9.85106 42.725 8.41728 42.3666C6.0874 41.8289 3.75752 41.4704 1.24841 40.9328C1.06919 40.9328 1.06919 40.9328 0.88997 40.9328C-0.00613915 40.7536 -0.185361 40.2159 0.173083 39.3198C1.24841 37.3483 2.50297 35.3769 4.11596 33.7639C7.52117 30.1795 11.6433 28.208 16.303 27.1327C16.4823 27.1327 16.6615 27.1327 16.6615 26.9535C17.1992 26.7743 17.7368 27.1327 17.916 27.6704C18.0953 28.208 17.7368 28.7457 17.0199 28.9249C15.9446 29.2834 14.69 29.4626 13.6147 29.821C8.95495 31.434 5.37051 34.3016 2.68219 38.4237C2.86141 38.9613 2.86141 39.1406 2.68219 39.3198Z" fill="#FF0000"/>
<path d="M15.4062 55.2706C15.5855 55.0914 15.7647 54.733 15.9439 54.5537C19.3491 51.1485 22.5751 47.9225 25.9803 44.5173C27.2349 43.2628 28.3102 42.1874 29.5648 40.9329C30.1024 40.3952 30.6401 40.3952 31.1778 40.7537C31.5362 41.1121 31.5362 41.829 30.9985 42.3667C27.0557 46.3095 23.1128 50.4316 18.9907 54.3745C18.453 54.9122 17.9154 55.6291 17.1985 56.1667C16.84 56.5252 16.4816 56.5252 16.1231 56.346C15.5855 56.1667 15.4062 55.8083 15.4062 55.2706Z" fill="#FF0000"/>
<path d="M10.7462 59.9303C11.1047 60.1095 11.4631 60.2887 11.6423 60.6472C11.8216 61.0056 11.6423 61.3641 11.4631 61.7225C11.2839 61.9017 10.9254 62.2602 10.7462 62.6186C8.59556 64.7693 6.4449 67.0992 4.11502 69.2498C3.75657 69.4291 3.57735 69.6083 3.21891 69.6083C2.86047 69.6083 2.50202 69.429 2.3228 69.0706C2.14358 68.5329 2.14358 68.1745 2.50202 67.8161C3.9358 66.3823 5.36957 64.9485 6.80334 63.5147C7.87867 62.4394 8.77478 61.5433 9.85011 60.468C10.2086 60.2887 10.3878 60.1095 10.7462 59.9303Z" fill="#FF0000"/>
<path d="M9.13506 52.5822C10.0312 52.5822 10.5688 53.4783 10.2104 54.016C10.0312 54.1952 10.0312 54.3744 9.85195 54.5537C7.52206 56.8835 5.19218 59.2134 2.8623 61.5433L2.68308 61.7225C2.14541 62.081 1.60774 62.2602 1.2493 61.7225C0.890858 61.3641 0.890858 60.6472 1.2493 60.2888C3.04152 58.4965 4.83374 56.7043 6.62595 54.9121C7.34284 54.1952 7.88051 53.6575 8.59739 53.1199C8.77661 52.7614 9.13506 52.5822 9.13506 52.5822Z" fill="#FF0000"/>
<path d="M19.1709 62.6188C19.1709 62.798 18.9917 62.9772 18.8125 63.3357C16.3034 65.8448 13.9735 68.1747 11.4644 70.6838C10.9267 71.2214 10.389 71.2214 9.85138 70.6838C9.49293 70.3253 9.49293 69.6084 10.0306 69.25C12.5397 66.7409 14.8696 64.411 17.3787 61.9019C17.7371 61.5435 18.0956 61.3642 18.6332 61.5435C18.9917 61.7227 19.1709 61.9019 19.1709 62.6188Z" fill="#FF0000"/>
</svg>
