<svg width="72" height="36" viewBox="0 0 72 36" fill="none" xmlns="http://www.w3.org/2000/svg">
<path d="M13.0832 11.2911C12.5455 11.6495 12.1871 12.008 11.4702 12.3664C9.67802 13.2625 7.88576 13.8002 6.27276 14.8755C3.04677 17.0262 3.04673 19.7145 6.45194 21.5067C9.85715 23.2989 13.4416 24.5535 17.2052 25.2704C21.865 26.1665 26.5248 26.5249 31.3638 27.0626C33.3352 27.2418 35.3067 27.0626 37.4574 27.0626C37.4574 25.6288 37.6366 24.195 37.6366 22.4028C39.7872 24.9119 41.5794 27.0626 43.5509 29.2132C41.9379 30.8262 39.9664 32.7977 37.6366 35.3068C37.6366 33.5146 37.4574 32.26 37.4574 31.0055C32.26 30.647 27.0625 30.2886 22.0443 29.7509C16.1299 29.034 10.3948 27.9587 5.01819 25.0911C2.6883 23.8366 0 22.4028 0 19.356C0 16.1301 2.6883 14.6963 5.01819 13.4417C7.34807 12.1872 9.85724 11.4703 12.3663 10.395C12.7248 10.7534 12.9039 11.1118 13.0832 11.2911Z" fill="#FF0000"/>
<path d="M46.9558 30.1093C46.5973 26.5248 46.5973 26.7041 49.4648 26.1664C54.1246 25.0911 58.7844 23.8365 63.2649 22.4027C65.2364 21.8651 67.2078 20.4313 67.2078 18.1014C67.2078 15.7715 65.0572 14.8754 63.4442 13.9793C62.1896 13.2624 60.935 12.904 59.6805 12.3663C59.1428 12.1871 58.7844 11.6494 58.6052 10.9326C62.9065 11.8287 66.8493 12.904 70.0753 16.13C72.0468 18.1014 72.0468 20.4313 70.0753 22.4027C69 23.4781 67.7455 24.3742 66.3117 25.0911C60.3974 28.1378 53.7662 29.2132 46.9558 30.1093Z" fill="#FF0000"/>
<path d="M59.1439 6.10352e-05C57.3517 6.10352e-05 55.918 1.43384 55.918 3.22605C55.918 5.01827 57.3517 6.45204 59.1439 6.45204C60.9362 6.45204 62.3699 5.01827 62.3699 3.22605C62.3699 1.43384 60.9362 6.10352e-05 59.1439 6.10352e-05ZM59.1439 4.48061C58.4271 4.48061 57.7102 3.94294 57.7102 3.04683C57.7102 2.32995 58.2478 1.61306 59.1439 1.61306C59.8608 1.61306 60.5777 2.15072 60.5777 3.04683C60.5777 3.94294 59.8608 4.48061 59.1439 4.48061Z" fill="#FF0000"/>
<path d="M27.0633 13.6207C27.0633 16.6674 24.7335 18.9973 21.5075 18.9973C18.4607 18.9973 16.1309 16.8467 16.1309 13.7999H18.8192C18.9984 15.4129 20.0737 16.4882 21.6867 16.4882C23.2997 16.4882 24.5543 15.2337 24.5543 13.4414C24.5543 11.6492 23.2998 10.5739 21.3283 10.5739H19.3568V10.0362L22.7621 4.83879H16.6685V2.50891H26.705V3.04658L23.1206 8.60245C25.2712 9.14012 27.0633 11.1116 27.0633 13.6207Z" fill="#FF0000"/>
<path d="M41.2212 13.4415C41.2212 16.6675 38.7121 19.1766 35.3069 19.1766C31.7224 19.1766 29.3926 16.8467 29.3926 13.4415C29.3926 12.0077 29.9302 10.2155 31.1848 8.06481L34.4108 2.32971H37.2783C35.3068 5.73493 34.59 7.1687 33.8731 8.42325C34.59 8.24403 35.1276 8.06481 35.8445 8.06481C38.7121 8.06481 41.2212 10.2155 41.2212 13.4415ZM38.5328 13.4415C38.5328 11.47 37.0991 10.2155 35.3069 10.2155C33.3354 10.2155 32.0809 11.47 32.0809 13.4415C32.0809 15.2337 33.5147 16.6675 35.3069 16.6675C37.0991 16.6675 38.5328 15.2337 38.5328 13.4415Z" fill="#FF0000"/>
<path d="M43.0137 10.574C43.0137 5.37656 45.5227 2.15057 49.4656 2.15057C53.4085 2.15057 55.9177 5.37656 55.9177 10.574C55.9177 15.7714 53.4085 18.9974 49.4656 18.9974C45.5227 18.9974 43.0137 15.7714 43.0137 10.574ZM53.2293 10.574C53.2293 6.81034 51.7955 4.65968 49.4656 4.65968C47.1357 4.65968 45.702 6.81034 45.702 10.574C45.702 14.3377 47.1357 16.4883 49.4656 16.4883C51.7955 16.6675 53.2293 14.3377 53.2293 10.574Z" fill="#FF0000"/>
</svg>
