<svg width="24" height="24" viewBox="0 0 24 24" fill="none" xmlns="http://www.w3.org/2000/svg">
<path d="M14.4143 21.5H9.58716L10.6741 19.1338C11.0996 19.2265 11.5433 19.2764 12.0002 19.2764C12.4572 19.2764 12.901 19.2265 13.3264 19.1338L14.4143 21.5Z" stroke="#FF9900"/>
<path d="M16.6863 13.0623C16.5457 13.1129 16.4359 13.1993 16.363 13.2781L16.3621 13.2791C16.2032 13.4516 16.1455 13.6808 16.1609 13.8757V13.8767C16.1677 13.9632 16.1726 14.0229 16.1726 14.0818C16.1726 16.0364 14.3579 17.7263 11.9998 17.7263C9.83996 17.7261 8.13794 16.3084 7.86694 14.5681H11.9998C12.1674 14.5681 12.3212 14.5122 12.448 14.4216C12.5749 14.5126 12.7292 14.568 12.8972 14.5681H13.571C13.999 14.5681 14.3464 14.2207 14.3464 13.7927C14.3462 13.4543 14.1286 13.1676 13.8259 13.0623H16.6863ZM12.6423 13.0623C12.5722 13.0867 12.5073 13.1214 12.448 13.1638C12.3888 13.1216 12.3245 13.0866 12.2546 13.0623H12.6423Z" stroke="#FF9900"/>
<path d="M12.0002 4.7998C12.957 4.7998 13.7365 5.57912 13.7366 6.53613V8.81152C13.7366 9.76858 12.9571 10.5479 12.0002 10.5479C11.0432 10.5477 10.2639 9.76845 10.2639 8.81152V6.53613L10.2727 6.35938C10.3617 5.48509 11.103 4.79991 12.0002 4.7998Z" stroke="#FF9900"/>
<path d="M12.0007 2.5C14.2258 2.50016 16.0369 4.31181 16.0369 6.53711V8.81152C16.0369 9.8202 15.6664 10.7665 14.9871 11.5127H13.8699C14.7252 10.9189 15.2859 9.92964 15.2859 8.81152V6.53711C15.2859 4.7248 13.813 3.25113 12.0007 3.25098C10.1882 3.25098 8.7146 4.72465 8.7146 6.53711V8.81152C8.7146 9.9296 9.27534 10.9189 10.1306 11.5127H9.01343C8.33408 10.7665 7.96362 9.82017 7.96362 8.81152V6.53711L7.96851 6.3291C8.07693 4.19974 9.84488 2.5 12.0007 2.5Z" stroke="#FF9900"/>
</svg>
